%FSLAX34Y34*%
G04 Gerber Fmt 3.4, Leading zero omitted, Abs format*
G04 (created by PCBNEW (2013-jul-14)-product) date Saturday 22 February 2014 12:24:09 PM IST*
%MOIN*%
G01*
G70*
G90*
G04 APERTURE LIST*
%ADD10C,0.005906*%
%ADD11C,0.011811*%
%ADD12C,0.003937*%
G04 APERTURE END LIST*
G54D10*
G54D11*
X69551Y-32020D02*
X69551Y-31683D01*
X69551Y-31851D02*
X70141Y-31851D01*
X70057Y-31795D01*
X70001Y-31739D01*
X69973Y-31683D01*
X69607Y-32273D02*
X69579Y-32301D01*
X69551Y-32273D01*
X69579Y-32245D01*
X69607Y-32273D01*
X69551Y-32273D01*
X70141Y-32498D02*
X70141Y-32892D01*
X69551Y-32639D01*
X70141Y-33398D02*
X70141Y-33117D01*
X69860Y-33089D01*
X69888Y-33117D01*
X69916Y-33173D01*
X69916Y-33314D01*
X69888Y-33370D01*
X69860Y-33398D01*
X69804Y-33426D01*
X69663Y-33426D01*
X69607Y-33398D01*
X69579Y-33370D01*
X69551Y-33314D01*
X69551Y-33173D01*
X69579Y-33117D01*
X69607Y-33089D01*
X70141Y-33792D02*
X70141Y-33848D01*
X70113Y-33904D01*
X70085Y-33932D01*
X70029Y-33960D01*
X69916Y-33989D01*
X69776Y-33989D01*
X69663Y-33960D01*
X69607Y-33932D01*
X69579Y-33904D01*
X69551Y-33848D01*
X69551Y-33792D01*
X69579Y-33735D01*
X69607Y-33707D01*
X69663Y-33679D01*
X69776Y-33651D01*
X69916Y-33651D01*
X70029Y-33679D01*
X70085Y-33707D01*
X70113Y-33735D01*
X70141Y-33792D01*
X70141Y-34354D02*
X70141Y-34410D01*
X70113Y-34467D01*
X70085Y-34495D01*
X70029Y-34523D01*
X69916Y-34551D01*
X69776Y-34551D01*
X69663Y-34523D01*
X69607Y-34495D01*
X69579Y-34467D01*
X69551Y-34410D01*
X69551Y-34354D01*
X69579Y-34298D01*
X69607Y-34270D01*
X69663Y-34242D01*
X69776Y-34214D01*
X69916Y-34214D01*
X70029Y-34242D01*
X70085Y-34270D01*
X70113Y-34298D01*
X70141Y-34354D01*
X69551Y-35254D02*
X69945Y-35254D01*
X70141Y-35254D02*
X70113Y-35226D01*
X70085Y-35254D01*
X70113Y-35282D01*
X70141Y-35254D01*
X70085Y-35254D01*
X69945Y-35535D02*
X69551Y-35535D01*
X69888Y-35535D02*
X69916Y-35563D01*
X69945Y-35620D01*
X69945Y-35704D01*
X69916Y-35760D01*
X69860Y-35788D01*
X69551Y-35788D01*
X70350Y-25000D02*
X70350Y-42500D01*
X75000Y-25000D02*
X69287Y-25000D01*
X75000Y-42500D02*
X69287Y-42500D01*
X70350Y-42500D02*
X70119Y-42056D01*
X70350Y-42500D02*
X70580Y-42056D01*
X70350Y-25000D02*
X70119Y-25443D01*
X70350Y-25000D02*
X70580Y-25443D01*
X68135Y-32933D02*
X68163Y-32961D01*
X68191Y-33017D01*
X68191Y-33158D01*
X68163Y-33214D01*
X68135Y-33242D01*
X68079Y-33270D01*
X68023Y-33270D01*
X67938Y-33242D01*
X67601Y-32904D01*
X67601Y-33270D01*
X67657Y-33523D02*
X67629Y-33551D01*
X67601Y-33523D01*
X67629Y-33495D01*
X67657Y-33523D01*
X67601Y-33523D01*
X68191Y-34086D02*
X68191Y-33804D01*
X67910Y-33776D01*
X67938Y-33804D01*
X67966Y-33861D01*
X67966Y-34001D01*
X67938Y-34057D01*
X67910Y-34086D01*
X67854Y-34114D01*
X67713Y-34114D01*
X67657Y-34086D01*
X67629Y-34057D01*
X67601Y-34001D01*
X67601Y-33861D01*
X67629Y-33804D01*
X67657Y-33776D01*
X68191Y-34479D02*
X68191Y-34535D01*
X68163Y-34592D01*
X68135Y-34620D01*
X68079Y-34648D01*
X67966Y-34676D01*
X67826Y-34676D01*
X67713Y-34648D01*
X67657Y-34620D01*
X67629Y-34592D01*
X67601Y-34535D01*
X67601Y-34479D01*
X67629Y-34423D01*
X67657Y-34395D01*
X67713Y-34367D01*
X67826Y-34339D01*
X67966Y-34339D01*
X68079Y-34367D01*
X68135Y-34395D01*
X68163Y-34423D01*
X68191Y-34479D01*
X68191Y-35042D02*
X68191Y-35098D01*
X68163Y-35154D01*
X68135Y-35182D01*
X68079Y-35210D01*
X67966Y-35239D01*
X67826Y-35239D01*
X67713Y-35210D01*
X67657Y-35182D01*
X67629Y-35154D01*
X67601Y-35098D01*
X67601Y-35042D01*
X67629Y-34985D01*
X67657Y-34957D01*
X67713Y-34929D01*
X67826Y-34901D01*
X67966Y-34901D01*
X68079Y-34929D01*
X68135Y-34957D01*
X68163Y-34985D01*
X68191Y-35042D01*
X68191Y-35604D02*
X68191Y-35660D01*
X68163Y-35717D01*
X68135Y-35745D01*
X68079Y-35773D01*
X67966Y-35801D01*
X67826Y-35801D01*
X67713Y-35773D01*
X67657Y-35745D01*
X67629Y-35717D01*
X67601Y-35660D01*
X67601Y-35604D01*
X67629Y-35548D01*
X67657Y-35520D01*
X67713Y-35492D01*
X67826Y-35464D01*
X67966Y-35464D01*
X68079Y-35492D01*
X68135Y-35520D01*
X68163Y-35548D01*
X68191Y-35604D01*
X67601Y-36504D02*
X67995Y-36504D01*
X68191Y-36504D02*
X68163Y-36476D01*
X68135Y-36504D01*
X68163Y-36532D01*
X68191Y-36504D01*
X68135Y-36504D01*
X67995Y-36785D02*
X67601Y-36785D01*
X67938Y-36785D02*
X67966Y-36813D01*
X67995Y-36870D01*
X67995Y-36954D01*
X67966Y-37010D01*
X67910Y-37038D01*
X67601Y-37038D01*
X68400Y-22500D02*
X68400Y-47500D01*
X75000Y-22500D02*
X67337Y-22500D01*
X75000Y-47500D02*
X67337Y-47500D01*
X68400Y-47500D02*
X68169Y-47056D01*
X68400Y-47500D02*
X68630Y-47056D01*
X68400Y-22500D02*
X68169Y-22943D01*
X68400Y-22500D02*
X68630Y-22943D01*
X78270Y-20935D02*
X77933Y-20935D01*
X78101Y-20935D02*
X78101Y-20345D01*
X78045Y-20429D01*
X77989Y-20485D01*
X77933Y-20513D01*
X78523Y-20879D02*
X78551Y-20907D01*
X78523Y-20935D01*
X78495Y-20907D01*
X78523Y-20879D01*
X78523Y-20935D01*
X78917Y-20345D02*
X78973Y-20345D01*
X79029Y-20373D01*
X79057Y-20401D01*
X79086Y-20457D01*
X79114Y-20570D01*
X79114Y-20710D01*
X79086Y-20823D01*
X79057Y-20879D01*
X79029Y-20907D01*
X78973Y-20935D01*
X78917Y-20935D01*
X78861Y-20907D01*
X78832Y-20879D01*
X78804Y-20823D01*
X78776Y-20710D01*
X78776Y-20570D01*
X78804Y-20457D01*
X78832Y-20401D01*
X78861Y-20373D01*
X78917Y-20345D01*
X79479Y-20345D02*
X79535Y-20345D01*
X79592Y-20373D01*
X79620Y-20401D01*
X79648Y-20457D01*
X79676Y-20570D01*
X79676Y-20710D01*
X79648Y-20823D01*
X79620Y-20879D01*
X79592Y-20907D01*
X79535Y-20935D01*
X79479Y-20935D01*
X79423Y-20907D01*
X79395Y-20879D01*
X79367Y-20823D01*
X79339Y-20710D01*
X79339Y-20570D01*
X79367Y-20457D01*
X79395Y-20401D01*
X79423Y-20373D01*
X79479Y-20345D01*
X80042Y-20345D02*
X80098Y-20345D01*
X80154Y-20373D01*
X80182Y-20401D01*
X80210Y-20457D01*
X80239Y-20570D01*
X80239Y-20710D01*
X80210Y-20823D01*
X80182Y-20879D01*
X80154Y-20907D01*
X80098Y-20935D01*
X80042Y-20935D01*
X79985Y-20907D01*
X79957Y-20879D01*
X79929Y-20823D01*
X79901Y-20710D01*
X79901Y-20570D01*
X79929Y-20457D01*
X79957Y-20401D01*
X79985Y-20373D01*
X80042Y-20345D01*
X80604Y-20345D02*
X80660Y-20345D01*
X80717Y-20373D01*
X80745Y-20401D01*
X80773Y-20457D01*
X80801Y-20570D01*
X80801Y-20710D01*
X80773Y-20823D01*
X80745Y-20879D01*
X80717Y-20907D01*
X80660Y-20935D01*
X80604Y-20935D01*
X80548Y-20907D01*
X80520Y-20879D01*
X80492Y-20823D01*
X80464Y-20710D01*
X80464Y-20570D01*
X80492Y-20457D01*
X80520Y-20401D01*
X80548Y-20373D01*
X80604Y-20345D01*
X81504Y-20935D02*
X81504Y-20541D01*
X81504Y-20345D02*
X81476Y-20373D01*
X81504Y-20401D01*
X81532Y-20373D01*
X81504Y-20345D01*
X81504Y-20401D01*
X81785Y-20541D02*
X81785Y-20935D01*
X81785Y-20598D02*
X81813Y-20570D01*
X81870Y-20541D01*
X81954Y-20541D01*
X82010Y-20570D01*
X82038Y-20626D01*
X82038Y-20935D01*
X75000Y-21200D02*
X85000Y-21200D01*
X75000Y-25000D02*
X75000Y-20137D01*
X85000Y-25000D02*
X85000Y-20137D01*
X85000Y-21200D02*
X84556Y-21430D01*
X85000Y-21200D02*
X84556Y-20969D01*
X75000Y-21200D02*
X75443Y-21430D01*
X75000Y-21200D02*
X75443Y-20969D01*
X78270Y-19035D02*
X77933Y-19035D01*
X78101Y-19035D02*
X78101Y-18445D01*
X78045Y-18529D01*
X77989Y-18585D01*
X77933Y-18613D01*
X78523Y-18979D02*
X78551Y-19007D01*
X78523Y-19035D01*
X78495Y-19007D01*
X78523Y-18979D01*
X78523Y-19035D01*
X79086Y-18445D02*
X78804Y-18445D01*
X78776Y-18726D01*
X78804Y-18698D01*
X78861Y-18670D01*
X79001Y-18670D01*
X79057Y-18698D01*
X79086Y-18726D01*
X79114Y-18782D01*
X79114Y-18923D01*
X79086Y-18979D01*
X79057Y-19007D01*
X79001Y-19035D01*
X78861Y-19035D01*
X78804Y-19007D01*
X78776Y-18979D01*
X79479Y-18445D02*
X79535Y-18445D01*
X79592Y-18473D01*
X79620Y-18501D01*
X79648Y-18557D01*
X79676Y-18670D01*
X79676Y-18810D01*
X79648Y-18923D01*
X79620Y-18979D01*
X79592Y-19007D01*
X79535Y-19035D01*
X79479Y-19035D01*
X79423Y-19007D01*
X79395Y-18979D01*
X79367Y-18923D01*
X79339Y-18810D01*
X79339Y-18670D01*
X79367Y-18557D01*
X79395Y-18501D01*
X79423Y-18473D01*
X79479Y-18445D01*
X80042Y-18445D02*
X80098Y-18445D01*
X80154Y-18473D01*
X80182Y-18501D01*
X80210Y-18557D01*
X80239Y-18670D01*
X80239Y-18810D01*
X80210Y-18923D01*
X80182Y-18979D01*
X80154Y-19007D01*
X80098Y-19035D01*
X80042Y-19035D01*
X79985Y-19007D01*
X79957Y-18979D01*
X79929Y-18923D01*
X79901Y-18810D01*
X79901Y-18670D01*
X79929Y-18557D01*
X79957Y-18501D01*
X79985Y-18473D01*
X80042Y-18445D01*
X80604Y-18445D02*
X80660Y-18445D01*
X80717Y-18473D01*
X80745Y-18501D01*
X80773Y-18557D01*
X80801Y-18670D01*
X80801Y-18810D01*
X80773Y-18923D01*
X80745Y-18979D01*
X80717Y-19007D01*
X80660Y-19035D01*
X80604Y-19035D01*
X80548Y-19007D01*
X80520Y-18979D01*
X80492Y-18923D01*
X80464Y-18810D01*
X80464Y-18670D01*
X80492Y-18557D01*
X80520Y-18501D01*
X80548Y-18473D01*
X80604Y-18445D01*
X81504Y-19035D02*
X81504Y-18641D01*
X81504Y-18445D02*
X81476Y-18473D01*
X81504Y-18501D01*
X81532Y-18473D01*
X81504Y-18445D01*
X81504Y-18501D01*
X81785Y-18641D02*
X81785Y-19035D01*
X81785Y-18698D02*
X81813Y-18670D01*
X81870Y-18641D01*
X81954Y-18641D01*
X82010Y-18670D01*
X82038Y-18726D01*
X82038Y-19035D01*
X72500Y-19300D02*
X87500Y-19300D01*
X72500Y-25000D02*
X72500Y-18237D01*
X87500Y-25000D02*
X87500Y-18237D01*
X87500Y-19300D02*
X87056Y-19530D01*
X87500Y-19300D02*
X87056Y-19069D01*
X72500Y-19300D02*
X72943Y-19530D01*
X72500Y-19300D02*
X72943Y-19069D01*
G54D12*
X85000Y-47500D02*
G75*
G03X87500Y-45000I0J2500D01*
G74*
G01*
X72500Y-45000D02*
G75*
G03X75000Y-47500I2500J0D01*
G74*
G01*
X87500Y-25000D02*
G75*
G03X85000Y-22500I-2500J0D01*
G74*
G01*
X75000Y-22500D02*
G75*
G03X72500Y-25000I0J-2500D01*
G74*
G01*
X80000Y-47500D02*
X85000Y-47500D01*
X80000Y-47500D02*
X75000Y-47500D01*
X72500Y-45000D02*
X72500Y-25000D01*
X87500Y-25000D02*
X87500Y-45000D01*
X80000Y-22500D02*
X85000Y-22500D01*
X80000Y-22500D02*
X75000Y-22500D01*
M02*
