%FSLAX34Y34*%
G04 Gerber Fmt 3.4, Leading zero omitted, Abs format*
G04 (created by PCBNEW (2013-jul-14)-product) date Saturday 22 February 2014 12:24:09 PM IST*
%MOIN*%
G01*
G70*
G90*
G04 APERTURE LIST*
%ADD10C,0.005906*%
%ADD11C,0.005000*%
%ADD12C,0.003937*%
%ADD13C,0.006000*%
%ADD14C,0.010000*%
%ADD15C,0.012000*%
%ADD16C,0.070000*%
%ADD17C,0.060000*%
%ADD18R,0.060000X0.060000*%
%ADD19C,0.240000*%
G04 APERTURE END LIST*
G54D10*
G54D11*
X78292Y-47130D02*
X78192Y-46940D01*
X78121Y-47130D02*
X78121Y-46730D01*
X78235Y-46730D01*
X78264Y-46750D01*
X78278Y-46769D01*
X78292Y-46807D01*
X78292Y-46864D01*
X78278Y-46902D01*
X78264Y-46921D01*
X78235Y-46940D01*
X78121Y-46940D01*
X78407Y-47111D02*
X78450Y-47130D01*
X78521Y-47130D01*
X78550Y-47111D01*
X78564Y-47092D01*
X78578Y-47054D01*
X78578Y-47016D01*
X78564Y-46978D01*
X78550Y-46959D01*
X78521Y-46940D01*
X78464Y-46921D01*
X78435Y-46902D01*
X78421Y-46883D01*
X78407Y-46845D01*
X78407Y-46807D01*
X78421Y-46769D01*
X78435Y-46750D01*
X78464Y-46730D01*
X78535Y-46730D01*
X78578Y-46750D01*
X78664Y-46730D02*
X78835Y-46730D01*
X78750Y-47130D02*
X78750Y-46730D01*
X79250Y-47264D02*
X79178Y-47264D01*
X79178Y-46692D01*
X79250Y-46692D01*
X79364Y-46978D02*
X79592Y-46978D01*
X79707Y-47264D02*
X79778Y-47264D01*
X79778Y-46692D01*
X79707Y-46692D01*
X80150Y-47111D02*
X80192Y-47130D01*
X80264Y-47130D01*
X80292Y-47111D01*
X80307Y-47092D01*
X80321Y-47054D01*
X80321Y-47016D01*
X80307Y-46978D01*
X80292Y-46959D01*
X80264Y-46940D01*
X80207Y-46921D01*
X80178Y-46902D01*
X80164Y-46883D01*
X80150Y-46845D01*
X80150Y-46807D01*
X80164Y-46769D01*
X80178Y-46750D01*
X80207Y-46730D01*
X80278Y-46730D01*
X80321Y-46750D01*
X80421Y-46730D02*
X80492Y-47130D01*
X80550Y-46845D01*
X80607Y-47130D01*
X80678Y-46730D01*
X81335Y-47264D02*
X81264Y-47264D01*
X81264Y-46692D01*
X81335Y-46692D01*
X81449Y-46978D02*
X81678Y-46978D01*
X81564Y-47130D02*
X81564Y-46826D01*
X81792Y-47264D02*
X81864Y-47264D01*
X81864Y-46692D01*
X81792Y-46692D01*
G54D12*
X85000Y-47500D02*
G75*
G03X87500Y-45000I0J2500D01*
G74*
G01*
X72500Y-45000D02*
G75*
G03X75000Y-47500I2500J0D01*
G74*
G01*
X87500Y-25000D02*
G75*
G03X85000Y-22500I-2500J0D01*
G74*
G01*
X75000Y-22500D02*
G75*
G03X72500Y-25000I0J-2500D01*
G74*
G01*
X80000Y-47500D02*
X85000Y-47500D01*
X80000Y-47500D02*
X75000Y-47500D01*
X72500Y-45000D02*
X72500Y-25000D01*
X87500Y-25000D02*
X87500Y-45000D01*
X80000Y-22500D02*
X85000Y-22500D01*
X80000Y-22500D02*
X75000Y-22500D01*
G54D13*
X78425Y-26279D02*
G75*
G03X79114Y-26968I688J0D01*
G74*
G01*
X80885Y-26968D02*
X79114Y-26968D01*
X80885Y-26968D02*
G75*
G03X81574Y-26279I0J688D01*
G74*
G01*
X81574Y-23720D02*
X81574Y-26279D01*
X79114Y-23031D02*
X80885Y-23031D01*
X78425Y-26279D02*
X78425Y-23720D01*
X79114Y-23031D02*
G75*
G03X78425Y-23720I0J-688D01*
G74*
G01*
X81574Y-23720D02*
G75*
G03X80885Y-23031I-688J0D01*
G74*
G01*
X80715Y-25000D02*
G75*
G03X80715Y-25000I-715J0D01*
G74*
G01*
X81574Y-33720D02*
G75*
G03X80885Y-33031I-688J0D01*
G74*
G01*
X79114Y-33031D02*
X80885Y-33031D01*
X79114Y-33031D02*
G75*
G03X78425Y-33720I0J-688D01*
G74*
G01*
X78425Y-36279D02*
X78425Y-33720D01*
X80885Y-36968D02*
X79114Y-36968D01*
X81574Y-33720D02*
X81574Y-36279D01*
X80885Y-36968D02*
G75*
G03X81574Y-36279I0J688D01*
G74*
G01*
X78425Y-36279D02*
G75*
G03X79114Y-36968I688J0D01*
G74*
G01*
X80715Y-35000D02*
G75*
G03X80715Y-35000I-715J0D01*
G74*
G01*
X78425Y-31279D02*
G75*
G03X79114Y-31968I688J0D01*
G74*
G01*
X80885Y-31968D02*
X79114Y-31968D01*
X80885Y-31968D02*
G75*
G03X81574Y-31279I0J688D01*
G74*
G01*
X81574Y-28720D02*
X81574Y-31279D01*
X79114Y-28031D02*
X80885Y-28031D01*
X78425Y-31279D02*
X78425Y-28720D01*
X79114Y-28031D02*
G75*
G03X78425Y-28720I0J-688D01*
G74*
G01*
X81574Y-28720D02*
G75*
G03X80885Y-28031I-688J0D01*
G74*
G01*
X80715Y-30000D02*
G75*
G03X80715Y-30000I-715J0D01*
G74*
G01*
X76574Y-28720D02*
G75*
G03X75885Y-28031I-688J0D01*
G74*
G01*
X74114Y-28031D02*
X75885Y-28031D01*
X74114Y-28031D02*
G75*
G03X73425Y-28720I0J-688D01*
G74*
G01*
X73425Y-31279D02*
X73425Y-28720D01*
X75885Y-31968D02*
X74114Y-31968D01*
X76574Y-28720D02*
X76574Y-31279D01*
X75885Y-31968D02*
G75*
G03X76574Y-31279I0J688D01*
G74*
G01*
X73425Y-31279D02*
G75*
G03X74114Y-31968I688J0D01*
G74*
G01*
X75715Y-30000D02*
G75*
G03X75715Y-30000I-715J0D01*
G74*
G01*
X83425Y-31279D02*
G75*
G03X84114Y-31968I688J0D01*
G74*
G01*
X85885Y-31968D02*
X84114Y-31968D01*
X85885Y-31968D02*
G75*
G03X86574Y-31279I0J688D01*
G74*
G01*
X86574Y-28720D02*
X86574Y-31279D01*
X84114Y-28031D02*
X85885Y-28031D01*
X83425Y-31279D02*
X83425Y-28720D01*
X84114Y-28031D02*
G75*
G03X83425Y-28720I0J-688D01*
G74*
G01*
X86574Y-28720D02*
G75*
G03X85885Y-28031I-688J0D01*
G74*
G01*
X85715Y-30000D02*
G75*
G03X85715Y-30000I-715J0D01*
G74*
G01*
X78425Y-43779D02*
G75*
G03X79114Y-44468I688J0D01*
G74*
G01*
X80885Y-44468D02*
X79114Y-44468D01*
X80885Y-44468D02*
G75*
G03X81574Y-43779I0J688D01*
G74*
G01*
X81574Y-41220D02*
X81574Y-43779D01*
X79114Y-40531D02*
X80885Y-40531D01*
X78425Y-43779D02*
X78425Y-41220D01*
X79114Y-40531D02*
G75*
G03X78425Y-41220I0J-688D01*
G74*
G01*
X81574Y-41220D02*
G75*
G03X80885Y-40531I-688J0D01*
G74*
G01*
X80715Y-42500D02*
G75*
G03X80715Y-42500I-715J0D01*
G74*
G01*
G54D14*
X82150Y-35850D02*
X82850Y-35850D01*
X82850Y-35850D02*
X82850Y-34150D01*
X82850Y-34150D02*
X82150Y-34150D01*
X82150Y-34150D02*
X82150Y-35850D01*
X82850Y-29150D02*
X82150Y-29150D01*
X82150Y-29150D02*
X82150Y-30850D01*
X82150Y-30850D02*
X82850Y-30850D01*
X82850Y-30850D02*
X82850Y-29150D01*
X77150Y-30850D02*
X77850Y-30850D01*
X77850Y-30850D02*
X77850Y-29150D01*
X77850Y-29150D02*
X77150Y-29150D01*
X77150Y-29150D02*
X77150Y-30850D01*
X77150Y-25850D02*
X77850Y-25850D01*
X77850Y-25850D02*
X77850Y-24150D01*
X77850Y-24150D02*
X77150Y-24150D01*
X77150Y-24150D02*
X77150Y-25850D01*
X82850Y-24150D02*
X82150Y-24150D01*
X82150Y-24150D02*
X82150Y-25850D01*
X82150Y-25850D02*
X82850Y-25850D01*
X82850Y-25850D02*
X82850Y-24150D01*
X77150Y-35850D02*
X77850Y-35850D01*
X77850Y-35850D02*
X77850Y-34150D01*
X77850Y-34150D02*
X77150Y-34150D01*
X77150Y-34150D02*
X77150Y-35850D01*
G54D15*
X82000Y-46500D02*
X82000Y-46500D01*
X82000Y-45500D02*
X82000Y-46500D01*
X82000Y-46500D02*
X82000Y-46500D01*
X82000Y-46500D02*
X78000Y-46500D01*
X78000Y-46500D02*
X78000Y-45500D01*
X78000Y-45500D02*
X82000Y-45500D01*
X81000Y-45500D02*
X81000Y-46500D01*
G54D11*
X81500Y-40250D02*
X81450Y-40300D01*
X81500Y-40200D02*
X81400Y-40300D01*
X81500Y-40150D02*
X81350Y-40300D01*
X81300Y-40300D02*
X81500Y-40100D01*
X81500Y-39800D02*
X81500Y-40300D01*
X81500Y-40300D02*
X78500Y-40300D01*
X78500Y-40300D02*
X78500Y-39300D01*
X78500Y-39300D02*
X81500Y-39300D01*
X81500Y-39300D02*
X81500Y-39800D01*
X78416Y-27511D02*
X78473Y-27530D01*
X78569Y-27530D01*
X78607Y-27511D01*
X78626Y-27492D01*
X78645Y-27454D01*
X78645Y-27416D01*
X78626Y-27378D01*
X78607Y-27359D01*
X78569Y-27340D01*
X78492Y-27321D01*
X78454Y-27302D01*
X78435Y-27283D01*
X78416Y-27245D01*
X78416Y-27207D01*
X78435Y-27169D01*
X78454Y-27150D01*
X78492Y-27130D01*
X78588Y-27130D01*
X78645Y-27150D01*
X78778Y-27130D02*
X78873Y-27530D01*
X78950Y-27245D01*
X79026Y-27530D01*
X79121Y-27130D01*
X79483Y-27530D02*
X79254Y-27530D01*
X79369Y-27530D02*
X79369Y-27130D01*
X79330Y-27188D01*
X79292Y-27226D01*
X79254Y-27245D01*
X79845Y-27511D02*
X79902Y-27530D01*
X79997Y-27530D01*
X80035Y-27511D01*
X80054Y-27492D01*
X80073Y-27454D01*
X80073Y-27416D01*
X80054Y-27378D01*
X80035Y-27359D01*
X79997Y-27340D01*
X79921Y-27321D01*
X79883Y-27302D01*
X79864Y-27283D01*
X79845Y-27245D01*
X79845Y-27207D01*
X79864Y-27169D01*
X79883Y-27150D01*
X79921Y-27130D01*
X80016Y-27130D01*
X80073Y-27150D01*
X80207Y-27130D02*
X80302Y-27530D01*
X80378Y-27245D01*
X80454Y-27530D01*
X80550Y-27130D01*
X80607Y-27569D02*
X80911Y-27569D01*
X81007Y-27130D02*
X81007Y-27454D01*
X81026Y-27492D01*
X81045Y-27511D01*
X81083Y-27530D01*
X81159Y-27530D01*
X81197Y-27511D01*
X81216Y-27492D01*
X81235Y-27454D01*
X81235Y-27130D01*
X81426Y-27530D02*
X81426Y-27130D01*
X81578Y-27130D01*
X81616Y-27150D01*
X81635Y-27169D01*
X81654Y-27207D01*
X81654Y-27264D01*
X81635Y-27302D01*
X81616Y-27321D01*
X81578Y-27340D01*
X81426Y-27340D01*
X78416Y-37511D02*
X78473Y-37530D01*
X78569Y-37530D01*
X78607Y-37511D01*
X78626Y-37492D01*
X78645Y-37454D01*
X78645Y-37416D01*
X78626Y-37378D01*
X78607Y-37359D01*
X78569Y-37340D01*
X78492Y-37321D01*
X78454Y-37302D01*
X78435Y-37283D01*
X78416Y-37245D01*
X78416Y-37207D01*
X78435Y-37169D01*
X78454Y-37150D01*
X78492Y-37130D01*
X78588Y-37130D01*
X78645Y-37150D01*
X78778Y-37130D02*
X78873Y-37530D01*
X78950Y-37245D01*
X79026Y-37530D01*
X79121Y-37130D01*
X79254Y-37169D02*
X79273Y-37150D01*
X79311Y-37130D01*
X79407Y-37130D01*
X79445Y-37150D01*
X79464Y-37169D01*
X79483Y-37207D01*
X79483Y-37245D01*
X79464Y-37302D01*
X79235Y-37530D01*
X79483Y-37530D01*
X79795Y-37511D02*
X79852Y-37530D01*
X79947Y-37530D01*
X79985Y-37511D01*
X80004Y-37492D01*
X80023Y-37454D01*
X80023Y-37416D01*
X80004Y-37378D01*
X79985Y-37359D01*
X79947Y-37340D01*
X79871Y-37321D01*
X79833Y-37302D01*
X79814Y-37283D01*
X79795Y-37245D01*
X79795Y-37207D01*
X79814Y-37169D01*
X79833Y-37150D01*
X79871Y-37130D01*
X79966Y-37130D01*
X80023Y-37150D01*
X80157Y-37130D02*
X80252Y-37530D01*
X80328Y-37245D01*
X80404Y-37530D01*
X80500Y-37130D01*
X80557Y-37569D02*
X80861Y-37569D01*
X80957Y-37530D02*
X80957Y-37130D01*
X81052Y-37130D01*
X81109Y-37150D01*
X81147Y-37188D01*
X81166Y-37226D01*
X81185Y-37302D01*
X81185Y-37359D01*
X81166Y-37435D01*
X81147Y-37473D01*
X81109Y-37511D01*
X81052Y-37530D01*
X80957Y-37530D01*
X81357Y-37530D02*
X81357Y-37130D01*
X81585Y-37530D01*
X81585Y-37130D01*
X78416Y-32561D02*
X78473Y-32580D01*
X78569Y-32580D01*
X78607Y-32561D01*
X78626Y-32542D01*
X78645Y-32504D01*
X78645Y-32466D01*
X78626Y-32428D01*
X78607Y-32409D01*
X78569Y-32390D01*
X78492Y-32371D01*
X78454Y-32352D01*
X78435Y-32333D01*
X78416Y-32295D01*
X78416Y-32257D01*
X78435Y-32219D01*
X78454Y-32200D01*
X78492Y-32180D01*
X78588Y-32180D01*
X78645Y-32200D01*
X78778Y-32180D02*
X78873Y-32580D01*
X78950Y-32295D01*
X79026Y-32580D01*
X79121Y-32180D01*
X79235Y-32180D02*
X79483Y-32180D01*
X79350Y-32333D01*
X79407Y-32333D01*
X79445Y-32352D01*
X79464Y-32371D01*
X79483Y-32409D01*
X79483Y-32504D01*
X79464Y-32542D01*
X79445Y-32561D01*
X79407Y-32580D01*
X79292Y-32580D01*
X79254Y-32561D01*
X79235Y-32542D01*
X79845Y-32561D02*
X79902Y-32580D01*
X79997Y-32580D01*
X80035Y-32561D01*
X80054Y-32542D01*
X80073Y-32504D01*
X80073Y-32466D01*
X80054Y-32428D01*
X80035Y-32409D01*
X79997Y-32390D01*
X79921Y-32371D01*
X79883Y-32352D01*
X79864Y-32333D01*
X79845Y-32295D01*
X79845Y-32257D01*
X79864Y-32219D01*
X79883Y-32200D01*
X79921Y-32180D01*
X80016Y-32180D01*
X80073Y-32200D01*
X80207Y-32180D02*
X80302Y-32580D01*
X80378Y-32295D01*
X80454Y-32580D01*
X80550Y-32180D01*
X80607Y-32619D02*
X80911Y-32619D01*
X81083Y-32180D02*
X81159Y-32180D01*
X81197Y-32200D01*
X81235Y-32238D01*
X81254Y-32314D01*
X81254Y-32447D01*
X81235Y-32523D01*
X81197Y-32561D01*
X81159Y-32580D01*
X81083Y-32580D01*
X81045Y-32561D01*
X81007Y-32523D01*
X80988Y-32447D01*
X80988Y-32314D01*
X81007Y-32238D01*
X81045Y-32200D01*
X81083Y-32180D01*
X81426Y-32580D02*
X81426Y-32180D01*
X81654Y-32580D02*
X81483Y-32352D01*
X81654Y-32180D02*
X81426Y-32409D01*
X73416Y-32561D02*
X73473Y-32580D01*
X73569Y-32580D01*
X73607Y-32561D01*
X73626Y-32542D01*
X73645Y-32504D01*
X73645Y-32466D01*
X73626Y-32428D01*
X73607Y-32409D01*
X73569Y-32390D01*
X73492Y-32371D01*
X73454Y-32352D01*
X73435Y-32333D01*
X73416Y-32295D01*
X73416Y-32257D01*
X73435Y-32219D01*
X73454Y-32200D01*
X73492Y-32180D01*
X73588Y-32180D01*
X73645Y-32200D01*
X73778Y-32180D02*
X73873Y-32580D01*
X73950Y-32295D01*
X74026Y-32580D01*
X74121Y-32180D01*
X74445Y-32314D02*
X74445Y-32580D01*
X74350Y-32161D02*
X74254Y-32447D01*
X74502Y-32447D01*
X74890Y-32561D02*
X74947Y-32580D01*
X75042Y-32580D01*
X75080Y-32561D01*
X75100Y-32542D01*
X75119Y-32504D01*
X75119Y-32466D01*
X75100Y-32428D01*
X75080Y-32409D01*
X75042Y-32390D01*
X74966Y-32371D01*
X74928Y-32352D01*
X74909Y-32333D01*
X74890Y-32295D01*
X74890Y-32257D01*
X74909Y-32219D01*
X74928Y-32200D01*
X74966Y-32180D01*
X75061Y-32180D01*
X75119Y-32200D01*
X75252Y-32180D02*
X75347Y-32580D01*
X75423Y-32295D01*
X75500Y-32580D01*
X75595Y-32180D01*
X75652Y-32619D02*
X75957Y-32619D01*
X76242Y-32580D02*
X76052Y-32580D01*
X76052Y-32180D01*
X76319Y-32180D02*
X76547Y-32180D01*
X76433Y-32580D02*
X76433Y-32180D01*
X83366Y-32561D02*
X83423Y-32580D01*
X83519Y-32580D01*
X83557Y-32561D01*
X83576Y-32542D01*
X83595Y-32504D01*
X83595Y-32466D01*
X83576Y-32428D01*
X83557Y-32409D01*
X83519Y-32390D01*
X83442Y-32371D01*
X83404Y-32352D01*
X83385Y-32333D01*
X83366Y-32295D01*
X83366Y-32257D01*
X83385Y-32219D01*
X83404Y-32200D01*
X83442Y-32180D01*
X83538Y-32180D01*
X83595Y-32200D01*
X83728Y-32180D02*
X83823Y-32580D01*
X83900Y-32295D01*
X83976Y-32580D01*
X84071Y-32180D01*
X84414Y-32180D02*
X84223Y-32180D01*
X84204Y-32371D01*
X84223Y-32352D01*
X84261Y-32333D01*
X84357Y-32333D01*
X84395Y-32352D01*
X84414Y-32371D01*
X84433Y-32409D01*
X84433Y-32504D01*
X84414Y-32542D01*
X84395Y-32561D01*
X84357Y-32580D01*
X84261Y-32580D01*
X84223Y-32561D01*
X84204Y-32542D01*
X84852Y-32561D02*
X84909Y-32580D01*
X85004Y-32580D01*
X85042Y-32561D01*
X85061Y-32542D01*
X85080Y-32504D01*
X85080Y-32466D01*
X85061Y-32428D01*
X85042Y-32409D01*
X85004Y-32390D01*
X84928Y-32371D01*
X84890Y-32352D01*
X84871Y-32333D01*
X84852Y-32295D01*
X84852Y-32257D01*
X84871Y-32219D01*
X84890Y-32200D01*
X84928Y-32180D01*
X85023Y-32180D01*
X85080Y-32200D01*
X85214Y-32180D02*
X85309Y-32580D01*
X85385Y-32295D01*
X85461Y-32580D01*
X85557Y-32180D01*
X85614Y-32619D02*
X85919Y-32619D01*
X86242Y-32580D02*
X86109Y-32390D01*
X86014Y-32580D02*
X86014Y-32180D01*
X86166Y-32180D01*
X86204Y-32200D01*
X86223Y-32219D01*
X86242Y-32257D01*
X86242Y-32314D01*
X86223Y-32352D01*
X86204Y-32371D01*
X86166Y-32390D01*
X86014Y-32390D01*
X86357Y-32180D02*
X86585Y-32180D01*
X86471Y-32580D02*
X86471Y-32180D01*
X78416Y-45011D02*
X78473Y-45030D01*
X78569Y-45030D01*
X78607Y-45011D01*
X78626Y-44992D01*
X78645Y-44954D01*
X78645Y-44916D01*
X78626Y-44878D01*
X78607Y-44859D01*
X78569Y-44840D01*
X78492Y-44821D01*
X78454Y-44802D01*
X78435Y-44783D01*
X78416Y-44745D01*
X78416Y-44707D01*
X78435Y-44669D01*
X78454Y-44650D01*
X78492Y-44630D01*
X78588Y-44630D01*
X78645Y-44650D01*
X78778Y-44630D02*
X78873Y-45030D01*
X78950Y-44745D01*
X79026Y-45030D01*
X79121Y-44630D01*
X79445Y-44630D02*
X79369Y-44630D01*
X79330Y-44650D01*
X79311Y-44669D01*
X79273Y-44726D01*
X79254Y-44802D01*
X79254Y-44954D01*
X79273Y-44992D01*
X79292Y-45011D01*
X79330Y-45030D01*
X79407Y-45030D01*
X79445Y-45011D01*
X79464Y-44992D01*
X79483Y-44954D01*
X79483Y-44859D01*
X79464Y-44821D01*
X79445Y-44802D01*
X79407Y-44783D01*
X79330Y-44783D01*
X79292Y-44802D01*
X79273Y-44821D01*
X79254Y-44859D01*
X80219Y-45030D02*
X80085Y-44840D01*
X79990Y-45030D02*
X79990Y-44630D01*
X80142Y-44630D01*
X80180Y-44650D01*
X80200Y-44669D01*
X80219Y-44707D01*
X80219Y-44764D01*
X80200Y-44802D01*
X80180Y-44821D01*
X80142Y-44840D01*
X79990Y-44840D01*
X80390Y-44821D02*
X80523Y-44821D01*
X80580Y-45030D02*
X80390Y-45030D01*
X80390Y-44630D01*
X80580Y-44630D01*
X80733Y-45011D02*
X80790Y-45030D01*
X80885Y-45030D01*
X80923Y-45011D01*
X80942Y-44992D01*
X80961Y-44954D01*
X80961Y-44916D01*
X80942Y-44878D01*
X80923Y-44859D01*
X80885Y-44840D01*
X80809Y-44821D01*
X80771Y-44802D01*
X80752Y-44783D01*
X80733Y-44745D01*
X80733Y-44707D01*
X80752Y-44669D01*
X80771Y-44650D01*
X80809Y-44630D01*
X80904Y-44630D01*
X80961Y-44650D01*
X81133Y-44821D02*
X81266Y-44821D01*
X81323Y-45030D02*
X81133Y-45030D01*
X81133Y-44630D01*
X81323Y-44630D01*
X81438Y-44630D02*
X81666Y-44630D01*
X81552Y-45030D02*
X81552Y-44630D01*
X83333Y-34530D02*
X83200Y-34340D01*
X83104Y-34530D02*
X83104Y-34130D01*
X83257Y-34130D01*
X83295Y-34150D01*
X83314Y-34169D01*
X83333Y-34207D01*
X83333Y-34264D01*
X83314Y-34302D01*
X83295Y-34321D01*
X83257Y-34340D01*
X83104Y-34340D01*
X83676Y-34130D02*
X83600Y-34130D01*
X83561Y-34150D01*
X83542Y-34169D01*
X83504Y-34226D01*
X83485Y-34302D01*
X83485Y-34454D01*
X83504Y-34492D01*
X83523Y-34511D01*
X83561Y-34530D01*
X83638Y-34530D01*
X83676Y-34511D01*
X83695Y-34492D01*
X83714Y-34454D01*
X83714Y-34359D01*
X83695Y-34321D01*
X83676Y-34302D01*
X83638Y-34283D01*
X83561Y-34283D01*
X83523Y-34302D01*
X83504Y-34321D01*
X83485Y-34359D01*
G54D13*
X82680Y-35276D02*
X82680Y-35504D01*
X82680Y-35390D02*
X82280Y-35390D01*
X82338Y-35428D01*
X82376Y-35466D01*
X82395Y-35504D01*
X82280Y-35028D02*
X82280Y-34990D01*
X82300Y-34952D01*
X82319Y-34933D01*
X82357Y-34914D01*
X82433Y-34895D01*
X82528Y-34895D01*
X82604Y-34914D01*
X82642Y-34933D01*
X82661Y-34952D01*
X82680Y-34990D01*
X82680Y-35028D01*
X82661Y-35066D01*
X82642Y-35085D01*
X82604Y-35104D01*
X82528Y-35123D01*
X82433Y-35123D01*
X82357Y-35104D01*
X82319Y-35085D01*
X82300Y-35066D01*
X82280Y-35028D01*
X82680Y-34723D02*
X82280Y-34723D01*
X82680Y-34495D02*
X82452Y-34666D01*
X82280Y-34495D02*
X82509Y-34723D01*
G54D11*
X82433Y-27980D02*
X82300Y-27790D01*
X82204Y-27980D02*
X82204Y-27580D01*
X82357Y-27580D01*
X82395Y-27600D01*
X82414Y-27619D01*
X82433Y-27657D01*
X82433Y-27714D01*
X82414Y-27752D01*
X82395Y-27771D01*
X82357Y-27790D01*
X82204Y-27790D01*
X82795Y-27580D02*
X82604Y-27580D01*
X82585Y-27771D01*
X82604Y-27752D01*
X82642Y-27733D01*
X82738Y-27733D01*
X82776Y-27752D01*
X82795Y-27771D01*
X82814Y-27809D01*
X82814Y-27904D01*
X82795Y-27942D01*
X82776Y-27961D01*
X82738Y-27980D01*
X82642Y-27980D01*
X82604Y-27961D01*
X82585Y-27942D01*
G54D13*
X82680Y-30276D02*
X82680Y-30504D01*
X82680Y-30390D02*
X82280Y-30390D01*
X82338Y-30428D01*
X82376Y-30466D01*
X82395Y-30504D01*
X82280Y-30028D02*
X82280Y-29990D01*
X82300Y-29952D01*
X82319Y-29933D01*
X82357Y-29914D01*
X82433Y-29895D01*
X82528Y-29895D01*
X82604Y-29914D01*
X82642Y-29933D01*
X82661Y-29952D01*
X82680Y-29990D01*
X82680Y-30028D01*
X82661Y-30066D01*
X82642Y-30085D01*
X82604Y-30104D01*
X82528Y-30123D01*
X82433Y-30123D01*
X82357Y-30104D01*
X82319Y-30085D01*
X82300Y-30066D01*
X82280Y-30028D01*
X82680Y-29723D02*
X82280Y-29723D01*
X82680Y-29495D02*
X82452Y-29666D01*
X82280Y-29495D02*
X82509Y-29723D01*
G54D11*
X77433Y-27980D02*
X77300Y-27790D01*
X77204Y-27980D02*
X77204Y-27580D01*
X77357Y-27580D01*
X77395Y-27600D01*
X77414Y-27619D01*
X77433Y-27657D01*
X77433Y-27714D01*
X77414Y-27752D01*
X77395Y-27771D01*
X77357Y-27790D01*
X77204Y-27790D01*
X77776Y-27714D02*
X77776Y-27980D01*
X77680Y-27561D02*
X77585Y-27847D01*
X77833Y-27847D01*
G54D13*
X77680Y-30276D02*
X77680Y-30504D01*
X77680Y-30390D02*
X77280Y-30390D01*
X77338Y-30428D01*
X77376Y-30466D01*
X77395Y-30504D01*
X77280Y-30028D02*
X77280Y-29990D01*
X77300Y-29952D01*
X77319Y-29933D01*
X77357Y-29914D01*
X77433Y-29895D01*
X77528Y-29895D01*
X77604Y-29914D01*
X77642Y-29933D01*
X77661Y-29952D01*
X77680Y-29990D01*
X77680Y-30028D01*
X77661Y-30066D01*
X77642Y-30085D01*
X77604Y-30104D01*
X77528Y-30123D01*
X77433Y-30123D01*
X77357Y-30104D01*
X77319Y-30085D01*
X77300Y-30066D01*
X77280Y-30028D01*
X77680Y-29723D02*
X77280Y-29723D01*
X77680Y-29495D02*
X77452Y-29666D01*
X77280Y-29495D02*
X77509Y-29723D01*
G54D11*
X76583Y-24530D02*
X76450Y-24340D01*
X76354Y-24530D02*
X76354Y-24130D01*
X76507Y-24130D01*
X76545Y-24150D01*
X76564Y-24169D01*
X76583Y-24207D01*
X76583Y-24264D01*
X76564Y-24302D01*
X76545Y-24321D01*
X76507Y-24340D01*
X76354Y-24340D01*
X76716Y-24130D02*
X76964Y-24130D01*
X76830Y-24283D01*
X76888Y-24283D01*
X76926Y-24302D01*
X76945Y-24321D01*
X76964Y-24359D01*
X76964Y-24454D01*
X76945Y-24492D01*
X76926Y-24511D01*
X76888Y-24530D01*
X76773Y-24530D01*
X76735Y-24511D01*
X76716Y-24492D01*
G54D13*
X77680Y-25276D02*
X77680Y-25504D01*
X77680Y-25390D02*
X77280Y-25390D01*
X77338Y-25428D01*
X77376Y-25466D01*
X77395Y-25504D01*
X77280Y-25028D02*
X77280Y-24990D01*
X77300Y-24952D01*
X77319Y-24933D01*
X77357Y-24914D01*
X77433Y-24895D01*
X77528Y-24895D01*
X77604Y-24914D01*
X77642Y-24933D01*
X77661Y-24952D01*
X77680Y-24990D01*
X77680Y-25028D01*
X77661Y-25066D01*
X77642Y-25085D01*
X77604Y-25104D01*
X77528Y-25123D01*
X77433Y-25123D01*
X77357Y-25104D01*
X77319Y-25085D01*
X77300Y-25066D01*
X77280Y-25028D01*
X77680Y-24723D02*
X77280Y-24723D01*
X77680Y-24495D02*
X77452Y-24666D01*
X77280Y-24495D02*
X77509Y-24723D01*
G54D11*
X83233Y-24530D02*
X83100Y-24340D01*
X83004Y-24530D02*
X83004Y-24130D01*
X83157Y-24130D01*
X83195Y-24150D01*
X83214Y-24169D01*
X83233Y-24207D01*
X83233Y-24264D01*
X83214Y-24302D01*
X83195Y-24321D01*
X83157Y-24340D01*
X83004Y-24340D01*
X83385Y-24169D02*
X83404Y-24150D01*
X83442Y-24130D01*
X83538Y-24130D01*
X83576Y-24150D01*
X83595Y-24169D01*
X83614Y-24207D01*
X83614Y-24245D01*
X83595Y-24302D01*
X83366Y-24530D01*
X83614Y-24530D01*
G54D13*
X82680Y-25276D02*
X82680Y-25504D01*
X82680Y-25390D02*
X82280Y-25390D01*
X82338Y-25428D01*
X82376Y-25466D01*
X82395Y-25504D01*
X82280Y-25028D02*
X82280Y-24990D01*
X82300Y-24952D01*
X82319Y-24933D01*
X82357Y-24914D01*
X82433Y-24895D01*
X82528Y-24895D01*
X82604Y-24914D01*
X82642Y-24933D01*
X82661Y-24952D01*
X82680Y-24990D01*
X82680Y-25028D01*
X82661Y-25066D01*
X82642Y-25085D01*
X82604Y-25104D01*
X82528Y-25123D01*
X82433Y-25123D01*
X82357Y-25104D01*
X82319Y-25085D01*
X82300Y-25066D01*
X82280Y-25028D01*
X82680Y-24723D02*
X82280Y-24723D01*
X82680Y-24495D02*
X82452Y-24666D01*
X82280Y-24495D02*
X82509Y-24723D01*
G54D11*
X76583Y-34580D02*
X76450Y-34390D01*
X76354Y-34580D02*
X76354Y-34180D01*
X76507Y-34180D01*
X76545Y-34200D01*
X76564Y-34219D01*
X76583Y-34257D01*
X76583Y-34314D01*
X76564Y-34352D01*
X76545Y-34371D01*
X76507Y-34390D01*
X76354Y-34390D01*
X76964Y-34580D02*
X76735Y-34580D01*
X76850Y-34580D02*
X76850Y-34180D01*
X76811Y-34238D01*
X76773Y-34276D01*
X76735Y-34295D01*
G54D13*
X77680Y-35114D02*
X77680Y-35342D01*
X77680Y-35228D02*
X77280Y-35228D01*
X77338Y-35266D01*
X77376Y-35304D01*
X77395Y-35342D01*
X77680Y-34942D02*
X77280Y-34942D01*
X77566Y-34809D01*
X77280Y-34676D01*
X77680Y-34676D01*
G54D11*
X77104Y-46180D02*
X77104Y-45780D01*
X77257Y-45780D01*
X77295Y-45800D01*
X77314Y-45819D01*
X77333Y-45857D01*
X77333Y-45914D01*
X77314Y-45952D01*
X77295Y-45971D01*
X77257Y-45990D01*
X77104Y-45990D01*
X77714Y-46180D02*
X77485Y-46180D01*
X77600Y-46180D02*
X77600Y-45780D01*
X77561Y-45838D01*
X77523Y-45876D01*
X77485Y-45895D01*
X82495Y-45971D02*
X82552Y-45990D01*
X82571Y-46009D01*
X82590Y-46047D01*
X82590Y-46104D01*
X82571Y-46142D01*
X82552Y-46161D01*
X82514Y-46180D01*
X82361Y-46180D01*
X82361Y-45780D01*
X82495Y-45780D01*
X82533Y-45800D01*
X82552Y-45819D01*
X82571Y-45857D01*
X82571Y-45895D01*
X82552Y-45933D01*
X82533Y-45952D01*
X82495Y-45971D01*
X82361Y-45971D01*
X82933Y-45914D02*
X82933Y-46180D01*
X82761Y-45914D02*
X82761Y-46123D01*
X82780Y-46161D01*
X82819Y-46180D01*
X82876Y-46180D01*
X82914Y-46161D01*
X82933Y-46142D01*
X83066Y-45914D02*
X83219Y-45914D01*
X83123Y-45780D02*
X83123Y-46123D01*
X83142Y-46161D01*
X83180Y-46180D01*
X83219Y-46180D01*
X83295Y-45914D02*
X83447Y-45914D01*
X83352Y-45780D02*
X83352Y-46123D01*
X83371Y-46161D01*
X83409Y-46180D01*
X83447Y-46180D01*
X83638Y-46180D02*
X83600Y-46161D01*
X83580Y-46142D01*
X83561Y-46104D01*
X83561Y-45990D01*
X83580Y-45952D01*
X83600Y-45933D01*
X83638Y-45914D01*
X83695Y-45914D01*
X83733Y-45933D01*
X83752Y-45952D01*
X83771Y-45990D01*
X83771Y-46104D01*
X83752Y-46142D01*
X83733Y-46161D01*
X83695Y-46180D01*
X83638Y-46180D01*
X83942Y-45914D02*
X83942Y-46180D01*
X83942Y-45952D02*
X83961Y-45933D01*
X84000Y-45914D01*
X84057Y-45914D01*
X84095Y-45933D01*
X84114Y-45971D01*
X84114Y-46180D01*
X84285Y-46161D02*
X84323Y-46180D01*
X84400Y-46180D01*
X84438Y-46161D01*
X84457Y-46123D01*
X84457Y-46104D01*
X84438Y-46066D01*
X84400Y-46047D01*
X84342Y-46047D01*
X84304Y-46028D01*
X84285Y-45990D01*
X84285Y-45971D01*
X84304Y-45933D01*
X84342Y-45914D01*
X84400Y-45914D01*
X84438Y-45933D01*
G54D13*
X79933Y-39072D02*
X79914Y-39091D01*
X79857Y-39110D01*
X79819Y-39110D01*
X79761Y-39091D01*
X79723Y-39053D01*
X79704Y-39015D01*
X79685Y-38939D01*
X79685Y-38882D01*
X79704Y-38806D01*
X79723Y-38768D01*
X79761Y-38730D01*
X79819Y-38710D01*
X79857Y-38710D01*
X79914Y-38730D01*
X79933Y-38749D01*
X80314Y-39110D02*
X80085Y-39110D01*
X80200Y-39110D02*
X80200Y-38710D01*
X80161Y-38768D01*
X80123Y-38806D01*
X80085Y-38825D01*
X79664Y-39980D02*
X79492Y-39980D01*
X79578Y-39980D02*
X79578Y-39580D01*
X79550Y-39638D01*
X79521Y-39676D01*
X79492Y-39695D01*
X79850Y-39580D02*
X79878Y-39580D01*
X79907Y-39600D01*
X79921Y-39619D01*
X79935Y-39657D01*
X79950Y-39733D01*
X79950Y-39828D01*
X79935Y-39904D01*
X79921Y-39942D01*
X79907Y-39961D01*
X79878Y-39980D01*
X79850Y-39980D01*
X79821Y-39961D01*
X79807Y-39942D01*
X79792Y-39904D01*
X79778Y-39828D01*
X79778Y-39733D01*
X79792Y-39657D01*
X79807Y-39619D01*
X79821Y-39600D01*
X79850Y-39580D01*
X80135Y-39580D02*
X80164Y-39580D01*
X80192Y-39600D01*
X80207Y-39619D01*
X80221Y-39657D01*
X80235Y-39733D01*
X80235Y-39828D01*
X80221Y-39904D01*
X80207Y-39942D01*
X80192Y-39961D01*
X80164Y-39980D01*
X80135Y-39980D01*
X80107Y-39961D01*
X80092Y-39942D01*
X80078Y-39904D01*
X80064Y-39828D01*
X80064Y-39733D01*
X80078Y-39657D01*
X80092Y-39619D01*
X80107Y-39600D01*
X80135Y-39580D01*
X80364Y-39714D02*
X80364Y-39980D01*
X80364Y-39752D02*
X80378Y-39733D01*
X80407Y-39714D01*
X80450Y-39714D01*
X80478Y-39733D01*
X80492Y-39771D01*
X80492Y-39980D01*
%LPC*%
G54D16*
X79114Y-23720D03*
X80885Y-26279D03*
X80885Y-23720D03*
X79114Y-26279D03*
X80885Y-36279D03*
X79114Y-33720D03*
X79114Y-36279D03*
X80885Y-33720D03*
X79114Y-28720D03*
X80885Y-31279D03*
X80885Y-28720D03*
X79114Y-31279D03*
X75885Y-31279D03*
X74114Y-28720D03*
X74114Y-31279D03*
X75885Y-28720D03*
X84114Y-28720D03*
X85885Y-31279D03*
X85885Y-28720D03*
X84114Y-31279D03*
X79114Y-41220D03*
X80885Y-43779D03*
X80885Y-41220D03*
X79114Y-43779D03*
G54D17*
X82500Y-36500D03*
X82500Y-33500D03*
X82500Y-28500D03*
X82500Y-31500D03*
X77500Y-31500D03*
X77500Y-28500D03*
X77500Y-26500D03*
X77500Y-23500D03*
X82500Y-23500D03*
X82500Y-26500D03*
X77500Y-36500D03*
X77500Y-33500D03*
G54D18*
X81500Y-46000D03*
G54D17*
X80500Y-46000D03*
X79500Y-46000D03*
X78500Y-46000D03*
X81000Y-39800D03*
X79000Y-39800D03*
G54D19*
X75000Y-25000D03*
X85000Y-25000D03*
X85000Y-42500D03*
X75000Y-42500D03*
M02*
