%FSLAX34Y34*%
G04 Gerber Fmt 3.4, Leading zero omitted, Abs format*
G04 (created by PCBNEW (2013-jul-14)-product) date Saturday 22 February 2014 12:24:09 PM IST*
%MOIN*%
G01*
G70*
G90*
G04 APERTURE LIST*
%ADD10C,0.005906*%
%ADD11C,0.003937*%
%ADD12C,0.070000*%
%ADD13C,0.060000*%
%ADD14R,0.060000X0.060000*%
%ADD15C,0.240000*%
%ADD16C,0.030000*%
G04 APERTURE END LIST*
G54D10*
G54D11*
X85000Y-47500D02*
G75*
G03X87500Y-45000I0J2500D01*
G74*
G01*
X72500Y-45000D02*
G75*
G03X75000Y-47500I2500J0D01*
G74*
G01*
X87500Y-25000D02*
G75*
G03X85000Y-22500I-2500J0D01*
G74*
G01*
X75000Y-22500D02*
G75*
G03X72500Y-25000I0J-2500D01*
G74*
G01*
X80000Y-47500D02*
X85000Y-47500D01*
X80000Y-47500D02*
X75000Y-47500D01*
X72500Y-45000D02*
X72500Y-25000D01*
X87500Y-25000D02*
X87500Y-45000D01*
X80000Y-22500D02*
X85000Y-22500D01*
X80000Y-22500D02*
X75000Y-22500D01*
G54D12*
X79114Y-23720D03*
X80885Y-26279D03*
X80885Y-23720D03*
X79114Y-26279D03*
X80885Y-36279D03*
X79114Y-33720D03*
X79114Y-36279D03*
X80885Y-33720D03*
X79114Y-28720D03*
X80885Y-31279D03*
X80885Y-28720D03*
X79114Y-31279D03*
X75885Y-31279D03*
X74114Y-28720D03*
X74114Y-31279D03*
X75885Y-28720D03*
X84114Y-28720D03*
X85885Y-31279D03*
X85885Y-28720D03*
X84114Y-31279D03*
X79114Y-41220D03*
X80885Y-43779D03*
X80885Y-41220D03*
X79114Y-43779D03*
G54D13*
X82500Y-36500D03*
X82500Y-33500D03*
X82500Y-28500D03*
X82500Y-31500D03*
X77500Y-31500D03*
X77500Y-28500D03*
X77500Y-26500D03*
X77500Y-23500D03*
X82500Y-23500D03*
X82500Y-26500D03*
X77500Y-36500D03*
X77500Y-33500D03*
G54D14*
X81500Y-46000D03*
G54D13*
X80500Y-46000D03*
X79500Y-46000D03*
X78500Y-46000D03*
X81000Y-39800D03*
X79000Y-39800D03*
G54D15*
X75000Y-25000D03*
X85000Y-25000D03*
X85000Y-42500D03*
X75000Y-42500D03*
G54D16*
X79100Y-24900D02*
X80900Y-24900D01*
X80900Y-24900D02*
X82500Y-26500D01*
X82000Y-45500D02*
X81500Y-46000D01*
X82000Y-45500D02*
X82000Y-40800D01*
X82000Y-40800D02*
X81000Y-39800D01*
X81000Y-39800D02*
X81000Y-39150D01*
X81000Y-39150D02*
X80550Y-38700D01*
X80550Y-38700D02*
X77800Y-38700D01*
X77800Y-38700D02*
X73200Y-34100D01*
X73200Y-34100D02*
X73200Y-27950D01*
X73200Y-27950D02*
X73650Y-27500D01*
X73650Y-27500D02*
X75250Y-27500D01*
X75250Y-27500D02*
X77850Y-24900D01*
X77850Y-24900D02*
X79100Y-24900D01*
X79100Y-24900D02*
X79114Y-24900D01*
X79114Y-26279D02*
X79114Y-24900D01*
X79114Y-24900D02*
X79114Y-23720D01*
X78500Y-46000D02*
X78500Y-45050D01*
X80885Y-44314D02*
X80885Y-43779D01*
X80550Y-44650D02*
X80885Y-44314D01*
X78900Y-44650D02*
X80550Y-44650D01*
X78500Y-45050D02*
X78900Y-44650D01*
X80885Y-41220D02*
X80885Y-43779D01*
X81700Y-33550D02*
X81700Y-33250D01*
X80134Y-32700D02*
X79114Y-33720D01*
X81150Y-32700D02*
X80134Y-32700D01*
X81700Y-33250D02*
X81150Y-32700D01*
X85885Y-33164D02*
X85885Y-31279D01*
X84650Y-34400D02*
X85885Y-33164D01*
X82100Y-34400D02*
X84650Y-34400D01*
X81700Y-34000D02*
X82100Y-34400D01*
X81700Y-33550D02*
X81700Y-34000D01*
X80500Y-46000D02*
X80500Y-46500D01*
X80684Y-37850D02*
X79114Y-36279D01*
X82300Y-37850D02*
X80684Y-37850D01*
X82900Y-38450D02*
X82300Y-37850D01*
X82900Y-46150D02*
X82900Y-38450D01*
X82250Y-46800D02*
X82900Y-46150D01*
X80800Y-46800D02*
X82250Y-46800D01*
X80500Y-46500D02*
X80800Y-46800D01*
X80885Y-27500D02*
X84665Y-27500D01*
X84665Y-27500D02*
X85885Y-28720D01*
X77500Y-33500D02*
X75200Y-33500D01*
X74114Y-32414D02*
X74114Y-31279D01*
X75200Y-33500D02*
X74114Y-32414D01*
X79114Y-33720D02*
X78620Y-33720D01*
X78620Y-33720D02*
X78400Y-33500D01*
X78400Y-33500D02*
X77500Y-33500D01*
X80885Y-28720D02*
X80885Y-27500D01*
X80885Y-27500D02*
X80885Y-26279D01*
X79114Y-33720D02*
X79114Y-36279D01*
X85885Y-28720D02*
X85885Y-31279D01*
X80885Y-28720D02*
X80885Y-31279D01*
X74114Y-28720D02*
X74114Y-31279D01*
X77500Y-28500D02*
X77500Y-26500D01*
X79114Y-28720D02*
X78620Y-28720D01*
X78400Y-28500D02*
X77500Y-28500D01*
X78620Y-28720D02*
X78400Y-28500D01*
X79114Y-28720D02*
X79114Y-31279D01*
X84114Y-31279D02*
X84114Y-33035D01*
X83650Y-33500D02*
X82500Y-33500D01*
X84114Y-33035D02*
X83650Y-33500D01*
X82500Y-28500D02*
X83150Y-28500D01*
X83370Y-28720D02*
X84114Y-28720D01*
X83150Y-28500D02*
X83370Y-28720D01*
X84114Y-28720D02*
X84114Y-31279D01*
X81950Y-32050D02*
X78050Y-32050D01*
X78050Y-32050D02*
X77500Y-31500D01*
X81950Y-32050D02*
X82500Y-31500D01*
X77500Y-31500D02*
X76800Y-31500D01*
X76579Y-31279D02*
X75885Y-31279D01*
X76800Y-31500D02*
X76579Y-31279D01*
X75885Y-28720D02*
X75885Y-31279D01*
X84050Y-26800D02*
X85650Y-26800D01*
X85300Y-35050D02*
X80885Y-35050D01*
X86900Y-33450D02*
X85300Y-35050D01*
X86900Y-28050D02*
X86900Y-33450D01*
X85650Y-26800D02*
X86900Y-28050D01*
X81900Y-22900D02*
X78100Y-22900D01*
X78100Y-22900D02*
X77500Y-23500D01*
X81900Y-22900D02*
X82500Y-23500D01*
X84050Y-26800D02*
X82500Y-25250D01*
X82500Y-25250D02*
X82500Y-23500D01*
X80885Y-33720D02*
X80885Y-35050D01*
X80885Y-35050D02*
X80885Y-36279D01*
M02*
