M48
INCH,TZ
T1C0.035
T2C0.040
T3C0.120
%
G90
G05
T1
X7.75Y-2.35
X7.75Y-2.65
X7.75Y-2.85
X7.75Y-3.15
X7.75Y-3.35
X7.75Y-3.65
X7.9Y-3.98
X8.1Y-3.98
X8.25Y-2.35
X8.25Y-2.65
X8.25Y-2.85
X8.25Y-3.15
X8.25Y-3.35
X8.25Y-3.65
T2
X7.4114Y-2.872
X7.4114Y-3.128
X7.5886Y-2.872
X7.5886Y-3.128
X7.85Y-4.6
X7.9114Y-2.372
X7.9114Y-2.628
X7.9114Y-2.872
X7.9114Y-3.128
X7.9114Y-3.372
X7.9114Y-3.628
X7.9114Y-4.122
X7.9114Y-4.378
X7.95Y-4.6
X8.05Y-4.6
X8.0886Y-2.372
X8.0886Y-2.628
X8.0886Y-2.872
X8.0886Y-3.128
X8.0886Y-3.372
X8.0886Y-3.628
X8.0886Y-4.122
X8.0886Y-4.378
X8.15Y-4.6
X8.4114Y-2.872
X8.4114Y-3.128
X8.5886Y-2.872
X8.5886Y-3.128
T3
X7.5Y-2.5
X7.5Y-4.25
X8.5Y-2.5
X8.5Y-4.25
T0
M30
