<?xml version="1.0" standalone="no"?>
 <!DOCTYPE svg PUBLIC "-//W3C//DTD SVG 1.1//EN" 
 "http://www.w3.org/Graphics/SVG/1.1/DTD/svg11.dtd"> 
<svg xmlns="http://www.w3.org/2000/svg" version="1.1" 
    width="29.7002cm" height="21.0007cm" viewBox="0 0 116930 82680 ">
<title>SVG Picture created as TiNA-Dwgs_User.svg date 2013/12/06 17:26:11 </title>
  <desc>Picture generated by PCBNEW </desc>
<g style="fill:#000000; fill-opacity:1;stroke:#000000; stroke-opacity:1;
stroke-linecap:round; stroke-linejoin:round; "
 transform="translate(0 0) scale(1 1)">
</g>
<g style="fill:#000000; fill-opacity:0.0; 
stroke:#000000; stroke-width:10; stroke-opacity:1; 
stroke-linecap:round; stroke-linejoin:round;">
<path d="M4000 4000
L112930 4000
L112930 78680
L4000 78680
L4000 4000
" />
<path d="M4700 4700
L112230 4700
L112230 77980
L4700 77980
L4700 4700
" />
<path d="M25780 4000
L25780 4700
" />
<path d="M15032 4552
L14747 4552
" />
<path d="M14890 4552
L14890 4052
L14842 4123
L14794 4171
L14747 4195
" />
<path d="M25780 78680
L25780 77980
" />
<path d="M15032 78532
L14747 78532
" />
<path d="M14890 78532
L14890 78032
L14842 78103
L14794 78151
L14747 78175
" />
<path d="M47560 4000
L47560 4700
" />
<path d="M36527 4100
L36550 4076
L36598 4052
L36717 4052
L36765 4076
L36789 4100
L36812 4147
L36812 4195
L36789 4266
L36503 4552
L36812 4552
" />
<path d="M47560 78680
L47560 77980
" />
<path d="M36527 78080
L36550 78056
L36598 78032
L36717 78032
L36765 78056
L36789 78080
L36812 78127
L36812 78175
L36789 78246
L36503 78532
L36812 78532
" />
<path d="M69340 4000
L69340 4700
" />
<path d="M58283 4052
L58592 4052
L58426 4242
L58497 4242
L58545 4266
L58569 4290
L58592 4338
L58592 4457
L58569 4504
L58545 4528
L58497 4552
L58354 4552
L58307 4528
L58283 4504
" />
<path d="M69340 78680
L69340 77980
" />
<path d="M58283 78032
L58592 78032
L58426 78222
L58497 78222
L58545 78246
L58569 78270
L58592 78318
L58592 78437
L58569 78484
L58545 78508
L58497 78532
L58354 78532
L58307 78508
L58283 78484
" />
<path d="M91120 4000
L91120 4700
" />
<path d="M80325 4219
L80325 4552
" />
<path d="M80206 4028
L80087 4385
L80396 4385
" />
<path d="M91120 78680
L91120 77980
" />
<path d="M80325 78199
L80325 78532
" />
<path d="M80206 78008
L80087 78365
L80396 78365
" />
<path d="M102129 4052
L101890 4052
L101867 4290
L101890 4266
L101938 4242
L102057 4242
L102105 4266
L102129 4290
L102152 4338
L102152 4457
L102129 4504
L102105 4528
L102057 4552
L101938 4552
L101890 4528
L101867 4504
" />
<path d="M102129 78032
L101890 78032
L101867 78270
L101890 78246
L101938 78222
L102057 78222
L102105 78246
L102129 78270
L102152 78318
L102152 78437
L102129 78484
L102105 78508
L102057 78532
L101938 78532
L101890 78508
L101867 78484
" />
<path d="M4000 28890
L4700 28890
" />
<path d="M4230 16509
L4469 16509
" />
<path d="M4183 16652
L4350 16152
L4516 16652
" />
<path d="M112930 28890
L112230 28890
" />
<path d="M112460 16509
L112699 16509
" />
<path d="M112413 16652
L112580 16152
L112746 16652
" />
<path d="M4000 53780
L4700 53780
" />
<path d="M4385 41280
L4457 41304
L4480 41328
L4504 41375
L4504 41447
L4480 41494
L4457 41518
L4409 41542
L4219 41542
L4219 41042
L4385 41042
L4433 41066
L4457 41090
L4480 41137
L4480 41185
L4457 41232
L4433 41256
L4385 41280
L4219 41280
" />
<path d="M112930 53780
L112230 53780
" />
<path d="M112615 41280
L112687 41304
L112710 41328
L112734 41375
L112734 41447
L112710 41494
L112687 41518
L112639 41542
L112449 41542
L112449 41042
L112615 41042
L112663 41066
L112687 41090
L112710 41137
L112710 41185
L112687 41232
L112663 41256
L112615 41280
L112449 41280
" />
<path d="M4504 66384
L4480 66408
L4409 66432
L4361 66432
L4290 66408
L4242 66360
L4219 66313
L4195 66218
L4195 66146
L4219 66051
L4242 66003
L4290 65956
L4361 65932
L4409 65932
L4480 65956
L4504 65980
" />
<path d="M112734 66384
L112710 66408
L112639 66432
L112591 66432
L112520 66408
L112472 66360
L112449 66313
L112425 66218
L112425 66146
L112449 66051
L112472 66003
L112520 65956
L112591 65932
L112639 65932
L112710 65956
L112734 65980
" />
<path d="M79380 76422
L79455 75822
L79597 75822
L79680 75851
L79730 75908
L79751 75965
L79765 76080
L79755 76165
L79712 76280
L79676 76337
L79612 76394
L79522 76422
L79380 76422
" />
<path d="M80237 76422
L80276 76108
L80255 76051
L80201 76022
L80087 76022
L80026 76051
" />
<path d="M80240 76394
L80180 76422
L80037 76422
L79983 76394
L79962 76337
L79969 76280
L80005 76222
L80065 76194
L80208 76194
L80269 76165
" />
<path d="M80487 76022
L80715 76022
" />
<path d="M80597 75822
L80533 76337
L80555 76394
L80608 76422
L80665 76422
" />
<path d="M81097 76394
L81037 76422
L80922 76422
L80869 76394
L80847 76337
L80876 76108
L80912 76051
L80972 76022
L81087 76022
L81140 76051
L81162 76108
L81155 76165
L80862 76222
" />
<path d="M81387 76365
L81412 76394
L81380 76422
L81355 76394
L81387 76365
L81380 76422
" />
<path d="M81426 76051
L81451 76080
L81419 76108
L81394 76080
L81426 76051
L81419 76108
" />
<path d="M82455 75822
L82340 75822
L82279 75851
L82247 75880
L82180 75965
L82137 76080
L82108 76308
L82130 76365
L82155 76394
L82208 76422
L82322 76422
L82383 76394
L82415 76365
L82451 76308
L82469 76165
L82447 76108
L82422 76080
L82369 76051
L82254 76051
L82194 76080
L82162 76108
L82126 76165
" />
<path d="M83408 76422
L83483 75822
" />
<path d="M83412 76394
L83351 76422
L83237 76422
L83183 76394
L83158 76365
L83137 76308
L83158 76137
L83194 76080
L83226 76051
L83287 76022
L83401 76022
L83455 76051
" />
<path d="M83926 76394
L83865 76422
L83751 76422
L83697 76394
L83676 76337
L83705 76108
L83740 76051
L83801 76022
L83915 76022
L83969 76051
L83990 76108
L83983 76165
L83690 76222
" />
<path d="M84469 76394
L84408 76422
L84294 76422
L84240 76394
L84215 76365
L84194 76308
L84215 76137
L84251 76080
L84283 76051
L84344 76022
L84458 76022
L84512 76051
" />
<path d="M85219 75880
L85251 75851
L85312 75822
L85455 75822
L85508 75851
L85533 75880
L85555 75937
L85547 75994
L85508 76080
L85122 76422
L85494 76422
" />
<path d="M85940 75822
L85997 75822
L86051 75851
L86076 75880
L86097 75937
L86112 76051
L86094 76194
L86051 76308
L86015 76365
L85983 76394
L85922 76422
L85865 76422
L85812 76394
L85787 76365
L85765 76308
L85751 76194
L85769 76051
L85812 75937
L85847 75880
L85880 75851
L85940 75822
" />
<path d="M86637 76422
L86294 76422
" />
<path d="M86465 76422
L86540 75822
L86472 75908
L86408 75965
L86347 75994
" />
<path d="M86912 75822
L87283 75822
L87055 76051
L87140 76051
L87194 76080
L87219 76108
L87240 76165
L87222 76308
L87187 76365
L87155 76394
L87094 76422
L86922 76422
L86869 76394
L86844 76365
" />
<path d="M70972 77622
L70972 77022
" />
<path d="M71315 77622
L71058 77280
" />
<path d="M71315 77022
L70972 77365
" />
<path d="M71572 77622
L71572 77222
" />
<path d="M71572 77022
L71544 77051
L71572 77080
L71601 77051
L71572 77022
L71572 77080
" />
<path d="M72201 77565
L72172 77594
L72087 77622
L72030 77622
L71944 77594
L71887 77537
L71858 77480
L71830 77365
L71830 77280
L71858 77165
L71887 77108
L71944 77051
L72030 77022
L72087 77022
L72172 77051
L72201 77080
" />
<path d="M72715 77622
L72715 77308
L72687 77251
L72630 77222
L72515 77222
L72458 77251
" />
<path d="M72715 77594
L72658 77622
L72515 77622
L72458 77594
L72430 77537
L72430 77480
L72458 77422
L72515 77394
L72658 77394
L72715 77365
" />
<path d="M73258 77622
L73258 77022
" />
<path d="M73258 77594
L73201 77622
L73087 77622
L73030 77594
L73001 77565
L72972 77508
L72972 77337
L73001 77280
L73030 77251
L73087 77222
L73201 77222
L73258 77251
" />
<path d="M74001 77308
L74201 77308
" />
<path d="M74287 77622
L74001 77622
L74001 77022
L74287 77022
" />
<path d="M74544 77565
L74572 77594
L74544 77622
L74515 77594
L74544 77565
L74544 77622
" />
<path d="M74829 77622
L74829 77022
L74972 77022
L75058 77051
L75115 77108
L75144 77165
L75172 77280
L75172 77365
L75144 77480
L75115 77537
L75058 77594
L74972 77622
L74829 77622
" />
<path d="M75429 77565
L75458 77594
L75429 77622
L75401 77594
L75429 77565
L75429 77622
" />
<path d="M75687 77451
L75972 77451
" />
<path d="M75629 77622
L75829 77022
L76029 77622
" />
<path d="M76229 77565
L76258 77594
L76229 77622
L76201 77594
L76229 77565
L76229 77622
" />
<path d="M104522 76422
L104358 76137
" />
<path d="M104180 76422
L104255 75822
L104483 75822
L104537 75851
L104562 75880
L104583 75937
L104572 76022
L104537 76080
L104505 76108
L104444 76137
L104215 76137
" />
<path d="M105012 76394
L104951 76422
L104837 76422
L104783 76394
L104762 76337
L104790 76108
L104826 76051
L104887 76022
L105001 76022
L105055 76051
L105076 76108
L105069 76165
L104776 76222
" />
<path d="M105287 76022
L105380 76422
L105572 76022
" />
<path d="M105758 76365
L105783 76394
L105751 76422
L105726 76394
L105758 76365
L105751 76422
" />
<path d="M105797 76051
L105822 76080
L105790 76108
L105765 76080
L105797 76051
L105790 76108
" />
<path d="M70944 76394
L71030 76422
L71172 76422
L71230 76394
L71258 76365
L71287 76308
L71287 76251
L71258 76194
L71230 76165
L71172 76137
L71058 76108
L71001 76080
L70972 76051
L70944 75994
L70944 75937
L70972 75880
L71001 75851
L71058 75822
L71201 75822
L71287 75851
" />
<path d="M71544 76422
L71544 76022
" />
<path d="M71544 75822
L71515 75851
L71544 75880
L71572 75851
L71544 75822
L71544 75880
" />
<path d="M71772 76022
L72087 76022
L71772 76422
L72087 76422
" />
<path d="M72544 76394
L72487 76422
L72372 76422
L72315 76394
L72287 76337
L72287 76108
L72315 76051
L72372 76022
L72487 76022
L72544 76051
L72572 76108
L72572 76165
L72287 76222
" />
<path d="M72830 76365
L72858 76394
L72830 76422
L72801 76394
L72830 76365
L72830 76422
" />
<path d="M72830 76051
L72858 76080
L72830 76108
L72801 76080
L72830 76051
L72830 76108
" />
<path d="M73544 76251
L73830 76251
" />
<path d="M73487 76422
L73687 75822
L73887 76422
" />
<path d="M74344 76022
L74344 76422
" />
<path d="M74201 75794
L74058 76222
L74430 76222
" />
<path d="M104172 77622
L104172 77022
" />
<path d="M104715 77622
L104715 77022
" />
<path d="M104715 77594
L104658 77622
L104544 77622
L104487 77594
L104458 77565
L104430 77508
L104430 77337
L104458 77280
L104487 77251
L104544 77222
L104658 77222
L104715 77251
" />
<path d="M105001 77565
L105030 77594
L105001 77622
L104972 77594
L105001 77565
L105001 77622
" />
<path d="M105001 77251
L105030 77280
L105001 77308
L104972 77280
L105001 77251
L105001 77308
" />
<path d="M106058 77622
L105715 77622
" />
<path d="M105887 77622
L105887 77022
L105829 77108
L105772 77165
L105715 77194
" />
<path d="M106744 76994
L106230 77765
" />
<path d="M107258 77622
L106915 77622
" />
<path d="M107087 77622
L107087 77022
L107029 77108
L106972 77165
L106915 77194
" />
<path d="M70969 74622
L71312 74622
" />
<path d="M71065 75222
L71140 74622
" />
<path d="M71437 75222
L71487 74822
" />
<path d="M71512 74622
L71480 74651
L71505 74680
L71537 74651
L71512 74622
L71505 74680
" />
<path d="M71687 74822
L71915 74822
" />
<path d="M71797 74622
L71733 75137
L71755 75194
L71808 75222
L71865 75222
" />
<path d="M72151 75222
L72097 75194
L72076 75137
L72140 74622
" />
<path d="M72612 75194
L72551 75222
L72437 75222
L72383 75194
L72362 75137
L72390 74908
L72426 74851
L72487 74822
L72601 74822
L72655 74851
L72676 74908
L72669 74965
L72376 75022
" />
<path d="M72901 75165
L72926 75194
L72894 75222
L72869 75194
L72901 75165
L72894 75222
" />
<path d="M72940 74851
L72965 74880
L72933 74908
L72908 74880
L72940 74851
L72933 74908
" />
<path d="M73626 74622
L73969 74622
" />
<path d="M73722 75222
L73797 74622
" />
<path d="M74094 75222
L74144 74822
" />
<path d="M74169 74622
L74137 74651
L74162 74680
L74194 74651
L74169 74622
L74162 74680
" />
<path d="M74380 75222
L74455 74622
L74722 75222
L74797 74622
" />
<path d="M75001 75051
L75287 75051
" />
<path d="M74922 75222
L75197 74622
L75322 75222
" />
<path d="M76008 74994
L76465 74994
" />
<path d="M77530 75165
L77497 75194
L77408 75222
L77351 75222
L77269 75194
L77219 75137
L77197 75080
L77183 74965
L77194 74880
L77237 74765
L77272 74708
L77337 74651
L77426 74622
L77483 74622
L77565 74651
L77590 74680
" />
<path d="M77865 75222
L77812 75194
L77787 75165
L77765 75108
L77787 74937
L77822 74880
L77855 74851
L77915 74822
L78001 74822
L78055 74851
L78080 74880
L78101 74937
L78080 75108
L78044 75165
L78012 75194
L77951 75222
L77865 75222
" />
<path d="M78372 74822
L78322 75222
" />
<path d="M78365 74880
L78397 74851
L78458 74822
L78544 74822
L78597 74851
L78619 74908
L78580 75222
" />
<path d="M78830 74822
L79058 74822
" />
<path d="M78940 74622
L78876 75137
L78897 75194
L78951 75222
L79008 75222
" />
<path d="M79208 75222
L79258 74822
" />
<path d="M79244 74937
L79280 74880
L79312 74851
L79372 74822
L79430 74822
" />
<path d="M79665 75222
L79612 75194
L79587 75165
L79565 75108
L79587 74937
L79622 74880
L79655 74851
L79715 74822
L79801 74822
L79855 74851
L79880 74880
L79901 74937
L79880 75108
L79844 75165
L79812 75194
L79751 75222
L79665 75222
" />
<path d="M80208 75222
L80155 75194
L80133 75137
L80197 74622
" />
<path d="M80522 75222
L80469 75194
L80447 75137
L80512 74622
" />
<path d="M80983 75194
L80922 75222
L80808 75222
L80755 75194
L80733 75137
L80762 74908
L80797 74851
L80858 74822
L80972 74822
L81026 74851
L81047 74908
L81040 74965
L80747 75022
" />
<path d="M81265 75222
L81315 74822
" />
<path d="M81301 74937
L81337 74880
L81369 74851
L81430 74822
L81487 74822
" />
<path d="M82058 74822
L82287 74822
" />
<path d="M82094 75222
L82158 74708
L82194 74651
L82255 74622
L82312 74622
" />
<path d="M82522 75222
L82469 75194
L82444 75165
L82422 75108
L82444 74937
L82480 74880
L82512 74851
L82572 74822
L82658 74822
L82712 74851
L82737 74880
L82758 74937
L82737 75108
L82701 75165
L82669 75194
L82608 75222
L82522 75222
" />
<path d="M82980 75222
L83030 74822
" />
<path d="M83015 74937
L83051 74880
L83083 74851
L83144 74822
L83201 74822
" />
<path d="M83797 74622
L84140 74622
" />
<path d="M83894 75222
L83969 74622
" />
<path d="M84265 75222
L84315 74822
" />
<path d="M84340 74622
L84308 74651
L84333 74680
L84365 74651
L84340 74622
L84333 74680
" />
<path d="M84551 75222
L84626 74622
L84772 75051
L85026 74622
L84951 75222
" />
<path d="M71172 72508
L70972 72508
" />
<path d="M70972 72822
L70972 72222
L71258 72222
" />
<path d="M71487 72822
L71487 72422
" />
<path d="M71487 72222
L71458 72251
L71487 72280
L71515 72251
L71487 72222
L71487 72280
" />
<path d="M71858 72822
L71801 72794
L71772 72737
L71772 72222
" />
<path d="M72315 72794
L72258 72822
L72144 72822
L72087 72794
L72058 72737
L72058 72508
L72087 72451
L72144 72422
L72258 72422
L72315 72451
L72344 72508
L72344 72565
L72058 72622
" />
<path d="M72601 72765
L72630 72794
L72601 72822
L72572 72794
L72601 72765
L72601 72822
" />
<path d="M72601 72451
L72630 72480
L72601 72508
L72572 72480
L72601 72451
L72601 72508
" />
<path d="M73258 72222
L73601 72222
" />
<path d="M73430 72822
L73430 72222
" />
<path d="M73801 72822
L73801 72422
" />
<path d="M73801 72222
L73772 72251
L73801 72280
L73830 72251
L73801 72222
L73801 72280
" />
<path d="M74087 72822
L74087 72222
L74430 72822
L74430 72222
" />
<path d="M74687 72651
L74972 72651
" />
<path d="M74630 72822
L74830 72222
L75030 72822
" />
<path d="M75230 72765
L75258 72794
L75230 72822
L75201 72794
L75230 72765
L75230 72822
" />
<path d="M75515 72822
L75515 72222
" />
<path d="M75572 72594
L75744 72822
" />
<path d="M75744 72422
L75515 72651
" />
<path d="M76001 72822
L76001 72422
" />
<path d="M76001 72222
L75972 72251
L76001 72280
L76030 72251
L76001 72222
L76001 72280
" />
<path d="M76544 72794
L76487 72822
L76372 72822
L76315 72794
L76287 72765
L76258 72708
L76258 72537
L76287 72480
L76315 72451
L76372 72422
L76487 72422
L76544 72451
" />
<path d="M77058 72822
L77058 72508
L77030 72451
L76972 72422
L76858 72422
L76801 72451
" />
<path d="M77058 72794
L77001 72822
L76858 72822
L76801 72794
L76772 72737
L76772 72680
L76801 72622
L76858 72594
L77001 72594
L77058 72565
" />
<path d="M77601 72822
L77601 72222
" />
<path d="M77601 72794
L77544 72822
L77429 72822
L77372 72794
L77344 72765
L77315 72708
L77315 72537
L77344 72480
L77372 72451
L77429 72422
L77544 72422
L77601 72451
" />
<path d="M77744 72880
L78201 72880
" />
<path d="M78344 72422
L78344 73022
" />
<path d="M78344 72451
L78401 72422
L78515 72422
L78572 72451
L78601 72480
L78629 72537
L78629 72708
L78601 72765
L78572 72794
L78515 72822
L78401 72822
L78344 72794
" />
<path d="M79144 72794
L79087 72822
L78972 72822
L78915 72794
L78887 72765
L78858 72708
L78858 72537
L78887 72480
L78915 72451
L78972 72422
L79087 72422
L79144 72451
" />
<path d="M79401 72822
L79401 72222
" />
<path d="M79401 72451
L79458 72422
L79572 72422
L79630 72451
L79658 72480
L79687 72537
L79687 72708
L79658 72765
L79630 72794
L79572 72822
L79458 72822
L79401 72794
" />
<path d="M70944 73994
L71030 74022
L71172 74022
L71230 73994
L71258 73965
L71287 73908
L71287 73851
L71258 73794
L71230 73765
L71172 73737
L71058 73708
L71001 73680
L70972 73651
L70944 73594
L70944 73537
L70972 73480
L71001 73451
L71058 73422
L71201 73422
L71287 73451
" />
<path d="M71544 74022
L71544 73422
" />
<path d="M71801 74022
L71801 73708
L71772 73651
L71715 73622
L71630 73622
L71572 73651
L71544 73680
" />
<path d="M72315 73994
L72258 74022
L72144 74022
L72087 73994
L72058 73937
L72058 73708
L72087 73651
L72144 73622
L72258 73622
L72315 73651
L72344 73708
L72344 73765
L72058 73822
" />
<path d="M72830 73994
L72772 74022
L72658 74022
L72601 73994
L72572 73937
L72572 73708
L72601 73651
L72658 73622
L72772 73622
L72830 73651
L72858 73708
L72858 73765
L72572 73822
" />
<path d="M73030 73622
L73258 73622
" />
<path d="M73115 73422
L73115 73937
L73144 73994
L73201 74022
L73258 74022
" />
<path d="M73458 73965
L73487 73994
L73458 74022
L73430 73994
L73458 73965
L73458 74022
" />
<path d="M73458 73651
L73487 73680
L73458 73708
L73430 73680
L73458 73651
L73458 73708
" />
<path d="M70997 71022
L71065 71622
L71233 71194
L71294 71622
L71512 71022
" />
<path d="M71658 71222
L71751 71622
" />
<path d="M71944 71222
L71751 71622
L71676 71765
L71644 71794
L71583 71822
" />
<path d="M72208 71622
L72155 71594
L72130 71565
L72108 71508
L72130 71337
L72165 71280
L72197 71251
L72258 71222
L72344 71222
L72397 71251
L72422 71280
L72444 71337
L72422 71508
L72387 71565
L72355 71594
L72294 71622
L72208 71622
" />
<path d="M72951 71622
L72665 71622
L72740 71022
" />
<path d="M73458 71222
L73408 71622
" />
<path d="M73201 71222
L73162 71537
L73183 71594
L73237 71622
L73322 71622
L73383 71594
L73415 71565
" />
<path d="M73694 71622
L73744 71222
" />
<path d="M73737 71280
L73769 71251
L73829 71222
L73915 71222
L73969 71251
L73990 71308
L73951 71622
" />
<path d="M73990 71308
L74026 71251
L74087 71222
L74172 71222
L74226 71251
L74247 71308
L74208 71622
" />
<path d="M70915 70022
L71030 70422
L71144 70137
L71258 70422
L71372 70022
" />
<path d="M71544 70022
L71658 70422
L71772 70137
L71887 70422
L72001 70022
" />
<path d="M72172 70022
L72287 70422
L72401 70137
L72515 70422
L72629 70022
" />
<path d="M72858 70365
L72887 70394
L72858 70422
L72829 70394
L72858 70365
L72858 70422
" />
<path d="M73087 70022
L73201 70422
L73315 70137
L73429 70422
L73544 70022
" />
<path d="M73715 70022
L73858 70422
" />
<path d="M74001 70022
L73858 70422
L73801 70565
L73772 70594
L73715 70622
" />
<path d="M74315 70422
L74258 70394
L74229 70365
L74201 70308
L74201 70137
L74229 70080
L74258 70051
L74315 70022
L74401 70022
L74458 70051
L74487 70080
L74515 70137
L74515 70308
L74487 70365
L74458 70394
L74401 70422
L74315 70422
" />
<path d="M74858 70422
L74801 70394
L74772 70337
L74772 69822
" />
<path d="M75344 70022
L75344 70422
" />
<path d="M75087 70022
L75087 70337
L75115 70394
L75172 70422
L75258 70422
L75315 70394
L75344 70365
" />
<path d="M75629 70422
L75629 70022
" />
<path d="M75629 70080
L75658 70051
L75715 70022
L75801 70022
L75858 70051
L75887 70108
L75887 70422
" />
<path d="M75887 70108
L75915 70051
L75972 70022
L76058 70022
L76115 70051
L76144 70108
L76144 70422
" />
<path d="M76429 70365
L76458 70394
L76429 70422
L76401 70394
L76429 70365
L76429 70422
" />
<path d="M76972 70394
L76915 70422
L76801 70422
L76744 70394
L76715 70365
L76687 70308
L76687 70137
L76715 70080
L76744 70051
L76801 70022
L76915 70022
L76972 70051
" />
<path d="M77315 70422
L77258 70394
L77229 70365
L77201 70308
L77201 70137
L77229 70080
L77258 70051
L77315 70022
L77401 70022
L77458 70051
L77487 70080
L77515 70137
L77515 70308
L77487 70365
L77458 70394
L77401 70422
L77315 70422
" />
<path d="M77772 70422
L77772 70022
" />
<path d="M77772 70080
L77801 70051
L77858 70022
L77944 70022
L78001 70051
L78029 70108
L78029 70422
" />
<path d="M78029 70108
L78058 70051
L78115 70022
L78201 70022
L78258 70051
L78287 70108
L78287 70422
" />
<path d="M70230 69580
L70230 77980
" />
<path d="M70230 71980
L112230 71980
" />
<path d="M70230 69580
L112230 69580
" />
<path d="M70230 74380
L112230 74380
" />
<path d="M103430 75580
L103430 77980
" />
<path d="M70230 76780
L112230 76780
" />
<path d="M70230 75580
L112230 75580
" />
<path d="M76830 75580
L76830 76780
" />
</g>
<g style="fill:#000000; fill-opacity:0.0; 
stroke:#000000; stroke-width:78.7402; stroke-opacity:1; 
stroke-linecap:round; stroke-linejoin:round;">
<path d="M19500 10000
L11500 10000
" />
<path d="M21000 22500
L21000 11500
" />
<path d="M11500 24000
L19500 24000
" />
<path d="M10000 11500
L10000 22500
" />
<path d="M11500 10000 A1500 1500 0.0 0 0 10000 11500 " />
<path d="M21000 11500 A1500 1500 0.0 0 0 19500 10000 " />
<path d="M19500 24000 A1500 1500 0.0 0 0 21000 22500 " />
<path d="M10000 22500 A1500 1500 0.0 0 0 11500 24000 " />
<path d="M58000 26800
L58000 45675
" />
<path d="M58000 47800
L58000 46925
" />
<path d="M11500 49300
L56500 49300
" />
<path d="M10000 47800
L10000 46925
" />
<path d="M10000 26800
L10000 45675
" />
<path d="M56500 25300
L11500 25300
" />
<path d="M58000 26800 A1500 1500 0.0 0 0 56500 25300 " />
<path d="M56500 49300 A1500 1500 0.0 0 0 58000 47800 " />
<path d="M10000 47800 A1500 1500 0.0 0 0 11500 49300 " />
<path d="M11500 25300 A1500 1500 0.0 0 0 10000 26800 " />
<path d="M55300 26800
L57700 26800
" />
<path d="M56500 25600
L56500 28000
" />
<path d="M18300 22500
L20700 22500
" />
<path d="M19500 21300
L19500 23700
" />
<path d="M10300 22500
L12700 22500
" />
<path d="M11500 21300
L11500 23700
" />
<path d="M10300 26800
L12700 26800
" />
<path d="M11500 25600
L11500 28000
" />
<path d="M11800 36900
L14200 36900
" />
<path d="M13000 35700
L13000 38100
" />
<path d="M29800 36900
L32200 36900
" />
<path d="M31000 35700
L31000 38100
" />
<path d="M35800 36900
L38200 36900
" />
<path d="M37000 35700
L37000 38100
" />
<path d="M56200 36900
L53800 36900
" />
<path d="M55000 35700
L55000 38100
" />
<path d="M55300 47800
L57700 47800
" />
<path d="M56500 46600
L56500 49000
" />
<path d="M33000 46300
L35000 46300
" />
<path d="M34000 45300
L34000 47300
" />
<path d="M11500 46600
L11500 49000
" />
<path d="M10300 47800
L12700 47800
" />
<circle cx="11500" cy="47800" r="1200" /> 
<circle cx="34000" cy="46300" r="1000.31" /> 
<circle cx="56500" cy="47800" r="1200.26" /> 
<circle cx="55000" cy="36900" r="1201.04" /> 
<circle cx="37000" cy="36900" r="1200" /> 
<circle cx="31000" cy="36900" r="1200.26" /> 
<circle cx="13000" cy="36900" r="1200" /> 
<circle cx="56500" cy="26800" r="1200.26" /> 
<circle cx="11500" cy="26800" r="1200" /> 
<circle cx="19500" cy="22500" r="1202.34" /> 
<circle cx="11500" cy="22500" r="1200" /> 
</g>
<g style="fill:#000000; fill-opacity:0.0; 
stroke:#000000; stroke-width:80; stroke-opacity:1; 
stroke-linecap:round; stroke-linejoin:round;">
<path d="M62748 28888
L62748 29135
L62595 29002
L62595 29059
L62576 29097
L62557 29116
L62519 29135
L62424 29135
L62386 29116
L62367 29097
L62348 29059
L62348 28945
L62367 28907
L62386 28888
" />
<path d="M62386 29307
L62367 29326
L62348 29307
L62367 29288
L62386 29307
L62348 29307
" />
<path d="M62348 29516
L62348 29592
L62367 29630
L62386 29650
L62443 29688
L62519 29707
L62671 29707
L62709 29688
L62729 29669
L62748 29630
L62748 29554
L62729 29516
L62709 29497
L62671 29478
L62576 29478
L62538 29497
L62519 29516
L62500 29554
L62500 29630
L62519 29669
L62538 29688
L62576 29707
" />
<path d="M62748 29840
L62748 30088
L62595 29954
L62595 30011
L62576 30050
L62557 30069
L62519 30088
L62424 30088
L62386 30069
L62367 30050
L62348 30011
L62348 29897
L62367 29859
L62386 29840
" />
<path d="M62748 30240
L62671 30240
" />
<path d="M62748 30392
L62671 30392
" />
<path d="M62149 10000
L62149 49300
" />
<path d="M58000 10000
L62869 10000
" />
<path d="M58000 49300
L62869 49300
" />
<path d="M62149 49300
L61919 48856
" />
<path d="M62149 49300
L62380 48856
" />
<path d="M62149 10000
L61919 10443
" />
<path d="M62149 10000
L62380 10443
" />
<path d="M9638 20852
L9638 20890
L9619 20928
L9600 20947
L9561 20966
L9485 20985
L9390 20985
L9314 20966
L9276 20947
L9257 20928
L9238 20890
L9238 20852
L9257 20814
L9276 20795
L9314 20776
L9390 20757
L9485 20757
L9561 20776
L9600 20795
L9619 20814
L9638 20852
" />
<path d="M9276 21157
L9257 21176
L9238 21157
L9257 21138
L9276 21157
L9238 21157
" />
<path d="M9238 21557
L9238 21328
" />
<path d="M9238 21442
L9638 21442
L9580 21404
L9542 21366
L9523 21328
" />
<path d="M9638 21919
L9638 21728
L9447 21709
L9466 21728
L9485 21766
L9485 21861
L9466 21900
L9447 21919
L9409 21938
L9314 21938
L9276 21919
L9257 21900
L9238 21861
L9238 21766
L9257 21728
L9276 21709
" />
<path d="M9638 22090
L9561 22090
" />
<path d="M9638 22242
L9561 22242
" />
<path d="M9400 22500
L9400 24000
" />
<path d="M11500 22500
L8680 22500
" />
<path d="M11500 24000
L8680 24000
" />
<path d="M9400 24000
L9169 23556
" />
<path d="M9400 24000
L9630 23556
" />
<path d="M9400 22500
L9169 22943
" />
<path d="M9400 22500
L9630 22943
" />
<path d="M11752 24261
L11790 24261
L11828 24280
L11847 24300
L11866 24338
L11885 24414
L11885 24509
L11866 24585
L11847 24623
L11828 24642
L11790 24661
L11752 24661
L11714 24642
L11695 24623
L11676 24585
L11657 24509
L11657 24414
L11676 24338
L11695 24300
L11714 24280
L11752 24261
" />
<path d="M12057 24623
L12076 24642
L12057 24661
L12038 24642
L12057 24623
L12057 24661
" />
<path d="M12457 24661
L12228 24661
" />
<path d="M12342 24661
L12342 24261
L12304 24319
L12266 24357
L12228 24376
" />
<path d="M12819 24261
L12628 24261
L12609 24452
L12628 24433
L12666 24414
L12761 24414
L12800 24433
L12819 24452
L12838 24490
L12838 24585
L12819 24623
L12800 24642
L12761 24661
L12666 24661
L12628 24642
L12609 24623
" />
<path d="M12990 24261
L12990 24338
" />
<path d="M13142 24261
L13142 24338
" />
<path d="M11500 24500
L10000 24500
" />
<path d="M11500 22500
L11500 25220
" />
<path d="M10000 22500
L10000 25220
" />
<path d="M10000 24500
L10443 24269
" />
<path d="M10000 24500
L10443 24730
" />
<path d="M11500 24500
L11056 24269
" />
<path d="M11500 24500
L11056 24730
" />
<path d="M14852 20701
L14890 20701
L14928 20720
L14947 20740
L14966 20778
L14985 20854
L14985 20949
L14966 21025
L14947 21063
L14928 21082
L14890 21101
L14852 21101
L14814 21082
L14795 21063
L14776 21025
L14757 20949
L14757 20854
L14776 20778
L14795 20740
L14814 20720
L14852 20701
" />
<path d="M15157 21063
L15176 21082
L15157 21101
L15138 21082
L15157 21063
L15157 21101
" />
<path d="M15404 20873
L15366 20854
L15347 20835
L15328 20797
L15328 20778
L15347 20740
L15366 20720
L15404 20701
L15480 20701
L15519 20720
L15538 20740
L15557 20778
L15557 20797
L15538 20835
L15519 20854
L15480 20873
L15404 20873
L15366 20892
L15347 20911
L15328 20949
L15328 21025
L15347 21063
L15366 21082
L15404 21101
L15480 21101
L15519 21082
L15538 21063
L15557 21025
L15557 20949
L15538 20911
L15519 20892
L15480 20873
" />
<path d="M15804 20701
L15842 20701
L15880 20720
L15900 20740
L15919 20778
L15938 20854
L15938 20949
L15919 21025
L15900 21063
L15880 21082
L15842 21101
L15804 21101
L15766 21082
L15747 21063
L15728 21025
L15709 20949
L15709 20854
L15728 20778
L15747 20740
L15766 20720
L15804 20701
" />
<path d="M16090 20701
L16090 20778
" />
<path d="M16242 20701
L16242 20778
" />
<path d="M11500 21300
L19500 21300
" />
<path d="M11500 22500
L11500 20580
" />
<path d="M19500 22500
L19500 20580
" />
<path d="M19500 21300
L19056 21530
" />
<path d="M19500 21300
L19056 21069
" />
<path d="M11500 21300
L11943 21530
" />
<path d="M11500 21300
L11943 21069
" />
<path d="M22552 8261
L22590 8261
L22628 8280
L22647 8300
L22666 8338
L22685 8414
L22685 8509
L22666 8585
L22647 8623
L22628 8642
L22590 8661
L22552 8661
L22514 8642
L22495 8623
L22476 8585
L22457 8509
L22457 8414
L22476 8338
L22495 8300
L22514 8280
L22552 8261
" />
<path d="M22857 8623
L22876 8642
L22857 8661
L22838 8642
L22857 8623
L22857 8661
" />
<path d="M23257 8661
L23028 8661
" />
<path d="M23142 8661
L23142 8261
L23104 8319
L23066 8357
L23028 8376
" />
<path d="M23390 8261
L23638 8261
L23504 8414
L23561 8414
L23600 8433
L23619 8452
L23638 8490
L23638 8585
L23619 8623
L23600 8642
L23561 8661
L23447 8661
L23409 8642
L23390 8623
" />
<path d="M23790 8261
L23790 8338
" />
<path d="M23942 8261
L23942 8338
" />
<path d="M21000 8500
L22300 8500
" />
<path d="M21000 10000
L21000 7780
" />
<path d="M22300 10000
L22300 7780
" />
<path d="M22300 8500
L21856 8730
" />
<path d="M22300 8500
L21856 8269
" />
<path d="M21000 8500
L21443 8730
" />
<path d="M21000 8500
L21443 8269
" />
<path d="M14985 8301
L14757 8301
" />
<path d="M14871 8301
L14871 7901
L14833 7959
L14795 7997
L14757 8016
" />
<path d="M15157 8263
L15176 8282
L15157 8301
L15138 8282
L15157 8263
L15157 8301
" />
<path d="M15557 8301
L15328 8301
" />
<path d="M15442 8301
L15442 7901
L15404 7959
L15366 7997
L15328 8016
" />
<path d="M15804 7901
L15842 7901
L15880 7920
L15900 7940
L15919 7978
L15938 8054
L15938 8149
L15919 8225
L15900 8263
L15880 8282
L15842 8301
L15804 8301
L15766 8282
L15747 8263
L15728 8225
L15709 8149
L15709 8054
L15728 7978
L15747 7940
L15766 7920
L15804 7901
" />
<path d="M16090 7901
L16090 7978
" />
<path d="M16242 7901
L16242 7978
" />
<path d="M10000 8500
L21000 8500
" />
<path d="M10000 10000
L10000 7780
" />
<path d="M21000 10000
L21000 7780
" />
<path d="M21000 8500
L20556 8730
" />
<path d="M21000 8500
L20556 8269
" />
<path d="M10000 8500
L10443 8730
" />
<path d="M10000 8500
L10443 8269
" />
<path d="M7378 16485
L7378 16257
" />
<path d="M7378 16371
L7778 16371
L7720 16333
L7682 16295
L7663 16257
" />
<path d="M7416 16657
L7397 16676
L7378 16657
L7397 16638
L7416 16657
L7378 16657
" />
<path d="M7644 17019
L7378 17019
" />
<path d="M7797 16923
L7511 16828
L7511 17076
" />
<path d="M7778 17304
L7778 17342
L7759 17380
L7740 17400
L7701 17419
L7625 17438
L7530 17438
L7454 17419
L7416 17400
L7397 17380
L7378 17342
L7378 17304
L7397 17266
L7416 17247
L7454 17228
L7530 17209
L7625 17209
L7701 17228
L7740 17247
L7759 17266
L7778 17304
" />
<path d="M7778 17590
L7701 17590
" />
<path d="M7778 17742
L7701 17742
" />
<path d="M7900 10000
L7900 24000
" />
<path d="M10000 10000
L7180 10000
" />
<path d="M10000 24000
L7180 24000
" />
<path d="M7900 24000
L7669 23556
" />
<path d="M7900 24000
L8130 23556
" />
<path d="M7900 10000
L7669 10443
" />
<path d="M7900 10000
L8130 10443
" />
<path d="M9638 25652
L9638 25690
L9619 25728
L9600 25747
L9561 25766
L9485 25785
L9390 25785
L9314 25766
L9276 25747
L9257 25728
L9238 25690
L9238 25652
L9257 25614
L9276 25595
L9314 25576
L9390 25557
L9485 25557
L9561 25576
L9600 25595
L9619 25614
L9638 25652
" />
<path d="M9276 25957
L9257 25976
L9238 25957
L9257 25938
L9276 25957
L9238 25957
" />
<path d="M9238 26357
L9238 26128
" />
<path d="M9238 26242
L9638 26242
L9580 26204
L9542 26166
L9523 26128
" />
<path d="M9638 26490
L9638 26738
L9485 26604
L9485 26661
L9466 26700
L9447 26719
L9409 26738
L9314 26738
L9276 26719
L9257 26700
L9238 26661
L9238 26547
L9257 26509
L9276 26490
" />
<path d="M9638 26890
L9561 26890
" />
<path d="M9638 27042
L9561 27042
" />
<path d="M9400 24000
L9400 25300
" />
<path d="M10000 24000
L8680 24000
" />
<path d="M10000 25300
L8680 25300
" />
<path d="M9400 25300
L9169 24856
" />
<path d="M9400 25300
L9630 24856
" />
<path d="M9400 24000
L9169 24443
" />
<path d="M9400 24000
L9630 24443
" />
<path d="M61098 42585
L61098 42357
" />
<path d="M61098 42471
L61498 42471
L61440 42433
L61402 42395
L61383 42357
" />
<path d="M61136 42757
L61117 42776
L61098 42757
L61117 42738
L61136 42757
L61098 42757
" />
<path d="M61460 42928
L61479 42947
L61498 42985
L61498 43080
L61479 43119
L61460 43138
L61421 43157
L61383 43157
L61326 43138
L61098 42909
L61098 43157
" />
<path d="M61364 43500
L61098 43500
" />
<path d="M61517 43404
L61231 43309
L61231 43557
" />
<path d="M61498 43690
L61421 43690
" />
<path d="M61498 43842
L61421 43842
" />
<path d="M60900 36900
L60900 49300
" />
<path d="M55000 36900
L61620 36900
" />
<path d="M55000 49300
L61620 49300
" />
<path d="M60900 49300
L60669 48856
" />
<path d="M60900 49300
L61130 48856
" />
<path d="M60900 36900
L60669 37343
" />
<path d="M60900 36900
L61130 37343
" />
<path d="M55852 34401
L55890 34401
L55928 34420
L55947 34440
L55966 34478
L55985 34554
L55985 34649
L55966 34725
L55947 34763
L55928 34782
L55890 34801
L55852 34801
L55814 34782
L55795 34763
L55776 34725
L55757 34649
L55757 34554
L55776 34478
L55795 34440
L55814 34420
L55852 34401
" />
<path d="M56157 34763
L56176 34782
L56157 34801
L56138 34782
L56157 34763
L56157 34801
" />
<path d="M56309 34401
L56557 34401
L56423 34554
L56480 34554
L56519 34573
L56538 34592
L56557 34630
L56557 34725
L56538 34763
L56519 34782
L56480 34801
L56366 34801
L56328 34782
L56309 34763
" />
<path d="M56804 34401
L56842 34401
L56880 34420
L56900 34440
L56919 34478
L56938 34554
L56938 34649
L56919 34725
L56900 34763
L56880 34782
L56842 34801
L56804 34801
L56766 34782
L56747 34763
L56728 34725
L56709 34649
L56709 34554
L56728 34478
L56747 34440
L56766 34420
L56804 34401
" />
<path d="M57090 34401
L57090 34478
" />
<path d="M57242 34401
L57242 34478
" />
<path d="M55000 35000
L58000 35000
" />
<path d="M55000 36900
L55000 34280
" />
<path d="M58000 36900
L58000 34280
" />
<path d="M58000 35000
L57556 35230
" />
<path d="M58000 35000
L57556 34769
" />
<path d="M55000 35000
L55443 35230
" />
<path d="M55000 35000
L55443 34769
" />
<path d="M45485 34801
L45257 34801
" />
<path d="M45371 34801
L45371 34401
L45333 34459
L45295 34497
L45257 34516
" />
<path d="M45657 34763
L45676 34782
L45657 34801
L45638 34782
L45657 34763
L45657 34801
" />
<path d="M45904 34573
L45866 34554
L45847 34535
L45828 34497
L45828 34478
L45847 34440
L45866 34420
L45904 34401
L45980 34401
L46019 34420
L46038 34440
L46057 34478
L46057 34497
L46038 34535
L46019 34554
L45980 34573
L45904 34573
L45866 34592
L45847 34611
L45828 34649
L45828 34725
L45847 34763
L45866 34782
L45904 34801
L45980 34801
L46019 34782
L46038 34763
L46057 34725
L46057 34649
L46038 34611
L46019 34592
L45980 34573
" />
<path d="M46304 34401
L46342 34401
L46380 34420
L46400 34440
L46419 34478
L46438 34554
L46438 34649
L46419 34725
L46400 34763
L46380 34782
L46342 34801
L46304 34801
L46266 34782
L46247 34763
L46228 34725
L46209 34649
L46209 34554
L46228 34478
L46247 34440
L46266 34420
L46304 34401
" />
<path d="M46590 34401
L46590 34478
" />
<path d="M46742 34401
L46742 34478
" />
<path d="M37000 35000
L55000 35000
" />
<path d="M37000 36900
L37000 34280
" />
<path d="M55000 36900
L55000 34280
" />
<path d="M55000 35000
L54556 35230
" />
<path d="M55000 35000
L54556 34769
" />
<path d="M37000 35000
L37443 35230
" />
<path d="M37000 35000
L37443 34769
" />
<path d="M33352 34401
L33390 34401
L33428 34420
L33447 34440
L33466 34478
L33485 34554
L33485 34649
L33466 34725
L33447 34763
L33428 34782
L33390 34801
L33352 34801
L33314 34782
L33295 34763
L33276 34725
L33257 34649
L33257 34554
L33276 34478
L33295 34440
L33314 34420
L33352 34401
" />
<path d="M33657 34763
L33676 34782
L33657 34801
L33638 34782
L33657 34763
L33657 34801
" />
<path d="M34019 34401
L33942 34401
L33904 34420
L33885 34440
L33847 34497
L33828 34573
L33828 34725
L33847 34763
L33866 34782
L33904 34801
L33980 34801
L34019 34782
L34038 34763
L34057 34725
L34057 34630
L34038 34592
L34019 34573
L33980 34554
L33904 34554
L33866 34573
L33847 34592
L33828 34630
" />
<path d="M34304 34401
L34342 34401
L34380 34420
L34400 34440
L34419 34478
L34438 34554
L34438 34649
L34419 34725
L34400 34763
L34380 34782
L34342 34801
L34304 34801
L34266 34782
L34247 34763
L34228 34725
L34209 34649
L34209 34554
L34228 34478
L34247 34440
L34266 34420
L34304 34401
" />
<path d="M34590 34401
L34590 34478
" />
<path d="M34742 34401
L34742 34478
" />
<path d="M31000 35000
L37000 35000
" />
<path d="M31000 36900
L31000 34280
" />
<path d="M37000 36900
L37000 34280
" />
<path d="M37000 35000
L36556 35230
" />
<path d="M37000 35000
L36556 34769
" />
<path d="M31000 35000
L31443 35230
" />
<path d="M31000 35000
L31443 34769
" />
<path d="M22985 34661
L22757 34661
" />
<path d="M22871 34661
L22871 34261
L22833 34319
L22795 34357
L22757 34376
" />
<path d="M23157 34623
L23176 34642
L23157 34661
L23138 34642
L23157 34623
L23157 34661
" />
<path d="M23404 34433
L23366 34414
L23347 34395
L23328 34357
L23328 34338
L23347 34300
L23366 34280
L23404 34261
L23480 34261
L23519 34280
L23538 34300
L23557 34338
L23557 34357
L23538 34395
L23519 34414
L23480 34433
L23404 34433
L23366 34452
L23347 34471
L23328 34509
L23328 34585
L23347 34623
L23366 34642
L23404 34661
L23480 34661
L23519 34642
L23538 34623
L23557 34585
L23557 34509
L23538 34471
L23519 34452
L23480 34433
" />
<path d="M23804 34261
L23842 34261
L23880 34280
L23900 34300
L23919 34338
L23938 34414
L23938 34509
L23919 34585
L23900 34623
L23880 34642
L23842 34661
L23804 34661
L23766 34642
L23747 34623
L23728 34585
L23709 34509
L23709 34414
L23728 34338
L23747 34300
L23766 34280
L23804 34261
" />
<path d="M24090 34261
L24090 34338
" />
<path d="M24242 34261
L24242 34338
" />
<path d="M13000 35000
L31000 35000
" />
<path d="M13000 36900
L13000 34280
" />
<path d="M31000 36900
L31000 34280
" />
<path d="M31000 35000
L30556 35230
" />
<path d="M31000 35000
L30556 34769
" />
<path d="M13000 35000
L13443 35230
" />
<path d="M13000 35000
L13443 34769
" />
<path d="M10952 34361
L10990 34361
L11028 34380
L11047 34400
L11066 34438
L11085 34514
L11085 34609
L11066 34685
L11047 34723
L11028 34742
L10990 34761
L10952 34761
L10914 34742
L10895 34723
L10876 34685
L10857 34609
L10857 34514
L10876 34438
L10895 34400
L10914 34380
L10952 34361
" />
<path d="M11257 34723
L11276 34742
L11257 34761
L11238 34742
L11257 34723
L11257 34761
" />
<path d="M11409 34361
L11657 34361
L11523 34514
L11580 34514
L11619 34533
L11638 34552
L11657 34590
L11657 34685
L11638 34723
L11619 34742
L11580 34761
L11466 34761
L11428 34742
L11409 34723
" />
<path d="M11904 34361
L11942 34361
L11980 34380
L12000 34400
L12019 34438
L12038 34514
L12038 34609
L12019 34685
L12000 34723
L11980 34742
L11942 34761
L11904 34761
L11866 34742
L11847 34723
L11828 34685
L11809 34609
L11809 34514
L11828 34438
L11847 34400
L11866 34380
L11904 34361
" />
<path d="M12190 34361
L12190 34438
" />
<path d="M12342 34361
L12342 34438
" />
<path d="M13000 35000
L10000 35000
" />
<path d="M13000 36900
L13000 33937
" />
<path d="M10000 36900
L10000 33937
" />
<path d="M10000 35000
L10443 34769
" />
<path d="M10000 35000
L10443 35230
" />
<path d="M13000 35000
L12556 34769
" />
<path d="M13000 35000
L12556 35230
" />
<path d="M7500 36557
L7519 36576
L7538 36614
L7538 36709
L7519 36747
L7500 36766
L7461 36785
L7423 36785
L7366 36766
L7138 36538
L7138 36785
" />
<path d="M7176 36957
L7157 36976
L7138 36957
L7157 36938
L7176 36957
L7138 36957
" />
<path d="M7404 37319
L7138 37319
" />
<path d="M7557 37223
L7271 37128
L7271 37376
" />
<path d="M7538 37604
L7538 37642
L7519 37680
L7500 37700
L7461 37719
L7385 37738
L7290 37738
L7214 37719
L7176 37700
L7157 37680
L7138 37642
L7138 37604
L7157 37566
L7176 37547
L7214 37528
L7290 37509
L7385 37509
L7461 37528
L7500 37547
L7519 37566
L7538 37604
" />
<path d="M7538 37890
L7461 37890
" />
<path d="M7538 38042
L7461 38042
" />
<path d="M7900 25300
L7900 49300
" />
<path d="M10000 25300
L6837 25300
" />
<path d="M10000 49300
L6837 49300
" />
<path d="M7900 49300
L7669 48856
" />
<path d="M7900 49300
L8130 48856
" />
<path d="M7900 25300
L7669 25743
" />
<path d="M7900 25300
L8130 25743
" />
<path d="M33447 50395
L33447 50661
" />
<path d="M33352 50242
L33257 50528
L33504 50528
" />
<path d="M33657 50623
L33676 50642
L33657 50661
L33638 50642
L33657 50623
L33657 50661
" />
<path d="M33904 50433
L33866 50414
L33847 50395
L33828 50357
L33828 50338
L33847 50300
L33866 50280
L33904 50261
L33980 50261
L34019 50280
L34038 50300
L34057 50338
L34057 50357
L34038 50395
L34019 50414
L33980 50433
L33904 50433
L33866 50452
L33847 50471
L33828 50509
L33828 50585
L33847 50623
L33866 50642
L33904 50661
L33980 50661
L34019 50642
L34038 50623
L34057 50585
L34057 50509
L34038 50471
L34019 50452
L33980 50433
" />
<path d="M34304 50261
L34342 50261
L34380 50280
L34400 50300
L34419 50338
L34438 50414
L34438 50509
L34419 50585
L34400 50623
L34380 50642
L34342 50661
L34304 50661
L34266 50642
L34247 50623
L34228 50585
L34209 50509
L34209 50414
L34228 50338
L34247 50300
L34266 50280
L34304 50261
" />
<path d="M34590 50261
L34590 50338
" />
<path d="M34742 50261
L34742 50338
" />
<path d="M10000 50900
L58000 50900
" />
<path d="M10000 49300
L10000 51962
" />
<path d="M58000 49300
L58000 51962
" />
<path d="M58000 50900
L57556 51130
" />
<path d="M58000 50900
L57556 50669
" />
<path d="M10000 50900
L10443 51130
" />
<path d="M10000 50900
L10443 50669
" />
<path d="M59438 47152
L59438 47190
L59419 47228
L59400 47247
L59361 47266
L59285 47285
L59190 47285
L59114 47266
L59076 47247
L59057 47228
L59038 47190
L59038 47152
L59057 47114
L59076 47095
L59114 47076
L59190 47057
L59285 47057
L59361 47076
L59400 47095
L59419 47114
L59438 47152
" />
<path d="M59076 47457
L59057 47476
L59038 47457
L59057 47438
L59076 47457
L59038 47457
" />
<path d="M59438 47609
L59438 47857
L59285 47723
L59285 47780
L59266 47819
L59247 47838
L59209 47857
L59114 47857
L59076 47838
L59057 47819
L59038 47780
L59038 47666
L59057 47628
L59076 47609
" />
<path d="M59438 48104
L59438 48142
L59419 48180
L59400 48200
L59361 48219
L59285 48238
L59190 48238
L59114 48219
L59076 48200
L59057 48180
L59038 48142
L59038 48104
L59057 48066
L59076 48047
L59114 48028
L59190 48009
L59285 48009
L59361 48028
L59400 48047
L59419 48066
L59438 48104
" />
<path d="M59438 48390
L59361 48390
" />
<path d="M59438 48542
L59361 48542
" />
<path d="M58800 46300
L58800 49300
" />
<path d="M58000 46300
L59862 46300
" />
<path d="M58000 49300
L59862 49300
" />
<path d="M58800 49300
L58569 48856
" />
<path d="M58800 49300
L59030 48856
" />
<path d="M58800 46300
L58569 46743
" />
<path d="M58800 46300
L59030 46743
" />
<path d="M36357 44000
L36376 43980
L36414 43961
L36509 43961
L36547 43980
L36566 44000
L36585 44038
L36585 44076
L36566 44133
L36338 44361
L36585 44361
" />
<path d="M36757 44323
L36776 44342
L36757 44361
L36738 44342
L36757 44323
L36757 44361
" />
<path d="M37119 44095
L37119 44361
" />
<path d="M37023 43942
L36928 44228
L37176 44228
" />
<path d="M37404 43961
L37442 43961
L37480 43980
L37500 44000
L37519 44038
L37538 44114
L37538 44209
L37519 44285
L37500 44323
L37480 44342
L37442 44361
L37404 44361
L37366 44342
L37347 44323
L37328 44285
L37309 44209
L37309 44114
L37328 44038
L37347 44000
L37366 43980
L37404 43961
" />
<path d="M37690 43961
L37690 44038
" />
<path d="M37842 43961
L37842 44038
" />
<path d="M34000 44800
L58000 44800
" />
<path d="M34000 46300
L34000 43737
" />
<path d="M58000 46300
L58000 43737
" />
<path d="M58000 44800
L57556 45030
" />
<path d="M58000 44800
L57556 44569
" />
<path d="M34000 44800
L34443 45030
" />
<path d="M34000 44800
L34443 44569
" />
<path d="M29657 44000
L29676 43980
L29714 43961
L29809 43961
L29847 43980
L29866 44000
L29885 44038
L29885 44076
L29866 44133
L29638 44361
L29885 44361
" />
<path d="M30057 44323
L30076 44342
L30057 44361
L30038 44342
L30057 44323
L30057 44361
" />
<path d="M30419 44095
L30419 44361
" />
<path d="M30323 43942
L30228 44228
L30476 44228
" />
<path d="M30704 43961
L30742 43961
L30780 43980
L30800 44000
L30819 44038
L30838 44114
L30838 44209
L30819 44285
L30800 44323
L30780 44342
L30742 44361
L30704 44361
L30666 44342
L30647 44323
L30628 44285
L30609 44209
L30609 44114
L30628 44038
L30647 44000
L30666 43980
L30704 43961
" />
<path d="M30990 43961
L30990 44038
" />
<path d="M31142 43961
L31142 44038
" />
<path d="M34000 44800
L10000 44800
" />
<path d="M34000 46300
L34000 43737
" />
<path d="M10000 46300
L10000 43737
" />
<path d="M10000 44800
L10443 44569
" />
<path d="M10000 44800
L10443 45030
" />
<path d="M34000 44800
L33556 44569
" />
<path d="M34000 44800
L33556 45030
" />
<path d="M9438 49552
L9438 49590
L9419 49628
L9400 49647
L9361 49666
L9285 49685
L9190 49685
L9114 49666
L9076 49647
L9057 49628
L9038 49590
L9038 49552
L9057 49514
L9076 49495
L9114 49476
L9190 49457
L9285 49457
L9361 49476
L9400 49495
L9419 49514
L9438 49552
" />
<path d="M9076 49857
L9057 49876
L9038 49857
L9057 49838
L9076 49857
L9038 49857
" />
<path d="M9038 50257
L9038 50028
" />
<path d="M9038 50142
L9438 50142
L9380 50104
L9342 50066
L9323 50028
" />
<path d="M9438 50619
L9438 50428
L9247 50409
L9266 50428
L9285 50466
L9285 50561
L9266 50600
L9247 50619
L9209 50638
L9114 50638
L9076 50619
L9057 50600
L9038 50561
L9038 50466
L9057 50428
L9076 50409
" />
<path d="M9438 50790
L9361 50790
" />
<path d="M9438 50942
L9361 50942
" />
<path d="M9300 47800
L9300 49300
" />
<path d="M11500 47800
L8237 47800
" />
<path d="M11500 49300
L8237 49300
" />
<path d="M9300 49300
L9069 48856
" />
<path d="M9300 49300
L9530 48856
" />
<path d="M9300 47800
L9069 48243
" />
<path d="M9300 47800
L9530 48243
" />
<path d="M11752 49561
L11790 49561
L11828 49580
L11847 49600
L11866 49638
L11885 49714
L11885 49809
L11866 49885
L11847 49923
L11828 49942
L11790 49961
L11752 49961
L11714 49942
L11695 49923
L11676 49885
L11657 49809
L11657 49714
L11676 49638
L11695 49600
L11714 49580
L11752 49561
" />
<path d="M12057 49923
L12076 49942
L12057 49961
L12038 49942
L12057 49923
L12057 49961
" />
<path d="M12457 49961
L12228 49961
" />
<path d="M12342 49961
L12342 49561
L12304 49619
L12266 49657
L12228 49676
" />
<path d="M12819 49561
L12628 49561
L12609 49752
L12628 49733
L12666 49714
L12761 49714
L12800 49733
L12819 49752
L12838 49790
L12838 49885
L12819 49923
L12800 49942
L12761 49961
L12666 49961
L12628 49942
L12609 49923
" />
<path d="M12990 49561
L12990 49638
" />
<path d="M13142 49561
L13142 49638
" />
<path d="M11500 49800
L10000 49800
" />
<path d="M11500 47800
L11500 50862
" />
<path d="M10000 47800
L10000 50862
" />
<path d="M10000 49800
L10443 49569
" />
<path d="M10000 49800
L10443 50030
" />
<path d="M11500 49800
L11056 49569
" />
<path d="M11500 49800
L11056 50030
" />
</g>
<g style="fill:#000000; fill-opacity:0.0; 
stroke:#000000; stroke-width:78.7402; stroke-opacity:1; 
stroke-linecap:round; stroke-linejoin:round;">
<path d="M46900 10000
L46900 24000
" />
<path d="M34600 10000
L34600 24000
" />
<path d="M58000 24000
L46900 24000
" />
<path d="M58000 10000
L58000 24000
" />
<path d="M46900 10000
L58000 10000
" />
<path d="M45700 24000
L34600 24000
" />
<path d="M45700 10000
L45700 24000
" />
<path d="M34600 10000
L45700 10000
" />
<path d="M33400 24000
L22300 24000
" />
<path d="M33400 10000
L33400 24000
" />
<path d="M22300 10000
L33400 10000
" />
<path d="M57375 46300 A625 625 0.0 0 0 58000 46925 " />
<path d="M58000 45675 A625 625 0.0 0 0 57375 46300 " />
<path d="M10000 46925 A625 625 0.0 0 0 10625 46300 " />
<path d="M10625 46300 A625 625 0.0 0 0 10000 45675 " />
<path d="M22300 24000
L22300 10000
" />
</g> 
</svg>
