G04 (created by PCBNEW (2013-07-07 BZR 4022)-stable) date 19-Dec-13 3:51:56 PM*
%MOIN*%
G04 Gerber Fmt 3.4, Leading zero omitted, Abs format*
%FSLAX34Y34*%
G01*
G70*
G90*
G04 APERTURE LIST*
%ADD10C,0.005*%
%ADD11C,0.00787402*%
%ADD12C,0.011811*%
G04 APERTURE END LIST*
G54D10*
G54D11*
X19500Y-10000D02*
X11500Y-10000D01*
X21000Y-22500D02*
X21000Y-11500D01*
X11500Y-24000D02*
X19500Y-24000D01*
X10000Y-11500D02*
X10000Y-22500D01*
X11500Y-10000D02*
G75*
G03X10000Y-11500I0J-1500D01*
G74*
G01*
X21000Y-11500D02*
G75*
G03X19500Y-10000I-1500J0D01*
G74*
G01*
X19500Y-24000D02*
G75*
G03X21000Y-22500I0J1500D01*
G74*
G01*
X10000Y-22500D02*
G75*
G03X11500Y-24000I1500J0D01*
G74*
G01*
X58000Y-26800D02*
X58000Y-45675D01*
X58000Y-47800D02*
X58000Y-46925D01*
X11500Y-49300D02*
X56500Y-49300D01*
X10000Y-47800D02*
X10000Y-46925D01*
X10000Y-26800D02*
X10000Y-45675D01*
X56500Y-25300D02*
X11500Y-25300D01*
X58000Y-26800D02*
G75*
G03X56500Y-25300I-1500J0D01*
G74*
G01*
X56500Y-49300D02*
G75*
G03X58000Y-47800I0J1500D01*
G74*
G01*
X10000Y-47800D02*
G75*
G03X11500Y-49300I1500J0D01*
G74*
G01*
X11500Y-25300D02*
G75*
G03X10000Y-26800I0J-1500D01*
G74*
G01*
X57375Y-46300D02*
G75*
G03X58000Y-46925I625J0D01*
G74*
G01*
X58000Y-45675D02*
G75*
G03X57375Y-46300I0J-625D01*
G74*
G01*
X10000Y-46925D02*
G75*
G03X10625Y-46300I0J625D01*
G74*
G01*
X10625Y-46300D02*
G75*
G03X10000Y-45675I-625J0D01*
G74*
G01*
G54D11*
X16369Y-17148D02*
X16487Y-17266D01*
X16487Y-17148D02*
X16369Y-17266D01*
X16369Y-17483D02*
X16487Y-17601D01*
X16487Y-17483D02*
X16369Y-17601D01*
X16565Y-17315D02*
X16684Y-17434D01*
X16684Y-17315D02*
X16565Y-17434D01*
X16762Y-17148D02*
X16880Y-17266D01*
X16880Y-17148D02*
X16762Y-17266D01*
X16762Y-17483D02*
X16880Y-17601D01*
X16880Y-17483D02*
X16762Y-17601D01*
X15975Y-38350D02*
G75*
G03X15975Y-38350I-125J0D01*
G74*
G01*
X16833Y-37677D02*
G75*
G03X16833Y-37677I-125J0D01*
G74*
G01*
X17275Y-41375D02*
G75*
G03X17275Y-41375I-125J0D01*
G74*
G01*
X18025Y-41900D02*
G75*
G03X18025Y-41900I-125J0D01*
G74*
G01*
X18054Y-37796D02*
G75*
G03X18054Y-37796I-125J0D01*
G74*
G01*
X18625Y-13600D02*
G75*
G03X18625Y-13600I-125J0D01*
G74*
G01*
X19375Y-18225D02*
G75*
G03X19375Y-18225I-125J0D01*
G74*
G01*
X20810Y-39488D02*
G75*
G03X20810Y-39488I-125J0D01*
G74*
G01*
X23575Y-39450D02*
G75*
G03X23575Y-39450I-125J0D01*
G74*
G01*
X25006Y-34606D02*
G75*
G03X25006Y-34606I-125J0D01*
G74*
G01*
X25731Y-39174D02*
G75*
G03X25731Y-39174I-125J0D01*
G74*
G01*
X26525Y-40900D02*
G75*
G03X26525Y-40900I-125J0D01*
G74*
G01*
X30125Y-34763D02*
G75*
G03X30125Y-34763I-125J0D01*
G74*
G01*
X30833Y-34763D02*
G75*
G03X30833Y-34763I-125J0D01*
G74*
G01*
X31550Y-29250D02*
G75*
G03X31550Y-29250I-125J0D01*
G74*
G01*
X32684Y-39015D02*
G75*
G03X32684Y-39015I-125J0D01*
G74*
G01*
X33487Y-40000D02*
G75*
G03X33487Y-40000I-125J0D01*
G74*
G01*
X33565Y-39567D02*
G75*
G03X33565Y-39567I-125J0D01*
G74*
G01*
X34849Y-39763D02*
G75*
G03X34849Y-39763I-125J0D01*
G74*
G01*
X35022Y-40945D02*
G75*
G03X35022Y-40945I-125J0D01*
G74*
G01*
X35375Y-38025D02*
G75*
G03X35375Y-38025I-125J0D01*
G74*
G01*
X35775Y-38500D02*
G75*
G03X35775Y-38500I-125J0D01*
G74*
G01*
X35775Y-38950D02*
G75*
G03X35775Y-38950I-125J0D01*
G74*
G01*
X36676Y-39292D02*
G75*
G03X36676Y-39292I-125J0D01*
G74*
G01*
X38172Y-40197D02*
G75*
G03X38172Y-40197I-125J0D01*
G74*
G01*
X38172Y-41654D02*
G75*
G03X38172Y-41654I-125J0D01*
G74*
G01*
X39038Y-42402D02*
G75*
G03X39038Y-42402I-125J0D01*
G74*
G01*
X39495Y-41889D02*
G75*
G03X39495Y-41889I-125J0D01*
G74*
G01*
X39825Y-37225D02*
G75*
G03X39825Y-37225I-125J0D01*
G74*
G01*
X39967Y-41377D02*
G75*
G03X39967Y-41377I-125J0D01*
G74*
G01*
X41125Y-40900D02*
G75*
G03X41125Y-40900I-125J0D01*
G74*
G01*
X42950Y-46050D02*
G75*
G03X42950Y-46050I-125J0D01*
G74*
G01*
X42975Y-37362D02*
G75*
G03X42975Y-37362I-125J0D01*
G74*
G01*
X43250Y-40906D02*
G75*
G03X43250Y-40906I-125J0D01*
G74*
G01*
X43250Y-41378D02*
G75*
G03X43250Y-41378I-125J0D01*
G74*
G01*
X43250Y-42402D02*
G75*
G03X43250Y-42402I-125J0D01*
G74*
G01*
X43447Y-39331D02*
G75*
G03X43447Y-39331I-125J0D01*
G74*
G01*
X43644Y-42796D02*
G75*
G03X43644Y-42796I-125J0D01*
G74*
G01*
X43950Y-46025D02*
G75*
G03X43950Y-46025I-125J0D01*
G74*
G01*
X43959Y-37008D02*
G75*
G03X43959Y-37008I-125J0D01*
G74*
G01*
X44950Y-46050D02*
G75*
G03X44950Y-46050I-125J0D01*
G74*
G01*
X45888Y-41536D02*
G75*
G03X45888Y-41536I-125J0D01*
G74*
G01*
X46321Y-33307D02*
G75*
G03X46321Y-33307I-125J0D01*
G74*
G01*
X48329Y-43898D02*
G75*
G03X48329Y-43898I-125J0D01*
G74*
G01*
X48880Y-37835D02*
G75*
G03X48880Y-37835I-125J0D01*
G74*
G01*
X49589Y-35079D02*
G75*
G03X49589Y-35079I-125J0D01*
G74*
G01*
X49983Y-34843D02*
G75*
G03X49983Y-34843I-125J0D01*
G74*
G01*
X51203Y-36811D02*
G75*
G03X51203Y-36811I-125J0D01*
G74*
G01*
X51233Y-39477D02*
X51233Y-39827D01*
X51058Y-39652D02*
X51408Y-39652D01*
X51233Y-42627D02*
X51233Y-42977D01*
X51058Y-42802D02*
X51408Y-42802D01*
X11591Y-39291D02*
X11591Y-39008D01*
X11308Y-39008D01*
X11308Y-39291D01*
X11591Y-39291D01*
X11591Y-40291D02*
X11591Y-40008D01*
X11308Y-40008D01*
X11308Y-40291D01*
X11591Y-40291D01*
X11591Y-41291D02*
X11591Y-41008D01*
X11308Y-41008D01*
X11308Y-41291D01*
X11591Y-41291D01*
X11591Y-42291D02*
X11591Y-42008D01*
X11308Y-42008D01*
X11308Y-42291D01*
X11591Y-42291D01*
X11591Y-43291D02*
X11591Y-43008D01*
X11308Y-43008D01*
X11308Y-43291D01*
X11591Y-43291D01*
X11591Y-44291D02*
X11591Y-44008D01*
X11308Y-44008D01*
X11308Y-44291D01*
X11591Y-44291D01*
X13641Y-45391D02*
X13641Y-45108D01*
X13358Y-45108D01*
X13358Y-45391D01*
X13641Y-45391D01*
X14347Y-16620D02*
X14347Y-16337D01*
X14064Y-16337D01*
X14064Y-16620D01*
X14347Y-16620D01*
X13806Y-16639D02*
X14606Y-16639D01*
X13806Y-16318D02*
X14606Y-16318D01*
X14606Y-16639D02*
G75*
G03X14606Y-16318I0J160D01*
G74*
G01*
X13806Y-16318D02*
G75*
G03X13806Y-16639I0J-160D01*
G74*
G01*
X14641Y-45391D02*
X14641Y-45108D01*
X14358Y-45108D01*
X14358Y-45391D01*
X14641Y-45391D01*
X15641Y-45391D02*
X15641Y-45108D01*
X15358Y-45108D01*
X15358Y-45391D01*
X15641Y-45391D01*
X15641Y-48041D02*
X15641Y-47758D01*
X15358Y-47758D01*
X15358Y-48041D01*
X15641Y-48041D01*
X16255Y-31411D02*
X16255Y-31129D01*
X15972Y-31129D01*
X15972Y-31411D01*
X16255Y-31411D01*
X16255Y-33970D02*
X16255Y-33688D01*
X15972Y-33688D01*
X15972Y-33970D01*
X16255Y-33970D01*
X16641Y-48041D02*
X16641Y-47758D01*
X16358Y-47758D01*
X16358Y-48041D01*
X16641Y-48041D01*
X17991Y-43041D02*
X17991Y-42758D01*
X17708Y-42758D01*
X17708Y-43041D01*
X17991Y-43041D01*
X17991Y-46041D02*
X17991Y-45758D01*
X17708Y-45758D01*
X17708Y-46041D01*
X17991Y-46041D01*
X18027Y-31411D02*
X18027Y-31129D01*
X17744Y-31129D01*
X17744Y-31411D01*
X18027Y-31411D01*
X18027Y-33970D02*
X18027Y-33688D01*
X17744Y-33688D01*
X17744Y-33970D01*
X18027Y-33970D01*
X18991Y-43041D02*
X18991Y-42758D01*
X18708Y-42758D01*
X18708Y-43041D01*
X18991Y-43041D01*
X18991Y-46041D02*
X18991Y-45758D01*
X18708Y-45758D01*
X18708Y-46041D01*
X18991Y-46041D01*
X19361Y-28305D02*
X19361Y-28022D01*
X19079Y-28022D01*
X19079Y-28305D01*
X19361Y-28305D01*
X19361Y-30077D02*
X19361Y-29794D01*
X19079Y-29794D01*
X19079Y-30077D01*
X19361Y-30077D01*
X19361Y-31805D02*
X19361Y-31522D01*
X19079Y-31522D01*
X19079Y-31805D01*
X19361Y-31805D01*
X19361Y-33577D02*
X19361Y-33294D01*
X19079Y-33294D01*
X19079Y-33577D01*
X19361Y-33577D01*
X19361Y-35305D02*
X19361Y-35022D01*
X19079Y-35022D01*
X19079Y-35305D01*
X19361Y-35305D01*
X19361Y-37077D02*
X19361Y-36794D01*
X19079Y-36794D01*
X19079Y-37077D01*
X19361Y-37077D01*
X19641Y-26941D02*
X19641Y-26658D01*
X19358Y-26658D01*
X19358Y-26941D01*
X19641Y-26941D01*
X19991Y-43041D02*
X19991Y-42758D01*
X19708Y-42758D01*
X19708Y-43041D01*
X19991Y-43041D01*
X19991Y-46041D02*
X19991Y-45758D01*
X19708Y-45758D01*
X19708Y-46041D01*
X19991Y-46041D01*
X20641Y-26941D02*
X20641Y-26658D01*
X20358Y-26658D01*
X20358Y-26941D01*
X20641Y-26941D01*
X20991Y-43041D02*
X20991Y-42758D01*
X20708Y-42758D01*
X20708Y-43041D01*
X20991Y-43041D01*
X20991Y-46041D02*
X20991Y-45758D01*
X20708Y-45758D01*
X20708Y-46041D01*
X20991Y-46041D01*
X21641Y-26941D02*
X21641Y-26658D01*
X21358Y-26658D01*
X21358Y-26941D01*
X21641Y-26941D01*
X21641Y-48041D02*
X21641Y-47758D01*
X21358Y-47758D01*
X21358Y-48041D01*
X21641Y-48041D01*
X21920Y-28305D02*
X21920Y-28022D01*
X21638Y-28022D01*
X21638Y-28305D01*
X21920Y-28305D01*
X21920Y-30077D02*
X21920Y-29794D01*
X21638Y-29794D01*
X21638Y-30077D01*
X21920Y-30077D01*
X21920Y-31805D02*
X21920Y-31522D01*
X21638Y-31522D01*
X21638Y-31805D01*
X21920Y-31805D01*
X21920Y-33577D02*
X21920Y-33294D01*
X21638Y-33294D01*
X21638Y-33577D01*
X21920Y-33577D01*
X21920Y-35305D02*
X21920Y-35022D01*
X21638Y-35022D01*
X21638Y-35305D01*
X21920Y-35305D01*
X21920Y-37077D02*
X21920Y-36794D01*
X21638Y-36794D01*
X21638Y-37077D01*
X21920Y-37077D01*
X22366Y-43616D02*
X22366Y-43333D01*
X22083Y-43333D01*
X22083Y-43616D01*
X22366Y-43616D01*
X22366Y-44616D02*
X22366Y-44333D01*
X22083Y-44333D01*
X22083Y-44616D01*
X22366Y-44616D01*
X22366Y-45616D02*
X22366Y-45333D01*
X22083Y-45333D01*
X22083Y-45616D01*
X22366Y-45616D01*
X22641Y-48041D02*
X22641Y-47758D01*
X22358Y-47758D01*
X22358Y-48041D01*
X22641Y-48041D01*
X23255Y-31411D02*
X23255Y-31129D01*
X22972Y-31129D01*
X22972Y-31411D01*
X23255Y-31411D01*
X23255Y-33970D02*
X23255Y-33688D01*
X22972Y-33688D01*
X22972Y-33970D01*
X23255Y-33970D01*
X23366Y-43616D02*
X23366Y-43333D01*
X23083Y-43333D01*
X23083Y-43616D01*
X23366Y-43616D01*
X23366Y-44616D02*
X23366Y-44333D01*
X23083Y-44333D01*
X23083Y-44616D01*
X23366Y-44616D01*
X23366Y-45616D02*
X23366Y-45333D01*
X23083Y-45333D01*
X23083Y-45616D01*
X23366Y-45616D01*
X23641Y-26941D02*
X23641Y-26658D01*
X23358Y-26658D01*
X23358Y-26941D01*
X23641Y-26941D01*
X24366Y-43616D02*
X24366Y-43333D01*
X24083Y-43333D01*
X24083Y-43616D01*
X24366Y-43616D01*
X24366Y-44616D02*
X24366Y-44333D01*
X24083Y-44333D01*
X24083Y-44616D01*
X24366Y-44616D01*
X24366Y-45616D02*
X24366Y-45333D01*
X24083Y-45333D01*
X24083Y-45616D01*
X24366Y-45616D01*
X24641Y-26941D02*
X24641Y-26658D01*
X24358Y-26658D01*
X24358Y-26941D01*
X24641Y-26941D01*
X25027Y-31411D02*
X25027Y-31129D01*
X24744Y-31129D01*
X24744Y-31411D01*
X25027Y-31411D01*
X25027Y-33970D02*
X25027Y-33688D01*
X24744Y-33688D01*
X24744Y-33970D01*
X25027Y-33970D01*
X25366Y-43616D02*
X25366Y-43333D01*
X25083Y-43333D01*
X25083Y-43616D01*
X25366Y-43616D01*
X25366Y-44616D02*
X25366Y-44333D01*
X25083Y-44333D01*
X25083Y-44616D01*
X25366Y-44616D01*
X25366Y-45616D02*
X25366Y-45333D01*
X25083Y-45333D01*
X25083Y-45616D01*
X25366Y-45616D01*
X25641Y-26941D02*
X25641Y-26658D01*
X25358Y-26658D01*
X25358Y-26941D01*
X25641Y-26941D01*
X26641Y-26941D02*
X26641Y-26658D01*
X26358Y-26658D01*
X26358Y-26941D01*
X26641Y-26941D01*
X26641Y-48041D02*
X26641Y-47758D01*
X26358Y-47758D01*
X26358Y-48041D01*
X26641Y-48041D01*
X26691Y-34441D02*
X26691Y-34158D01*
X26408Y-34158D01*
X26408Y-34441D01*
X26691Y-34441D01*
X27366Y-43616D02*
X27366Y-43333D01*
X27083Y-43333D01*
X27083Y-43616D01*
X27366Y-43616D01*
X27366Y-44616D02*
X27366Y-44333D01*
X27083Y-44333D01*
X27083Y-44616D01*
X27366Y-44616D01*
X27366Y-45616D02*
X27366Y-45333D01*
X27083Y-45333D01*
X27083Y-45616D01*
X27366Y-45616D01*
X27641Y-26941D02*
X27641Y-26658D01*
X27358Y-26658D01*
X27358Y-26941D01*
X27641Y-26941D01*
X27641Y-48041D02*
X27641Y-47758D01*
X27358Y-47758D01*
X27358Y-48041D01*
X27641Y-48041D01*
X27691Y-34441D02*
X27691Y-34158D01*
X27408Y-34158D01*
X27408Y-34441D01*
X27691Y-34441D01*
X28366Y-43616D02*
X28366Y-43333D01*
X28083Y-43333D01*
X28083Y-43616D01*
X28366Y-43616D01*
X28366Y-44616D02*
X28366Y-44333D01*
X28083Y-44333D01*
X28083Y-44616D01*
X28366Y-44616D01*
X28366Y-45616D02*
X28366Y-45333D01*
X28083Y-45333D01*
X28083Y-45616D01*
X28366Y-45616D01*
X28641Y-26941D02*
X28641Y-26658D01*
X28358Y-26658D01*
X28358Y-26941D01*
X28641Y-26941D01*
X28641Y-48041D02*
X28641Y-47758D01*
X28358Y-47758D01*
X28358Y-48041D01*
X28641Y-48041D01*
X28691Y-34441D02*
X28691Y-34158D01*
X28408Y-34158D01*
X28408Y-34441D01*
X28691Y-34441D01*
X29366Y-43616D02*
X29366Y-43333D01*
X29083Y-43333D01*
X29083Y-43616D01*
X29366Y-43616D01*
X29366Y-44616D02*
X29366Y-44333D01*
X29083Y-44333D01*
X29083Y-44616D01*
X29366Y-44616D01*
X29366Y-45616D02*
X29366Y-45333D01*
X29083Y-45333D01*
X29083Y-45616D01*
X29366Y-45616D01*
X29641Y-48041D02*
X29641Y-47758D01*
X29358Y-47758D01*
X29358Y-48041D01*
X29641Y-48041D01*
X30141Y-26941D02*
X30141Y-26658D01*
X29858Y-26658D01*
X29858Y-26941D01*
X30141Y-26941D01*
X30141Y-27941D02*
X30141Y-27658D01*
X29858Y-27658D01*
X29858Y-27941D01*
X30141Y-27941D01*
X30366Y-43616D02*
X30366Y-43333D01*
X30083Y-43333D01*
X30083Y-43616D01*
X30366Y-43616D01*
X30366Y-44616D02*
X30366Y-44333D01*
X30083Y-44333D01*
X30083Y-44616D01*
X30366Y-44616D01*
X30366Y-45616D02*
X30366Y-45333D01*
X30083Y-45333D01*
X30083Y-45616D01*
X30366Y-45616D01*
X30641Y-48041D02*
X30641Y-47758D01*
X30358Y-47758D01*
X30358Y-48041D01*
X30641Y-48041D01*
X31141Y-26941D02*
X31141Y-26658D01*
X30858Y-26658D01*
X30858Y-26941D01*
X31141Y-26941D01*
X31141Y-27941D02*
X31141Y-27658D01*
X30858Y-27658D01*
X30858Y-27941D01*
X31141Y-27941D01*
X31641Y-48041D02*
X31641Y-47758D01*
X31358Y-47758D01*
X31358Y-48041D01*
X31641Y-48041D01*
X32141Y-26941D02*
X32141Y-26658D01*
X31858Y-26658D01*
X31858Y-26941D01*
X32141Y-26941D01*
X32141Y-27941D02*
X32141Y-27658D01*
X31858Y-27658D01*
X31858Y-27941D01*
X32141Y-27941D01*
X32641Y-48041D02*
X32641Y-47758D01*
X32358Y-47758D01*
X32358Y-48041D01*
X32641Y-48041D01*
X33255Y-34011D02*
X33255Y-33729D01*
X32972Y-33729D01*
X32972Y-34011D01*
X33255Y-34011D01*
X33255Y-36570D02*
X33255Y-36288D01*
X32972Y-36288D01*
X32972Y-36570D01*
X33255Y-36570D01*
X33641Y-48041D02*
X33641Y-47758D01*
X33358Y-47758D01*
X33358Y-48041D01*
X33641Y-48041D01*
X34641Y-48041D02*
X34641Y-47758D01*
X34358Y-47758D01*
X34358Y-48041D01*
X34641Y-48041D01*
X35027Y-34011D02*
X35027Y-33729D01*
X34744Y-33729D01*
X34744Y-34011D01*
X35027Y-34011D01*
X35027Y-36570D02*
X35027Y-36288D01*
X34744Y-36288D01*
X34744Y-36570D01*
X35027Y-36570D01*
X35641Y-48041D02*
X35641Y-47758D01*
X35358Y-47758D01*
X35358Y-48041D01*
X35641Y-48041D01*
X36641Y-48041D02*
X36641Y-47758D01*
X36358Y-47758D01*
X36358Y-48041D01*
X36641Y-48041D01*
X36841Y-26941D02*
X36841Y-26658D01*
X36558Y-26658D01*
X36558Y-26941D01*
X36841Y-26941D01*
X36841Y-29941D02*
X36841Y-29658D01*
X36558Y-29658D01*
X36558Y-29941D01*
X36841Y-29941D01*
X36841Y-31941D02*
X36841Y-31658D01*
X36558Y-31658D01*
X36558Y-31941D01*
X36841Y-31941D01*
X36841Y-32941D02*
X36841Y-32658D01*
X36558Y-32658D01*
X36558Y-32941D01*
X36841Y-32941D01*
X36841Y-33941D02*
X36841Y-33658D01*
X36558Y-33658D01*
X36558Y-33941D01*
X36841Y-33941D01*
X37641Y-48041D02*
X37641Y-47758D01*
X37358Y-47758D01*
X37358Y-48041D01*
X37641Y-48041D01*
X37841Y-26941D02*
X37841Y-26658D01*
X37558Y-26658D01*
X37558Y-26941D01*
X37841Y-26941D01*
X37841Y-29941D02*
X37841Y-29658D01*
X37558Y-29658D01*
X37558Y-29941D01*
X37841Y-29941D01*
X38641Y-48041D02*
X38641Y-47758D01*
X38358Y-47758D01*
X38358Y-48041D01*
X38641Y-48041D01*
X38841Y-26941D02*
X38841Y-26658D01*
X38558Y-26658D01*
X38558Y-26941D01*
X38841Y-26941D01*
X38841Y-29941D02*
X38841Y-29658D01*
X38558Y-29658D01*
X38558Y-29941D01*
X38841Y-29941D01*
X39641Y-48041D02*
X39641Y-47758D01*
X39358Y-47758D01*
X39358Y-48041D01*
X39641Y-48041D01*
X39841Y-26941D02*
X39841Y-26658D01*
X39558Y-26658D01*
X39558Y-26941D01*
X39841Y-26941D01*
X39841Y-29941D02*
X39841Y-29658D01*
X39558Y-29658D01*
X39558Y-29941D01*
X39841Y-29941D01*
X40641Y-48041D02*
X40641Y-47758D01*
X40358Y-47758D01*
X40358Y-48041D01*
X40641Y-48041D01*
X41641Y-48041D02*
X41641Y-47758D01*
X41358Y-47758D01*
X41358Y-48041D01*
X41641Y-48041D01*
X41861Y-31441D02*
X41861Y-31158D01*
X41579Y-31158D01*
X41579Y-31441D01*
X41861Y-31441D01*
X43141Y-29472D02*
X43141Y-29190D01*
X42858Y-29190D01*
X42858Y-29472D01*
X43141Y-29472D01*
X43141Y-30457D02*
X43141Y-30174D01*
X42858Y-30174D01*
X42858Y-30457D01*
X43141Y-30457D01*
X43141Y-31441D02*
X43141Y-31158D01*
X42858Y-31158D01*
X42858Y-31441D01*
X43141Y-31441D01*
X43141Y-32425D02*
X43141Y-32142D01*
X42858Y-32142D01*
X42858Y-32425D01*
X43141Y-32425D01*
X43141Y-33409D02*
X43141Y-33127D01*
X42858Y-33127D01*
X42858Y-33409D01*
X43141Y-33409D01*
X44420Y-31441D02*
X44420Y-31158D01*
X44138Y-31158D01*
X44138Y-31441D01*
X44420Y-31441D01*
X45641Y-48041D02*
X45641Y-47758D01*
X45358Y-47758D01*
X45358Y-48041D01*
X45641Y-48041D01*
X46641Y-48041D02*
X46641Y-47758D01*
X46358Y-47758D01*
X46358Y-48041D01*
X46641Y-48041D01*
X51641Y-48041D02*
X51641Y-47758D01*
X51358Y-47758D01*
X51358Y-48041D01*
X51641Y-48041D01*
X52641Y-48041D02*
X52641Y-47758D01*
X52358Y-47758D01*
X52358Y-48041D01*
X52641Y-48041D01*
X13025Y-14780D02*
X13255Y-14550D01*
X13025Y-14320D01*
X12795Y-14550D01*
X13025Y-14780D01*
X12834Y-14080D02*
X12834Y-15020D01*
X13215Y-14080D02*
X13215Y-15020D01*
X12834Y-15020D02*
G75*
G03X13215Y-15020I190J0D01*
G74*
G01*
X13215Y-14080D02*
G75*
G03X12834Y-14080I-190J0D01*
G74*
G01*
X15387Y-14780D02*
X15617Y-14550D01*
X15387Y-14320D01*
X15157Y-14550D01*
X15387Y-14780D01*
X15196Y-13980D02*
X15196Y-15120D01*
X15577Y-13980D02*
X15577Y-15120D01*
X15196Y-15120D02*
G75*
G03X15577Y-15120I190J0D01*
G74*
G01*
X15577Y-13980D02*
G75*
G03X15196Y-13980I-190J0D01*
G74*
G01*
X12225Y-10925D02*
X12775Y-11475D01*
X12775Y-10925D02*
X12225Y-11475D01*
X12775Y-11200D02*
G75*
G03X12775Y-11200I-275J0D01*
G74*
G01*
X14225Y-10925D02*
X14775Y-11475D01*
X14775Y-10925D02*
X14225Y-11475D01*
X14775Y-11200D02*
G75*
G03X14775Y-11200I-275J0D01*
G74*
G01*
X16225Y-10925D02*
X16775Y-11475D01*
X16775Y-10925D02*
X16225Y-11475D01*
X16775Y-11200D02*
G75*
G03X16775Y-11200I-275J0D01*
G74*
G01*
X18225Y-10925D02*
X18775Y-11475D01*
X18775Y-10925D02*
X18225Y-11475D01*
X18775Y-11200D02*
G75*
G03X18775Y-11200I-275J0D01*
G74*
G01*
X11350Y-17400D02*
X11950Y-18000D01*
X11950Y-17400D02*
X11350Y-18000D01*
X11650Y-17400D02*
X11650Y-18000D01*
X11350Y-17700D02*
X11950Y-17700D01*
X11350Y-19400D02*
X11950Y-20000D01*
X11950Y-19400D02*
X11350Y-20000D01*
X11650Y-19400D02*
X11650Y-20000D01*
X11350Y-19700D02*
X11950Y-19700D01*
X14200Y-22050D02*
X14800Y-22650D01*
X14800Y-22050D02*
X14200Y-22650D01*
X14500Y-22050D02*
X14500Y-22650D01*
X14200Y-22350D02*
X14800Y-22350D01*
X14200Y-26650D02*
X14800Y-27250D01*
X14800Y-26650D02*
X14200Y-27250D01*
X14500Y-26650D02*
X14500Y-27250D01*
X14200Y-26950D02*
X14800Y-26950D01*
X16200Y-22050D02*
X16800Y-22650D01*
X16800Y-22050D02*
X16200Y-22650D01*
X16500Y-22050D02*
X16500Y-22650D01*
X16200Y-22350D02*
X16800Y-22350D01*
X16200Y-26650D02*
X16800Y-27250D01*
X16800Y-26650D02*
X16200Y-27250D01*
X16500Y-26650D02*
X16500Y-27250D01*
X16200Y-26950D02*
X16800Y-26950D01*
X12866Y-41335D02*
X13496Y-41964D01*
X13496Y-41335D02*
X12866Y-41964D01*
X13403Y-41872D02*
X13403Y-41427D01*
X12958Y-41427D01*
X12958Y-41872D01*
X13403Y-41872D01*
X15228Y-41335D02*
X15858Y-41964D01*
X15858Y-41335D02*
X15228Y-41964D01*
X15766Y-41872D02*
X15766Y-41427D01*
X15320Y-41427D01*
X15320Y-41872D01*
X15766Y-41872D01*
X46150Y-28900D02*
X46950Y-29700D01*
X46950Y-28900D02*
X46150Y-29700D01*
X46550Y-29700D02*
X46950Y-29300D01*
X46550Y-28900D01*
X46150Y-29300D01*
X46550Y-29700D01*
X54450Y-28900D02*
X55250Y-29700D01*
X55250Y-28900D02*
X54450Y-29700D01*
X54850Y-29700D02*
X55250Y-29300D01*
X54850Y-28900D01*
X54450Y-29300D01*
X54850Y-29700D01*
X11500Y-21900D02*
X11500Y-23100D01*
X10900Y-22500D02*
X12100Y-22500D01*
X12100Y-22500D02*
G75*
G03X12100Y-22500I-600J0D01*
G74*
G01*
X11500Y-26200D02*
X11500Y-27400D01*
X10900Y-26800D02*
X12100Y-26800D01*
X12100Y-26800D02*
G75*
G03X12100Y-26800I-600J0D01*
G74*
G01*
X11500Y-47200D02*
X11500Y-48400D01*
X10900Y-47800D02*
X12100Y-47800D01*
X12100Y-47800D02*
G75*
G03X12100Y-47800I-600J0D01*
G74*
G01*
X13000Y-36300D02*
X13000Y-37500D01*
X12400Y-36900D02*
X13600Y-36900D01*
X13600Y-36900D02*
G75*
G03X13600Y-36900I-600J0D01*
G74*
G01*
X19500Y-21900D02*
X19500Y-23100D01*
X18900Y-22500D02*
X20100Y-22500D01*
X20100Y-22500D02*
G75*
G03X20100Y-22500I-600J0D01*
G74*
G01*
X31000Y-36300D02*
X31000Y-37500D01*
X30400Y-36900D02*
X31600Y-36900D01*
X31600Y-36900D02*
G75*
G03X31600Y-36900I-600J0D01*
G74*
G01*
X34000Y-27700D02*
X34000Y-28900D01*
X33400Y-28300D02*
X34600Y-28300D01*
X34600Y-28300D02*
G75*
G03X34600Y-28300I-600J0D01*
G74*
G01*
X34000Y-45700D02*
X34000Y-46900D01*
X33400Y-46300D02*
X34600Y-46300D01*
X34600Y-46300D02*
G75*
G03X34600Y-46300I-600J0D01*
G74*
G01*
X37000Y-36300D02*
X37000Y-37500D01*
X36400Y-36900D02*
X37600Y-36900D01*
X37600Y-36900D02*
G75*
G03X37600Y-36900I-600J0D01*
G74*
G01*
X55000Y-36300D02*
X55000Y-37500D01*
X54400Y-36900D02*
X55600Y-36900D01*
X55600Y-36900D02*
G75*
G03X55600Y-36900I-600J0D01*
G74*
G01*
X56500Y-26200D02*
X56500Y-27400D01*
X55900Y-26800D02*
X57100Y-26800D01*
X57100Y-26800D02*
G75*
G03X57100Y-26800I-600J0D01*
G74*
G01*
X56500Y-47200D02*
X56500Y-48400D01*
X55900Y-47800D02*
X57100Y-47800D01*
X57100Y-47800D02*
G75*
G03X57100Y-47800I-600J0D01*
G74*
G01*
G54D12*
X11029Y-51116D02*
X11029Y-49935D01*
X11310Y-49935D01*
X11479Y-49991D01*
X11591Y-50104D01*
X11647Y-50216D01*
X11704Y-50441D01*
X11704Y-50610D01*
X11647Y-50835D01*
X11591Y-50947D01*
X11479Y-51060D01*
X11310Y-51116D01*
X11029Y-51116D01*
X12210Y-51116D02*
X12210Y-50329D01*
X12210Y-50554D02*
X12266Y-50441D01*
X12322Y-50385D01*
X12435Y-50329D01*
X12547Y-50329D01*
X12941Y-51116D02*
X12941Y-50329D01*
X12941Y-49935D02*
X12885Y-49991D01*
X12941Y-50048D01*
X12997Y-49991D01*
X12941Y-49935D01*
X12941Y-50048D01*
X13672Y-51116D02*
X13560Y-51060D01*
X13503Y-50947D01*
X13503Y-49935D01*
X14291Y-51116D02*
X14178Y-51060D01*
X14122Y-50947D01*
X14122Y-49935D01*
X15641Y-51116D02*
X15641Y-49935D01*
X16034Y-50779D01*
X16428Y-49935D01*
X16428Y-51116D01*
X17497Y-51116D02*
X17497Y-50497D01*
X17440Y-50385D01*
X17328Y-50329D01*
X17103Y-50329D01*
X16991Y-50385D01*
X17497Y-51060D02*
X17384Y-51116D01*
X17103Y-51116D01*
X16991Y-51060D01*
X16934Y-50947D01*
X16934Y-50835D01*
X16991Y-50722D01*
X17103Y-50666D01*
X17384Y-50666D01*
X17497Y-50610D01*
X18059Y-50329D02*
X18059Y-51510D01*
X18059Y-50385D02*
X18172Y-50329D01*
X18397Y-50329D01*
X18509Y-50385D01*
X18565Y-50441D01*
X18622Y-50554D01*
X18622Y-50891D01*
X18565Y-51004D01*
X18509Y-51060D01*
X18397Y-51116D01*
X18172Y-51116D01*
X18059Y-51060D01*
X19128Y-51004D02*
X19184Y-51060D01*
X19128Y-51116D01*
X19071Y-51060D01*
X19128Y-51004D01*
X19128Y-51116D01*
X19128Y-50385D02*
X19184Y-50441D01*
X19128Y-50497D01*
X19071Y-50441D01*
X19128Y-50385D01*
X19128Y-50497D01*
X9842Y-53059D02*
X9960Y-53177D01*
X9960Y-53059D02*
X9842Y-53177D01*
X11254Y-52415D02*
X11366Y-52415D01*
X11479Y-52472D01*
X11535Y-52528D01*
X11591Y-52640D01*
X11647Y-52865D01*
X11647Y-53147D01*
X11591Y-53371D01*
X11535Y-53484D01*
X11479Y-53540D01*
X11366Y-53596D01*
X11254Y-53596D01*
X11141Y-53540D01*
X11085Y-53484D01*
X11029Y-53371D01*
X10973Y-53147D01*
X10973Y-52865D01*
X11029Y-52640D01*
X11085Y-52528D01*
X11141Y-52472D01*
X11254Y-52415D01*
X12154Y-53484D02*
X12210Y-53540D01*
X12154Y-53596D01*
X12097Y-53540D01*
X12154Y-53484D01*
X12154Y-53596D01*
X12604Y-52415D02*
X13335Y-52415D01*
X12941Y-52865D01*
X13110Y-52865D01*
X13222Y-52922D01*
X13278Y-52978D01*
X13335Y-53090D01*
X13335Y-53371D01*
X13278Y-53484D01*
X13222Y-53540D01*
X13110Y-53596D01*
X12772Y-53596D01*
X12660Y-53540D01*
X12604Y-53484D01*
X14066Y-52415D02*
X14178Y-52415D01*
X14291Y-52472D01*
X14347Y-52528D01*
X14403Y-52640D01*
X14460Y-52865D01*
X14460Y-53147D01*
X14403Y-53371D01*
X14347Y-53484D01*
X14291Y-53540D01*
X14178Y-53596D01*
X14066Y-53596D01*
X13953Y-53540D01*
X13897Y-53484D01*
X13841Y-53371D01*
X13785Y-53147D01*
X13785Y-52865D01*
X13841Y-52640D01*
X13897Y-52528D01*
X13953Y-52472D01*
X14066Y-52415D01*
X14966Y-53596D02*
X14966Y-52809D01*
X14966Y-52922D02*
X15022Y-52865D01*
X15134Y-52809D01*
X15303Y-52809D01*
X15416Y-52865D01*
X15472Y-52978D01*
X15472Y-53596D01*
X15472Y-52978D02*
X15528Y-52865D01*
X15641Y-52809D01*
X15809Y-52809D01*
X15922Y-52865D01*
X15978Y-52978D01*
X15978Y-53596D01*
X16541Y-53596D02*
X16541Y-52809D01*
X16541Y-52922D02*
X16597Y-52865D01*
X16709Y-52809D01*
X16878Y-52809D01*
X16991Y-52865D01*
X17047Y-52978D01*
X17047Y-53596D01*
X17047Y-52978D02*
X17103Y-52865D01*
X17215Y-52809D01*
X17384Y-52809D01*
X17497Y-52865D01*
X17553Y-52978D01*
X17553Y-53596D01*
X19859Y-52359D02*
X18847Y-53878D01*
X21377Y-52415D02*
X21490Y-52415D01*
X21602Y-52472D01*
X21659Y-52528D01*
X21715Y-52640D01*
X21771Y-52865D01*
X21771Y-53147D01*
X21715Y-53371D01*
X21659Y-53484D01*
X21602Y-53540D01*
X21490Y-53596D01*
X21377Y-53596D01*
X21265Y-53540D01*
X21209Y-53484D01*
X21152Y-53371D01*
X21096Y-53147D01*
X21096Y-52865D01*
X21152Y-52640D01*
X21209Y-52528D01*
X21265Y-52472D01*
X21377Y-52415D01*
X22277Y-53484D02*
X22334Y-53540D01*
X22277Y-53596D01*
X22221Y-53540D01*
X22277Y-53484D01*
X22277Y-53596D01*
X23065Y-52415D02*
X23177Y-52415D01*
X23290Y-52472D01*
X23346Y-52528D01*
X23402Y-52640D01*
X23458Y-52865D01*
X23458Y-53147D01*
X23402Y-53371D01*
X23346Y-53484D01*
X23290Y-53540D01*
X23177Y-53596D01*
X23065Y-53596D01*
X22952Y-53540D01*
X22896Y-53484D01*
X22840Y-53371D01*
X22784Y-53147D01*
X22784Y-52865D01*
X22840Y-52640D01*
X22896Y-52528D01*
X22952Y-52472D01*
X23065Y-52415D01*
X24583Y-53596D02*
X23908Y-53596D01*
X24246Y-53596D02*
X24246Y-52415D01*
X24133Y-52584D01*
X24021Y-52697D01*
X23908Y-52753D01*
X25033Y-52528D02*
X25089Y-52472D01*
X25202Y-52415D01*
X25483Y-52415D01*
X25596Y-52472D01*
X25652Y-52528D01*
X25708Y-52640D01*
X25708Y-52753D01*
X25652Y-52922D01*
X24977Y-53596D01*
X25708Y-53596D01*
X26158Y-52415D02*
X26158Y-52640D01*
X26608Y-52415D02*
X26608Y-52640D01*
X28352Y-54046D02*
X28295Y-53990D01*
X28183Y-53821D01*
X28127Y-53709D01*
X28070Y-53540D01*
X28014Y-53259D01*
X28014Y-53034D01*
X28070Y-52753D01*
X28127Y-52584D01*
X28183Y-52472D01*
X28295Y-52303D01*
X28352Y-52247D01*
X29364Y-52415D02*
X28802Y-52415D01*
X28745Y-52978D01*
X28802Y-52922D01*
X28914Y-52865D01*
X29195Y-52865D01*
X29308Y-52922D01*
X29364Y-52978D01*
X29420Y-53090D01*
X29420Y-53371D01*
X29364Y-53484D01*
X29308Y-53540D01*
X29195Y-53596D01*
X28914Y-53596D01*
X28802Y-53540D01*
X28745Y-53484D01*
X30826Y-53596D02*
X30826Y-52415D01*
X31332Y-53596D02*
X31332Y-52978D01*
X31276Y-52865D01*
X31164Y-52809D01*
X30995Y-52809D01*
X30883Y-52865D01*
X30826Y-52922D01*
X32064Y-53596D02*
X31951Y-53540D01*
X31895Y-53484D01*
X31839Y-53371D01*
X31839Y-53034D01*
X31895Y-52922D01*
X31951Y-52865D01*
X32064Y-52809D01*
X32232Y-52809D01*
X32345Y-52865D01*
X32401Y-52922D01*
X32457Y-53034D01*
X32457Y-53371D01*
X32401Y-53484D01*
X32345Y-53540D01*
X32232Y-53596D01*
X32064Y-53596D01*
X33132Y-53596D02*
X33020Y-53540D01*
X32964Y-53428D01*
X32964Y-52415D01*
X34032Y-53540D02*
X33920Y-53596D01*
X33695Y-53596D01*
X33582Y-53540D01*
X33526Y-53428D01*
X33526Y-52978D01*
X33582Y-52865D01*
X33695Y-52809D01*
X33920Y-52809D01*
X34032Y-52865D01*
X34088Y-52978D01*
X34088Y-53090D01*
X33526Y-53203D01*
X34538Y-53540D02*
X34651Y-53596D01*
X34876Y-53596D01*
X34988Y-53540D01*
X35044Y-53428D01*
X35044Y-53371D01*
X34988Y-53259D01*
X34876Y-53203D01*
X34707Y-53203D01*
X34595Y-53147D01*
X34538Y-53034D01*
X34538Y-52978D01*
X34595Y-52865D01*
X34707Y-52809D01*
X34876Y-52809D01*
X34988Y-52865D01*
X35438Y-54046D02*
X35494Y-53990D01*
X35607Y-53821D01*
X35663Y-53709D01*
X35719Y-53540D01*
X35776Y-53259D01*
X35776Y-53034D01*
X35719Y-52753D01*
X35663Y-52584D01*
X35607Y-52472D01*
X35494Y-52303D01*
X35438Y-52247D01*
G54D11*
X9960Y-54677D02*
G75*
G03X9960Y-54677I-125J0D01*
G74*
G01*
G54D12*
X11254Y-53974D02*
X11366Y-53974D01*
X11479Y-54031D01*
X11535Y-54087D01*
X11591Y-54199D01*
X11647Y-54424D01*
X11647Y-54706D01*
X11591Y-54931D01*
X11535Y-55043D01*
X11479Y-55099D01*
X11366Y-55156D01*
X11254Y-55156D01*
X11141Y-55099D01*
X11085Y-55043D01*
X11029Y-54931D01*
X10973Y-54706D01*
X10973Y-54424D01*
X11029Y-54199D01*
X11085Y-54087D01*
X11141Y-54031D01*
X11254Y-53974D01*
X12154Y-55043D02*
X12210Y-55099D01*
X12154Y-55156D01*
X12097Y-55099D01*
X12154Y-55043D01*
X12154Y-55156D01*
X13222Y-53974D02*
X12997Y-53974D01*
X12885Y-54031D01*
X12829Y-54087D01*
X12716Y-54256D01*
X12660Y-54481D01*
X12660Y-54931D01*
X12716Y-55043D01*
X12772Y-55099D01*
X12885Y-55156D01*
X13110Y-55156D01*
X13222Y-55099D01*
X13278Y-55043D01*
X13335Y-54931D01*
X13335Y-54649D01*
X13278Y-54537D01*
X13222Y-54481D01*
X13110Y-54424D01*
X12885Y-54424D01*
X12772Y-54481D01*
X12716Y-54537D01*
X12660Y-54649D01*
X14347Y-54368D02*
X14347Y-55156D01*
X14066Y-53918D02*
X13785Y-54762D01*
X14516Y-54762D01*
X14966Y-55156D02*
X14966Y-54368D01*
X14966Y-54481D02*
X15022Y-54424D01*
X15134Y-54368D01*
X15303Y-54368D01*
X15416Y-54424D01*
X15472Y-54537D01*
X15472Y-55156D01*
X15472Y-54537D02*
X15528Y-54424D01*
X15641Y-54368D01*
X15809Y-54368D01*
X15922Y-54424D01*
X15978Y-54537D01*
X15978Y-55156D01*
X16541Y-55156D02*
X16541Y-54368D01*
X16541Y-54481D02*
X16597Y-54424D01*
X16709Y-54368D01*
X16878Y-54368D01*
X16991Y-54424D01*
X17047Y-54537D01*
X17047Y-55156D01*
X17047Y-54537D02*
X17103Y-54424D01*
X17215Y-54368D01*
X17384Y-54368D01*
X17497Y-54424D01*
X17553Y-54537D01*
X17553Y-55156D01*
X19859Y-53918D02*
X18847Y-55437D01*
X21377Y-53974D02*
X21490Y-53974D01*
X21602Y-54031D01*
X21659Y-54087D01*
X21715Y-54199D01*
X21771Y-54424D01*
X21771Y-54706D01*
X21715Y-54931D01*
X21659Y-55043D01*
X21602Y-55099D01*
X21490Y-55156D01*
X21377Y-55156D01*
X21265Y-55099D01*
X21209Y-55043D01*
X21152Y-54931D01*
X21096Y-54706D01*
X21096Y-54424D01*
X21152Y-54199D01*
X21209Y-54087D01*
X21265Y-54031D01*
X21377Y-53974D01*
X22277Y-55043D02*
X22334Y-55099D01*
X22277Y-55156D01*
X22221Y-55099D01*
X22277Y-55043D01*
X22277Y-55156D01*
X23065Y-53974D02*
X23177Y-53974D01*
X23290Y-54031D01*
X23346Y-54087D01*
X23402Y-54199D01*
X23458Y-54424D01*
X23458Y-54706D01*
X23402Y-54931D01*
X23346Y-55043D01*
X23290Y-55099D01*
X23177Y-55156D01*
X23065Y-55156D01*
X22952Y-55099D01*
X22896Y-55043D01*
X22840Y-54931D01*
X22784Y-54706D01*
X22784Y-54424D01*
X22840Y-54199D01*
X22896Y-54087D01*
X22952Y-54031D01*
X23065Y-53974D01*
X23908Y-54087D02*
X23965Y-54031D01*
X24077Y-53974D01*
X24358Y-53974D01*
X24471Y-54031D01*
X24527Y-54087D01*
X24583Y-54199D01*
X24583Y-54312D01*
X24527Y-54481D01*
X23852Y-55156D01*
X24583Y-55156D01*
X25652Y-53974D02*
X25089Y-53974D01*
X25033Y-54537D01*
X25089Y-54481D01*
X25202Y-54424D01*
X25483Y-54424D01*
X25596Y-54481D01*
X25652Y-54537D01*
X25708Y-54649D01*
X25708Y-54931D01*
X25652Y-55043D01*
X25596Y-55099D01*
X25483Y-55156D01*
X25202Y-55156D01*
X25089Y-55099D01*
X25033Y-55043D01*
X26158Y-53974D02*
X26158Y-54199D01*
X26608Y-53974D02*
X26608Y-54199D01*
X28352Y-55605D02*
X28295Y-55549D01*
X28183Y-55380D01*
X28127Y-55268D01*
X28070Y-55099D01*
X28014Y-54818D01*
X28014Y-54593D01*
X28070Y-54312D01*
X28127Y-54143D01*
X28183Y-54031D01*
X28295Y-53862D01*
X28352Y-53806D01*
X29308Y-54368D02*
X29308Y-55156D01*
X29026Y-53918D02*
X28745Y-54762D01*
X29476Y-54762D01*
X30095Y-54481D02*
X29983Y-54424D01*
X29926Y-54368D01*
X29870Y-54256D01*
X29870Y-54199D01*
X29926Y-54087D01*
X29983Y-54031D01*
X30095Y-53974D01*
X30320Y-53974D01*
X30433Y-54031D01*
X30489Y-54087D01*
X30545Y-54199D01*
X30545Y-54256D01*
X30489Y-54368D01*
X30433Y-54424D01*
X30320Y-54481D01*
X30095Y-54481D01*
X29983Y-54537D01*
X29926Y-54593D01*
X29870Y-54706D01*
X29870Y-54931D01*
X29926Y-55043D01*
X29983Y-55099D01*
X30095Y-55156D01*
X30320Y-55156D01*
X30433Y-55099D01*
X30489Y-55043D01*
X30545Y-54931D01*
X30545Y-54706D01*
X30489Y-54593D01*
X30433Y-54537D01*
X30320Y-54481D01*
X31951Y-55156D02*
X31951Y-53974D01*
X32457Y-55156D02*
X32457Y-54537D01*
X32401Y-54424D01*
X32289Y-54368D01*
X32120Y-54368D01*
X32007Y-54424D01*
X31951Y-54481D01*
X33188Y-55156D02*
X33076Y-55099D01*
X33020Y-55043D01*
X32964Y-54931D01*
X32964Y-54593D01*
X33020Y-54481D01*
X33076Y-54424D01*
X33188Y-54368D01*
X33357Y-54368D01*
X33470Y-54424D01*
X33526Y-54481D01*
X33582Y-54593D01*
X33582Y-54931D01*
X33526Y-55043D01*
X33470Y-55099D01*
X33357Y-55156D01*
X33188Y-55156D01*
X34257Y-55156D02*
X34145Y-55099D01*
X34088Y-54987D01*
X34088Y-53974D01*
X35157Y-55099D02*
X35044Y-55156D01*
X34820Y-55156D01*
X34707Y-55099D01*
X34651Y-54987D01*
X34651Y-54537D01*
X34707Y-54424D01*
X34820Y-54368D01*
X35044Y-54368D01*
X35157Y-54424D01*
X35213Y-54537D01*
X35213Y-54649D01*
X34651Y-54762D01*
X35663Y-55099D02*
X35776Y-55156D01*
X36001Y-55156D01*
X36113Y-55099D01*
X36169Y-54987D01*
X36169Y-54931D01*
X36113Y-54818D01*
X36001Y-54762D01*
X35832Y-54762D01*
X35719Y-54706D01*
X35663Y-54593D01*
X35663Y-54537D01*
X35719Y-54424D01*
X35832Y-54368D01*
X36001Y-54368D01*
X36113Y-54424D01*
X36563Y-55605D02*
X36619Y-55549D01*
X36732Y-55380D01*
X36788Y-55268D01*
X36844Y-55099D01*
X36901Y-54818D01*
X36901Y-54593D01*
X36844Y-54312D01*
X36788Y-54143D01*
X36732Y-54031D01*
X36619Y-53862D01*
X36563Y-53806D01*
X9785Y-56062D02*
X9785Y-56412D01*
X9610Y-56237D02*
X9960Y-56237D01*
X11254Y-55533D02*
X11366Y-55533D01*
X11479Y-55590D01*
X11535Y-55646D01*
X11591Y-55758D01*
X11647Y-55983D01*
X11647Y-56265D01*
X11591Y-56490D01*
X11535Y-56602D01*
X11479Y-56658D01*
X11366Y-56715D01*
X11254Y-56715D01*
X11141Y-56658D01*
X11085Y-56602D01*
X11029Y-56490D01*
X10973Y-56265D01*
X10973Y-55983D01*
X11029Y-55758D01*
X11085Y-55646D01*
X11141Y-55590D01*
X11254Y-55533D01*
X12154Y-56602D02*
X12210Y-56658D01*
X12154Y-56715D01*
X12097Y-56658D01*
X12154Y-56602D01*
X12154Y-56715D01*
X12885Y-56040D02*
X12772Y-55983D01*
X12716Y-55927D01*
X12660Y-55815D01*
X12660Y-55758D01*
X12716Y-55646D01*
X12772Y-55590D01*
X12885Y-55533D01*
X13110Y-55533D01*
X13222Y-55590D01*
X13278Y-55646D01*
X13335Y-55758D01*
X13335Y-55815D01*
X13278Y-55927D01*
X13222Y-55983D01*
X13110Y-56040D01*
X12885Y-56040D01*
X12772Y-56096D01*
X12716Y-56152D01*
X12660Y-56265D01*
X12660Y-56490D01*
X12716Y-56602D01*
X12772Y-56658D01*
X12885Y-56715D01*
X13110Y-56715D01*
X13222Y-56658D01*
X13278Y-56602D01*
X13335Y-56490D01*
X13335Y-56265D01*
X13278Y-56152D01*
X13222Y-56096D01*
X13110Y-56040D01*
X13897Y-56715D02*
X14122Y-56715D01*
X14235Y-56658D01*
X14291Y-56602D01*
X14403Y-56433D01*
X14460Y-56208D01*
X14460Y-55758D01*
X14403Y-55646D01*
X14347Y-55590D01*
X14235Y-55533D01*
X14010Y-55533D01*
X13897Y-55590D01*
X13841Y-55646D01*
X13785Y-55758D01*
X13785Y-56040D01*
X13841Y-56152D01*
X13897Y-56208D01*
X14010Y-56265D01*
X14235Y-56265D01*
X14347Y-56208D01*
X14403Y-56152D01*
X14460Y-56040D01*
X14966Y-56715D02*
X14966Y-55927D01*
X14966Y-56040D02*
X15022Y-55983D01*
X15134Y-55927D01*
X15303Y-55927D01*
X15416Y-55983D01*
X15472Y-56096D01*
X15472Y-56715D01*
X15472Y-56096D02*
X15528Y-55983D01*
X15641Y-55927D01*
X15809Y-55927D01*
X15922Y-55983D01*
X15978Y-56096D01*
X15978Y-56715D01*
X16541Y-56715D02*
X16541Y-55927D01*
X16541Y-56040D02*
X16597Y-55983D01*
X16709Y-55927D01*
X16878Y-55927D01*
X16991Y-55983D01*
X17047Y-56096D01*
X17047Y-56715D01*
X17047Y-56096D02*
X17103Y-55983D01*
X17215Y-55927D01*
X17384Y-55927D01*
X17497Y-55983D01*
X17553Y-56096D01*
X17553Y-56715D01*
X19859Y-55477D02*
X18847Y-56996D01*
X21377Y-55533D02*
X21490Y-55533D01*
X21602Y-55590D01*
X21659Y-55646D01*
X21715Y-55758D01*
X21771Y-55983D01*
X21771Y-56265D01*
X21715Y-56490D01*
X21659Y-56602D01*
X21602Y-56658D01*
X21490Y-56715D01*
X21377Y-56715D01*
X21265Y-56658D01*
X21209Y-56602D01*
X21152Y-56490D01*
X21096Y-56265D01*
X21096Y-55983D01*
X21152Y-55758D01*
X21209Y-55646D01*
X21265Y-55590D01*
X21377Y-55533D01*
X22277Y-56602D02*
X22334Y-56658D01*
X22277Y-56715D01*
X22221Y-56658D01*
X22277Y-56602D01*
X22277Y-56715D01*
X23065Y-55533D02*
X23177Y-55533D01*
X23290Y-55590D01*
X23346Y-55646D01*
X23402Y-55758D01*
X23458Y-55983D01*
X23458Y-56265D01*
X23402Y-56490D01*
X23346Y-56602D01*
X23290Y-56658D01*
X23177Y-56715D01*
X23065Y-56715D01*
X22952Y-56658D01*
X22896Y-56602D01*
X22840Y-56490D01*
X22784Y-56265D01*
X22784Y-55983D01*
X22840Y-55758D01*
X22896Y-55646D01*
X22952Y-55590D01*
X23065Y-55533D01*
X23852Y-55533D02*
X24583Y-55533D01*
X24190Y-55983D01*
X24358Y-55983D01*
X24471Y-56040D01*
X24527Y-56096D01*
X24583Y-56208D01*
X24583Y-56490D01*
X24527Y-56602D01*
X24471Y-56658D01*
X24358Y-56715D01*
X24021Y-56715D01*
X23908Y-56658D01*
X23852Y-56602D01*
X25652Y-55533D02*
X25089Y-55533D01*
X25033Y-56096D01*
X25089Y-56040D01*
X25202Y-55983D01*
X25483Y-55983D01*
X25596Y-56040D01*
X25652Y-56096D01*
X25708Y-56208D01*
X25708Y-56490D01*
X25652Y-56602D01*
X25596Y-56658D01*
X25483Y-56715D01*
X25202Y-56715D01*
X25089Y-56658D01*
X25033Y-56602D01*
X26158Y-55533D02*
X26158Y-55758D01*
X26608Y-55533D02*
X26608Y-55758D01*
X28352Y-57165D02*
X28295Y-57108D01*
X28183Y-56940D01*
X28127Y-56827D01*
X28070Y-56658D01*
X28014Y-56377D01*
X28014Y-56152D01*
X28070Y-55871D01*
X28127Y-55702D01*
X28183Y-55590D01*
X28295Y-55421D01*
X28352Y-55365D01*
X28745Y-55646D02*
X28802Y-55590D01*
X28914Y-55533D01*
X29195Y-55533D01*
X29308Y-55590D01*
X29364Y-55646D01*
X29420Y-55758D01*
X29420Y-55871D01*
X29364Y-56040D01*
X28689Y-56715D01*
X29420Y-56715D01*
X30826Y-56715D02*
X30826Y-55533D01*
X31332Y-56715D02*
X31332Y-56096D01*
X31276Y-55983D01*
X31164Y-55927D01*
X30995Y-55927D01*
X30883Y-55983D01*
X30826Y-56040D01*
X32064Y-56715D02*
X31951Y-56658D01*
X31895Y-56602D01*
X31839Y-56490D01*
X31839Y-56152D01*
X31895Y-56040D01*
X31951Y-55983D01*
X32064Y-55927D01*
X32232Y-55927D01*
X32345Y-55983D01*
X32401Y-56040D01*
X32457Y-56152D01*
X32457Y-56490D01*
X32401Y-56602D01*
X32345Y-56658D01*
X32232Y-56715D01*
X32064Y-56715D01*
X33132Y-56715D02*
X33020Y-56658D01*
X32964Y-56546D01*
X32964Y-55533D01*
X34032Y-56658D02*
X33920Y-56715D01*
X33695Y-56715D01*
X33582Y-56658D01*
X33526Y-56546D01*
X33526Y-56096D01*
X33582Y-55983D01*
X33695Y-55927D01*
X33920Y-55927D01*
X34032Y-55983D01*
X34088Y-56096D01*
X34088Y-56208D01*
X33526Y-56321D01*
X34538Y-56658D02*
X34651Y-56715D01*
X34876Y-56715D01*
X34988Y-56658D01*
X35044Y-56546D01*
X35044Y-56490D01*
X34988Y-56377D01*
X34876Y-56321D01*
X34707Y-56321D01*
X34595Y-56265D01*
X34538Y-56152D01*
X34538Y-56096D01*
X34595Y-55983D01*
X34707Y-55927D01*
X34876Y-55927D01*
X34988Y-55983D01*
X35438Y-57165D02*
X35494Y-57108D01*
X35607Y-56940D01*
X35663Y-56827D01*
X35719Y-56658D01*
X35776Y-56377D01*
X35776Y-56152D01*
X35719Y-55871D01*
X35663Y-55702D01*
X35607Y-55590D01*
X35494Y-55421D01*
X35438Y-55365D01*
G54D11*
X9902Y-57937D02*
X9902Y-57654D01*
X9619Y-57654D01*
X9619Y-57937D01*
X9902Y-57937D01*
G54D12*
X11647Y-58274D02*
X10973Y-58274D01*
X11310Y-58274D02*
X11310Y-57093D01*
X11197Y-57261D01*
X11085Y-57374D01*
X10973Y-57430D01*
X12154Y-58161D02*
X12210Y-58217D01*
X12154Y-58274D01*
X12097Y-58217D01*
X12154Y-58161D01*
X12154Y-58274D01*
X12941Y-57093D02*
X13053Y-57093D01*
X13166Y-57149D01*
X13222Y-57205D01*
X13278Y-57317D01*
X13335Y-57542D01*
X13335Y-57824D01*
X13278Y-58049D01*
X13222Y-58161D01*
X13166Y-58217D01*
X13053Y-58274D01*
X12941Y-58274D01*
X12829Y-58217D01*
X12772Y-58161D01*
X12716Y-58049D01*
X12660Y-57824D01*
X12660Y-57542D01*
X12716Y-57317D01*
X12772Y-57205D01*
X12829Y-57149D01*
X12941Y-57093D01*
X13785Y-57205D02*
X13841Y-57149D01*
X13953Y-57093D01*
X14235Y-57093D01*
X14347Y-57149D01*
X14403Y-57205D01*
X14460Y-57317D01*
X14460Y-57430D01*
X14403Y-57599D01*
X13728Y-58274D01*
X14460Y-58274D01*
X14966Y-58274D02*
X14966Y-57486D01*
X14966Y-57599D02*
X15022Y-57542D01*
X15134Y-57486D01*
X15303Y-57486D01*
X15416Y-57542D01*
X15472Y-57655D01*
X15472Y-58274D01*
X15472Y-57655D02*
X15528Y-57542D01*
X15641Y-57486D01*
X15809Y-57486D01*
X15922Y-57542D01*
X15978Y-57655D01*
X15978Y-58274D01*
X16541Y-58274D02*
X16541Y-57486D01*
X16541Y-57599D02*
X16597Y-57542D01*
X16709Y-57486D01*
X16878Y-57486D01*
X16991Y-57542D01*
X17047Y-57655D01*
X17047Y-58274D01*
X17047Y-57655D02*
X17103Y-57542D01*
X17215Y-57486D01*
X17384Y-57486D01*
X17497Y-57542D01*
X17553Y-57655D01*
X17553Y-58274D01*
X19859Y-57036D02*
X18847Y-58555D01*
X21377Y-57093D02*
X21490Y-57093D01*
X21602Y-57149D01*
X21659Y-57205D01*
X21715Y-57317D01*
X21771Y-57542D01*
X21771Y-57824D01*
X21715Y-58049D01*
X21659Y-58161D01*
X21602Y-58217D01*
X21490Y-58274D01*
X21377Y-58274D01*
X21265Y-58217D01*
X21209Y-58161D01*
X21152Y-58049D01*
X21096Y-57824D01*
X21096Y-57542D01*
X21152Y-57317D01*
X21209Y-57205D01*
X21265Y-57149D01*
X21377Y-57093D01*
X22277Y-58161D02*
X22334Y-58217D01*
X22277Y-58274D01*
X22221Y-58217D01*
X22277Y-58161D01*
X22277Y-58274D01*
X23065Y-57093D02*
X23177Y-57093D01*
X23290Y-57149D01*
X23346Y-57205D01*
X23402Y-57317D01*
X23458Y-57542D01*
X23458Y-57824D01*
X23402Y-58049D01*
X23346Y-58161D01*
X23290Y-58217D01*
X23177Y-58274D01*
X23065Y-58274D01*
X22952Y-58217D01*
X22896Y-58161D01*
X22840Y-58049D01*
X22784Y-57824D01*
X22784Y-57542D01*
X22840Y-57317D01*
X22896Y-57205D01*
X22952Y-57149D01*
X23065Y-57093D01*
X24471Y-57486D02*
X24471Y-58274D01*
X24190Y-57036D02*
X23908Y-57880D01*
X24640Y-57880D01*
X25314Y-57093D02*
X25427Y-57093D01*
X25539Y-57149D01*
X25596Y-57205D01*
X25652Y-57317D01*
X25708Y-57542D01*
X25708Y-57824D01*
X25652Y-58049D01*
X25596Y-58161D01*
X25539Y-58217D01*
X25427Y-58274D01*
X25314Y-58274D01*
X25202Y-58217D01*
X25146Y-58161D01*
X25089Y-58049D01*
X25033Y-57824D01*
X25033Y-57542D01*
X25089Y-57317D01*
X25146Y-57205D01*
X25202Y-57149D01*
X25314Y-57093D01*
X26158Y-57093D02*
X26158Y-57317D01*
X26608Y-57093D02*
X26608Y-57317D01*
X28352Y-58724D02*
X28295Y-58667D01*
X28183Y-58499D01*
X28127Y-58386D01*
X28070Y-58217D01*
X28014Y-57936D01*
X28014Y-57711D01*
X28070Y-57430D01*
X28127Y-57261D01*
X28183Y-57149D01*
X28295Y-56980D01*
X28352Y-56924D01*
X29420Y-58274D02*
X28745Y-58274D01*
X29083Y-58274D02*
X29083Y-57093D01*
X28970Y-57261D01*
X28858Y-57374D01*
X28745Y-57430D01*
X29870Y-57205D02*
X29926Y-57149D01*
X30039Y-57093D01*
X30320Y-57093D01*
X30433Y-57149D01*
X30489Y-57205D01*
X30545Y-57317D01*
X30545Y-57430D01*
X30489Y-57599D01*
X29814Y-58274D01*
X30545Y-58274D01*
X31614Y-57093D02*
X31051Y-57093D01*
X30995Y-57655D01*
X31051Y-57599D01*
X31164Y-57542D01*
X31445Y-57542D01*
X31557Y-57599D01*
X31614Y-57655D01*
X31670Y-57767D01*
X31670Y-58049D01*
X31614Y-58161D01*
X31557Y-58217D01*
X31445Y-58274D01*
X31164Y-58274D01*
X31051Y-58217D01*
X30995Y-58161D01*
X33076Y-58274D02*
X33076Y-57093D01*
X33582Y-58274D02*
X33582Y-57655D01*
X33526Y-57542D01*
X33413Y-57486D01*
X33245Y-57486D01*
X33132Y-57542D01*
X33076Y-57599D01*
X34313Y-58274D02*
X34201Y-58217D01*
X34145Y-58161D01*
X34088Y-58049D01*
X34088Y-57711D01*
X34145Y-57599D01*
X34201Y-57542D01*
X34313Y-57486D01*
X34482Y-57486D01*
X34595Y-57542D01*
X34651Y-57599D01*
X34707Y-57711D01*
X34707Y-58049D01*
X34651Y-58161D01*
X34595Y-58217D01*
X34482Y-58274D01*
X34313Y-58274D01*
X35382Y-58274D02*
X35269Y-58217D01*
X35213Y-58105D01*
X35213Y-57093D01*
X36282Y-58217D02*
X36169Y-58274D01*
X35944Y-58274D01*
X35832Y-58217D01*
X35776Y-58105D01*
X35776Y-57655D01*
X35832Y-57542D01*
X35944Y-57486D01*
X36169Y-57486D01*
X36282Y-57542D01*
X36338Y-57655D01*
X36338Y-57767D01*
X35776Y-57880D01*
X36788Y-58217D02*
X36901Y-58274D01*
X37125Y-58274D01*
X37238Y-58217D01*
X37294Y-58105D01*
X37294Y-58049D01*
X37238Y-57936D01*
X37125Y-57880D01*
X36957Y-57880D01*
X36844Y-57824D01*
X36788Y-57711D01*
X36788Y-57655D01*
X36844Y-57542D01*
X36957Y-57486D01*
X37125Y-57486D01*
X37238Y-57542D01*
X38700Y-57824D02*
X39600Y-57824D01*
X39150Y-58274D02*
X39150Y-57374D01*
X41681Y-58274D02*
X41006Y-58274D01*
X41344Y-58274D02*
X41344Y-57093D01*
X41231Y-57261D01*
X41119Y-57374D01*
X41006Y-57430D01*
X43031Y-58217D02*
X43143Y-58274D01*
X43368Y-58274D01*
X43481Y-58217D01*
X43537Y-58105D01*
X43537Y-58049D01*
X43481Y-57936D01*
X43368Y-57880D01*
X43200Y-57880D01*
X43087Y-57824D01*
X43031Y-57711D01*
X43031Y-57655D01*
X43087Y-57542D01*
X43200Y-57486D01*
X43368Y-57486D01*
X43481Y-57542D01*
X44212Y-58274D02*
X44100Y-58217D01*
X44043Y-58105D01*
X44043Y-57093D01*
X44831Y-58274D02*
X44718Y-58217D01*
X44662Y-58161D01*
X44606Y-58049D01*
X44606Y-57711D01*
X44662Y-57599D01*
X44718Y-57542D01*
X44831Y-57486D01*
X44999Y-57486D01*
X45112Y-57542D01*
X45168Y-57599D01*
X45224Y-57711D01*
X45224Y-58049D01*
X45168Y-58161D01*
X45112Y-58217D01*
X44999Y-58274D01*
X44831Y-58274D01*
X45562Y-57486D02*
X46012Y-57486D01*
X45731Y-57093D02*
X45731Y-58105D01*
X45787Y-58217D01*
X45899Y-58274D01*
X46012Y-58274D01*
X46293Y-58724D02*
X46349Y-58667D01*
X46462Y-58499D01*
X46518Y-58386D01*
X46574Y-58217D01*
X46631Y-57936D01*
X46631Y-57711D01*
X46574Y-57430D01*
X46518Y-57261D01*
X46462Y-57149D01*
X46349Y-56980D01*
X46293Y-56924D01*
G54D11*
X9730Y-59585D02*
X9960Y-59355D01*
X9730Y-59125D01*
X9500Y-59355D01*
X9730Y-59585D01*
G54D12*
X11647Y-59833D02*
X10973Y-59833D01*
X11310Y-59833D02*
X11310Y-58652D01*
X11197Y-58820D01*
X11085Y-58933D01*
X10973Y-58989D01*
X12154Y-59720D02*
X12210Y-59776D01*
X12154Y-59833D01*
X12097Y-59776D01*
X12154Y-59720D01*
X12154Y-59833D01*
X13335Y-59833D02*
X12660Y-59833D01*
X12997Y-59833D02*
X12997Y-58652D01*
X12885Y-58820D01*
X12772Y-58933D01*
X12660Y-58989D01*
X13728Y-58652D02*
X14516Y-58652D01*
X14010Y-59833D01*
X14966Y-59833D02*
X14966Y-59045D01*
X14966Y-59158D02*
X15022Y-59102D01*
X15134Y-59045D01*
X15303Y-59045D01*
X15416Y-59102D01*
X15472Y-59214D01*
X15472Y-59833D01*
X15472Y-59214D02*
X15528Y-59102D01*
X15641Y-59045D01*
X15809Y-59045D01*
X15922Y-59102D01*
X15978Y-59214D01*
X15978Y-59833D01*
X16541Y-59833D02*
X16541Y-59045D01*
X16541Y-59158D02*
X16597Y-59102D01*
X16709Y-59045D01*
X16878Y-59045D01*
X16991Y-59102D01*
X17047Y-59214D01*
X17047Y-59833D01*
X17047Y-59214D02*
X17103Y-59102D01*
X17215Y-59045D01*
X17384Y-59045D01*
X17497Y-59102D01*
X17553Y-59214D01*
X17553Y-59833D01*
X19859Y-58595D02*
X18847Y-60114D01*
X21377Y-58652D02*
X21490Y-58652D01*
X21602Y-58708D01*
X21659Y-58764D01*
X21715Y-58877D01*
X21771Y-59102D01*
X21771Y-59383D01*
X21715Y-59608D01*
X21659Y-59720D01*
X21602Y-59776D01*
X21490Y-59833D01*
X21377Y-59833D01*
X21265Y-59776D01*
X21209Y-59720D01*
X21152Y-59608D01*
X21096Y-59383D01*
X21096Y-59102D01*
X21152Y-58877D01*
X21209Y-58764D01*
X21265Y-58708D01*
X21377Y-58652D01*
X22277Y-59720D02*
X22334Y-59776D01*
X22277Y-59833D01*
X22221Y-59776D01*
X22277Y-59720D01*
X22277Y-59833D01*
X23065Y-58652D02*
X23177Y-58652D01*
X23290Y-58708D01*
X23346Y-58764D01*
X23402Y-58877D01*
X23458Y-59102D01*
X23458Y-59383D01*
X23402Y-59608D01*
X23346Y-59720D01*
X23290Y-59776D01*
X23177Y-59833D01*
X23065Y-59833D01*
X22952Y-59776D01*
X22896Y-59720D01*
X22840Y-59608D01*
X22784Y-59383D01*
X22784Y-59102D01*
X22840Y-58877D01*
X22896Y-58764D01*
X22952Y-58708D01*
X23065Y-58652D01*
X24471Y-59045D02*
X24471Y-59833D01*
X24190Y-58595D02*
X23908Y-59439D01*
X24640Y-59439D01*
X25596Y-58652D02*
X25371Y-58652D01*
X25258Y-58708D01*
X25202Y-58764D01*
X25089Y-58933D01*
X25033Y-59158D01*
X25033Y-59608D01*
X25089Y-59720D01*
X25146Y-59776D01*
X25258Y-59833D01*
X25483Y-59833D01*
X25596Y-59776D01*
X25652Y-59720D01*
X25708Y-59608D01*
X25708Y-59326D01*
X25652Y-59214D01*
X25596Y-59158D01*
X25483Y-59102D01*
X25258Y-59102D01*
X25146Y-59158D01*
X25089Y-59214D01*
X25033Y-59326D01*
X26158Y-58652D02*
X26158Y-58877D01*
X26608Y-58652D02*
X26608Y-58877D01*
X28352Y-60283D02*
X28295Y-60226D01*
X28183Y-60058D01*
X28127Y-59945D01*
X28070Y-59776D01*
X28014Y-59495D01*
X28014Y-59270D01*
X28070Y-58989D01*
X28127Y-58820D01*
X28183Y-58708D01*
X28295Y-58539D01*
X28352Y-58483D01*
X29026Y-58652D02*
X29139Y-58652D01*
X29251Y-58708D01*
X29308Y-58764D01*
X29364Y-58877D01*
X29420Y-59102D01*
X29420Y-59383D01*
X29364Y-59608D01*
X29308Y-59720D01*
X29251Y-59776D01*
X29139Y-59833D01*
X29026Y-59833D01*
X28914Y-59776D01*
X28858Y-59720D01*
X28802Y-59608D01*
X28745Y-59383D01*
X28745Y-59102D01*
X28802Y-58877D01*
X28858Y-58764D01*
X28914Y-58708D01*
X29026Y-58652D01*
X30826Y-59833D02*
X30826Y-58652D01*
X31332Y-59833D02*
X31332Y-59214D01*
X31276Y-59102D01*
X31164Y-59045D01*
X30995Y-59045D01*
X30883Y-59102D01*
X30826Y-59158D01*
X32064Y-59833D02*
X31951Y-59776D01*
X31895Y-59720D01*
X31839Y-59608D01*
X31839Y-59270D01*
X31895Y-59158D01*
X31951Y-59102D01*
X32064Y-59045D01*
X32232Y-59045D01*
X32345Y-59102D01*
X32401Y-59158D01*
X32457Y-59270D01*
X32457Y-59608D01*
X32401Y-59720D01*
X32345Y-59776D01*
X32232Y-59833D01*
X32064Y-59833D01*
X33132Y-59833D02*
X33020Y-59776D01*
X32964Y-59664D01*
X32964Y-58652D01*
X34032Y-59776D02*
X33920Y-59833D01*
X33695Y-59833D01*
X33582Y-59776D01*
X33526Y-59664D01*
X33526Y-59214D01*
X33582Y-59102D01*
X33695Y-59045D01*
X33920Y-59045D01*
X34032Y-59102D01*
X34088Y-59214D01*
X34088Y-59326D01*
X33526Y-59439D01*
X34538Y-59776D02*
X34651Y-59833D01*
X34876Y-59833D01*
X34988Y-59776D01*
X35044Y-59664D01*
X35044Y-59608D01*
X34988Y-59495D01*
X34876Y-59439D01*
X34707Y-59439D01*
X34595Y-59383D01*
X34538Y-59270D01*
X34538Y-59214D01*
X34595Y-59102D01*
X34707Y-59045D01*
X34876Y-59045D01*
X34988Y-59102D01*
X36451Y-59383D02*
X37350Y-59383D01*
X36901Y-59833D02*
X36901Y-58933D01*
X38757Y-58764D02*
X38813Y-58708D01*
X38925Y-58652D01*
X39206Y-58652D01*
X39319Y-58708D01*
X39375Y-58764D01*
X39431Y-58877D01*
X39431Y-58989D01*
X39375Y-59158D01*
X38700Y-59833D01*
X39431Y-59833D01*
X40781Y-59776D02*
X40894Y-59833D01*
X41119Y-59833D01*
X41231Y-59776D01*
X41287Y-59664D01*
X41287Y-59608D01*
X41231Y-59495D01*
X41119Y-59439D01*
X40950Y-59439D01*
X40838Y-59383D01*
X40781Y-59270D01*
X40781Y-59214D01*
X40838Y-59102D01*
X40950Y-59045D01*
X41119Y-59045D01*
X41231Y-59102D01*
X41962Y-59833D02*
X41850Y-59776D01*
X41794Y-59664D01*
X41794Y-58652D01*
X42581Y-59833D02*
X42469Y-59776D01*
X42412Y-59720D01*
X42356Y-59608D01*
X42356Y-59270D01*
X42412Y-59158D01*
X42469Y-59102D01*
X42581Y-59045D01*
X42750Y-59045D01*
X42862Y-59102D01*
X42919Y-59158D01*
X42975Y-59270D01*
X42975Y-59608D01*
X42919Y-59720D01*
X42862Y-59776D01*
X42750Y-59833D01*
X42581Y-59833D01*
X43312Y-59045D02*
X43762Y-59045D01*
X43481Y-58652D02*
X43481Y-59664D01*
X43537Y-59776D01*
X43650Y-59833D01*
X43762Y-59833D01*
X44100Y-59776D02*
X44212Y-59833D01*
X44437Y-59833D01*
X44550Y-59776D01*
X44606Y-59664D01*
X44606Y-59608D01*
X44550Y-59495D01*
X44437Y-59439D01*
X44268Y-59439D01*
X44156Y-59383D01*
X44100Y-59270D01*
X44100Y-59214D01*
X44156Y-59102D01*
X44268Y-59045D01*
X44437Y-59045D01*
X44550Y-59102D01*
X44999Y-60283D02*
X45056Y-60226D01*
X45168Y-60058D01*
X45224Y-59945D01*
X45281Y-59776D01*
X45337Y-59495D01*
X45337Y-59270D01*
X45281Y-58989D01*
X45224Y-58820D01*
X45168Y-58708D01*
X45056Y-58539D01*
X44999Y-58483D01*
X9410Y-60639D02*
X9960Y-61189D01*
X9960Y-60639D02*
X9410Y-61189D01*
G54D11*
X9960Y-60914D02*
G75*
G03X9960Y-60914I-275J0D01*
G74*
G01*
G54D12*
X11647Y-61392D02*
X10973Y-61392D01*
X11310Y-61392D02*
X11310Y-60211D01*
X11197Y-60379D01*
X11085Y-60492D01*
X10973Y-60548D01*
X12154Y-61279D02*
X12210Y-61335D01*
X12154Y-61392D01*
X12097Y-61335D01*
X12154Y-61279D01*
X12154Y-61392D01*
X13222Y-60604D02*
X13222Y-61392D01*
X12941Y-60154D02*
X12660Y-60998D01*
X13391Y-60998D01*
X14066Y-60211D02*
X14178Y-60211D01*
X14291Y-60267D01*
X14347Y-60323D01*
X14403Y-60436D01*
X14460Y-60661D01*
X14460Y-60942D01*
X14403Y-61167D01*
X14347Y-61279D01*
X14291Y-61335D01*
X14178Y-61392D01*
X14066Y-61392D01*
X13953Y-61335D01*
X13897Y-61279D01*
X13841Y-61167D01*
X13785Y-60942D01*
X13785Y-60661D01*
X13841Y-60436D01*
X13897Y-60323D01*
X13953Y-60267D01*
X14066Y-60211D01*
X14966Y-61392D02*
X14966Y-60604D01*
X14966Y-60717D02*
X15022Y-60661D01*
X15134Y-60604D01*
X15303Y-60604D01*
X15416Y-60661D01*
X15472Y-60773D01*
X15472Y-61392D01*
X15472Y-60773D02*
X15528Y-60661D01*
X15641Y-60604D01*
X15809Y-60604D01*
X15922Y-60661D01*
X15978Y-60773D01*
X15978Y-61392D01*
X16541Y-61392D02*
X16541Y-60604D01*
X16541Y-60717D02*
X16597Y-60661D01*
X16709Y-60604D01*
X16878Y-60604D01*
X16991Y-60661D01*
X17047Y-60773D01*
X17047Y-61392D01*
X17047Y-60773D02*
X17103Y-60661D01*
X17215Y-60604D01*
X17384Y-60604D01*
X17497Y-60661D01*
X17553Y-60773D01*
X17553Y-61392D01*
X19859Y-60154D02*
X18847Y-61673D01*
X21377Y-60211D02*
X21490Y-60211D01*
X21602Y-60267D01*
X21659Y-60323D01*
X21715Y-60436D01*
X21771Y-60661D01*
X21771Y-60942D01*
X21715Y-61167D01*
X21659Y-61279D01*
X21602Y-61335D01*
X21490Y-61392D01*
X21377Y-61392D01*
X21265Y-61335D01*
X21209Y-61279D01*
X21152Y-61167D01*
X21096Y-60942D01*
X21096Y-60661D01*
X21152Y-60436D01*
X21209Y-60323D01*
X21265Y-60267D01*
X21377Y-60211D01*
X22277Y-61279D02*
X22334Y-61335D01*
X22277Y-61392D01*
X22221Y-61335D01*
X22277Y-61279D01*
X22277Y-61392D01*
X23065Y-60211D02*
X23177Y-60211D01*
X23290Y-60267D01*
X23346Y-60323D01*
X23402Y-60436D01*
X23458Y-60661D01*
X23458Y-60942D01*
X23402Y-61167D01*
X23346Y-61279D01*
X23290Y-61335D01*
X23177Y-61392D01*
X23065Y-61392D01*
X22952Y-61335D01*
X22896Y-61279D01*
X22840Y-61167D01*
X22784Y-60942D01*
X22784Y-60661D01*
X22840Y-60436D01*
X22896Y-60323D01*
X22952Y-60267D01*
X23065Y-60211D01*
X24527Y-60211D02*
X23965Y-60211D01*
X23908Y-60773D01*
X23965Y-60717D01*
X24077Y-60661D01*
X24358Y-60661D01*
X24471Y-60717D01*
X24527Y-60773D01*
X24583Y-60886D01*
X24583Y-61167D01*
X24527Y-61279D01*
X24471Y-61335D01*
X24358Y-61392D01*
X24077Y-61392D01*
X23965Y-61335D01*
X23908Y-61279D01*
X25652Y-60211D02*
X25089Y-60211D01*
X25033Y-60773D01*
X25089Y-60717D01*
X25202Y-60661D01*
X25483Y-60661D01*
X25596Y-60717D01*
X25652Y-60773D01*
X25708Y-60886D01*
X25708Y-61167D01*
X25652Y-61279D01*
X25596Y-61335D01*
X25483Y-61392D01*
X25202Y-61392D01*
X25089Y-61335D01*
X25033Y-61279D01*
X26158Y-60211D02*
X26158Y-60436D01*
X26608Y-60211D02*
X26608Y-60436D01*
X28352Y-61842D02*
X28295Y-61785D01*
X28183Y-61617D01*
X28127Y-61504D01*
X28070Y-61335D01*
X28014Y-61054D01*
X28014Y-60829D01*
X28070Y-60548D01*
X28127Y-60379D01*
X28183Y-60267D01*
X28295Y-60098D01*
X28352Y-60042D01*
X29308Y-60604D02*
X29308Y-61392D01*
X29026Y-60154D02*
X28745Y-60998D01*
X29476Y-60998D01*
X30826Y-61392D02*
X30826Y-60211D01*
X31332Y-61392D02*
X31332Y-60773D01*
X31276Y-60661D01*
X31164Y-60604D01*
X30995Y-60604D01*
X30883Y-60661D01*
X30826Y-60717D01*
X32064Y-61392D02*
X31951Y-61335D01*
X31895Y-61279D01*
X31839Y-61167D01*
X31839Y-60829D01*
X31895Y-60717D01*
X31951Y-60661D01*
X32064Y-60604D01*
X32232Y-60604D01*
X32345Y-60661D01*
X32401Y-60717D01*
X32457Y-60829D01*
X32457Y-61167D01*
X32401Y-61279D01*
X32345Y-61335D01*
X32232Y-61392D01*
X32064Y-61392D01*
X33132Y-61392D02*
X33020Y-61335D01*
X32964Y-61223D01*
X32964Y-60211D01*
X34032Y-61335D02*
X33920Y-61392D01*
X33695Y-61392D01*
X33582Y-61335D01*
X33526Y-61223D01*
X33526Y-60773D01*
X33582Y-60661D01*
X33695Y-60604D01*
X33920Y-60604D01*
X34032Y-60661D01*
X34088Y-60773D01*
X34088Y-60886D01*
X33526Y-60998D01*
X34538Y-61335D02*
X34651Y-61392D01*
X34876Y-61392D01*
X34988Y-61335D01*
X35044Y-61223D01*
X35044Y-61167D01*
X34988Y-61054D01*
X34876Y-60998D01*
X34707Y-60998D01*
X34595Y-60942D01*
X34538Y-60829D01*
X34538Y-60773D01*
X34595Y-60661D01*
X34707Y-60604D01*
X34876Y-60604D01*
X34988Y-60661D01*
X35438Y-61842D02*
X35494Y-61785D01*
X35607Y-61617D01*
X35663Y-61504D01*
X35719Y-61335D01*
X35776Y-61054D01*
X35776Y-60829D01*
X35719Y-60548D01*
X35663Y-60379D01*
X35607Y-60267D01*
X35494Y-60098D01*
X35438Y-60042D01*
X9360Y-62173D02*
X9960Y-62773D01*
X9960Y-62173D02*
X9360Y-62773D01*
X9660Y-62173D02*
X9660Y-62773D01*
X9360Y-62473D02*
X9960Y-62473D01*
X11647Y-62951D02*
X10973Y-62951D01*
X11310Y-62951D02*
X11310Y-61770D01*
X11197Y-61938D01*
X11085Y-62051D01*
X10973Y-62107D01*
X12154Y-62838D02*
X12210Y-62895D01*
X12154Y-62951D01*
X12097Y-62895D01*
X12154Y-62838D01*
X12154Y-62951D01*
X13278Y-61770D02*
X12716Y-61770D01*
X12660Y-62332D01*
X12716Y-62276D01*
X12829Y-62220D01*
X13110Y-62220D01*
X13222Y-62276D01*
X13278Y-62332D01*
X13335Y-62445D01*
X13335Y-62726D01*
X13278Y-62838D01*
X13222Y-62895D01*
X13110Y-62951D01*
X12829Y-62951D01*
X12716Y-62895D01*
X12660Y-62838D01*
X13785Y-61882D02*
X13841Y-61826D01*
X13953Y-61770D01*
X14235Y-61770D01*
X14347Y-61826D01*
X14403Y-61882D01*
X14460Y-61995D01*
X14460Y-62107D01*
X14403Y-62276D01*
X13728Y-62951D01*
X14460Y-62951D01*
X14966Y-62951D02*
X14966Y-62163D01*
X14966Y-62276D02*
X15022Y-62220D01*
X15134Y-62163D01*
X15303Y-62163D01*
X15416Y-62220D01*
X15472Y-62332D01*
X15472Y-62951D01*
X15472Y-62332D02*
X15528Y-62220D01*
X15641Y-62163D01*
X15809Y-62163D01*
X15922Y-62220D01*
X15978Y-62332D01*
X15978Y-62951D01*
X16541Y-62951D02*
X16541Y-62163D01*
X16541Y-62276D02*
X16597Y-62220D01*
X16709Y-62163D01*
X16878Y-62163D01*
X16991Y-62220D01*
X17047Y-62332D01*
X17047Y-62951D01*
X17047Y-62332D02*
X17103Y-62220D01*
X17215Y-62163D01*
X17384Y-62163D01*
X17497Y-62220D01*
X17553Y-62332D01*
X17553Y-62951D01*
X19859Y-61713D02*
X18847Y-63232D01*
X21377Y-61770D02*
X21490Y-61770D01*
X21602Y-61826D01*
X21659Y-61882D01*
X21715Y-61995D01*
X21771Y-62220D01*
X21771Y-62501D01*
X21715Y-62726D01*
X21659Y-62838D01*
X21602Y-62895D01*
X21490Y-62951D01*
X21377Y-62951D01*
X21265Y-62895D01*
X21209Y-62838D01*
X21152Y-62726D01*
X21096Y-62501D01*
X21096Y-62220D01*
X21152Y-61995D01*
X21209Y-61882D01*
X21265Y-61826D01*
X21377Y-61770D01*
X22277Y-62838D02*
X22334Y-62895D01*
X22277Y-62951D01*
X22221Y-62895D01*
X22277Y-62838D01*
X22277Y-62951D01*
X23065Y-61770D02*
X23177Y-61770D01*
X23290Y-61826D01*
X23346Y-61882D01*
X23402Y-61995D01*
X23458Y-62220D01*
X23458Y-62501D01*
X23402Y-62726D01*
X23346Y-62838D01*
X23290Y-62895D01*
X23177Y-62951D01*
X23065Y-62951D01*
X22952Y-62895D01*
X22896Y-62838D01*
X22840Y-62726D01*
X22784Y-62501D01*
X22784Y-62220D01*
X22840Y-61995D01*
X22896Y-61882D01*
X22952Y-61826D01*
X23065Y-61770D01*
X24471Y-61770D02*
X24246Y-61770D01*
X24133Y-61826D01*
X24077Y-61882D01*
X23965Y-62051D01*
X23908Y-62276D01*
X23908Y-62726D01*
X23965Y-62838D01*
X24021Y-62895D01*
X24133Y-62951D01*
X24358Y-62951D01*
X24471Y-62895D01*
X24527Y-62838D01*
X24583Y-62726D01*
X24583Y-62445D01*
X24527Y-62332D01*
X24471Y-62276D01*
X24358Y-62220D01*
X24133Y-62220D01*
X24021Y-62276D01*
X23965Y-62332D01*
X23908Y-62445D01*
X25314Y-61770D02*
X25427Y-61770D01*
X25539Y-61826D01*
X25596Y-61882D01*
X25652Y-61995D01*
X25708Y-62220D01*
X25708Y-62501D01*
X25652Y-62726D01*
X25596Y-62838D01*
X25539Y-62895D01*
X25427Y-62951D01*
X25314Y-62951D01*
X25202Y-62895D01*
X25146Y-62838D01*
X25089Y-62726D01*
X25033Y-62501D01*
X25033Y-62220D01*
X25089Y-61995D01*
X25146Y-61882D01*
X25202Y-61826D01*
X25314Y-61770D01*
X26158Y-61770D02*
X26158Y-61995D01*
X26608Y-61770D02*
X26608Y-61995D01*
X28352Y-63401D02*
X28295Y-63344D01*
X28183Y-63176D01*
X28127Y-63063D01*
X28070Y-62895D01*
X28014Y-62613D01*
X28014Y-62388D01*
X28070Y-62107D01*
X28127Y-61938D01*
X28183Y-61826D01*
X28295Y-61657D01*
X28352Y-61601D01*
X29308Y-61770D02*
X29083Y-61770D01*
X28970Y-61826D01*
X28914Y-61882D01*
X28802Y-62051D01*
X28745Y-62276D01*
X28745Y-62726D01*
X28802Y-62838D01*
X28858Y-62895D01*
X28970Y-62951D01*
X29195Y-62951D01*
X29308Y-62895D01*
X29364Y-62838D01*
X29420Y-62726D01*
X29420Y-62445D01*
X29364Y-62332D01*
X29308Y-62276D01*
X29195Y-62220D01*
X28970Y-62220D01*
X28858Y-62276D01*
X28802Y-62332D01*
X28745Y-62445D01*
X30826Y-62951D02*
X30826Y-61770D01*
X31332Y-62951D02*
X31332Y-62332D01*
X31276Y-62220D01*
X31164Y-62163D01*
X30995Y-62163D01*
X30883Y-62220D01*
X30826Y-62276D01*
X32064Y-62951D02*
X31951Y-62895D01*
X31895Y-62838D01*
X31839Y-62726D01*
X31839Y-62388D01*
X31895Y-62276D01*
X31951Y-62220D01*
X32064Y-62163D01*
X32232Y-62163D01*
X32345Y-62220D01*
X32401Y-62276D01*
X32457Y-62388D01*
X32457Y-62726D01*
X32401Y-62838D01*
X32345Y-62895D01*
X32232Y-62951D01*
X32064Y-62951D01*
X33132Y-62951D02*
X33020Y-62895D01*
X32964Y-62782D01*
X32964Y-61770D01*
X34032Y-62895D02*
X33920Y-62951D01*
X33695Y-62951D01*
X33582Y-62895D01*
X33526Y-62782D01*
X33526Y-62332D01*
X33582Y-62220D01*
X33695Y-62163D01*
X33920Y-62163D01*
X34032Y-62220D01*
X34088Y-62332D01*
X34088Y-62445D01*
X33526Y-62557D01*
X34538Y-62895D02*
X34651Y-62951D01*
X34876Y-62951D01*
X34988Y-62895D01*
X35044Y-62782D01*
X35044Y-62726D01*
X34988Y-62613D01*
X34876Y-62557D01*
X34707Y-62557D01*
X34595Y-62501D01*
X34538Y-62388D01*
X34538Y-62332D01*
X34595Y-62220D01*
X34707Y-62163D01*
X34876Y-62163D01*
X34988Y-62220D01*
X35438Y-63401D02*
X35494Y-63344D01*
X35607Y-63176D01*
X35663Y-63063D01*
X35719Y-62895D01*
X35776Y-62613D01*
X35776Y-62388D01*
X35719Y-62107D01*
X35663Y-61938D01*
X35607Y-61826D01*
X35494Y-61657D01*
X35438Y-61601D01*
X9330Y-63717D02*
X9960Y-64347D01*
X9960Y-63717D02*
X9330Y-64347D01*
G54D11*
X9868Y-64254D02*
X9868Y-63809D01*
X9422Y-63809D01*
X9422Y-64254D01*
X9868Y-64254D01*
G54D12*
X11647Y-64510D02*
X10973Y-64510D01*
X11310Y-64510D02*
X11310Y-63329D01*
X11197Y-63497D01*
X11085Y-63610D01*
X10973Y-63666D01*
X12154Y-64397D02*
X12210Y-64454D01*
X12154Y-64510D01*
X12097Y-64454D01*
X12154Y-64397D01*
X12154Y-64510D01*
X13222Y-63329D02*
X12997Y-63329D01*
X12885Y-63385D01*
X12829Y-63441D01*
X12716Y-63610D01*
X12660Y-63835D01*
X12660Y-64285D01*
X12716Y-64397D01*
X12772Y-64454D01*
X12885Y-64510D01*
X13110Y-64510D01*
X13222Y-64454D01*
X13278Y-64397D01*
X13335Y-64285D01*
X13335Y-64004D01*
X13278Y-63891D01*
X13222Y-63835D01*
X13110Y-63779D01*
X12885Y-63779D01*
X12772Y-63835D01*
X12716Y-63891D01*
X12660Y-64004D01*
X14066Y-63329D02*
X14178Y-63329D01*
X14291Y-63385D01*
X14347Y-63441D01*
X14403Y-63554D01*
X14460Y-63779D01*
X14460Y-64060D01*
X14403Y-64285D01*
X14347Y-64397D01*
X14291Y-64454D01*
X14178Y-64510D01*
X14066Y-64510D01*
X13953Y-64454D01*
X13897Y-64397D01*
X13841Y-64285D01*
X13785Y-64060D01*
X13785Y-63779D01*
X13841Y-63554D01*
X13897Y-63441D01*
X13953Y-63385D01*
X14066Y-63329D01*
X14966Y-64510D02*
X14966Y-63722D01*
X14966Y-63835D02*
X15022Y-63779D01*
X15134Y-63722D01*
X15303Y-63722D01*
X15416Y-63779D01*
X15472Y-63891D01*
X15472Y-64510D01*
X15472Y-63891D02*
X15528Y-63779D01*
X15641Y-63722D01*
X15809Y-63722D01*
X15922Y-63779D01*
X15978Y-63891D01*
X15978Y-64510D01*
X16541Y-64510D02*
X16541Y-63722D01*
X16541Y-63835D02*
X16597Y-63779D01*
X16709Y-63722D01*
X16878Y-63722D01*
X16991Y-63779D01*
X17047Y-63891D01*
X17047Y-64510D01*
X17047Y-63891D02*
X17103Y-63779D01*
X17215Y-63722D01*
X17384Y-63722D01*
X17497Y-63779D01*
X17553Y-63891D01*
X17553Y-64510D01*
X19859Y-63273D02*
X18847Y-64791D01*
X21377Y-63329D02*
X21490Y-63329D01*
X21602Y-63385D01*
X21659Y-63441D01*
X21715Y-63554D01*
X21771Y-63779D01*
X21771Y-64060D01*
X21715Y-64285D01*
X21659Y-64397D01*
X21602Y-64454D01*
X21490Y-64510D01*
X21377Y-64510D01*
X21265Y-64454D01*
X21209Y-64397D01*
X21152Y-64285D01*
X21096Y-64060D01*
X21096Y-63779D01*
X21152Y-63554D01*
X21209Y-63441D01*
X21265Y-63385D01*
X21377Y-63329D01*
X22277Y-64397D02*
X22334Y-64454D01*
X22277Y-64510D01*
X22221Y-64454D01*
X22277Y-64397D01*
X22277Y-64510D01*
X23065Y-63329D02*
X23177Y-63329D01*
X23290Y-63385D01*
X23346Y-63441D01*
X23402Y-63554D01*
X23458Y-63779D01*
X23458Y-64060D01*
X23402Y-64285D01*
X23346Y-64397D01*
X23290Y-64454D01*
X23177Y-64510D01*
X23065Y-64510D01*
X22952Y-64454D01*
X22896Y-64397D01*
X22840Y-64285D01*
X22784Y-64060D01*
X22784Y-63779D01*
X22840Y-63554D01*
X22896Y-63441D01*
X22952Y-63385D01*
X23065Y-63329D01*
X24471Y-63329D02*
X24246Y-63329D01*
X24133Y-63385D01*
X24077Y-63441D01*
X23965Y-63610D01*
X23908Y-63835D01*
X23908Y-64285D01*
X23965Y-64397D01*
X24021Y-64454D01*
X24133Y-64510D01*
X24358Y-64510D01*
X24471Y-64454D01*
X24527Y-64397D01*
X24583Y-64285D01*
X24583Y-64004D01*
X24527Y-63891D01*
X24471Y-63835D01*
X24358Y-63779D01*
X24133Y-63779D01*
X24021Y-63835D01*
X23965Y-63891D01*
X23908Y-64004D01*
X24977Y-63329D02*
X25708Y-63329D01*
X25314Y-63779D01*
X25483Y-63779D01*
X25596Y-63835D01*
X25652Y-63891D01*
X25708Y-64004D01*
X25708Y-64285D01*
X25652Y-64397D01*
X25596Y-64454D01*
X25483Y-64510D01*
X25146Y-64510D01*
X25033Y-64454D01*
X24977Y-64397D01*
X26158Y-63329D02*
X26158Y-63554D01*
X26608Y-63329D02*
X26608Y-63554D01*
X28352Y-64960D02*
X28295Y-64904D01*
X28183Y-64735D01*
X28127Y-64622D01*
X28070Y-64454D01*
X28014Y-64172D01*
X28014Y-63947D01*
X28070Y-63666D01*
X28127Y-63497D01*
X28183Y-63385D01*
X28295Y-63216D01*
X28352Y-63160D01*
X28745Y-63441D02*
X28802Y-63385D01*
X28914Y-63329D01*
X29195Y-63329D01*
X29308Y-63385D01*
X29364Y-63441D01*
X29420Y-63554D01*
X29420Y-63666D01*
X29364Y-63835D01*
X28689Y-64510D01*
X29420Y-64510D01*
X30826Y-64510D02*
X30826Y-63329D01*
X31332Y-64510D02*
X31332Y-63891D01*
X31276Y-63779D01*
X31164Y-63722D01*
X30995Y-63722D01*
X30883Y-63779D01*
X30826Y-63835D01*
X32064Y-64510D02*
X31951Y-64454D01*
X31895Y-64397D01*
X31839Y-64285D01*
X31839Y-63947D01*
X31895Y-63835D01*
X31951Y-63779D01*
X32064Y-63722D01*
X32232Y-63722D01*
X32345Y-63779D01*
X32401Y-63835D01*
X32457Y-63947D01*
X32457Y-64285D01*
X32401Y-64397D01*
X32345Y-64454D01*
X32232Y-64510D01*
X32064Y-64510D01*
X33132Y-64510D02*
X33020Y-64454D01*
X32964Y-64341D01*
X32964Y-63329D01*
X34032Y-64454D02*
X33920Y-64510D01*
X33695Y-64510D01*
X33582Y-64454D01*
X33526Y-64341D01*
X33526Y-63891D01*
X33582Y-63779D01*
X33695Y-63722D01*
X33920Y-63722D01*
X34032Y-63779D01*
X34088Y-63891D01*
X34088Y-64004D01*
X33526Y-64116D01*
X34538Y-64454D02*
X34651Y-64510D01*
X34876Y-64510D01*
X34988Y-64454D01*
X35044Y-64341D01*
X35044Y-64285D01*
X34988Y-64172D01*
X34876Y-64116D01*
X34707Y-64116D01*
X34595Y-64060D01*
X34538Y-63947D01*
X34538Y-63891D01*
X34595Y-63779D01*
X34707Y-63722D01*
X34876Y-63722D01*
X34988Y-63779D01*
X35438Y-64960D02*
X35494Y-64904D01*
X35607Y-64735D01*
X35663Y-64622D01*
X35719Y-64454D01*
X35776Y-64172D01*
X35776Y-63947D01*
X35719Y-63666D01*
X35663Y-63497D01*
X35607Y-63385D01*
X35494Y-63216D01*
X35438Y-63160D01*
X9160Y-65191D02*
X9960Y-65991D01*
X9960Y-65191D02*
X9160Y-65991D01*
G54D11*
X9560Y-65991D02*
X9960Y-65591D01*
X9560Y-65191D01*
X9160Y-65591D01*
X9560Y-65991D01*
G54D12*
X10973Y-65000D02*
X11029Y-64944D01*
X11141Y-64888D01*
X11422Y-64888D01*
X11535Y-64944D01*
X11591Y-65000D01*
X11647Y-65113D01*
X11647Y-65225D01*
X11591Y-65394D01*
X10916Y-66069D01*
X11647Y-66069D01*
X12154Y-65956D02*
X12210Y-66013D01*
X12154Y-66069D01*
X12097Y-66013D01*
X12154Y-65956D01*
X12154Y-66069D01*
X12941Y-64888D02*
X13053Y-64888D01*
X13166Y-64944D01*
X13222Y-65000D01*
X13278Y-65113D01*
X13335Y-65338D01*
X13335Y-65619D01*
X13278Y-65844D01*
X13222Y-65956D01*
X13166Y-66013D01*
X13053Y-66069D01*
X12941Y-66069D01*
X12829Y-66013D01*
X12772Y-65956D01*
X12716Y-65844D01*
X12660Y-65619D01*
X12660Y-65338D01*
X12716Y-65113D01*
X12772Y-65000D01*
X12829Y-64944D01*
X12941Y-64888D01*
X13728Y-64888D02*
X14460Y-64888D01*
X14066Y-65338D01*
X14235Y-65338D01*
X14347Y-65394D01*
X14403Y-65450D01*
X14460Y-65563D01*
X14460Y-65844D01*
X14403Y-65956D01*
X14347Y-66013D01*
X14235Y-66069D01*
X13897Y-66069D01*
X13785Y-66013D01*
X13728Y-65956D01*
X14966Y-66069D02*
X14966Y-65281D01*
X14966Y-65394D02*
X15022Y-65338D01*
X15134Y-65281D01*
X15303Y-65281D01*
X15416Y-65338D01*
X15472Y-65450D01*
X15472Y-66069D01*
X15472Y-65450D02*
X15528Y-65338D01*
X15641Y-65281D01*
X15809Y-65281D01*
X15922Y-65338D01*
X15978Y-65450D01*
X15978Y-66069D01*
X16541Y-66069D02*
X16541Y-65281D01*
X16541Y-65394D02*
X16597Y-65338D01*
X16709Y-65281D01*
X16878Y-65281D01*
X16991Y-65338D01*
X17047Y-65450D01*
X17047Y-66069D01*
X17047Y-65450D02*
X17103Y-65338D01*
X17215Y-65281D01*
X17384Y-65281D01*
X17497Y-65338D01*
X17553Y-65450D01*
X17553Y-66069D01*
X19859Y-64832D02*
X18847Y-66350D01*
X21377Y-64888D02*
X21490Y-64888D01*
X21602Y-64944D01*
X21659Y-65000D01*
X21715Y-65113D01*
X21771Y-65338D01*
X21771Y-65619D01*
X21715Y-65844D01*
X21659Y-65956D01*
X21602Y-66013D01*
X21490Y-66069D01*
X21377Y-66069D01*
X21265Y-66013D01*
X21209Y-65956D01*
X21152Y-65844D01*
X21096Y-65619D01*
X21096Y-65338D01*
X21152Y-65113D01*
X21209Y-65000D01*
X21265Y-64944D01*
X21377Y-64888D01*
X22277Y-65956D02*
X22334Y-66013D01*
X22277Y-66069D01*
X22221Y-66013D01*
X22277Y-65956D01*
X22277Y-66069D01*
X23065Y-64888D02*
X23177Y-64888D01*
X23290Y-64944D01*
X23346Y-65000D01*
X23402Y-65113D01*
X23458Y-65338D01*
X23458Y-65619D01*
X23402Y-65844D01*
X23346Y-65956D01*
X23290Y-66013D01*
X23177Y-66069D01*
X23065Y-66069D01*
X22952Y-66013D01*
X22896Y-65956D01*
X22840Y-65844D01*
X22784Y-65619D01*
X22784Y-65338D01*
X22840Y-65113D01*
X22896Y-65000D01*
X22952Y-64944D01*
X23065Y-64888D01*
X24133Y-65394D02*
X24021Y-65338D01*
X23965Y-65281D01*
X23908Y-65169D01*
X23908Y-65113D01*
X23965Y-65000D01*
X24021Y-64944D01*
X24133Y-64888D01*
X24358Y-64888D01*
X24471Y-64944D01*
X24527Y-65000D01*
X24583Y-65113D01*
X24583Y-65169D01*
X24527Y-65281D01*
X24471Y-65338D01*
X24358Y-65394D01*
X24133Y-65394D01*
X24021Y-65450D01*
X23965Y-65506D01*
X23908Y-65619D01*
X23908Y-65844D01*
X23965Y-65956D01*
X24021Y-66013D01*
X24133Y-66069D01*
X24358Y-66069D01*
X24471Y-66013D01*
X24527Y-65956D01*
X24583Y-65844D01*
X24583Y-65619D01*
X24527Y-65506D01*
X24471Y-65450D01*
X24358Y-65394D01*
X25314Y-64888D02*
X25427Y-64888D01*
X25539Y-64944D01*
X25596Y-65000D01*
X25652Y-65113D01*
X25708Y-65338D01*
X25708Y-65619D01*
X25652Y-65844D01*
X25596Y-65956D01*
X25539Y-66013D01*
X25427Y-66069D01*
X25314Y-66069D01*
X25202Y-66013D01*
X25146Y-65956D01*
X25089Y-65844D01*
X25033Y-65619D01*
X25033Y-65338D01*
X25089Y-65113D01*
X25146Y-65000D01*
X25202Y-64944D01*
X25314Y-64888D01*
X26158Y-64888D02*
X26158Y-65113D01*
X26608Y-64888D02*
X26608Y-65113D01*
X28352Y-66519D02*
X28295Y-66463D01*
X28183Y-66294D01*
X28127Y-66181D01*
X28070Y-66013D01*
X28014Y-65731D01*
X28014Y-65506D01*
X28070Y-65225D01*
X28127Y-65057D01*
X28183Y-64944D01*
X28295Y-64775D01*
X28352Y-64719D01*
X28745Y-65000D02*
X28802Y-64944D01*
X28914Y-64888D01*
X29195Y-64888D01*
X29308Y-64944D01*
X29364Y-65000D01*
X29420Y-65113D01*
X29420Y-65225D01*
X29364Y-65394D01*
X28689Y-66069D01*
X29420Y-66069D01*
X30826Y-66069D02*
X30826Y-64888D01*
X31332Y-66069D02*
X31332Y-65450D01*
X31276Y-65338D01*
X31164Y-65281D01*
X30995Y-65281D01*
X30883Y-65338D01*
X30826Y-65394D01*
X32064Y-66069D02*
X31951Y-66013D01*
X31895Y-65956D01*
X31839Y-65844D01*
X31839Y-65506D01*
X31895Y-65394D01*
X31951Y-65338D01*
X32064Y-65281D01*
X32232Y-65281D01*
X32345Y-65338D01*
X32401Y-65394D01*
X32457Y-65506D01*
X32457Y-65844D01*
X32401Y-65956D01*
X32345Y-66013D01*
X32232Y-66069D01*
X32064Y-66069D01*
X33132Y-66069D02*
X33020Y-66013D01*
X32964Y-65900D01*
X32964Y-64888D01*
X34032Y-66013D02*
X33920Y-66069D01*
X33695Y-66069D01*
X33582Y-66013D01*
X33526Y-65900D01*
X33526Y-65450D01*
X33582Y-65338D01*
X33695Y-65281D01*
X33920Y-65281D01*
X34032Y-65338D01*
X34088Y-65450D01*
X34088Y-65563D01*
X33526Y-65675D01*
X34538Y-66013D02*
X34651Y-66069D01*
X34876Y-66069D01*
X34988Y-66013D01*
X35044Y-65900D01*
X35044Y-65844D01*
X34988Y-65731D01*
X34876Y-65675D01*
X34707Y-65675D01*
X34595Y-65619D01*
X34538Y-65506D01*
X34538Y-65450D01*
X34595Y-65338D01*
X34707Y-65281D01*
X34876Y-65281D01*
X34988Y-65338D01*
X35438Y-66519D02*
X35494Y-66463D01*
X35607Y-66294D01*
X35663Y-66181D01*
X35719Y-66013D01*
X35776Y-65731D01*
X35776Y-65506D01*
X35719Y-65225D01*
X35663Y-65057D01*
X35607Y-64944D01*
X35494Y-64775D01*
X35438Y-64719D01*
X9360Y-66550D02*
X9360Y-67750D01*
X8760Y-67150D02*
X9960Y-67150D01*
G54D11*
X9960Y-67150D02*
G75*
G03X9960Y-67150I-600J0D01*
G74*
G01*
G54D12*
X10916Y-66447D02*
X11647Y-66447D01*
X11254Y-66897D01*
X11422Y-66897D01*
X11535Y-66953D01*
X11591Y-67009D01*
X11647Y-67122D01*
X11647Y-67403D01*
X11591Y-67515D01*
X11535Y-67572D01*
X11422Y-67628D01*
X11085Y-67628D01*
X10973Y-67572D01*
X10916Y-67515D01*
X12154Y-67515D02*
X12210Y-67572D01*
X12154Y-67628D01*
X12097Y-67572D01*
X12154Y-67515D01*
X12154Y-67628D01*
X12941Y-66447D02*
X13053Y-66447D01*
X13166Y-66503D01*
X13222Y-66559D01*
X13278Y-66672D01*
X13335Y-66897D01*
X13335Y-67178D01*
X13278Y-67403D01*
X13222Y-67515D01*
X13166Y-67572D01*
X13053Y-67628D01*
X12941Y-67628D01*
X12829Y-67572D01*
X12772Y-67515D01*
X12716Y-67403D01*
X12660Y-67178D01*
X12660Y-66897D01*
X12716Y-66672D01*
X12772Y-66559D01*
X12829Y-66503D01*
X12941Y-66447D01*
X14403Y-66447D02*
X13841Y-66447D01*
X13785Y-67009D01*
X13841Y-66953D01*
X13953Y-66897D01*
X14235Y-66897D01*
X14347Y-66953D01*
X14403Y-67009D01*
X14460Y-67122D01*
X14460Y-67403D01*
X14403Y-67515D01*
X14347Y-67572D01*
X14235Y-67628D01*
X13953Y-67628D01*
X13841Y-67572D01*
X13785Y-67515D01*
X14966Y-67628D02*
X14966Y-66841D01*
X14966Y-66953D02*
X15022Y-66897D01*
X15134Y-66841D01*
X15303Y-66841D01*
X15416Y-66897D01*
X15472Y-67009D01*
X15472Y-67628D01*
X15472Y-67009D02*
X15528Y-66897D01*
X15641Y-66841D01*
X15809Y-66841D01*
X15922Y-66897D01*
X15978Y-67009D01*
X15978Y-67628D01*
X16541Y-67628D02*
X16541Y-66841D01*
X16541Y-66953D02*
X16597Y-66897D01*
X16709Y-66841D01*
X16878Y-66841D01*
X16991Y-66897D01*
X17047Y-67009D01*
X17047Y-67628D01*
X17047Y-67009D02*
X17103Y-66897D01*
X17215Y-66841D01*
X17384Y-66841D01*
X17497Y-66897D01*
X17553Y-67009D01*
X17553Y-67628D01*
X19859Y-66391D02*
X18847Y-67909D01*
X21377Y-66447D02*
X21490Y-66447D01*
X21602Y-66503D01*
X21659Y-66559D01*
X21715Y-66672D01*
X21771Y-66897D01*
X21771Y-67178D01*
X21715Y-67403D01*
X21659Y-67515D01*
X21602Y-67572D01*
X21490Y-67628D01*
X21377Y-67628D01*
X21265Y-67572D01*
X21209Y-67515D01*
X21152Y-67403D01*
X21096Y-67178D01*
X21096Y-66897D01*
X21152Y-66672D01*
X21209Y-66559D01*
X21265Y-66503D01*
X21377Y-66447D01*
X22277Y-67515D02*
X22334Y-67572D01*
X22277Y-67628D01*
X22221Y-67572D01*
X22277Y-67515D01*
X22277Y-67628D01*
X23458Y-67628D02*
X22784Y-67628D01*
X23121Y-67628D02*
X23121Y-66447D01*
X23008Y-66616D01*
X22896Y-66728D01*
X22784Y-66784D01*
X23908Y-66559D02*
X23965Y-66503D01*
X24077Y-66447D01*
X24358Y-66447D01*
X24471Y-66503D01*
X24527Y-66559D01*
X24583Y-66672D01*
X24583Y-66784D01*
X24527Y-66953D01*
X23852Y-67628D01*
X24583Y-67628D01*
X25314Y-66447D02*
X25427Y-66447D01*
X25539Y-66503D01*
X25596Y-66559D01*
X25652Y-66672D01*
X25708Y-66897D01*
X25708Y-67178D01*
X25652Y-67403D01*
X25596Y-67515D01*
X25539Y-67572D01*
X25427Y-67628D01*
X25314Y-67628D01*
X25202Y-67572D01*
X25146Y-67515D01*
X25089Y-67403D01*
X25033Y-67178D01*
X25033Y-66897D01*
X25089Y-66672D01*
X25146Y-66559D01*
X25202Y-66503D01*
X25314Y-66447D01*
X26158Y-66447D02*
X26158Y-66672D01*
X26608Y-66447D02*
X26608Y-66672D01*
X28352Y-68078D02*
X28295Y-68022D01*
X28183Y-67853D01*
X28127Y-67740D01*
X28070Y-67572D01*
X28014Y-67290D01*
X28014Y-67066D01*
X28070Y-66784D01*
X28127Y-66616D01*
X28183Y-66503D01*
X28295Y-66334D01*
X28352Y-66278D01*
X29420Y-67628D02*
X28745Y-67628D01*
X29083Y-67628D02*
X29083Y-66447D01*
X28970Y-66616D01*
X28858Y-66728D01*
X28745Y-66784D01*
X29870Y-66559D02*
X29926Y-66503D01*
X30039Y-66447D01*
X30320Y-66447D01*
X30433Y-66503D01*
X30489Y-66559D01*
X30545Y-66672D01*
X30545Y-66784D01*
X30489Y-66953D01*
X29814Y-67628D01*
X30545Y-67628D01*
X31951Y-67628D02*
X31951Y-66447D01*
X32457Y-67628D02*
X32457Y-67009D01*
X32401Y-66897D01*
X32289Y-66841D01*
X32120Y-66841D01*
X32007Y-66897D01*
X31951Y-66953D01*
X33188Y-67628D02*
X33076Y-67572D01*
X33020Y-67515D01*
X32964Y-67403D01*
X32964Y-67066D01*
X33020Y-66953D01*
X33076Y-66897D01*
X33188Y-66841D01*
X33357Y-66841D01*
X33470Y-66897D01*
X33526Y-66953D01*
X33582Y-67066D01*
X33582Y-67403D01*
X33526Y-67515D01*
X33470Y-67572D01*
X33357Y-67628D01*
X33188Y-67628D01*
X34257Y-67628D02*
X34145Y-67572D01*
X34088Y-67459D01*
X34088Y-66447D01*
X35157Y-67572D02*
X35044Y-67628D01*
X34820Y-67628D01*
X34707Y-67572D01*
X34651Y-67459D01*
X34651Y-67009D01*
X34707Y-66897D01*
X34820Y-66841D01*
X35044Y-66841D01*
X35157Y-66897D01*
X35213Y-67009D01*
X35213Y-67122D01*
X34651Y-67234D01*
X35663Y-67572D02*
X35776Y-67628D01*
X36001Y-67628D01*
X36113Y-67572D01*
X36169Y-67459D01*
X36169Y-67403D01*
X36113Y-67290D01*
X36001Y-67234D01*
X35832Y-67234D01*
X35719Y-67178D01*
X35663Y-67066D01*
X35663Y-67009D01*
X35719Y-66897D01*
X35832Y-66841D01*
X36001Y-66841D01*
X36113Y-66897D01*
X36563Y-68078D02*
X36619Y-68022D01*
X36732Y-67853D01*
X36788Y-67740D01*
X36844Y-67572D01*
X36901Y-67290D01*
X36901Y-67066D01*
X36844Y-66784D01*
X36788Y-66616D01*
X36732Y-66503D01*
X36619Y-66334D01*
X36563Y-66278D01*
M02*
