G04 (created by PCBNEW (2013-07-07 BZR 4022)-stable) date 19-Dec-13 3:51:45 PM*
%MOIN*%
G04 Gerber Fmt 3.4, Leading zero omitted, Abs format*
%FSLAX34Y34*%
G01*
G70*
G90*
G04 APERTURE LIST*
%ADD10C,0.001*%
%ADD11C,0.00787402*%
%ADD12C,0.1*%
%ADD13R,0.1X0.1*%
%ADD14R,0.059X0.0512*%
%ADD15O,0.1X0.18*%
%ADD16R,0.1X0.2*%
%ADD17O,0.15X0.07*%
%ADD18R,0.064X0.12*%
%ADD19R,0.0610236X0.0531496*%
%ADD20O,0.0110236X0.0334646*%
%ADD21O,0.0334646X0.0110236*%
%ADD22R,0.019685X0.0669291*%
%ADD23R,0.0275591X0.0334646*%
%ADD24R,0.04X0.08*%
%ADD25R,0.0531496X0.0610236*%
%ADD26C,0.07*%
%ADD27R,0.07X0.07*%
%ADD28C,0.08*%
%ADD29C,0.55*%
%ADD30R,0.0512X0.059*%
%ADD31R,0.08X0.024*%
%ADD32R,0.0413X0.0512*%
%ADD33R,0.0787X0.0177*%
%ADD34R,0.0177X0.0787*%
%ADD35C,0.04*%
%ADD36R,0.0472X0.0315*%
%ADD37R,0.05X0.04*%
%ADD38R,0.0944882X0.0885827*%
%ADD39R,0.114173X0.0885827*%
%ADD40R,0.114173X0.0688976*%
%ADD41R,0.0708661X0.0688976*%
%ADD42R,0.0826772X0.0688976*%
%ADD43C,0.0787402*%
%ADD44C,0.2*%
%ADD45C,0.24*%
%ADD46R,0.0629921X0.0275591*%
%ADD47R,0.0629921X0.0472441*%
%ADD48R,0.0866142X0.0472441*%
%ADD49R,0.0551181X0.0629921*%
%ADD50C,0.045*%
%ADD51R,0.0354X0.0394*%
%ADD52R,0.106X0.063*%
%ADD53R,0.071X0.063*%
%ADD54R,0.0385827X0.133858*%
%ADD55R,0.06X0.06*%
%ADD56C,0.06*%
%ADD57C,0.035*%
%ADD58C,0.01*%
%ADD59C,0.011*%
%ADD60C,0.03*%
%ADD61C,0.015*%
G04 APERTURE END LIST*
G54D10*
X4000Y-4000D02*
X112930Y-4000D01*
X112930Y-78680D01*
X4000Y-78680D01*
X4000Y-4000D01*
X4700Y-4700D02*
X112230Y-4700D01*
X112230Y-77980D01*
X4700Y-77980D01*
X4700Y-4700D01*
X25780Y-4000D02*
X25780Y-4700D01*
X15032Y-4552D02*
X14747Y-4552D01*
X14890Y-4552D02*
X14890Y-4052D01*
X14842Y-4123D01*
X14794Y-4171D01*
X14747Y-4195D01*
X25780Y-78680D02*
X25780Y-77980D01*
X15032Y-78532D02*
X14747Y-78532D01*
X14890Y-78532D02*
X14890Y-78032D01*
X14842Y-78103D01*
X14794Y-78151D01*
X14747Y-78175D01*
X47560Y-4000D02*
X47560Y-4700D01*
X36527Y-4100D02*
X36550Y-4076D01*
X36598Y-4052D01*
X36717Y-4052D01*
X36765Y-4076D01*
X36789Y-4100D01*
X36812Y-4147D01*
X36812Y-4195D01*
X36789Y-4266D01*
X36503Y-4552D01*
X36812Y-4552D01*
X47560Y-78680D02*
X47560Y-77980D01*
X36527Y-78080D02*
X36550Y-78056D01*
X36598Y-78032D01*
X36717Y-78032D01*
X36765Y-78056D01*
X36789Y-78080D01*
X36812Y-78127D01*
X36812Y-78175D01*
X36789Y-78246D01*
X36503Y-78532D01*
X36812Y-78532D01*
X69340Y-4000D02*
X69340Y-4700D01*
X58283Y-4052D02*
X58592Y-4052D01*
X58426Y-4242D01*
X58497Y-4242D01*
X58545Y-4266D01*
X58569Y-4290D01*
X58592Y-4338D01*
X58592Y-4457D01*
X58569Y-4504D01*
X58545Y-4528D01*
X58497Y-4552D01*
X58354Y-4552D01*
X58307Y-4528D01*
X58283Y-4504D01*
X69340Y-78680D02*
X69340Y-77980D01*
X58283Y-78032D02*
X58592Y-78032D01*
X58426Y-78222D01*
X58497Y-78222D01*
X58545Y-78246D01*
X58569Y-78270D01*
X58592Y-78318D01*
X58592Y-78437D01*
X58569Y-78484D01*
X58545Y-78508D01*
X58497Y-78532D01*
X58354Y-78532D01*
X58307Y-78508D01*
X58283Y-78484D01*
X91120Y-4000D02*
X91120Y-4700D01*
X80325Y-4219D02*
X80325Y-4552D01*
X80206Y-4028D02*
X80087Y-4385D01*
X80396Y-4385D01*
X91120Y-78680D02*
X91120Y-77980D01*
X80325Y-78199D02*
X80325Y-78532D01*
X80206Y-78008D02*
X80087Y-78365D01*
X80396Y-78365D01*
X102129Y-4052D02*
X101890Y-4052D01*
X101867Y-4290D01*
X101890Y-4266D01*
X101938Y-4242D01*
X102057Y-4242D01*
X102105Y-4266D01*
X102129Y-4290D01*
X102152Y-4338D01*
X102152Y-4457D01*
X102129Y-4504D01*
X102105Y-4528D01*
X102057Y-4552D01*
X101938Y-4552D01*
X101890Y-4528D01*
X101867Y-4504D01*
X102129Y-78032D02*
X101890Y-78032D01*
X101867Y-78270D01*
X101890Y-78246D01*
X101938Y-78222D01*
X102057Y-78222D01*
X102105Y-78246D01*
X102129Y-78270D01*
X102152Y-78318D01*
X102152Y-78437D01*
X102129Y-78484D01*
X102105Y-78508D01*
X102057Y-78532D01*
X101938Y-78532D01*
X101890Y-78508D01*
X101867Y-78484D01*
X4000Y-28890D02*
X4700Y-28890D01*
X4230Y-16509D02*
X4469Y-16509D01*
X4183Y-16652D02*
X4350Y-16152D01*
X4516Y-16652D01*
X112930Y-28890D02*
X112230Y-28890D01*
X112460Y-16509D02*
X112699Y-16509D01*
X112413Y-16652D02*
X112580Y-16152D01*
X112746Y-16652D01*
X4000Y-53780D02*
X4700Y-53780D01*
X4385Y-41280D02*
X4457Y-41304D01*
X4480Y-41328D01*
X4504Y-41375D01*
X4504Y-41447D01*
X4480Y-41494D01*
X4457Y-41518D01*
X4409Y-41542D01*
X4219Y-41542D01*
X4219Y-41042D01*
X4385Y-41042D01*
X4433Y-41066D01*
X4457Y-41090D01*
X4480Y-41137D01*
X4480Y-41185D01*
X4457Y-41232D01*
X4433Y-41256D01*
X4385Y-41280D01*
X4219Y-41280D01*
X112930Y-53780D02*
X112230Y-53780D01*
X112615Y-41280D02*
X112687Y-41304D01*
X112710Y-41328D01*
X112734Y-41375D01*
X112734Y-41447D01*
X112710Y-41494D01*
X112687Y-41518D01*
X112639Y-41542D01*
X112449Y-41542D01*
X112449Y-41042D01*
X112615Y-41042D01*
X112663Y-41066D01*
X112687Y-41090D01*
X112710Y-41137D01*
X112710Y-41185D01*
X112687Y-41232D01*
X112663Y-41256D01*
X112615Y-41280D01*
X112449Y-41280D01*
X4504Y-66384D02*
X4480Y-66408D01*
X4409Y-66432D01*
X4361Y-66432D01*
X4290Y-66408D01*
X4242Y-66360D01*
X4219Y-66313D01*
X4195Y-66218D01*
X4195Y-66146D01*
X4219Y-66051D01*
X4242Y-66003D01*
X4290Y-65956D01*
X4361Y-65932D01*
X4409Y-65932D01*
X4480Y-65956D01*
X4504Y-65980D01*
X112734Y-66384D02*
X112710Y-66408D01*
X112639Y-66432D01*
X112591Y-66432D01*
X112520Y-66408D01*
X112472Y-66360D01*
X112449Y-66313D01*
X112425Y-66218D01*
X112425Y-66146D01*
X112449Y-66051D01*
X112472Y-66003D01*
X112520Y-65956D01*
X112591Y-65932D01*
X112639Y-65932D01*
X112710Y-65956D01*
X112734Y-65980D01*
X79380Y-76422D02*
X79455Y-75822D01*
X79597Y-75822D01*
X79680Y-75851D01*
X79730Y-75908D01*
X79751Y-75965D01*
X79765Y-76080D01*
X79755Y-76165D01*
X79712Y-76280D01*
X79676Y-76337D01*
X79612Y-76394D01*
X79522Y-76422D01*
X79380Y-76422D01*
X80237Y-76422D02*
X80276Y-76108D01*
X80255Y-76051D01*
X80201Y-76022D01*
X80087Y-76022D01*
X80026Y-76051D01*
X80240Y-76394D02*
X80180Y-76422D01*
X80037Y-76422D01*
X79983Y-76394D01*
X79962Y-76337D01*
X79969Y-76280D01*
X80005Y-76222D01*
X80065Y-76194D01*
X80208Y-76194D01*
X80269Y-76165D01*
X80487Y-76022D02*
X80715Y-76022D01*
X80597Y-75822D02*
X80533Y-76337D01*
X80555Y-76394D01*
X80608Y-76422D01*
X80665Y-76422D01*
X81097Y-76394D02*
X81037Y-76422D01*
X80922Y-76422D01*
X80869Y-76394D01*
X80847Y-76337D01*
X80876Y-76108D01*
X80912Y-76051D01*
X80972Y-76022D01*
X81087Y-76022D01*
X81140Y-76051D01*
X81162Y-76108D01*
X81155Y-76165D01*
X80862Y-76222D01*
X81387Y-76365D02*
X81412Y-76394D01*
X81380Y-76422D01*
X81355Y-76394D01*
X81387Y-76365D01*
X81380Y-76422D01*
X81426Y-76051D02*
X81451Y-76080D01*
X81419Y-76108D01*
X81394Y-76080D01*
X81426Y-76051D01*
X81419Y-76108D01*
X82437Y-76422D02*
X82094Y-76422D01*
X82265Y-76422D02*
X82340Y-75822D01*
X82272Y-75908D01*
X82208Y-75965D01*
X82147Y-75994D01*
X82722Y-76422D02*
X82837Y-76422D01*
X82897Y-76394D01*
X82930Y-76365D01*
X82997Y-76280D01*
X83040Y-76165D01*
X83069Y-75937D01*
X83047Y-75880D01*
X83022Y-75851D01*
X82969Y-75822D01*
X82855Y-75822D01*
X82794Y-75851D01*
X82762Y-75880D01*
X82726Y-75937D01*
X82708Y-76080D01*
X82730Y-76137D01*
X82755Y-76165D01*
X82808Y-76194D01*
X82922Y-76194D01*
X82983Y-76165D01*
X83015Y-76137D01*
X83051Y-76080D01*
X83980Y-76422D02*
X84055Y-75822D01*
X83983Y-76394D02*
X83922Y-76422D01*
X83808Y-76422D01*
X83755Y-76394D01*
X83730Y-76365D01*
X83708Y-76308D01*
X83730Y-76137D01*
X83765Y-76080D01*
X83797Y-76051D01*
X83858Y-76022D01*
X83972Y-76022D01*
X84026Y-76051D01*
X84497Y-76394D02*
X84437Y-76422D01*
X84322Y-76422D01*
X84269Y-76394D01*
X84247Y-76337D01*
X84276Y-76108D01*
X84312Y-76051D01*
X84372Y-76022D01*
X84487Y-76022D01*
X84540Y-76051D01*
X84562Y-76108D01*
X84555Y-76165D01*
X84262Y-76222D01*
X85040Y-76394D02*
X84980Y-76422D01*
X84865Y-76422D01*
X84812Y-76394D01*
X84787Y-76365D01*
X84765Y-76308D01*
X84787Y-76137D01*
X84822Y-76080D01*
X84855Y-76051D01*
X84915Y-76022D01*
X85030Y-76022D01*
X85083Y-76051D01*
X85790Y-75880D02*
X85822Y-75851D01*
X85883Y-75822D01*
X86026Y-75822D01*
X86080Y-75851D01*
X86105Y-75880D01*
X86126Y-75937D01*
X86119Y-75994D01*
X86080Y-76080D01*
X85694Y-76422D01*
X86065Y-76422D01*
X86512Y-75822D02*
X86569Y-75822D01*
X86622Y-75851D01*
X86647Y-75880D01*
X86669Y-75937D01*
X86683Y-76051D01*
X86665Y-76194D01*
X86622Y-76308D01*
X86587Y-76365D01*
X86555Y-76394D01*
X86494Y-76422D01*
X86437Y-76422D01*
X86383Y-76394D01*
X86358Y-76365D01*
X86337Y-76308D01*
X86322Y-76194D01*
X86340Y-76051D01*
X86383Y-75937D01*
X86419Y-75880D01*
X86451Y-75851D01*
X86512Y-75822D01*
X87208Y-76422D02*
X86865Y-76422D01*
X87037Y-76422D02*
X87112Y-75822D01*
X87044Y-75908D01*
X86980Y-75965D01*
X86919Y-75994D01*
X87483Y-75822D02*
X87855Y-75822D01*
X87626Y-76051D01*
X87712Y-76051D01*
X87765Y-76080D01*
X87790Y-76108D01*
X87812Y-76165D01*
X87794Y-76308D01*
X87758Y-76365D01*
X87726Y-76394D01*
X87665Y-76422D01*
X87494Y-76422D01*
X87440Y-76394D01*
X87415Y-76365D01*
X70972Y-77622D02*
X70972Y-77022D01*
X71315Y-77622D02*
X71058Y-77280D01*
X71315Y-77022D02*
X70972Y-77365D01*
X71572Y-77622D02*
X71572Y-77222D01*
X71572Y-77022D02*
X71544Y-77051D01*
X71572Y-77080D01*
X71601Y-77051D01*
X71572Y-77022D01*
X71572Y-77080D01*
X72201Y-77565D02*
X72172Y-77594D01*
X72087Y-77622D01*
X72030Y-77622D01*
X71944Y-77594D01*
X71887Y-77537D01*
X71858Y-77480D01*
X71830Y-77365D01*
X71830Y-77280D01*
X71858Y-77165D01*
X71887Y-77108D01*
X71944Y-77051D01*
X72030Y-77022D01*
X72087Y-77022D01*
X72172Y-77051D01*
X72201Y-77080D01*
X72715Y-77622D02*
X72715Y-77308D01*
X72687Y-77251D01*
X72630Y-77222D01*
X72515Y-77222D01*
X72458Y-77251D01*
X72715Y-77594D02*
X72658Y-77622D01*
X72515Y-77622D01*
X72458Y-77594D01*
X72430Y-77537D01*
X72430Y-77480D01*
X72458Y-77422D01*
X72515Y-77394D01*
X72658Y-77394D01*
X72715Y-77365D01*
X73258Y-77622D02*
X73258Y-77022D01*
X73258Y-77594D02*
X73201Y-77622D01*
X73087Y-77622D01*
X73030Y-77594D01*
X73001Y-77565D01*
X72972Y-77508D01*
X72972Y-77337D01*
X73001Y-77280D01*
X73030Y-77251D01*
X73087Y-77222D01*
X73201Y-77222D01*
X73258Y-77251D01*
X74001Y-77308D02*
X74201Y-77308D01*
X74287Y-77622D02*
X74001Y-77622D01*
X74001Y-77022D01*
X74287Y-77022D01*
X74544Y-77565D02*
X74572Y-77594D01*
X74544Y-77622D01*
X74515Y-77594D01*
X74544Y-77565D01*
X74544Y-77622D01*
X74829Y-77622D02*
X74829Y-77022D01*
X74972Y-77022D01*
X75058Y-77051D01*
X75115Y-77108D01*
X75144Y-77165D01*
X75172Y-77280D01*
X75172Y-77365D01*
X75144Y-77480D01*
X75115Y-77537D01*
X75058Y-77594D01*
X74972Y-77622D01*
X74829Y-77622D01*
X75429Y-77565D02*
X75458Y-77594D01*
X75429Y-77622D01*
X75401Y-77594D01*
X75429Y-77565D01*
X75429Y-77622D01*
X75687Y-77451D02*
X75972Y-77451D01*
X75629Y-77622D02*
X75829Y-77022D01*
X76029Y-77622D01*
X76229Y-77565D02*
X76258Y-77594D01*
X76229Y-77622D01*
X76201Y-77594D01*
X76229Y-77565D01*
X76229Y-77622D01*
X104522Y-76422D02*
X104358Y-76137D01*
X104180Y-76422D02*
X104255Y-75822D01*
X104483Y-75822D01*
X104537Y-75851D01*
X104562Y-75880D01*
X104583Y-75937D01*
X104572Y-76022D01*
X104537Y-76080D01*
X104505Y-76108D01*
X104444Y-76137D01*
X104215Y-76137D01*
X105012Y-76394D02*
X104951Y-76422D01*
X104837Y-76422D01*
X104783Y-76394D01*
X104762Y-76337D01*
X104790Y-76108D01*
X104826Y-76051D01*
X104887Y-76022D01*
X105001Y-76022D01*
X105055Y-76051D01*
X105076Y-76108D01*
X105069Y-76165D01*
X104776Y-76222D01*
X105287Y-76022D02*
X105380Y-76422D01*
X105572Y-76022D01*
X105758Y-76365D02*
X105783Y-76394D01*
X105751Y-76422D01*
X105726Y-76394D01*
X105758Y-76365D01*
X105751Y-76422D01*
X105797Y-76051D02*
X105822Y-76080D01*
X105790Y-76108D01*
X105765Y-76080D01*
X105797Y-76051D01*
X105790Y-76108D01*
X70944Y-76394D02*
X71030Y-76422D01*
X71172Y-76422D01*
X71230Y-76394D01*
X71258Y-76365D01*
X71287Y-76308D01*
X71287Y-76251D01*
X71258Y-76194D01*
X71230Y-76165D01*
X71172Y-76137D01*
X71058Y-76108D01*
X71001Y-76080D01*
X70972Y-76051D01*
X70944Y-75994D01*
X70944Y-75937D01*
X70972Y-75880D01*
X71001Y-75851D01*
X71058Y-75822D01*
X71201Y-75822D01*
X71287Y-75851D01*
X71544Y-76422D02*
X71544Y-76022D01*
X71544Y-75822D02*
X71515Y-75851D01*
X71544Y-75880D01*
X71572Y-75851D01*
X71544Y-75822D01*
X71544Y-75880D01*
X71772Y-76022D02*
X72087Y-76022D01*
X71772Y-76422D01*
X72087Y-76422D01*
X72544Y-76394D02*
X72487Y-76422D01*
X72372Y-76422D01*
X72315Y-76394D01*
X72287Y-76337D01*
X72287Y-76108D01*
X72315Y-76051D01*
X72372Y-76022D01*
X72487Y-76022D01*
X72544Y-76051D01*
X72572Y-76108D01*
X72572Y-76165D01*
X72287Y-76222D01*
X72830Y-76365D02*
X72858Y-76394D01*
X72830Y-76422D01*
X72801Y-76394D01*
X72830Y-76365D01*
X72830Y-76422D01*
X72830Y-76051D02*
X72858Y-76080D01*
X72830Y-76108D01*
X72801Y-76080D01*
X72830Y-76051D01*
X72830Y-76108D01*
X73544Y-76251D02*
X73830Y-76251D01*
X73487Y-76422D02*
X73687Y-75822D01*
X73887Y-76422D01*
X74344Y-76022D02*
X74344Y-76422D01*
X74201Y-75794D02*
X74058Y-76222D01*
X74430Y-76222D01*
X104172Y-77622D02*
X104172Y-77022D01*
X104715Y-77622D02*
X104715Y-77022D01*
X104715Y-77594D02*
X104658Y-77622D01*
X104544Y-77622D01*
X104487Y-77594D01*
X104458Y-77565D01*
X104430Y-77508D01*
X104430Y-77337D01*
X104458Y-77280D01*
X104487Y-77251D01*
X104544Y-77222D01*
X104658Y-77222D01*
X104715Y-77251D01*
X105001Y-77565D02*
X105030Y-77594D01*
X105001Y-77622D01*
X104972Y-77594D01*
X105001Y-77565D01*
X105001Y-77622D01*
X105001Y-77251D02*
X105030Y-77280D01*
X105001Y-77308D01*
X104972Y-77280D01*
X105001Y-77251D01*
X105001Y-77308D01*
X106058Y-77622D02*
X105715Y-77622D01*
X105887Y-77622D02*
X105887Y-77022D01*
X105829Y-77108D01*
X105772Y-77165D01*
X105715Y-77194D01*
X106744Y-76994D02*
X106230Y-77765D01*
X107258Y-77622D02*
X106915Y-77622D01*
X107087Y-77622D02*
X107087Y-77022D01*
X107029Y-77108D01*
X106972Y-77165D01*
X106915Y-77194D01*
X70969Y-74622D02*
X71312Y-74622D01*
X71065Y-75222D02*
X71140Y-74622D01*
X71437Y-75222D02*
X71487Y-74822D01*
X71512Y-74622D02*
X71480Y-74651D01*
X71505Y-74680D01*
X71537Y-74651D01*
X71512Y-74622D01*
X71505Y-74680D01*
X71687Y-74822D02*
X71915Y-74822D01*
X71797Y-74622D02*
X71733Y-75137D01*
X71755Y-75194D01*
X71808Y-75222D01*
X71865Y-75222D01*
X72151Y-75222D02*
X72097Y-75194D01*
X72076Y-75137D01*
X72140Y-74622D01*
X72612Y-75194D02*
X72551Y-75222D01*
X72437Y-75222D01*
X72383Y-75194D01*
X72362Y-75137D01*
X72390Y-74908D01*
X72426Y-74851D01*
X72487Y-74822D01*
X72601Y-74822D01*
X72655Y-74851D01*
X72676Y-74908D01*
X72669Y-74965D01*
X72376Y-75022D01*
X72901Y-75165D02*
X72926Y-75194D01*
X72894Y-75222D01*
X72869Y-75194D01*
X72901Y-75165D01*
X72894Y-75222D01*
X72940Y-74851D02*
X72965Y-74880D01*
X72933Y-74908D01*
X72908Y-74880D01*
X72940Y-74851D01*
X72933Y-74908D01*
X73626Y-74622D02*
X73969Y-74622D01*
X73722Y-75222D02*
X73797Y-74622D01*
X74094Y-75222D02*
X74144Y-74822D01*
X74169Y-74622D02*
X74137Y-74651D01*
X74162Y-74680D01*
X74194Y-74651D01*
X74169Y-74622D01*
X74162Y-74680D01*
X74380Y-75222D02*
X74455Y-74622D01*
X74722Y-75222D01*
X74797Y-74622D01*
X75001Y-75051D02*
X75287Y-75051D01*
X74922Y-75222D02*
X75197Y-74622D01*
X75322Y-75222D01*
X76008Y-74994D02*
X76465Y-74994D01*
X77530Y-75165D02*
X77497Y-75194D01*
X77408Y-75222D01*
X77351Y-75222D01*
X77269Y-75194D01*
X77219Y-75137D01*
X77197Y-75080D01*
X77183Y-74965D01*
X77194Y-74880D01*
X77237Y-74765D01*
X77272Y-74708D01*
X77337Y-74651D01*
X77426Y-74622D01*
X77483Y-74622D01*
X77565Y-74651D01*
X77590Y-74680D01*
X77865Y-75222D02*
X77812Y-75194D01*
X77787Y-75165D01*
X77765Y-75108D01*
X77787Y-74937D01*
X77822Y-74880D01*
X77855Y-74851D01*
X77915Y-74822D01*
X78001Y-74822D01*
X78055Y-74851D01*
X78080Y-74880D01*
X78101Y-74937D01*
X78080Y-75108D01*
X78044Y-75165D01*
X78012Y-75194D01*
X77951Y-75222D01*
X77865Y-75222D01*
X78372Y-74822D02*
X78322Y-75222D01*
X78365Y-74880D02*
X78397Y-74851D01*
X78458Y-74822D01*
X78544Y-74822D01*
X78597Y-74851D01*
X78619Y-74908D01*
X78580Y-75222D01*
X78830Y-74822D02*
X79058Y-74822D01*
X78940Y-74622D02*
X78876Y-75137D01*
X78897Y-75194D01*
X78951Y-75222D01*
X79008Y-75222D01*
X79208Y-75222D02*
X79258Y-74822D01*
X79244Y-74937D02*
X79280Y-74880D01*
X79312Y-74851D01*
X79372Y-74822D01*
X79430Y-74822D01*
X79665Y-75222D02*
X79612Y-75194D01*
X79587Y-75165D01*
X79565Y-75108D01*
X79587Y-74937D01*
X79622Y-74880D01*
X79655Y-74851D01*
X79715Y-74822D01*
X79801Y-74822D01*
X79855Y-74851D01*
X79880Y-74880D01*
X79901Y-74937D01*
X79880Y-75108D01*
X79844Y-75165D01*
X79812Y-75194D01*
X79751Y-75222D01*
X79665Y-75222D01*
X80208Y-75222D02*
X80155Y-75194D01*
X80133Y-75137D01*
X80197Y-74622D01*
X80522Y-75222D02*
X80469Y-75194D01*
X80447Y-75137D01*
X80512Y-74622D01*
X80983Y-75194D02*
X80922Y-75222D01*
X80808Y-75222D01*
X80755Y-75194D01*
X80733Y-75137D01*
X80762Y-74908D01*
X80797Y-74851D01*
X80858Y-74822D01*
X80972Y-74822D01*
X81026Y-74851D01*
X81047Y-74908D01*
X81040Y-74965D01*
X80747Y-75022D01*
X81265Y-75222D02*
X81315Y-74822D01*
X81301Y-74937D02*
X81337Y-74880D01*
X81369Y-74851D01*
X81430Y-74822D01*
X81487Y-74822D01*
X82058Y-74822D02*
X82287Y-74822D01*
X82094Y-75222D02*
X82158Y-74708D01*
X82194Y-74651D01*
X82255Y-74622D01*
X82312Y-74622D01*
X82522Y-75222D02*
X82469Y-75194D01*
X82444Y-75165D01*
X82422Y-75108D01*
X82444Y-74937D01*
X82480Y-74880D01*
X82512Y-74851D01*
X82572Y-74822D01*
X82658Y-74822D01*
X82712Y-74851D01*
X82737Y-74880D01*
X82758Y-74937D01*
X82737Y-75108D01*
X82701Y-75165D01*
X82669Y-75194D01*
X82608Y-75222D01*
X82522Y-75222D01*
X82980Y-75222D02*
X83030Y-74822D01*
X83015Y-74937D02*
X83051Y-74880D01*
X83083Y-74851D01*
X83144Y-74822D01*
X83201Y-74822D01*
X83797Y-74622D02*
X84140Y-74622D01*
X83894Y-75222D02*
X83969Y-74622D01*
X84265Y-75222D02*
X84315Y-74822D01*
X84340Y-74622D02*
X84308Y-74651D01*
X84333Y-74680D01*
X84365Y-74651D01*
X84340Y-74622D01*
X84333Y-74680D01*
X84551Y-75222D02*
X84626Y-74622D01*
X84772Y-75051D01*
X85026Y-74622D01*
X84951Y-75222D01*
X71172Y-72508D02*
X70972Y-72508D01*
X70972Y-72822D02*
X70972Y-72222D01*
X71258Y-72222D01*
X71487Y-72822D02*
X71487Y-72422D01*
X71487Y-72222D02*
X71458Y-72251D01*
X71487Y-72280D01*
X71515Y-72251D01*
X71487Y-72222D01*
X71487Y-72280D01*
X71858Y-72822D02*
X71801Y-72794D01*
X71772Y-72737D01*
X71772Y-72222D01*
X72315Y-72794D02*
X72258Y-72822D01*
X72144Y-72822D01*
X72087Y-72794D01*
X72058Y-72737D01*
X72058Y-72508D01*
X72087Y-72451D01*
X72144Y-72422D01*
X72258Y-72422D01*
X72315Y-72451D01*
X72344Y-72508D01*
X72344Y-72565D01*
X72058Y-72622D01*
X72601Y-72765D02*
X72630Y-72794D01*
X72601Y-72822D01*
X72572Y-72794D01*
X72601Y-72765D01*
X72601Y-72822D01*
X72601Y-72451D02*
X72630Y-72480D01*
X72601Y-72508D01*
X72572Y-72480D01*
X72601Y-72451D01*
X72601Y-72508D01*
X73258Y-72222D02*
X73601Y-72222D01*
X73430Y-72822D02*
X73430Y-72222D01*
X73801Y-72822D02*
X73801Y-72422D01*
X73801Y-72222D02*
X73772Y-72251D01*
X73801Y-72280D01*
X73830Y-72251D01*
X73801Y-72222D01*
X73801Y-72280D01*
X74087Y-72822D02*
X74087Y-72222D01*
X74430Y-72822D01*
X74430Y-72222D01*
X74687Y-72651D02*
X74972Y-72651D01*
X74630Y-72822D02*
X74830Y-72222D01*
X75030Y-72822D01*
X75230Y-72765D02*
X75258Y-72794D01*
X75230Y-72822D01*
X75201Y-72794D01*
X75230Y-72765D01*
X75230Y-72822D01*
X75515Y-72822D02*
X75515Y-72222D01*
X75572Y-72594D02*
X75744Y-72822D01*
X75744Y-72422D02*
X75515Y-72651D01*
X76001Y-72822D02*
X76001Y-72422D01*
X76001Y-72222D02*
X75972Y-72251D01*
X76001Y-72280D01*
X76030Y-72251D01*
X76001Y-72222D01*
X76001Y-72280D01*
X76544Y-72794D02*
X76487Y-72822D01*
X76372Y-72822D01*
X76315Y-72794D01*
X76287Y-72765D01*
X76258Y-72708D01*
X76258Y-72537D01*
X76287Y-72480D01*
X76315Y-72451D01*
X76372Y-72422D01*
X76487Y-72422D01*
X76544Y-72451D01*
X77058Y-72822D02*
X77058Y-72508D01*
X77030Y-72451D01*
X76972Y-72422D01*
X76858Y-72422D01*
X76801Y-72451D01*
X77058Y-72794D02*
X77001Y-72822D01*
X76858Y-72822D01*
X76801Y-72794D01*
X76772Y-72737D01*
X76772Y-72680D01*
X76801Y-72622D01*
X76858Y-72594D01*
X77001Y-72594D01*
X77058Y-72565D01*
X77601Y-72822D02*
X77601Y-72222D01*
X77601Y-72794D02*
X77544Y-72822D01*
X77429Y-72822D01*
X77372Y-72794D01*
X77344Y-72765D01*
X77315Y-72708D01*
X77315Y-72537D01*
X77344Y-72480D01*
X77372Y-72451D01*
X77429Y-72422D01*
X77544Y-72422D01*
X77601Y-72451D01*
X77744Y-72880D02*
X78201Y-72880D01*
X78344Y-72422D02*
X78344Y-73022D01*
X78344Y-72451D02*
X78401Y-72422D01*
X78515Y-72422D01*
X78572Y-72451D01*
X78601Y-72480D01*
X78629Y-72537D01*
X78629Y-72708D01*
X78601Y-72765D01*
X78572Y-72794D01*
X78515Y-72822D01*
X78401Y-72822D01*
X78344Y-72794D01*
X79144Y-72794D02*
X79087Y-72822D01*
X78972Y-72822D01*
X78915Y-72794D01*
X78887Y-72765D01*
X78858Y-72708D01*
X78858Y-72537D01*
X78887Y-72480D01*
X78915Y-72451D01*
X78972Y-72422D01*
X79087Y-72422D01*
X79144Y-72451D01*
X79401Y-72822D02*
X79401Y-72222D01*
X79401Y-72451D02*
X79458Y-72422D01*
X79572Y-72422D01*
X79630Y-72451D01*
X79658Y-72480D01*
X79687Y-72537D01*
X79687Y-72708D01*
X79658Y-72765D01*
X79630Y-72794D01*
X79572Y-72822D01*
X79458Y-72822D01*
X79401Y-72794D01*
X70944Y-73994D02*
X71030Y-74022D01*
X71172Y-74022D01*
X71230Y-73994D01*
X71258Y-73965D01*
X71287Y-73908D01*
X71287Y-73851D01*
X71258Y-73794D01*
X71230Y-73765D01*
X71172Y-73737D01*
X71058Y-73708D01*
X71001Y-73680D01*
X70972Y-73651D01*
X70944Y-73594D01*
X70944Y-73537D01*
X70972Y-73480D01*
X71001Y-73451D01*
X71058Y-73422D01*
X71201Y-73422D01*
X71287Y-73451D01*
X71544Y-74022D02*
X71544Y-73422D01*
X71801Y-74022D02*
X71801Y-73708D01*
X71772Y-73651D01*
X71715Y-73622D01*
X71630Y-73622D01*
X71572Y-73651D01*
X71544Y-73680D01*
X72315Y-73994D02*
X72258Y-74022D01*
X72144Y-74022D01*
X72087Y-73994D01*
X72058Y-73937D01*
X72058Y-73708D01*
X72087Y-73651D01*
X72144Y-73622D01*
X72258Y-73622D01*
X72315Y-73651D01*
X72344Y-73708D01*
X72344Y-73765D01*
X72058Y-73822D01*
X72830Y-73994D02*
X72772Y-74022D01*
X72658Y-74022D01*
X72601Y-73994D01*
X72572Y-73937D01*
X72572Y-73708D01*
X72601Y-73651D01*
X72658Y-73622D01*
X72772Y-73622D01*
X72830Y-73651D01*
X72858Y-73708D01*
X72858Y-73765D01*
X72572Y-73822D01*
X73030Y-73622D02*
X73258Y-73622D01*
X73115Y-73422D02*
X73115Y-73937D01*
X73144Y-73994D01*
X73201Y-74022D01*
X73258Y-74022D01*
X73458Y-73965D02*
X73487Y-73994D01*
X73458Y-74022D01*
X73430Y-73994D01*
X73458Y-73965D01*
X73458Y-74022D01*
X73458Y-73651D02*
X73487Y-73680D01*
X73458Y-73708D01*
X73430Y-73680D01*
X73458Y-73651D01*
X73458Y-73708D01*
X70997Y-71022D02*
X71065Y-71622D01*
X71233Y-71194D01*
X71294Y-71622D01*
X71512Y-71022D01*
X71658Y-71222D02*
X71751Y-71622D01*
X71944Y-71222D02*
X71751Y-71622D01*
X71676Y-71765D01*
X71644Y-71794D01*
X71583Y-71822D01*
X72208Y-71622D02*
X72155Y-71594D01*
X72130Y-71565D01*
X72108Y-71508D01*
X72130Y-71337D01*
X72165Y-71280D01*
X72197Y-71251D01*
X72258Y-71222D01*
X72344Y-71222D01*
X72397Y-71251D01*
X72422Y-71280D01*
X72444Y-71337D01*
X72422Y-71508D01*
X72387Y-71565D01*
X72355Y-71594D01*
X72294Y-71622D01*
X72208Y-71622D01*
X72951Y-71622D02*
X72665Y-71622D01*
X72740Y-71022D01*
X73458Y-71222D02*
X73408Y-71622D01*
X73201Y-71222D02*
X73162Y-71537D01*
X73183Y-71594D01*
X73237Y-71622D01*
X73322Y-71622D01*
X73383Y-71594D01*
X73415Y-71565D01*
X73694Y-71622D02*
X73744Y-71222D01*
X73737Y-71280D02*
X73769Y-71251D01*
X73829Y-71222D01*
X73915Y-71222D01*
X73969Y-71251D01*
X73990Y-71308D01*
X73951Y-71622D01*
X73990Y-71308D02*
X74026Y-71251D01*
X74087Y-71222D01*
X74172Y-71222D01*
X74226Y-71251D01*
X74247Y-71308D01*
X74208Y-71622D01*
X70915Y-70022D02*
X71030Y-70422D01*
X71144Y-70137D01*
X71258Y-70422D01*
X71372Y-70022D01*
X71544Y-70022D02*
X71658Y-70422D01*
X71772Y-70137D01*
X71887Y-70422D01*
X72001Y-70022D01*
X72172Y-70022D02*
X72287Y-70422D01*
X72401Y-70137D01*
X72515Y-70422D01*
X72629Y-70022D01*
X72858Y-70365D02*
X72887Y-70394D01*
X72858Y-70422D01*
X72829Y-70394D01*
X72858Y-70365D01*
X72858Y-70422D01*
X73087Y-70022D02*
X73201Y-70422D01*
X73315Y-70137D01*
X73429Y-70422D01*
X73544Y-70022D01*
X73715Y-70022D02*
X73858Y-70422D01*
X74001Y-70022D02*
X73858Y-70422D01*
X73801Y-70565D01*
X73772Y-70594D01*
X73715Y-70622D01*
X74315Y-70422D02*
X74258Y-70394D01*
X74229Y-70365D01*
X74201Y-70308D01*
X74201Y-70137D01*
X74229Y-70080D01*
X74258Y-70051D01*
X74315Y-70022D01*
X74401Y-70022D01*
X74458Y-70051D01*
X74487Y-70080D01*
X74515Y-70137D01*
X74515Y-70308D01*
X74487Y-70365D01*
X74458Y-70394D01*
X74401Y-70422D01*
X74315Y-70422D01*
X74858Y-70422D02*
X74801Y-70394D01*
X74772Y-70337D01*
X74772Y-69822D01*
X75344Y-70022D02*
X75344Y-70422D01*
X75087Y-70022D02*
X75087Y-70337D01*
X75115Y-70394D01*
X75172Y-70422D01*
X75258Y-70422D01*
X75315Y-70394D01*
X75344Y-70365D01*
X75629Y-70422D02*
X75629Y-70022D01*
X75629Y-70080D02*
X75658Y-70051D01*
X75715Y-70022D01*
X75801Y-70022D01*
X75858Y-70051D01*
X75887Y-70108D01*
X75887Y-70422D01*
X75887Y-70108D02*
X75915Y-70051D01*
X75972Y-70022D01*
X76058Y-70022D01*
X76115Y-70051D01*
X76144Y-70108D01*
X76144Y-70422D01*
X76429Y-70365D02*
X76458Y-70394D01*
X76429Y-70422D01*
X76401Y-70394D01*
X76429Y-70365D01*
X76429Y-70422D01*
X76972Y-70394D02*
X76915Y-70422D01*
X76801Y-70422D01*
X76744Y-70394D01*
X76715Y-70365D01*
X76687Y-70308D01*
X76687Y-70137D01*
X76715Y-70080D01*
X76744Y-70051D01*
X76801Y-70022D01*
X76915Y-70022D01*
X76972Y-70051D01*
X77315Y-70422D02*
X77258Y-70394D01*
X77229Y-70365D01*
X77201Y-70308D01*
X77201Y-70137D01*
X77229Y-70080D01*
X77258Y-70051D01*
X77315Y-70022D01*
X77401Y-70022D01*
X77458Y-70051D01*
X77487Y-70080D01*
X77515Y-70137D01*
X77515Y-70308D01*
X77487Y-70365D01*
X77458Y-70394D01*
X77401Y-70422D01*
X77315Y-70422D01*
X77772Y-70422D02*
X77772Y-70022D01*
X77772Y-70080D02*
X77801Y-70051D01*
X77858Y-70022D01*
X77944Y-70022D01*
X78001Y-70051D01*
X78029Y-70108D01*
X78029Y-70422D01*
X78029Y-70108D02*
X78058Y-70051D01*
X78115Y-70022D01*
X78201Y-70022D01*
X78258Y-70051D01*
X78287Y-70108D01*
X78287Y-70422D01*
X70230Y-69580D02*
X70230Y-77980D01*
X70230Y-71980D02*
X112230Y-71980D01*
X70230Y-69580D02*
X112230Y-69580D01*
X70230Y-74380D02*
X112230Y-74380D01*
X103430Y-75580D02*
X103430Y-77980D01*
X70230Y-76780D02*
X112230Y-76780D01*
X70230Y-75580D02*
X112230Y-75580D01*
X76830Y-75580D02*
X76830Y-76780D01*
G54D11*
X19500Y-10000D02*
X11500Y-10000D01*
X21000Y-22500D02*
X21000Y-11500D01*
X11500Y-24000D02*
X19500Y-24000D01*
X10000Y-11500D02*
X10000Y-22500D01*
X11500Y-10000D02*
G75*
G03X10000Y-11500I0J-1500D01*
G74*
G01*
X21000Y-11500D02*
G75*
G03X19500Y-10000I-1500J0D01*
G74*
G01*
X19500Y-24000D02*
G75*
G03X21000Y-22500I0J1500D01*
G74*
G01*
X10000Y-22500D02*
G75*
G03X11500Y-24000I1500J0D01*
G74*
G01*
X58000Y-26800D02*
X58000Y-45675D01*
X58000Y-47800D02*
X58000Y-46925D01*
X11500Y-49300D02*
X56500Y-49300D01*
X10000Y-47800D02*
X10000Y-46925D01*
X10000Y-26800D02*
X10000Y-45675D01*
X56500Y-25300D02*
X11500Y-25300D01*
X58000Y-26800D02*
G75*
G03X56500Y-25300I-1500J0D01*
G74*
G01*
X56500Y-49300D02*
G75*
G03X58000Y-47800I0J1500D01*
G74*
G01*
X10000Y-47800D02*
G75*
G03X11500Y-49300I1500J0D01*
G74*
G01*
X11500Y-25300D02*
G75*
G03X10000Y-26800I0J-1500D01*
G74*
G01*
X57375Y-46300D02*
G75*
G03X58000Y-46925I625J0D01*
G74*
G01*
X58000Y-45675D02*
G75*
G03X57375Y-46300I0J-625D01*
G74*
G01*
X10000Y-46925D02*
G75*
G03X10625Y-46300I0J625D01*
G74*
G01*
X10625Y-46300D02*
G75*
G03X10000Y-45675I-625J0D01*
G74*
G01*
G54D12*
X12500Y-11200D03*
X14500Y-11200D03*
X16500Y-11200D03*
G54D13*
X18500Y-11200D03*
G54D14*
X15850Y-19050D03*
X15850Y-19800D03*
G54D15*
X13025Y-14550D03*
G54D16*
X15387Y-14550D03*
G54D17*
X14206Y-16479D03*
G54D18*
X19750Y-15400D03*
X19725Y-13600D03*
X17275Y-15400D03*
X17250Y-13600D03*
G54D19*
X19250Y-17568D03*
X19250Y-16781D03*
X16925Y-19031D03*
X16925Y-19818D03*
X18100Y-17568D03*
X18100Y-16781D03*
G54D20*
X16526Y-17965D03*
X16329Y-17965D03*
X16723Y-17965D03*
X16920Y-17965D03*
G54D21*
X17215Y-17670D03*
X17215Y-17473D03*
X17215Y-17276D03*
X17215Y-17079D03*
G54D20*
X16920Y-16784D03*
X16723Y-16784D03*
X16526Y-16784D03*
X16329Y-16784D03*
G54D21*
X16034Y-17079D03*
X16034Y-17276D03*
X16034Y-17473D03*
X16034Y-17670D03*
G54D22*
X16625Y-17375D03*
G54D23*
X16428Y-17207D03*
X16428Y-17542D03*
X16821Y-17542D03*
X16821Y-17207D03*
G54D24*
X45825Y-36325D03*
X44825Y-35025D03*
X43825Y-36325D03*
X42825Y-35025D03*
X42825Y-44025D03*
X43825Y-45325D03*
X44825Y-44025D03*
X45825Y-45325D03*
G54D19*
X36984Y-40985D03*
X36984Y-40197D03*
G54D25*
X27165Y-32795D03*
X27952Y-32795D03*
G54D19*
X28500Y-28956D03*
X28500Y-29743D03*
X28401Y-40985D03*
X28401Y-40197D03*
X27220Y-40985D03*
X27220Y-40197D03*
X21354Y-40197D03*
X21354Y-40985D03*
X23086Y-40197D03*
X23086Y-40985D03*
G54D25*
X17906Y-38350D03*
X18693Y-38350D03*
G54D19*
X24346Y-40197D03*
X24346Y-40985D03*
G54D25*
X38431Y-30950D03*
X39218Y-30950D03*
X34393Y-25925D03*
X33606Y-25925D03*
G54D26*
X39700Y-26800D03*
X38700Y-26800D03*
X37700Y-26800D03*
G54D27*
X36700Y-26800D03*
G54D28*
X22225Y-43475D03*
X22225Y-45475D03*
G54D26*
X22225Y-44475D03*
G54D28*
X23225Y-43475D03*
X23225Y-45475D03*
X23225Y-44475D03*
X24225Y-45475D03*
X24225Y-43475D03*
X24225Y-44475D03*
G54D26*
X25225Y-44475D03*
G54D28*
X25225Y-43475D03*
X25225Y-45475D03*
X30225Y-45475D03*
X30225Y-43475D03*
G54D26*
X30225Y-44475D03*
G54D28*
X29225Y-45475D03*
X29225Y-43475D03*
X29225Y-44475D03*
X28225Y-43475D03*
X28225Y-45475D03*
X28225Y-44475D03*
G54D26*
X27225Y-44475D03*
G54D28*
X27225Y-45475D03*
X27225Y-43475D03*
G54D27*
X23500Y-26800D03*
G54D26*
X24500Y-26800D03*
X25500Y-26800D03*
X26500Y-26800D03*
X27500Y-26800D03*
X28500Y-26800D03*
G54D27*
X41500Y-47900D03*
G54D26*
X40500Y-47900D03*
X39500Y-47900D03*
X38500Y-47900D03*
G54D27*
X29500Y-47900D03*
G54D26*
X28500Y-47900D03*
X27500Y-47900D03*
X26500Y-47900D03*
G54D29*
X50700Y-29300D03*
G54D30*
X20675Y-38350D03*
X19925Y-38350D03*
G54D31*
X19844Y-39841D03*
X17903Y-39841D03*
X19844Y-40341D03*
X19844Y-40841D03*
X19844Y-41341D03*
X17903Y-40341D03*
X17903Y-40841D03*
X17903Y-41341D03*
G54D30*
X27184Y-31692D03*
X27934Y-31692D03*
G54D32*
X29522Y-40141D03*
X30272Y-41041D03*
X30272Y-40141D03*
X29522Y-41041D03*
G54D30*
X30766Y-33858D03*
X31516Y-33858D03*
G54D14*
X36984Y-42145D03*
X36984Y-42895D03*
X42811Y-38840D03*
X42811Y-38090D03*
X43834Y-38840D03*
X43834Y-38090D03*
G54D33*
X32366Y-41602D03*
X32366Y-41287D03*
X32366Y-40972D03*
X32366Y-40657D03*
X32366Y-40343D03*
X32366Y-40028D03*
X32366Y-39713D03*
X32366Y-39398D03*
X35634Y-39398D03*
X35634Y-41602D03*
X35634Y-41287D03*
X35634Y-40972D03*
X35634Y-40657D03*
X35634Y-40343D03*
X35634Y-40028D03*
X35634Y-39713D03*
G54D34*
X32898Y-38866D03*
X33213Y-38866D03*
X33528Y-38866D03*
X33843Y-38866D03*
X34157Y-38866D03*
X34472Y-38866D03*
X34787Y-38866D03*
X35102Y-38866D03*
X32898Y-42134D03*
X33213Y-42134D03*
X33528Y-42134D03*
X33843Y-42134D03*
X34157Y-42134D03*
X34472Y-42134D03*
X34787Y-42134D03*
X35102Y-42134D03*
G54D35*
X44825Y-46050D03*
X42825Y-46050D03*
X43825Y-46025D03*
G54D27*
X30500Y-47900D03*
G54D26*
X31500Y-47900D03*
X32500Y-47900D03*
X33500Y-47900D03*
X34500Y-47900D03*
X35500Y-47900D03*
X36500Y-47900D03*
X37500Y-47900D03*
G54D27*
X30000Y-27800D03*
G54D26*
X30000Y-26800D03*
X31000Y-27800D03*
X31000Y-26800D03*
X32000Y-27800D03*
X32000Y-26800D03*
G54D14*
X16475Y-35175D03*
X16475Y-35925D03*
X17675Y-35175D03*
X17675Y-35925D03*
X23525Y-35175D03*
X23525Y-35925D03*
X24875Y-35175D03*
X24875Y-35925D03*
X15275Y-35925D03*
X15275Y-35175D03*
G54D30*
X38350Y-33650D03*
X39100Y-33650D03*
G54D36*
X38325Y-31925D03*
X39275Y-32300D03*
X38325Y-32675D03*
G54D37*
X38047Y-42120D03*
X38047Y-42920D03*
G54D27*
X27550Y-34300D03*
G54D26*
X26550Y-34300D03*
X28550Y-34300D03*
G54D38*
X13929Y-43864D03*
G54D39*
X15661Y-43864D03*
G54D40*
X13102Y-39337D03*
G54D41*
X14401Y-39337D03*
G54D42*
X15543Y-39337D03*
G54D43*
X13181Y-41650D03*
X15543Y-41650D03*
G54D26*
X34885Y-36429D03*
X33114Y-33870D03*
X33114Y-36429D03*
X34885Y-33870D03*
X21779Y-28164D03*
X19220Y-29935D03*
X21779Y-29935D03*
X19220Y-28164D03*
X19220Y-36935D03*
X21779Y-35164D03*
X19220Y-35164D03*
X21779Y-36935D03*
X19220Y-33435D03*
X21779Y-31664D03*
X19220Y-31664D03*
X21779Y-33435D03*
X24885Y-33829D03*
X23114Y-31270D03*
X23114Y-33829D03*
X24885Y-31270D03*
X16114Y-31270D03*
X17885Y-33829D03*
X17885Y-31270D03*
X16114Y-33829D03*
G54D44*
X34000Y-46300D03*
G54D45*
X31000Y-36900D03*
X37000Y-36900D03*
X13000Y-36900D03*
X55000Y-36900D03*
X11500Y-47800D03*
X56500Y-47800D03*
X11500Y-26800D03*
X56500Y-26800D03*
X19500Y-22500D03*
X11500Y-22500D03*
G54D27*
X19500Y-26800D03*
G54D26*
X20500Y-26800D03*
X21500Y-26800D03*
G54D12*
X16500Y-26950D03*
G54D13*
X14500Y-26950D03*
G54D12*
X16500Y-22350D03*
G54D13*
X14500Y-22350D03*
G54D12*
X11650Y-17700D03*
G54D13*
X11650Y-19700D03*
G54D26*
X39700Y-29800D03*
X38700Y-29800D03*
X37700Y-29800D03*
G54D27*
X36700Y-29800D03*
X45500Y-47900D03*
G54D26*
X46500Y-47900D03*
G54D27*
X15500Y-47900D03*
G54D26*
X16500Y-47900D03*
G54D27*
X21500Y-47900D03*
G54D26*
X22500Y-47900D03*
G54D27*
X51500Y-47900D03*
G54D26*
X52500Y-47900D03*
G54D46*
X47100Y-41700D03*
X47100Y-42133D03*
X47100Y-42566D03*
X47100Y-42999D03*
X47100Y-43432D03*
X47100Y-41267D03*
X47100Y-40834D03*
X47100Y-40401D03*
X47100Y-39968D03*
G54D47*
X47336Y-43904D03*
G54D48*
X51076Y-43904D03*
X51076Y-37802D03*
G54D49*
X47296Y-38156D03*
G54D50*
X51233Y-42802D03*
X51233Y-39652D03*
G54D27*
X13500Y-45250D03*
G54D26*
X14500Y-45250D03*
X15500Y-45250D03*
G54D45*
X34000Y-28300D03*
G54D51*
X22004Y-38350D03*
X22596Y-38350D03*
G54D26*
X43000Y-30315D03*
X43000Y-33268D03*
X43000Y-31300D03*
X43000Y-29331D03*
X43000Y-32284D03*
X44279Y-31300D03*
X41720Y-31300D03*
G54D52*
X18175Y-19975D03*
X18175Y-18875D03*
G54D53*
X20400Y-16625D03*
X20400Y-17725D03*
G54D54*
X14843Y-19425D03*
X13906Y-19425D03*
G54D55*
X17850Y-45900D03*
G54D56*
X18850Y-45900D03*
X19850Y-45900D03*
X20850Y-45900D03*
X20850Y-42900D03*
X19850Y-42900D03*
X18850Y-42900D03*
X17850Y-42900D03*
G54D27*
X36700Y-31800D03*
G54D26*
X36700Y-32800D03*
X36700Y-33800D03*
G54D56*
X11450Y-44150D03*
G54D55*
X11450Y-43150D03*
G54D56*
X11450Y-42150D03*
X11450Y-41150D03*
X11450Y-40150D03*
X11450Y-39150D03*
G54D57*
X45763Y-41536D03*
X35650Y-38500D03*
X17150Y-41375D03*
X35250Y-38025D03*
X20685Y-39488D03*
X35650Y-38950D03*
X17900Y-41900D03*
X36551Y-39292D03*
X19250Y-18225D03*
X18500Y-13600D03*
X34724Y-39763D03*
X31425Y-29250D03*
X39370Y-41889D03*
X39842Y-41377D03*
X30708Y-34763D03*
X32559Y-39015D03*
X33440Y-39567D03*
X33362Y-40000D03*
X38913Y-42402D03*
X43125Y-42402D03*
X43125Y-40906D03*
X43125Y-41378D03*
X43519Y-42796D03*
X41000Y-40900D03*
X23450Y-39450D03*
X26400Y-40900D03*
X34897Y-40945D03*
X30000Y-34763D03*
X46196Y-33307D03*
X39700Y-37225D03*
X43322Y-39331D03*
X16708Y-37677D03*
X48755Y-37835D03*
X49858Y-34843D03*
X43834Y-37008D03*
X42850Y-37362D03*
X49464Y-35079D03*
X15850Y-38350D03*
X17929Y-37796D03*
X25606Y-39174D03*
X38047Y-40197D03*
X38047Y-41654D03*
X48204Y-43898D03*
X51078Y-36811D03*
X24881Y-34606D03*
G54D58*
X47100Y-41267D02*
X46033Y-41267D01*
X46033Y-41267D02*
X45763Y-41536D01*
G54D59*
X13906Y-19425D02*
X13906Y-20431D01*
X14175Y-20700D02*
X16925Y-20700D01*
X13906Y-20431D02*
X14175Y-20700D01*
X13906Y-19425D02*
X13906Y-18168D01*
X14798Y-17276D02*
X16034Y-17276D01*
X13906Y-18168D02*
X14798Y-17276D01*
X16925Y-19818D02*
X18018Y-19818D01*
X18018Y-19818D02*
X18175Y-19975D01*
X16925Y-19818D02*
X16925Y-20700D01*
X16925Y-20700D02*
X16925Y-21925D01*
X16925Y-21925D02*
X16500Y-22350D01*
X15868Y-19818D02*
X15850Y-19800D01*
X16925Y-19818D02*
X15868Y-19818D01*
G54D58*
X19850Y-42900D02*
X19850Y-42425D01*
X19383Y-40841D02*
X19844Y-40841D01*
X19200Y-41025D02*
X19383Y-40841D01*
X19200Y-41775D02*
X19200Y-41025D01*
X19850Y-42425D02*
X19200Y-41775D01*
X19844Y-40841D02*
X20462Y-40841D01*
X20606Y-40985D02*
X21354Y-40985D01*
X20462Y-40841D02*
X20606Y-40985D01*
X19844Y-41341D02*
X20615Y-41341D01*
X20615Y-41341D02*
X20850Y-41575D01*
X20850Y-42900D02*
X20850Y-41575D01*
X23086Y-40197D02*
X24346Y-40197D01*
X22338Y-40197D02*
X23086Y-40197D01*
X22181Y-40355D02*
X22338Y-40197D01*
X22181Y-41418D02*
X22181Y-40355D01*
X22023Y-41575D02*
X22181Y-41418D01*
X20850Y-41575D02*
X22023Y-41575D01*
X14775Y-43075D02*
X16550Y-43075D01*
X16550Y-43075D02*
X16800Y-43325D01*
X16800Y-43325D02*
X16800Y-43675D01*
X16800Y-43675D02*
X17150Y-44025D01*
X17150Y-44025D02*
X21025Y-44025D01*
X21025Y-44025D02*
X21575Y-43475D01*
X21575Y-43475D02*
X22225Y-43475D01*
X14775Y-43075D02*
X14775Y-44975D01*
X14775Y-44975D02*
X14500Y-45250D01*
X15543Y-39337D02*
X15543Y-40006D01*
X12950Y-43075D02*
X14775Y-43075D01*
X12525Y-42650D02*
X12950Y-43075D01*
X11025Y-42650D02*
X12525Y-42650D01*
X10775Y-42400D02*
X11025Y-42650D01*
X10775Y-39850D02*
X10775Y-42400D01*
X10975Y-39650D02*
X10775Y-39850D01*
X11950Y-39650D02*
X10975Y-39650D01*
X12500Y-40200D02*
X11950Y-39650D01*
X15350Y-40200D02*
X12500Y-40200D01*
X15543Y-40006D02*
X15350Y-40200D01*
X24225Y-43475D02*
X25225Y-43475D01*
X23225Y-43475D02*
X24225Y-43475D01*
X22225Y-43475D02*
X23225Y-43475D01*
X17150Y-46600D02*
X26100Y-46600D01*
X26100Y-46600D02*
X27225Y-45475D01*
X15500Y-45250D02*
X16525Y-45250D01*
X16775Y-46225D02*
X17150Y-46600D01*
X16775Y-45500D02*
X16775Y-46225D01*
X16525Y-45250D02*
X16775Y-45500D01*
X15661Y-43864D02*
X15661Y-44563D01*
X15500Y-44725D02*
X15500Y-45250D01*
X15661Y-44563D02*
X15500Y-44725D01*
X28225Y-45475D02*
X27225Y-45475D01*
X29225Y-45475D02*
X28225Y-45475D01*
X30225Y-45475D02*
X29225Y-45475D01*
X17850Y-42900D02*
X17850Y-42550D01*
X19083Y-39841D02*
X19844Y-39841D01*
X18650Y-40275D02*
X19083Y-39841D01*
X18650Y-42100D02*
X18650Y-40275D01*
X18325Y-42425D02*
X18650Y-42100D01*
X17975Y-42425D02*
X18325Y-42425D01*
X17850Y-42550D02*
X17975Y-42425D01*
X22004Y-38350D02*
X20675Y-38350D01*
X20675Y-38350D02*
X20675Y-38869D01*
X19844Y-39424D02*
X19844Y-39841D01*
X20094Y-39174D02*
X19844Y-39424D01*
X20370Y-39174D02*
X20094Y-39174D01*
X20675Y-38869D02*
X20370Y-39174D01*
X35102Y-38866D02*
X35102Y-38773D01*
X35102Y-38773D02*
X35375Y-38500D01*
X35375Y-38500D02*
X35650Y-38500D01*
X17150Y-40841D02*
X17150Y-41375D01*
X17150Y-40841D02*
X16341Y-40841D01*
X12375Y-40600D02*
X11925Y-40150D01*
X16100Y-40600D02*
X12375Y-40600D01*
X16341Y-40841D02*
X16100Y-40600D01*
X17903Y-40841D02*
X17150Y-40841D01*
X11925Y-40150D02*
X11450Y-40150D01*
X36700Y-33800D02*
X36700Y-34300D01*
X35975Y-38025D02*
X35250Y-38025D01*
X36450Y-38500D02*
X35975Y-38025D01*
X37950Y-38500D02*
X36450Y-38500D01*
X38825Y-37625D02*
X37950Y-38500D01*
X38825Y-35000D02*
X38825Y-37625D01*
X38325Y-34500D02*
X38825Y-35000D01*
X36900Y-34500D02*
X38325Y-34500D01*
X36700Y-34300D02*
X36900Y-34500D01*
X35650Y-38950D02*
X35650Y-39382D01*
X35650Y-39382D02*
X35634Y-39398D01*
X18850Y-42900D02*
X18850Y-43375D01*
X12550Y-42150D02*
X11450Y-42150D01*
X12925Y-42525D02*
X12550Y-42150D01*
X16525Y-42525D02*
X12925Y-42525D01*
X17525Y-43525D02*
X16525Y-42525D01*
X18700Y-43525D02*
X17525Y-43525D01*
X18850Y-43375D02*
X18700Y-43525D01*
X19844Y-40341D02*
X20501Y-40341D01*
X20501Y-40341D02*
X20685Y-40158D01*
X20685Y-40158D02*
X20685Y-39488D01*
X18850Y-42900D02*
X18850Y-42400D01*
X19233Y-40341D02*
X19844Y-40341D01*
X18950Y-40625D02*
X19233Y-40341D01*
X18950Y-42300D02*
X18950Y-40625D01*
X18850Y-42400D02*
X18950Y-42300D01*
X17900Y-41900D02*
X17000Y-41900D01*
X12175Y-41150D02*
X11450Y-41150D01*
X12350Y-40975D02*
X12175Y-41150D01*
X16075Y-40975D02*
X12350Y-40975D01*
X17000Y-41900D02*
X16075Y-40975D01*
X17903Y-41341D02*
X17903Y-41896D01*
X17903Y-41896D02*
X17900Y-41900D01*
X36130Y-39713D02*
X35634Y-39713D01*
X36551Y-39292D02*
X36130Y-39713D01*
G54D60*
X19250Y-17568D02*
X20243Y-17568D01*
X20243Y-17568D02*
X20400Y-17725D01*
X18175Y-18875D02*
X18175Y-17643D01*
X18175Y-17643D02*
X18100Y-17568D01*
X16925Y-19031D02*
X18018Y-19031D01*
X18018Y-19031D02*
X18175Y-18875D01*
X19250Y-18225D02*
X19250Y-17568D01*
G54D59*
X18100Y-17568D02*
X17643Y-17568D01*
X17643Y-17568D02*
X17550Y-17475D01*
G54D60*
X17250Y-13600D02*
X18500Y-13600D01*
X18500Y-13600D02*
X19725Y-13600D01*
X19250Y-17568D02*
X18100Y-17568D01*
G54D59*
X16359Y-17473D02*
X16428Y-17542D01*
X16044Y-17473D02*
X16359Y-17473D01*
X16300Y-17670D02*
X16428Y-17542D01*
X16044Y-17670D02*
X16300Y-17670D01*
X17550Y-17275D02*
X17550Y-17475D01*
X17550Y-17595D02*
X17475Y-17670D01*
X17475Y-17670D02*
X17215Y-17670D01*
X17550Y-17475D02*
X17550Y-17595D01*
X17550Y-17150D02*
X17550Y-17275D01*
X17479Y-17079D02*
X17550Y-17150D01*
X17215Y-17079D02*
X17479Y-17079D01*
X17550Y-17473D02*
X17550Y-17475D01*
X17215Y-17473D02*
X17550Y-17473D01*
X16890Y-17473D02*
X16821Y-17542D01*
X17215Y-17473D02*
X16890Y-17473D01*
X16949Y-17670D02*
X16821Y-17542D01*
X17215Y-17670D02*
X16949Y-17670D01*
X16890Y-17276D02*
X16821Y-17207D01*
X17215Y-17276D02*
X16890Y-17276D01*
X16949Y-17079D02*
X16821Y-17207D01*
X17215Y-17079D02*
X16949Y-17079D01*
X16792Y-17542D02*
X16625Y-17375D01*
X16821Y-17542D02*
X16792Y-17542D01*
X16457Y-17542D02*
X16625Y-17375D01*
X16428Y-17542D02*
X16457Y-17542D01*
X16457Y-17207D02*
X16625Y-17375D01*
X16428Y-17207D02*
X16457Y-17207D01*
X16792Y-17207D02*
X16625Y-17375D01*
X16821Y-17207D02*
X16792Y-17207D01*
X17550Y-17276D02*
X17550Y-17275D01*
X17215Y-17276D02*
X17550Y-17276D01*
G54D58*
X34988Y-40028D02*
X35634Y-40028D01*
X34724Y-39763D02*
X34988Y-40028D01*
X31425Y-29250D02*
X30225Y-29250D01*
X30225Y-29250D02*
X30000Y-29025D01*
X30000Y-29025D02*
X30000Y-27800D01*
G54D59*
X39370Y-41889D02*
X39370Y-42929D01*
X39370Y-42929D02*
X39228Y-43071D01*
G54D58*
X39228Y-43071D02*
X38600Y-43700D01*
X35102Y-42134D02*
X35102Y-42602D01*
X36200Y-43700D02*
X38600Y-43700D01*
X35102Y-42602D02*
X36200Y-43700D01*
G54D59*
X39842Y-41377D02*
X39842Y-42957D01*
X39842Y-42957D02*
X39543Y-43256D01*
G54D58*
X38800Y-44000D02*
X36100Y-44000D01*
X39543Y-43256D02*
X38800Y-44000D01*
X34787Y-42687D02*
X36100Y-44000D01*
X34787Y-42134D02*
X34787Y-42687D01*
X35575Y-36850D02*
X35575Y-33100D01*
X35875Y-32800D02*
X36700Y-32800D01*
X35575Y-33100D02*
X35875Y-32800D01*
X34787Y-38866D02*
X34787Y-37638D01*
X34787Y-37638D02*
X35575Y-36850D01*
X32366Y-41287D02*
X31105Y-41287D01*
X30921Y-40355D02*
X30707Y-40141D01*
X30921Y-41103D02*
X30921Y-40355D01*
X31105Y-41287D02*
X30921Y-41103D01*
X29522Y-40141D02*
X29158Y-40141D01*
X29000Y-40780D02*
X28795Y-40985D01*
X29000Y-40300D02*
X29000Y-40780D01*
X29158Y-40141D02*
X29000Y-40300D01*
X30272Y-40141D02*
X30707Y-40141D01*
X28795Y-40985D02*
X28401Y-40985D01*
X30272Y-40141D02*
X29522Y-40141D01*
X32366Y-41602D02*
X30402Y-41602D01*
X30272Y-41472D02*
X30272Y-41041D01*
X30402Y-41602D02*
X30272Y-41472D01*
X29522Y-41500D02*
X29522Y-41041D01*
X29328Y-41693D02*
X29522Y-41500D01*
X29328Y-41693D02*
X27393Y-41693D01*
X27220Y-41520D02*
X27220Y-40985D01*
X27393Y-41693D02*
X27220Y-41520D01*
X29522Y-41041D02*
X30272Y-41041D01*
G54D60*
X19250Y-16781D02*
X20243Y-16781D01*
X20243Y-16781D02*
X20400Y-16625D01*
G54D59*
X19250Y-16781D02*
X19250Y-16350D01*
X18925Y-16025D02*
X18925Y-15400D01*
X19250Y-16350D02*
X18925Y-16025D01*
X18500Y-11200D02*
X18500Y-11850D01*
X16700Y-12175D02*
X16325Y-12550D01*
X18175Y-12175D02*
X16700Y-12175D01*
X18500Y-11850D02*
X18175Y-12175D01*
X17275Y-15400D02*
X16325Y-15400D01*
X16325Y-15400D02*
X16325Y-15425D01*
X16325Y-16225D02*
X16325Y-15425D01*
X16325Y-16225D02*
X16200Y-16350D01*
X16325Y-15425D02*
X16325Y-12550D01*
X19750Y-15400D02*
X18925Y-15400D01*
X18925Y-15400D02*
X17275Y-15400D01*
X16329Y-16784D02*
X16329Y-16350D01*
X16325Y-16354D02*
X16325Y-16350D01*
X16329Y-16350D02*
X16325Y-16354D01*
X16526Y-16784D02*
X16526Y-16350D01*
X16526Y-16350D02*
X16525Y-16350D01*
X16034Y-17079D02*
X16034Y-16515D01*
X16034Y-16515D02*
X16200Y-16350D01*
X16723Y-16351D02*
X16723Y-16784D01*
X16725Y-16350D02*
X16723Y-16351D01*
X16525Y-16350D02*
X16725Y-16350D01*
X16200Y-16350D02*
X16325Y-16350D01*
X16325Y-16350D02*
X16525Y-16350D01*
G54D58*
X31325Y-29743D02*
X31681Y-29743D01*
X32000Y-29425D02*
X32000Y-27800D01*
X31681Y-29743D02*
X32000Y-29425D01*
X31516Y-33858D02*
X31516Y-29743D01*
X28500Y-29743D02*
X31325Y-29743D01*
X31325Y-29743D02*
X31516Y-29743D01*
X33114Y-33870D02*
X31528Y-33870D01*
X31528Y-33870D02*
X31516Y-33858D01*
X33843Y-38866D02*
X33843Y-37158D01*
X33843Y-37158D02*
X33114Y-36429D01*
X33114Y-36429D02*
X33114Y-33870D01*
X33528Y-38866D02*
X33528Y-38055D01*
X29173Y-36299D02*
X30708Y-34763D01*
X29173Y-37755D02*
X29173Y-36299D01*
X29767Y-38350D02*
X29173Y-37755D01*
X31886Y-38350D02*
X29767Y-38350D01*
X32440Y-37795D02*
X31886Y-38350D01*
X33267Y-37795D02*
X32440Y-37795D01*
X33528Y-38055D02*
X33267Y-37795D01*
X31475Y-49055D02*
X23205Y-49055D01*
X22500Y-48350D02*
X22500Y-47900D01*
X23205Y-49055D02*
X22500Y-48350D01*
X32898Y-38866D02*
X32708Y-38866D01*
X32708Y-38866D02*
X32559Y-39015D01*
X30500Y-48300D02*
X30500Y-47900D01*
X31255Y-49055D02*
X30500Y-48300D01*
X40744Y-49055D02*
X31475Y-49055D01*
X31475Y-49055D02*
X31255Y-49055D01*
X40744Y-49055D02*
X41500Y-48300D01*
X41500Y-48300D02*
X41500Y-47900D01*
X45500Y-47900D02*
X41500Y-47900D01*
X45500Y-47900D02*
X46500Y-47900D01*
X21500Y-47900D02*
X22500Y-47900D01*
X32366Y-39398D02*
X33271Y-39398D01*
X33271Y-39398D02*
X33440Y-39567D01*
X40500Y-48300D02*
X40500Y-47900D01*
X39940Y-48859D02*
X40500Y-48300D01*
X39940Y-48859D02*
X32059Y-48859D01*
X31500Y-48300D02*
X31500Y-47900D01*
X32059Y-48859D02*
X31500Y-48300D01*
X39500Y-48300D02*
X39500Y-47900D01*
X39137Y-48662D02*
X39500Y-48300D01*
X39137Y-48662D02*
X32862Y-48662D01*
X32500Y-48300D02*
X32500Y-47900D01*
X32862Y-48662D02*
X32500Y-48300D01*
X33074Y-39713D02*
X33362Y-40000D01*
X32366Y-39713D02*
X33074Y-39713D01*
X38500Y-48300D02*
X38500Y-47900D01*
X38334Y-48465D02*
X38500Y-48300D01*
X38334Y-48465D02*
X33665Y-48465D01*
X33500Y-48300D02*
X33500Y-47900D01*
X33665Y-48465D02*
X33500Y-48300D01*
X32898Y-42134D02*
X32898Y-43402D01*
X32898Y-43402D02*
X32400Y-43900D01*
X32400Y-43900D02*
X32400Y-46800D01*
X32400Y-46800D02*
X33500Y-47900D01*
X35700Y-46700D02*
X35700Y-45600D01*
X35700Y-45600D02*
X33213Y-43113D01*
X35700Y-46700D02*
X34500Y-47900D01*
X33213Y-43113D02*
X33213Y-42134D01*
X36075Y-47325D02*
X36075Y-45575D01*
X36075Y-45575D02*
X33528Y-43028D01*
X36075Y-47325D02*
X35500Y-47900D01*
X33528Y-43028D02*
X33528Y-42134D01*
X36500Y-47900D02*
X36500Y-45600D01*
X33843Y-42943D02*
X33843Y-42134D01*
X36500Y-45600D02*
X33843Y-42943D01*
X37500Y-47900D02*
X37500Y-46200D01*
X34157Y-42857D02*
X34157Y-42134D01*
X37500Y-46200D02*
X34157Y-42857D01*
G54D59*
X35634Y-42200D02*
X35634Y-42434D01*
X38913Y-42886D02*
X38913Y-42402D01*
X38400Y-43400D02*
X38913Y-42886D01*
X36600Y-43400D02*
X38400Y-43400D01*
X35634Y-42434D02*
X36600Y-43400D01*
G54D58*
X35634Y-41602D02*
X35634Y-42200D01*
X35634Y-41602D02*
X36026Y-41602D01*
X36569Y-42145D02*
X36984Y-42145D01*
X36026Y-41602D02*
X36569Y-42145D01*
X47100Y-41700D02*
X46400Y-41700D01*
X45697Y-42402D02*
X43125Y-42402D01*
X46400Y-41700D02*
X45697Y-42402D01*
X47100Y-40401D02*
X43631Y-40401D01*
X43631Y-40401D02*
X43125Y-40906D01*
X43125Y-41378D02*
X43621Y-41378D01*
X43621Y-41378D02*
X44166Y-40834D01*
X47100Y-40834D02*
X44166Y-40834D01*
X46308Y-42566D02*
X47100Y-42566D01*
X46078Y-42796D02*
X46308Y-42566D01*
X43519Y-42796D02*
X46078Y-42796D01*
X38350Y-33650D02*
X38000Y-33650D01*
X37475Y-31800D02*
X36700Y-31800D01*
X37725Y-32050D02*
X37475Y-31800D01*
X37725Y-33375D02*
X37725Y-32050D01*
X38000Y-33650D02*
X37725Y-33375D01*
G54D59*
X39300Y-44300D02*
X36000Y-44300D01*
G54D58*
X41000Y-40900D02*
X41000Y-42600D01*
X41000Y-42600D02*
X39300Y-44300D01*
G54D59*
X39300Y-44300D02*
X39000Y-44300D01*
G54D58*
X39000Y-44300D02*
X36000Y-44300D01*
X34472Y-42134D02*
X34472Y-42772D01*
X34472Y-42772D02*
X36000Y-44300D01*
X25200Y-40775D02*
X25200Y-39800D01*
X24850Y-39450D02*
X23450Y-39450D01*
X25200Y-39800D02*
X24850Y-39450D01*
X25200Y-40775D02*
X25325Y-40900D01*
X25325Y-40900D02*
X26400Y-40900D01*
X34923Y-40972D02*
X35634Y-40972D01*
X34897Y-40945D02*
X34923Y-40972D01*
X21779Y-29935D02*
X21779Y-31664D01*
X23114Y-33829D02*
X21779Y-35164D01*
X23114Y-31270D02*
X21779Y-29935D01*
X17885Y-31270D02*
X19220Y-29935D01*
X19220Y-29935D02*
X19220Y-31664D01*
X23114Y-31270D02*
X23114Y-33829D01*
X19220Y-31664D02*
X21779Y-31664D01*
X17885Y-31270D02*
X17885Y-33829D01*
X19220Y-35164D02*
X21779Y-35164D01*
X28897Y-37874D02*
X28897Y-35866D01*
X28897Y-35866D02*
X30000Y-34763D01*
X33213Y-38213D02*
X33070Y-38070D01*
X33213Y-38866D02*
X33213Y-38213D01*
X29573Y-38550D02*
X28897Y-37874D01*
X32119Y-38550D02*
X29573Y-38550D01*
X32598Y-38070D02*
X32119Y-38550D01*
X33070Y-38070D02*
X32598Y-38070D01*
X46196Y-33307D02*
X46196Y-35512D01*
X48888Y-35788D02*
X49149Y-36049D01*
X46472Y-35788D02*
X48888Y-35788D01*
X46196Y-35512D02*
X46472Y-35788D01*
X49149Y-36049D02*
X49149Y-45050D01*
X49149Y-45050D02*
X48150Y-46050D01*
X44825Y-46050D02*
X48150Y-46050D01*
X44825Y-44025D02*
X44825Y-46050D01*
G54D60*
X16500Y-47900D02*
X16500Y-47075D01*
X11450Y-44750D02*
X11450Y-44150D01*
X13225Y-46525D02*
X11450Y-44750D01*
X15950Y-46525D02*
X13225Y-46525D01*
X16500Y-47075D02*
X15950Y-46525D01*
X39700Y-29800D02*
X39700Y-30468D01*
X39700Y-30468D02*
X39218Y-30950D01*
X44279Y-31300D02*
X44279Y-33779D01*
X44825Y-34325D02*
X44825Y-35025D01*
X44279Y-33779D02*
X44825Y-34325D01*
X43000Y-30315D02*
X42065Y-30315D01*
X41550Y-29800D02*
X39700Y-29800D01*
X42065Y-30315D02*
X41550Y-29800D01*
X43000Y-30315D02*
X43000Y-29331D01*
X44279Y-31300D02*
X44279Y-30604D01*
X43990Y-30315D02*
X43000Y-30315D01*
X44279Y-30604D02*
X43990Y-30315D01*
G54D58*
X32366Y-40972D02*
X33222Y-40972D01*
X33537Y-41287D02*
X35634Y-41287D01*
X33222Y-40972D02*
X33537Y-41287D01*
G54D60*
X39700Y-39675D02*
X39700Y-37225D01*
X30000Y-25825D02*
X32575Y-25825D01*
X32575Y-25825D02*
X32675Y-25925D01*
X32675Y-25925D02*
X33606Y-25925D01*
X30000Y-26800D02*
X30000Y-25825D01*
X30000Y-25825D02*
X21900Y-25825D01*
X21500Y-26800D02*
X21500Y-26225D01*
X21500Y-26225D02*
X21900Y-25825D01*
X30479Y-39244D02*
X26961Y-39244D01*
X26338Y-38622D02*
X26338Y-37650D01*
X26961Y-39244D02*
X26338Y-38622D01*
X20225Y-37650D02*
X26338Y-37650D01*
X26338Y-37650D02*
X26365Y-37650D01*
X29346Y-33858D02*
X29346Y-34669D01*
X26365Y-37650D02*
X29346Y-34669D01*
X30766Y-33858D02*
X29346Y-33858D01*
X27204Y-30866D02*
X28779Y-30866D01*
X29346Y-31433D02*
X29346Y-33858D01*
X28779Y-30866D02*
X29346Y-31433D01*
X27184Y-31692D02*
X27184Y-30866D01*
X27184Y-30866D02*
X27204Y-30866D01*
X25500Y-26800D02*
X25500Y-30066D01*
X26299Y-30866D02*
X27204Y-30866D01*
X25500Y-30066D02*
X26299Y-30866D01*
X25500Y-26800D02*
X25500Y-28164D01*
X21779Y-28164D02*
X25500Y-28164D01*
X19220Y-28164D02*
X17714Y-28164D01*
X17714Y-28164D02*
X16500Y-26950D01*
X43322Y-39672D02*
X44452Y-39672D01*
X44452Y-39672D02*
X44825Y-39300D01*
X44825Y-39300D02*
X44825Y-35025D01*
X43322Y-39331D02*
X43322Y-39672D01*
X38389Y-40985D02*
X36984Y-40985D01*
X39700Y-39675D02*
X38389Y-40985D01*
X43320Y-39675D02*
X39700Y-39675D01*
X43322Y-39672D02*
X43320Y-39675D01*
X21500Y-26800D02*
X21500Y-27225D01*
X21779Y-27504D02*
X21779Y-28164D01*
X21500Y-27225D02*
X21779Y-27504D01*
X20225Y-37650D02*
X19925Y-37950D01*
X31354Y-40343D02*
X31669Y-40343D01*
G54D61*
X31669Y-40343D02*
X32366Y-40343D01*
X32366Y-40972D02*
X31656Y-40972D01*
G54D60*
X31354Y-40118D02*
X30479Y-39244D01*
X31354Y-40670D02*
X31354Y-40343D01*
X31354Y-40343D02*
X31354Y-40118D01*
X31656Y-40972D02*
X31354Y-40670D01*
X43322Y-38840D02*
X43322Y-39331D01*
X42811Y-38840D02*
X43322Y-38840D01*
X43322Y-38840D02*
X43834Y-38840D01*
X19925Y-37950D02*
X19925Y-38350D01*
G54D61*
X35634Y-40657D02*
X36105Y-40657D01*
X36105Y-40657D02*
X36433Y-40985D01*
X35634Y-41287D02*
X36131Y-41287D01*
X36131Y-41287D02*
X36433Y-40985D01*
G54D60*
X36433Y-40985D02*
X36984Y-40985D01*
X21779Y-28164D02*
X19220Y-28164D01*
X16475Y-35925D02*
X16475Y-37089D01*
X18693Y-37655D02*
X18693Y-38350D01*
X18362Y-37323D02*
X18693Y-37655D01*
X16708Y-37323D02*
X18362Y-37323D01*
X16475Y-37089D02*
X16708Y-37323D01*
X18693Y-38350D02*
X18693Y-39000D01*
X17903Y-39396D02*
X17903Y-39841D01*
X18086Y-39213D02*
X17903Y-39396D01*
X18480Y-39213D02*
X18086Y-39213D01*
X18693Y-39000D02*
X18480Y-39213D01*
X18693Y-38350D02*
X19925Y-38350D01*
X16708Y-37677D02*
X16708Y-37323D01*
X45825Y-45325D02*
X48274Y-45325D01*
X48755Y-44843D02*
X48755Y-37835D01*
X48274Y-45325D02*
X48755Y-44843D01*
G54D58*
X42825Y-46050D02*
X42825Y-46510D01*
X42825Y-46510D02*
X43414Y-47100D01*
X43414Y-47100D02*
X48100Y-47100D01*
X48100Y-47100D02*
X49858Y-45341D01*
X49858Y-45341D02*
X49858Y-34843D01*
X42825Y-44025D02*
X42825Y-46050D01*
X33795Y-36669D02*
X33795Y-30654D01*
X33795Y-30654D02*
X35645Y-28804D01*
X43834Y-37008D02*
X43834Y-38090D01*
X34157Y-38866D02*
X34157Y-37031D01*
X38700Y-26086D02*
X38700Y-26800D01*
X38362Y-25748D02*
X38700Y-26086D01*
X35951Y-25748D02*
X38362Y-25748D01*
X35645Y-26054D02*
X35951Y-25748D01*
X35645Y-28804D02*
X35645Y-26054D01*
X34157Y-37031D02*
X33795Y-36669D01*
X43825Y-36325D02*
X43825Y-36999D01*
X43825Y-36999D02*
X43834Y-37008D01*
X38700Y-29800D02*
X38700Y-26800D01*
X37700Y-28071D02*
X36678Y-28071D01*
X36678Y-28071D02*
X34188Y-30561D01*
X34188Y-36629D02*
X34188Y-30561D01*
X34472Y-36912D02*
X34188Y-36629D01*
X34472Y-38866D02*
X34472Y-36912D01*
X42850Y-37362D02*
X42850Y-38050D01*
X42850Y-38050D02*
X42811Y-38090D01*
X42825Y-35025D02*
X42825Y-37337D01*
X42825Y-37337D02*
X42850Y-37362D01*
X37700Y-29800D02*
X37700Y-28071D01*
X37700Y-28071D02*
X37700Y-26800D01*
X49464Y-45235D02*
X49464Y-35079D01*
X48124Y-46575D02*
X49464Y-45235D01*
X43992Y-46575D02*
X48124Y-46575D01*
X43825Y-46408D02*
X43992Y-46575D01*
X43825Y-46025D02*
X43825Y-46408D01*
X43825Y-45325D02*
X43825Y-46025D01*
G54D60*
X22596Y-38350D02*
X22596Y-38529D01*
X21354Y-39770D02*
X21354Y-40197D01*
X22596Y-38529D02*
X21354Y-39770D01*
X22596Y-38350D02*
X24782Y-38350D01*
X24782Y-38350D02*
X25606Y-39174D01*
X15275Y-38350D02*
X15275Y-35925D01*
X15850Y-38350D02*
X15275Y-38350D01*
X15275Y-38350D02*
X14675Y-38350D01*
X14401Y-38623D02*
X14401Y-39337D01*
X14675Y-38350D02*
X14401Y-38623D01*
X11450Y-43150D02*
X12175Y-43150D01*
X12889Y-43864D02*
X13929Y-43864D01*
X12175Y-43150D02*
X12889Y-43864D01*
X38431Y-30950D02*
X38431Y-31393D01*
G54D58*
X38325Y-31500D02*
X38325Y-31925D01*
X38431Y-31393D02*
X38325Y-31500D01*
G54D60*
X34885Y-33870D02*
X34885Y-30614D01*
X35700Y-29800D02*
X36700Y-29800D01*
X34885Y-30614D02*
X35700Y-29800D01*
X15850Y-38350D02*
X17906Y-38350D01*
X32000Y-26800D02*
X33125Y-26800D01*
X33125Y-26800D02*
X33225Y-26700D01*
X33225Y-26700D02*
X34125Y-26700D01*
X34125Y-26700D02*
X34393Y-26431D01*
X34393Y-26431D02*
X34393Y-25925D01*
X27550Y-34300D02*
X27550Y-33731D01*
X27165Y-33346D02*
X27165Y-32795D01*
X27550Y-33731D02*
X27165Y-33346D01*
X51500Y-47900D02*
X51500Y-45697D01*
X51500Y-45697D02*
X51076Y-45274D01*
X17929Y-37796D02*
X17906Y-37818D01*
X17906Y-37818D02*
X17906Y-38350D01*
X47100Y-42133D02*
X48204Y-42133D01*
X48204Y-43898D02*
X48204Y-42133D01*
X48204Y-42133D02*
X48204Y-38347D01*
X48014Y-38156D02*
X47296Y-38156D01*
X48204Y-38347D02*
X48014Y-38156D01*
X26629Y-40197D02*
X27220Y-40197D01*
X25606Y-39174D02*
X26629Y-40197D01*
X36984Y-40197D02*
X38047Y-40197D01*
X48204Y-43898D02*
X48204Y-43904D01*
G54D61*
X32366Y-40657D02*
X32878Y-40657D01*
X32878Y-40657D02*
X33192Y-40343D01*
G54D58*
X35634Y-40343D02*
X33192Y-40343D01*
G54D61*
X33192Y-40343D02*
X32877Y-40028D01*
X32366Y-40028D02*
X32877Y-40028D01*
G54D60*
X51078Y-36811D02*
X51078Y-34055D01*
X50700Y-33677D02*
X50700Y-29300D01*
X51078Y-34055D02*
X50700Y-33677D01*
X51076Y-36814D02*
X51076Y-37802D01*
X51078Y-36811D02*
X51076Y-36814D01*
X38047Y-42120D02*
X38047Y-41654D01*
X45825Y-36325D02*
X45825Y-37581D01*
X45825Y-37581D02*
X46400Y-38156D01*
X46400Y-38156D02*
X47296Y-38156D01*
X51076Y-43904D02*
X51076Y-43423D01*
X51076Y-43423D02*
X50724Y-43071D01*
X50724Y-43071D02*
X50724Y-38740D01*
X50724Y-38740D02*
X51076Y-38388D01*
X51076Y-38388D02*
X51076Y-37802D01*
X48204Y-43904D02*
X47336Y-43904D01*
X51076Y-45274D02*
X51076Y-43904D01*
G54D58*
X35634Y-40343D02*
X36248Y-40343D01*
G54D60*
X36393Y-40197D02*
X36984Y-40197D01*
G54D58*
X36248Y-40343D02*
X36393Y-40197D01*
G54D60*
X38431Y-30950D02*
X37106Y-30950D01*
X36700Y-30543D02*
X36700Y-29800D01*
X37106Y-30950D02*
X36700Y-30543D01*
X17903Y-40341D02*
X16931Y-40341D01*
X16931Y-40341D02*
X16511Y-39922D01*
X16511Y-39922D02*
X16511Y-38350D01*
X27220Y-40197D02*
X28401Y-40197D01*
X17906Y-38350D02*
X16511Y-38350D01*
X14401Y-39337D02*
X13102Y-39337D01*
G54D58*
X14843Y-19425D02*
X14843Y-18406D01*
X15284Y-17965D02*
X16329Y-17965D01*
X14843Y-18406D02*
X15284Y-17965D01*
X16526Y-17965D02*
X16723Y-17965D01*
X16329Y-17965D02*
X16526Y-17965D01*
X36984Y-42895D02*
X38022Y-42895D01*
X38022Y-42895D02*
X38047Y-42920D01*
X16920Y-17965D02*
X16920Y-18279D01*
X15850Y-18600D02*
X15850Y-19050D01*
X16025Y-18425D02*
X15850Y-18600D01*
X16775Y-18425D02*
X16025Y-18425D01*
X16920Y-18279D02*
X16775Y-18425D01*
X39100Y-33650D02*
X39100Y-33100D01*
X38675Y-32675D02*
X38325Y-32675D01*
X39100Y-33100D02*
X38675Y-32675D01*
G54D59*
X28500Y-28956D02*
X28500Y-26800D01*
G54D58*
X25225Y-44475D02*
X25650Y-44475D01*
X25650Y-44475D02*
X25875Y-44250D01*
X23775Y-42750D02*
X25575Y-42750D01*
X23775Y-42750D02*
X23086Y-42061D01*
X23086Y-42061D02*
X23086Y-40985D01*
X25575Y-42750D02*
X25875Y-43050D01*
X25875Y-43050D02*
X25875Y-44250D01*
X25225Y-45475D02*
X25225Y-44475D01*
X24225Y-45475D02*
X25225Y-45475D01*
X23225Y-45475D02*
X24225Y-45475D01*
X22225Y-45475D02*
X23225Y-45475D01*
X24225Y-44475D02*
X25225Y-44475D01*
X23225Y-44475D02*
X24225Y-44475D01*
X22225Y-44475D02*
X23225Y-44475D01*
X24346Y-40985D02*
X24346Y-41771D01*
X27225Y-42825D02*
X27225Y-43475D01*
X26825Y-42425D02*
X27225Y-42825D01*
X25000Y-42425D02*
X26825Y-42425D01*
X24346Y-41771D02*
X25000Y-42425D01*
X29225Y-44475D02*
X30225Y-44475D01*
X28225Y-44475D02*
X29225Y-44475D01*
X27225Y-44475D02*
X28225Y-44475D01*
X27225Y-43475D02*
X27225Y-44475D01*
X28225Y-43475D02*
X27225Y-43475D01*
X29225Y-43475D02*
X28225Y-43475D01*
X30225Y-43475D02*
X29225Y-43475D01*
X41720Y-31300D02*
X40725Y-31300D01*
X39725Y-32300D02*
X39275Y-32300D01*
X40725Y-31300D02*
X39725Y-32300D01*
X43000Y-31300D02*
X41720Y-31300D01*
X43000Y-32284D02*
X43000Y-31300D01*
X43000Y-33268D02*
X43000Y-32284D01*
X19220Y-36935D02*
X17935Y-36935D01*
X17675Y-36675D02*
X17675Y-35925D01*
X17935Y-36935D02*
X17675Y-36675D01*
X16475Y-35175D02*
X16875Y-35175D01*
X17275Y-35925D02*
X17675Y-35925D01*
X17075Y-35725D02*
X17275Y-35925D01*
X17075Y-35375D02*
X17075Y-35725D01*
X16875Y-35175D02*
X17075Y-35375D01*
X19220Y-36935D02*
X21779Y-36935D01*
X16920Y-16784D02*
X18096Y-16784D01*
X18096Y-16784D02*
X18100Y-16781D01*
X17675Y-35175D02*
X18400Y-35175D01*
X18400Y-35175D02*
X18400Y-35200D01*
X19220Y-33435D02*
X19220Y-33979D01*
X18400Y-34500D02*
X18400Y-35200D01*
X18400Y-35200D02*
X18400Y-35500D01*
X18700Y-34200D02*
X18400Y-34500D01*
X19000Y-34200D02*
X18700Y-34200D01*
X19220Y-33979D02*
X19000Y-34200D01*
X23525Y-35925D02*
X18825Y-35925D01*
X18825Y-35925D02*
X18400Y-35500D01*
X21779Y-33435D02*
X19220Y-33435D01*
X24885Y-33829D02*
X24320Y-33829D01*
X23525Y-34624D02*
X23525Y-35175D01*
X24320Y-33829D02*
X23525Y-34624D01*
X23525Y-35175D02*
X23975Y-35175D01*
X24400Y-35925D02*
X24875Y-35925D01*
X24200Y-35725D02*
X24400Y-35925D01*
X24200Y-35400D02*
X24200Y-35725D01*
X23975Y-35175D02*
X24200Y-35400D01*
X24885Y-31270D02*
X24885Y-33829D01*
X24875Y-35175D02*
X24875Y-34613D01*
X24875Y-34613D02*
X24881Y-34606D01*
X15275Y-35175D02*
X15275Y-34125D01*
X15275Y-34125D02*
X15570Y-33829D01*
X15570Y-33829D02*
X16114Y-33829D01*
X16114Y-31270D02*
X16114Y-33829D01*
X27952Y-32795D02*
X28550Y-32795D01*
X28550Y-34300D02*
X28550Y-32795D01*
X28550Y-32795D02*
X28550Y-31857D01*
X28385Y-31692D02*
X27934Y-31692D01*
X28550Y-31857D02*
X28385Y-31692D01*
G54D10*
G36*
X20710Y-16059D02*
X20705Y-16059D01*
X20512Y-16060D01*
X20450Y-16122D01*
X20450Y-16575D01*
X20457Y-16575D01*
X20457Y-16675D01*
X20450Y-16675D01*
X20450Y-16682D01*
X20350Y-16682D01*
X20350Y-16675D01*
X20342Y-16675D01*
X20342Y-16575D01*
X20350Y-16575D01*
X20350Y-16122D01*
X20307Y-16079D01*
X20319Y-16049D01*
X20320Y-15950D01*
X20320Y-14849D01*
X20319Y-14750D01*
X20295Y-14690D01*
X20295Y-14150D01*
X20295Y-12950D01*
X20257Y-12858D01*
X20186Y-12788D01*
X20094Y-12750D01*
X19995Y-12749D01*
X19355Y-12749D01*
X19263Y-12787D01*
X19250Y-12801D01*
X19250Y-11650D01*
X19250Y-10749D01*
X19249Y-10650D01*
X19211Y-10558D01*
X19141Y-10487D01*
X19049Y-10449D01*
X18612Y-10450D01*
X18550Y-10512D01*
X18550Y-11150D01*
X19187Y-11150D01*
X19250Y-11087D01*
X19250Y-10749D01*
X19250Y-11650D01*
X19250Y-11312D01*
X19187Y-11250D01*
X18550Y-11250D01*
X18550Y-11887D01*
X18612Y-11950D01*
X19049Y-11950D01*
X19141Y-11912D01*
X19211Y-11841D01*
X19249Y-11749D01*
X19250Y-11650D01*
X19250Y-12801D01*
X19193Y-12858D01*
X19155Y-12950D01*
X19154Y-13049D01*
X19154Y-13200D01*
X18644Y-13200D01*
X18584Y-13175D01*
X18450Y-13174D01*
X18450Y-11887D01*
X18450Y-11250D01*
X18450Y-11150D01*
X18450Y-10512D01*
X18387Y-10450D01*
X17950Y-10449D01*
X17858Y-10487D01*
X17788Y-10558D01*
X17750Y-10650D01*
X17749Y-10749D01*
X17750Y-11087D01*
X17812Y-11150D01*
X18450Y-11150D01*
X18450Y-11250D01*
X17812Y-11250D01*
X17750Y-11312D01*
X17749Y-11650D01*
X17750Y-11749D01*
X17788Y-11841D01*
X17858Y-11912D01*
X17950Y-11950D01*
X18387Y-11950D01*
X18450Y-11887D01*
X18450Y-13174D01*
X18415Y-13174D01*
X18355Y-13200D01*
X17820Y-13200D01*
X17820Y-12950D01*
X17782Y-12858D01*
X17711Y-12788D01*
X17619Y-12750D01*
X17520Y-12749D01*
X16880Y-12749D01*
X16788Y-12787D01*
X16718Y-12858D01*
X16680Y-12950D01*
X16679Y-13049D01*
X16679Y-14249D01*
X16717Y-14341D01*
X16788Y-14411D01*
X16880Y-14449D01*
X16979Y-14450D01*
X17619Y-14450D01*
X17711Y-14412D01*
X17781Y-14341D01*
X17819Y-14249D01*
X17820Y-14150D01*
X17820Y-14000D01*
X18355Y-14000D01*
X18415Y-14024D01*
X18584Y-14025D01*
X18644Y-14000D01*
X19154Y-14000D01*
X19154Y-14249D01*
X19192Y-14341D01*
X19263Y-14411D01*
X19355Y-14449D01*
X19454Y-14450D01*
X20094Y-14450D01*
X20186Y-14412D01*
X20256Y-14341D01*
X20294Y-14249D01*
X20295Y-14150D01*
X20295Y-14690D01*
X20281Y-14658D01*
X20211Y-14587D01*
X20119Y-14549D01*
X19862Y-14550D01*
X19800Y-14612D01*
X19800Y-15350D01*
X20257Y-15350D01*
X20320Y-15287D01*
X20320Y-14849D01*
X20320Y-15950D01*
X20320Y-15512D01*
X20257Y-15450D01*
X19800Y-15450D01*
X19800Y-16187D01*
X19817Y-16205D01*
X19794Y-16260D01*
X19794Y-16441D01*
X19767Y-16374D01*
X19700Y-16306D01*
X19700Y-16187D01*
X19700Y-15450D01*
X19700Y-15350D01*
X19700Y-14612D01*
X19637Y-14550D01*
X19380Y-14549D01*
X19288Y-14587D01*
X19218Y-14658D01*
X19180Y-14750D01*
X19179Y-14849D01*
X19180Y-15287D01*
X19242Y-15350D01*
X19700Y-15350D01*
X19700Y-15450D01*
X19242Y-15450D01*
X19180Y-15512D01*
X19179Y-15950D01*
X19180Y-16049D01*
X19218Y-16141D01*
X19288Y-16212D01*
X19380Y-16250D01*
X19637Y-16250D01*
X19700Y-16187D01*
X19700Y-16306D01*
X19696Y-16303D01*
X19605Y-16265D01*
X19505Y-16265D01*
X19362Y-16265D01*
X19300Y-16328D01*
X19300Y-16731D01*
X19307Y-16731D01*
X19307Y-16831D01*
X19300Y-16831D01*
X19300Y-16839D01*
X19200Y-16839D01*
X19200Y-16831D01*
X19200Y-16731D01*
X19200Y-16328D01*
X19137Y-16265D01*
X18994Y-16265D01*
X18894Y-16265D01*
X18803Y-16303D01*
X18732Y-16374D01*
X18694Y-16466D01*
X18694Y-16668D01*
X18757Y-16731D01*
X19200Y-16731D01*
X19200Y-16831D01*
X18757Y-16831D01*
X18694Y-16893D01*
X18694Y-17096D01*
X18706Y-17125D01*
X18675Y-17125D01*
X18675Y-16250D01*
X17644Y-16250D01*
X17736Y-16212D01*
X17806Y-16141D01*
X17844Y-16049D01*
X17845Y-15950D01*
X17845Y-14849D01*
X17844Y-14750D01*
X17806Y-14658D01*
X17736Y-14587D01*
X17644Y-14549D01*
X17387Y-14550D01*
X17325Y-14612D01*
X17325Y-15350D01*
X17782Y-15350D01*
X17845Y-15287D01*
X17845Y-14849D01*
X17845Y-15950D01*
X17845Y-15512D01*
X17782Y-15450D01*
X17325Y-15450D01*
X17325Y-16187D01*
X17387Y-16250D01*
X17525Y-16250D01*
X17525Y-16484D01*
X17225Y-16484D01*
X17225Y-16187D01*
X17225Y-15450D01*
X17225Y-15350D01*
X17225Y-14612D01*
X17162Y-14550D01*
X16905Y-14549D01*
X16813Y-14587D01*
X16743Y-14658D01*
X16705Y-14750D01*
X16704Y-14849D01*
X16705Y-15287D01*
X16767Y-15350D01*
X17225Y-15350D01*
X17225Y-15450D01*
X16767Y-15450D01*
X16705Y-15512D01*
X16704Y-15950D01*
X16705Y-16049D01*
X16743Y-16141D01*
X16813Y-16212D01*
X16905Y-16250D01*
X17162Y-16250D01*
X17225Y-16187D01*
X17225Y-16484D01*
X17160Y-16484D01*
X17136Y-16448D01*
X17037Y-16382D01*
X16920Y-16358D01*
X16809Y-16381D01*
X16798Y-16376D01*
X16779Y-16398D01*
X16721Y-16436D01*
X16706Y-16421D01*
X16675Y-16407D01*
X16648Y-16376D01*
X16625Y-16386D01*
X16601Y-16376D01*
X16574Y-16407D01*
X16543Y-16421D01*
X16526Y-16438D01*
X16510Y-16421D01*
X16478Y-16407D01*
X16451Y-16376D01*
X16428Y-16386D01*
X16404Y-16376D01*
X16377Y-16407D01*
X16346Y-16421D01*
X16302Y-16468D01*
X16302Y-16431D01*
X16254Y-16376D01*
X16149Y-16421D01*
X16066Y-16509D01*
X16024Y-16622D01*
X16024Y-16734D01*
X16221Y-16734D01*
X16221Y-16783D01*
X16196Y-16774D01*
X16084Y-16774D01*
X16084Y-16834D01*
X16024Y-16834D01*
X16024Y-16946D01*
X16025Y-16950D01*
X15984Y-16950D01*
X15984Y-16774D01*
X15872Y-16774D01*
X15825Y-16792D01*
X15825Y-15800D01*
X15936Y-15800D01*
X16028Y-15762D01*
X16099Y-15691D01*
X16137Y-15599D01*
X16137Y-15500D01*
X16137Y-13500D01*
X16099Y-13408D01*
X16029Y-13338D01*
X16000Y-13326D01*
X16000Y-11950D01*
X16499Y-11950D01*
X16648Y-11950D01*
X16648Y-11950D01*
X17550Y-11950D01*
X17550Y-10289D01*
X19471Y-10289D01*
X19960Y-10386D01*
X20351Y-10646D01*
X20613Y-11039D01*
X20710Y-11531D01*
X20710Y-16059D01*
X20710Y-16059D01*
G37*
G54D58*
X20710Y-16059D02*
X20705Y-16059D01*
X20512Y-16060D01*
X20450Y-16122D01*
X20450Y-16575D01*
X20457Y-16575D01*
X20457Y-16675D01*
X20450Y-16675D01*
X20450Y-16682D01*
X20350Y-16682D01*
X20350Y-16675D01*
X20342Y-16675D01*
X20342Y-16575D01*
X20350Y-16575D01*
X20350Y-16122D01*
X20307Y-16079D01*
X20319Y-16049D01*
X20320Y-15950D01*
X20320Y-14849D01*
X20319Y-14750D01*
X20295Y-14690D01*
X20295Y-14150D01*
X20295Y-12950D01*
X20257Y-12858D01*
X20186Y-12788D01*
X20094Y-12750D01*
X19995Y-12749D01*
X19355Y-12749D01*
X19263Y-12787D01*
X19250Y-12801D01*
X19250Y-11650D01*
X19250Y-10749D01*
X19249Y-10650D01*
X19211Y-10558D01*
X19141Y-10487D01*
X19049Y-10449D01*
X18612Y-10450D01*
X18550Y-10512D01*
X18550Y-11150D01*
X19187Y-11150D01*
X19250Y-11087D01*
X19250Y-10749D01*
X19250Y-11650D01*
X19250Y-11312D01*
X19187Y-11250D01*
X18550Y-11250D01*
X18550Y-11887D01*
X18612Y-11950D01*
X19049Y-11950D01*
X19141Y-11912D01*
X19211Y-11841D01*
X19249Y-11749D01*
X19250Y-11650D01*
X19250Y-12801D01*
X19193Y-12858D01*
X19155Y-12950D01*
X19154Y-13049D01*
X19154Y-13200D01*
X18644Y-13200D01*
X18584Y-13175D01*
X18450Y-13174D01*
X18450Y-11887D01*
X18450Y-11250D01*
X18450Y-11150D01*
X18450Y-10512D01*
X18387Y-10450D01*
X17950Y-10449D01*
X17858Y-10487D01*
X17788Y-10558D01*
X17750Y-10650D01*
X17749Y-10749D01*
X17750Y-11087D01*
X17812Y-11150D01*
X18450Y-11150D01*
X18450Y-11250D01*
X17812Y-11250D01*
X17750Y-11312D01*
X17749Y-11650D01*
X17750Y-11749D01*
X17788Y-11841D01*
X17858Y-11912D01*
X17950Y-11950D01*
X18387Y-11950D01*
X18450Y-11887D01*
X18450Y-13174D01*
X18415Y-13174D01*
X18355Y-13200D01*
X17820Y-13200D01*
X17820Y-12950D01*
X17782Y-12858D01*
X17711Y-12788D01*
X17619Y-12750D01*
X17520Y-12749D01*
X16880Y-12749D01*
X16788Y-12787D01*
X16718Y-12858D01*
X16680Y-12950D01*
X16679Y-13049D01*
X16679Y-14249D01*
X16717Y-14341D01*
X16788Y-14411D01*
X16880Y-14449D01*
X16979Y-14450D01*
X17619Y-14450D01*
X17711Y-14412D01*
X17781Y-14341D01*
X17819Y-14249D01*
X17820Y-14150D01*
X17820Y-14000D01*
X18355Y-14000D01*
X18415Y-14024D01*
X18584Y-14025D01*
X18644Y-14000D01*
X19154Y-14000D01*
X19154Y-14249D01*
X19192Y-14341D01*
X19263Y-14411D01*
X19355Y-14449D01*
X19454Y-14450D01*
X20094Y-14450D01*
X20186Y-14412D01*
X20256Y-14341D01*
X20294Y-14249D01*
X20295Y-14150D01*
X20295Y-14690D01*
X20281Y-14658D01*
X20211Y-14587D01*
X20119Y-14549D01*
X19862Y-14550D01*
X19800Y-14612D01*
X19800Y-15350D01*
X20257Y-15350D01*
X20320Y-15287D01*
X20320Y-14849D01*
X20320Y-15950D01*
X20320Y-15512D01*
X20257Y-15450D01*
X19800Y-15450D01*
X19800Y-16187D01*
X19817Y-16205D01*
X19794Y-16260D01*
X19794Y-16441D01*
X19767Y-16374D01*
X19700Y-16306D01*
X19700Y-16187D01*
X19700Y-15450D01*
X19700Y-15350D01*
X19700Y-14612D01*
X19637Y-14550D01*
X19380Y-14549D01*
X19288Y-14587D01*
X19218Y-14658D01*
X19180Y-14750D01*
X19179Y-14849D01*
X19180Y-15287D01*
X19242Y-15350D01*
X19700Y-15350D01*
X19700Y-15450D01*
X19242Y-15450D01*
X19180Y-15512D01*
X19179Y-15950D01*
X19180Y-16049D01*
X19218Y-16141D01*
X19288Y-16212D01*
X19380Y-16250D01*
X19637Y-16250D01*
X19700Y-16187D01*
X19700Y-16306D01*
X19696Y-16303D01*
X19605Y-16265D01*
X19505Y-16265D01*
X19362Y-16265D01*
X19300Y-16328D01*
X19300Y-16731D01*
X19307Y-16731D01*
X19307Y-16831D01*
X19300Y-16831D01*
X19300Y-16839D01*
X19200Y-16839D01*
X19200Y-16831D01*
X19200Y-16731D01*
X19200Y-16328D01*
X19137Y-16265D01*
X18994Y-16265D01*
X18894Y-16265D01*
X18803Y-16303D01*
X18732Y-16374D01*
X18694Y-16466D01*
X18694Y-16668D01*
X18757Y-16731D01*
X19200Y-16731D01*
X19200Y-16831D01*
X18757Y-16831D01*
X18694Y-16893D01*
X18694Y-17096D01*
X18706Y-17125D01*
X18675Y-17125D01*
X18675Y-16250D01*
X17644Y-16250D01*
X17736Y-16212D01*
X17806Y-16141D01*
X17844Y-16049D01*
X17845Y-15950D01*
X17845Y-14849D01*
X17844Y-14750D01*
X17806Y-14658D01*
X17736Y-14587D01*
X17644Y-14549D01*
X17387Y-14550D01*
X17325Y-14612D01*
X17325Y-15350D01*
X17782Y-15350D01*
X17845Y-15287D01*
X17845Y-14849D01*
X17845Y-15950D01*
X17845Y-15512D01*
X17782Y-15450D01*
X17325Y-15450D01*
X17325Y-16187D01*
X17387Y-16250D01*
X17525Y-16250D01*
X17525Y-16484D01*
X17225Y-16484D01*
X17225Y-16187D01*
X17225Y-15450D01*
X17225Y-15350D01*
X17225Y-14612D01*
X17162Y-14550D01*
X16905Y-14549D01*
X16813Y-14587D01*
X16743Y-14658D01*
X16705Y-14750D01*
X16704Y-14849D01*
X16705Y-15287D01*
X16767Y-15350D01*
X17225Y-15350D01*
X17225Y-15450D01*
X16767Y-15450D01*
X16705Y-15512D01*
X16704Y-15950D01*
X16705Y-16049D01*
X16743Y-16141D01*
X16813Y-16212D01*
X16905Y-16250D01*
X17162Y-16250D01*
X17225Y-16187D01*
X17225Y-16484D01*
X17160Y-16484D01*
X17136Y-16448D01*
X17037Y-16382D01*
X16920Y-16358D01*
X16809Y-16381D01*
X16798Y-16376D01*
X16779Y-16398D01*
X16721Y-16436D01*
X16706Y-16421D01*
X16675Y-16407D01*
X16648Y-16376D01*
X16625Y-16386D01*
X16601Y-16376D01*
X16574Y-16407D01*
X16543Y-16421D01*
X16526Y-16438D01*
X16510Y-16421D01*
X16478Y-16407D01*
X16451Y-16376D01*
X16428Y-16386D01*
X16404Y-16376D01*
X16377Y-16407D01*
X16346Y-16421D01*
X16302Y-16468D01*
X16302Y-16431D01*
X16254Y-16376D01*
X16149Y-16421D01*
X16066Y-16509D01*
X16024Y-16622D01*
X16024Y-16734D01*
X16221Y-16734D01*
X16221Y-16783D01*
X16196Y-16774D01*
X16084Y-16774D01*
X16084Y-16834D01*
X16024Y-16834D01*
X16024Y-16946D01*
X16025Y-16950D01*
X15984Y-16950D01*
X15984Y-16774D01*
X15872Y-16774D01*
X15825Y-16792D01*
X15825Y-15800D01*
X15936Y-15800D01*
X16028Y-15762D01*
X16099Y-15691D01*
X16137Y-15599D01*
X16137Y-15500D01*
X16137Y-13500D01*
X16099Y-13408D01*
X16029Y-13338D01*
X16000Y-13326D01*
X16000Y-11950D01*
X16499Y-11950D01*
X16648Y-11950D01*
X16648Y-11950D01*
X17550Y-11950D01*
X17550Y-10289D01*
X19471Y-10289D01*
X19960Y-10386D01*
X20351Y-10646D01*
X20613Y-11039D01*
X20710Y-11531D01*
X20710Y-16059D01*
G54D10*
G36*
X20710Y-21660D02*
X20322Y-21271D01*
X19789Y-21050D01*
X19212Y-21049D01*
X18955Y-21156D01*
X18955Y-20339D01*
X18955Y-20087D01*
X18892Y-20025D01*
X18225Y-20025D01*
X18225Y-20477D01*
X18287Y-20540D01*
X18655Y-20540D01*
X18754Y-20539D01*
X18846Y-20501D01*
X18917Y-20431D01*
X18955Y-20339D01*
X18955Y-21156D01*
X18679Y-21270D01*
X18271Y-21677D01*
X18050Y-22210D01*
X18049Y-22787D01*
X18270Y-23320D01*
X18659Y-23710D01*
X17253Y-23710D01*
X17253Y-22479D01*
X17245Y-22181D01*
X17146Y-21941D01*
X17030Y-21890D01*
X16959Y-21960D01*
X16959Y-21819D01*
X16908Y-21703D01*
X16875Y-21690D01*
X16875Y-20271D01*
X16875Y-19868D01*
X16432Y-19868D01*
X16391Y-19909D01*
X16332Y-19850D01*
X15900Y-19850D01*
X15900Y-20243D01*
X15962Y-20306D01*
X16095Y-20306D01*
X16194Y-20305D01*
X16286Y-20267D01*
X16357Y-20197D01*
X16376Y-20150D01*
X16407Y-20225D01*
X16478Y-20296D01*
X16569Y-20334D01*
X16669Y-20334D01*
X16812Y-20334D01*
X16875Y-20271D01*
X16875Y-21690D01*
X16629Y-21596D01*
X16331Y-21604D01*
X16091Y-21703D01*
X16040Y-21819D01*
X16500Y-22279D01*
X16959Y-21819D01*
X16959Y-21960D01*
X16570Y-22350D01*
X17030Y-22809D01*
X17146Y-22758D01*
X17253Y-22479D01*
X17253Y-23710D01*
X16959Y-23710D01*
X16959Y-22880D01*
X16500Y-22420D01*
X16429Y-22491D01*
X16429Y-22350D01*
X15969Y-21890D01*
X15853Y-21941D01*
X15800Y-22080D01*
X15800Y-20243D01*
X15800Y-19850D01*
X15367Y-19850D01*
X15305Y-19912D01*
X15304Y-20105D01*
X15342Y-20197D01*
X15413Y-20267D01*
X15505Y-20305D01*
X15604Y-20306D01*
X15737Y-20306D01*
X15800Y-20243D01*
X15800Y-22080D01*
X15746Y-22220D01*
X15754Y-22518D01*
X15853Y-22758D01*
X15969Y-22809D01*
X16429Y-22350D01*
X16429Y-22491D01*
X16040Y-22880D01*
X16091Y-22996D01*
X16370Y-23103D01*
X16668Y-23095D01*
X16908Y-22996D01*
X16959Y-22880D01*
X16959Y-23710D01*
X15550Y-23710D01*
X15550Y-21250D01*
X14349Y-21250D01*
X14349Y-20044D01*
X14349Y-18805D01*
X14349Y-18705D01*
X14311Y-18613D01*
X14240Y-18543D01*
X14148Y-18505D01*
X14018Y-18505D01*
X13956Y-18568D01*
X13956Y-19375D01*
X14286Y-19375D01*
X14349Y-19312D01*
X14349Y-18805D01*
X14349Y-20044D01*
X14349Y-19537D01*
X14286Y-19475D01*
X13956Y-19475D01*
X13956Y-20281D01*
X14018Y-20344D01*
X14148Y-20344D01*
X14240Y-20306D01*
X14311Y-20236D01*
X14349Y-20144D01*
X14349Y-20044D01*
X14349Y-21250D01*
X13856Y-21250D01*
X13856Y-20281D01*
X13856Y-19475D01*
X13856Y-19375D01*
X13856Y-18568D01*
X13793Y-18505D01*
X13664Y-18505D01*
X13572Y-18543D01*
X13501Y-18613D01*
X13463Y-18705D01*
X13463Y-18805D01*
X13463Y-19312D01*
X13526Y-19375D01*
X13856Y-19375D01*
X13856Y-19475D01*
X13526Y-19475D01*
X13463Y-19537D01*
X13463Y-20044D01*
X13463Y-20144D01*
X13501Y-20236D01*
X13572Y-20306D01*
X13664Y-20344D01*
X13793Y-20344D01*
X13856Y-20281D01*
X13856Y-21250D01*
X12600Y-21250D01*
X12600Y-17175D01*
X15375Y-17175D01*
X15375Y-17375D01*
X15628Y-17375D01*
X15608Y-17473D01*
X15628Y-17571D01*
X15609Y-17665D01*
X15284Y-17665D01*
X15169Y-17688D01*
X15072Y-17753D01*
X14631Y-18194D01*
X14566Y-18291D01*
X14543Y-18406D01*
X14543Y-18529D01*
X14509Y-18543D01*
X14438Y-18613D01*
X14400Y-18705D01*
X14400Y-18805D01*
X14400Y-20143D01*
X14438Y-20235D01*
X14508Y-20306D01*
X14600Y-20344D01*
X14700Y-20344D01*
X15085Y-20344D01*
X15177Y-20306D01*
X15248Y-20236D01*
X15286Y-20144D01*
X15286Y-20044D01*
X15286Y-18706D01*
X15248Y-18614D01*
X15178Y-18543D01*
X15144Y-18529D01*
X15375Y-18299D01*
X15375Y-18620D01*
X15343Y-18652D01*
X15305Y-18744D01*
X15304Y-18843D01*
X15304Y-19355D01*
X15333Y-19425D01*
X15304Y-19494D01*
X15305Y-19687D01*
X15367Y-19750D01*
X15800Y-19750D01*
X15800Y-19742D01*
X15900Y-19742D01*
X15900Y-19750D01*
X16332Y-19750D01*
X16373Y-19709D01*
X16432Y-19768D01*
X16875Y-19768D01*
X16875Y-19760D01*
X16975Y-19760D01*
X16975Y-19768D01*
X16982Y-19768D01*
X16982Y-19868D01*
X16975Y-19868D01*
X16975Y-20271D01*
X17037Y-20334D01*
X17180Y-20334D01*
X17280Y-20334D01*
X17371Y-20296D01*
X17394Y-20273D01*
X17394Y-20339D01*
X17432Y-20431D01*
X17503Y-20501D01*
X17595Y-20539D01*
X17694Y-20540D01*
X18062Y-20540D01*
X18125Y-20477D01*
X18125Y-20025D01*
X18117Y-20025D01*
X18117Y-19925D01*
X18125Y-19925D01*
X18125Y-19917D01*
X18225Y-19917D01*
X18225Y-19925D01*
X18892Y-19925D01*
X18955Y-19862D01*
X18955Y-19610D01*
X18917Y-19518D01*
X18873Y-19475D01*
X18875Y-19475D01*
X18875Y-19373D01*
X18916Y-19331D01*
X18954Y-19239D01*
X18955Y-19140D01*
X18955Y-18575D01*
X18998Y-18575D01*
X19008Y-18585D01*
X19165Y-18649D01*
X19334Y-18650D01*
X19490Y-18585D01*
X19500Y-18575D01*
X20710Y-18575D01*
X20710Y-21660D01*
X20710Y-21660D01*
G37*
G54D58*
X20710Y-21660D02*
X20322Y-21271D01*
X19789Y-21050D01*
X19212Y-21049D01*
X18955Y-21156D01*
X18955Y-20339D01*
X18955Y-20087D01*
X18892Y-20025D01*
X18225Y-20025D01*
X18225Y-20477D01*
X18287Y-20540D01*
X18655Y-20540D01*
X18754Y-20539D01*
X18846Y-20501D01*
X18917Y-20431D01*
X18955Y-20339D01*
X18955Y-21156D01*
X18679Y-21270D01*
X18271Y-21677D01*
X18050Y-22210D01*
X18049Y-22787D01*
X18270Y-23320D01*
X18659Y-23710D01*
X17253Y-23710D01*
X17253Y-22479D01*
X17245Y-22181D01*
X17146Y-21941D01*
X17030Y-21890D01*
X16959Y-21960D01*
X16959Y-21819D01*
X16908Y-21703D01*
X16875Y-21690D01*
X16875Y-20271D01*
X16875Y-19868D01*
X16432Y-19868D01*
X16391Y-19909D01*
X16332Y-19850D01*
X15900Y-19850D01*
X15900Y-20243D01*
X15962Y-20306D01*
X16095Y-20306D01*
X16194Y-20305D01*
X16286Y-20267D01*
X16357Y-20197D01*
X16376Y-20150D01*
X16407Y-20225D01*
X16478Y-20296D01*
X16569Y-20334D01*
X16669Y-20334D01*
X16812Y-20334D01*
X16875Y-20271D01*
X16875Y-21690D01*
X16629Y-21596D01*
X16331Y-21604D01*
X16091Y-21703D01*
X16040Y-21819D01*
X16500Y-22279D01*
X16959Y-21819D01*
X16959Y-21960D01*
X16570Y-22350D01*
X17030Y-22809D01*
X17146Y-22758D01*
X17253Y-22479D01*
X17253Y-23710D01*
X16959Y-23710D01*
X16959Y-22880D01*
X16500Y-22420D01*
X16429Y-22491D01*
X16429Y-22350D01*
X15969Y-21890D01*
X15853Y-21941D01*
X15800Y-22080D01*
X15800Y-20243D01*
X15800Y-19850D01*
X15367Y-19850D01*
X15305Y-19912D01*
X15304Y-20105D01*
X15342Y-20197D01*
X15413Y-20267D01*
X15505Y-20305D01*
X15604Y-20306D01*
X15737Y-20306D01*
X15800Y-20243D01*
X15800Y-22080D01*
X15746Y-22220D01*
X15754Y-22518D01*
X15853Y-22758D01*
X15969Y-22809D01*
X16429Y-22350D01*
X16429Y-22491D01*
X16040Y-22880D01*
X16091Y-22996D01*
X16370Y-23103D01*
X16668Y-23095D01*
X16908Y-22996D01*
X16959Y-22880D01*
X16959Y-23710D01*
X15550Y-23710D01*
X15550Y-21250D01*
X14349Y-21250D01*
X14349Y-20044D01*
X14349Y-18805D01*
X14349Y-18705D01*
X14311Y-18613D01*
X14240Y-18543D01*
X14148Y-18505D01*
X14018Y-18505D01*
X13956Y-18568D01*
X13956Y-19375D01*
X14286Y-19375D01*
X14349Y-19312D01*
X14349Y-18805D01*
X14349Y-20044D01*
X14349Y-19537D01*
X14286Y-19475D01*
X13956Y-19475D01*
X13956Y-20281D01*
X14018Y-20344D01*
X14148Y-20344D01*
X14240Y-20306D01*
X14311Y-20236D01*
X14349Y-20144D01*
X14349Y-20044D01*
X14349Y-21250D01*
X13856Y-21250D01*
X13856Y-20281D01*
X13856Y-19475D01*
X13856Y-19375D01*
X13856Y-18568D01*
X13793Y-18505D01*
X13664Y-18505D01*
X13572Y-18543D01*
X13501Y-18613D01*
X13463Y-18705D01*
X13463Y-18805D01*
X13463Y-19312D01*
X13526Y-19375D01*
X13856Y-19375D01*
X13856Y-19475D01*
X13526Y-19475D01*
X13463Y-19537D01*
X13463Y-20044D01*
X13463Y-20144D01*
X13501Y-20236D01*
X13572Y-20306D01*
X13664Y-20344D01*
X13793Y-20344D01*
X13856Y-20281D01*
X13856Y-21250D01*
X12600Y-21250D01*
X12600Y-17175D01*
X15375Y-17175D01*
X15375Y-17375D01*
X15628Y-17375D01*
X15608Y-17473D01*
X15628Y-17571D01*
X15609Y-17665D01*
X15284Y-17665D01*
X15169Y-17688D01*
X15072Y-17753D01*
X14631Y-18194D01*
X14566Y-18291D01*
X14543Y-18406D01*
X14543Y-18529D01*
X14509Y-18543D01*
X14438Y-18613D01*
X14400Y-18705D01*
X14400Y-18805D01*
X14400Y-20143D01*
X14438Y-20235D01*
X14508Y-20306D01*
X14600Y-20344D01*
X14700Y-20344D01*
X15085Y-20344D01*
X15177Y-20306D01*
X15248Y-20236D01*
X15286Y-20144D01*
X15286Y-20044D01*
X15286Y-18706D01*
X15248Y-18614D01*
X15178Y-18543D01*
X15144Y-18529D01*
X15375Y-18299D01*
X15375Y-18620D01*
X15343Y-18652D01*
X15305Y-18744D01*
X15304Y-18843D01*
X15304Y-19355D01*
X15333Y-19425D01*
X15304Y-19494D01*
X15305Y-19687D01*
X15367Y-19750D01*
X15800Y-19750D01*
X15800Y-19742D01*
X15900Y-19742D01*
X15900Y-19750D01*
X16332Y-19750D01*
X16373Y-19709D01*
X16432Y-19768D01*
X16875Y-19768D01*
X16875Y-19760D01*
X16975Y-19760D01*
X16975Y-19768D01*
X16982Y-19768D01*
X16982Y-19868D01*
X16975Y-19868D01*
X16975Y-20271D01*
X17037Y-20334D01*
X17180Y-20334D01*
X17280Y-20334D01*
X17371Y-20296D01*
X17394Y-20273D01*
X17394Y-20339D01*
X17432Y-20431D01*
X17503Y-20501D01*
X17595Y-20539D01*
X17694Y-20540D01*
X18062Y-20540D01*
X18125Y-20477D01*
X18125Y-20025D01*
X18117Y-20025D01*
X18117Y-19925D01*
X18125Y-19925D01*
X18125Y-19917D01*
X18225Y-19917D01*
X18225Y-19925D01*
X18892Y-19925D01*
X18955Y-19862D01*
X18955Y-19610D01*
X18917Y-19518D01*
X18873Y-19475D01*
X18875Y-19475D01*
X18875Y-19373D01*
X18916Y-19331D01*
X18954Y-19239D01*
X18955Y-19140D01*
X18955Y-18575D01*
X18998Y-18575D01*
X19008Y-18585D01*
X19165Y-18649D01*
X19334Y-18650D01*
X19490Y-18585D01*
X19500Y-18575D01*
X20710Y-18575D01*
X20710Y-21660D01*
M02*
