<?xml version="1.0" standalone="no"?>
 <!DOCTYPE svg PUBLIC "-//W3C//DTD SVG 1.1//EN" 
 "http://www.w3.org/Graphics/SVG/1.1/DTD/svg11.dtd"> 
<svg xmlns="http://www.w3.org/2000/svg" version="1.1" 
    width="29.7002cm" height="21.0007cm" viewBox="0 0 116930 82680 ">
<title>SVG Picture created as TiNA-Edge_Cuts.svg date 2013/12/06 17:26:11 </title>
  <desc>Picture generated by PCBNEW </desc>
<g style="fill:#000000; fill-opacity:1;stroke:#000000; stroke-opacity:1;
stroke-linecap:round; stroke-linejoin:round; "
 transform="translate(0 0) scale(1 1)">
</g>
<g style="fill:#000000; fill-opacity:0.0; 
stroke:#000000; stroke-width:10; stroke-opacity:1; 
stroke-linecap:round; stroke-linejoin:round;">
<path d="M4000 4000
L112930 4000
L112930 78680
L4000 78680
L4000 4000
" />
<path d="M4700 4700
L112230 4700
L112230 77980
L4700 77980
L4700 4700
" />
<path d="M25780 4000
L25780 4700
" />
<path d="M15032 4552
L14747 4552
" />
<path d="M14890 4552
L14890 4052
L14842 4123
L14794 4171
L14747 4195
" />
<path d="M25780 78680
L25780 77980
" />
<path d="M15032 78532
L14747 78532
" />
<path d="M14890 78532
L14890 78032
L14842 78103
L14794 78151
L14747 78175
" />
<path d="M47560 4000
L47560 4700
" />
<path d="M36527 4100
L36550 4076
L36598 4052
L36717 4052
L36765 4076
L36789 4100
L36812 4147
L36812 4195
L36789 4266
L36503 4552
L36812 4552
" />
<path d="M47560 78680
L47560 77980
" />
<path d="M36527 78080
L36550 78056
L36598 78032
L36717 78032
L36765 78056
L36789 78080
L36812 78127
L36812 78175
L36789 78246
L36503 78532
L36812 78532
" />
<path d="M69340 4000
L69340 4700
" />
<path d="M58283 4052
L58592 4052
L58426 4242
L58497 4242
L58545 4266
L58569 4290
L58592 4338
L58592 4457
L58569 4504
L58545 4528
L58497 4552
L58354 4552
L58307 4528
L58283 4504
" />
<path d="M69340 78680
L69340 77980
" />
<path d="M58283 78032
L58592 78032
L58426 78222
L58497 78222
L58545 78246
L58569 78270
L58592 78318
L58592 78437
L58569 78484
L58545 78508
L58497 78532
L58354 78532
L58307 78508
L58283 78484
" />
<path d="M91120 4000
L91120 4700
" />
<path d="M80325 4219
L80325 4552
" />
<path d="M80206 4028
L80087 4385
L80396 4385
" />
<path d="M91120 78680
L91120 77980
" />
<path d="M80325 78199
L80325 78532
" />
<path d="M80206 78008
L80087 78365
L80396 78365
" />
<path d="M102129 4052
L101890 4052
L101867 4290
L101890 4266
L101938 4242
L102057 4242
L102105 4266
L102129 4290
L102152 4338
L102152 4457
L102129 4504
L102105 4528
L102057 4552
L101938 4552
L101890 4528
L101867 4504
" />
<path d="M102129 78032
L101890 78032
L101867 78270
L101890 78246
L101938 78222
L102057 78222
L102105 78246
L102129 78270
L102152 78318
L102152 78437
L102129 78484
L102105 78508
L102057 78532
L101938 78532
L101890 78508
L101867 78484
" />
<path d="M4000 28890
L4700 28890
" />
<path d="M4230 16509
L4469 16509
" />
<path d="M4183 16652
L4350 16152
L4516 16652
" />
<path d="M112930 28890
L112230 28890
" />
<path d="M112460 16509
L112699 16509
" />
<path d="M112413 16652
L112580 16152
L112746 16652
" />
<path d="M4000 53780
L4700 53780
" />
<path d="M4385 41280
L4457 41304
L4480 41328
L4504 41375
L4504 41447
L4480 41494
L4457 41518
L4409 41542
L4219 41542
L4219 41042
L4385 41042
L4433 41066
L4457 41090
L4480 41137
L4480 41185
L4457 41232
L4433 41256
L4385 41280
L4219 41280
" />
<path d="M112930 53780
L112230 53780
" />
<path d="M112615 41280
L112687 41304
L112710 41328
L112734 41375
L112734 41447
L112710 41494
L112687 41518
L112639 41542
L112449 41542
L112449 41042
L112615 41042
L112663 41066
L112687 41090
L112710 41137
L112710 41185
L112687 41232
L112663 41256
L112615 41280
L112449 41280
" />
<path d="M4504 66384
L4480 66408
L4409 66432
L4361 66432
L4290 66408
L4242 66360
L4219 66313
L4195 66218
L4195 66146
L4219 66051
L4242 66003
L4290 65956
L4361 65932
L4409 65932
L4480 65956
L4504 65980
" />
<path d="M112734 66384
L112710 66408
L112639 66432
L112591 66432
L112520 66408
L112472 66360
L112449 66313
L112425 66218
L112425 66146
L112449 66051
L112472 66003
L112520 65956
L112591 65932
L112639 65932
L112710 65956
L112734 65980
" />
<path d="M79380 76422
L79455 75822
L79597 75822
L79680 75851
L79730 75908
L79751 75965
L79765 76080
L79755 76165
L79712 76280
L79676 76337
L79612 76394
L79522 76422
L79380 76422
" />
<path d="M80237 76422
L80276 76108
L80255 76051
L80201 76022
L80087 76022
L80026 76051
" />
<path d="M80240 76394
L80180 76422
L80037 76422
L79983 76394
L79962 76337
L79969 76280
L80005 76222
L80065 76194
L80208 76194
L80269 76165
" />
<path d="M80487 76022
L80715 76022
" />
<path d="M80597 75822
L80533 76337
L80555 76394
L80608 76422
L80665 76422
" />
<path d="M81097 76394
L81037 76422
L80922 76422
L80869 76394
L80847 76337
L80876 76108
L80912 76051
L80972 76022
L81087 76022
L81140 76051
L81162 76108
L81155 76165
L80862 76222
" />
<path d="M81387 76365
L81412 76394
L81380 76422
L81355 76394
L81387 76365
L81380 76422
" />
<path d="M81426 76051
L81451 76080
L81419 76108
L81394 76080
L81426 76051
L81419 76108
" />
<path d="M82455 75822
L82340 75822
L82279 75851
L82247 75880
L82180 75965
L82137 76080
L82108 76308
L82130 76365
L82155 76394
L82208 76422
L82322 76422
L82383 76394
L82415 76365
L82451 76308
L82469 76165
L82447 76108
L82422 76080
L82369 76051
L82254 76051
L82194 76080
L82162 76108
L82126 76165
" />
<path d="M83408 76422
L83483 75822
" />
<path d="M83412 76394
L83351 76422
L83237 76422
L83183 76394
L83158 76365
L83137 76308
L83158 76137
L83194 76080
L83226 76051
L83287 76022
L83401 76022
L83455 76051
" />
<path d="M83926 76394
L83865 76422
L83751 76422
L83697 76394
L83676 76337
L83705 76108
L83740 76051
L83801 76022
L83915 76022
L83969 76051
L83990 76108
L83983 76165
L83690 76222
" />
<path d="M84469 76394
L84408 76422
L84294 76422
L84240 76394
L84215 76365
L84194 76308
L84215 76137
L84251 76080
L84283 76051
L84344 76022
L84458 76022
L84512 76051
" />
<path d="M85219 75880
L85251 75851
L85312 75822
L85455 75822
L85508 75851
L85533 75880
L85555 75937
L85547 75994
L85508 76080
L85122 76422
L85494 76422
" />
<path d="M85940 75822
L85997 75822
L86051 75851
L86076 75880
L86097 75937
L86112 76051
L86094 76194
L86051 76308
L86015 76365
L85983 76394
L85922 76422
L85865 76422
L85812 76394
L85787 76365
L85765 76308
L85751 76194
L85769 76051
L85812 75937
L85847 75880
L85880 75851
L85940 75822
" />
<path d="M86637 76422
L86294 76422
" />
<path d="M86465 76422
L86540 75822
L86472 75908
L86408 75965
L86347 75994
" />
<path d="M86912 75822
L87283 75822
L87055 76051
L87140 76051
L87194 76080
L87219 76108
L87240 76165
L87222 76308
L87187 76365
L87155 76394
L87094 76422
L86922 76422
L86869 76394
L86844 76365
" />
<path d="M70972 77622
L70972 77022
" />
<path d="M71315 77622
L71058 77280
" />
<path d="M71315 77022
L70972 77365
" />
<path d="M71572 77622
L71572 77222
" />
<path d="M71572 77022
L71544 77051
L71572 77080
L71601 77051
L71572 77022
L71572 77080
" />
<path d="M72201 77565
L72172 77594
L72087 77622
L72030 77622
L71944 77594
L71887 77537
L71858 77480
L71830 77365
L71830 77280
L71858 77165
L71887 77108
L71944 77051
L72030 77022
L72087 77022
L72172 77051
L72201 77080
" />
<path d="M72715 77622
L72715 77308
L72687 77251
L72630 77222
L72515 77222
L72458 77251
" />
<path d="M72715 77594
L72658 77622
L72515 77622
L72458 77594
L72430 77537
L72430 77480
L72458 77422
L72515 77394
L72658 77394
L72715 77365
" />
<path d="M73258 77622
L73258 77022
" />
<path d="M73258 77594
L73201 77622
L73087 77622
L73030 77594
L73001 77565
L72972 77508
L72972 77337
L73001 77280
L73030 77251
L73087 77222
L73201 77222
L73258 77251
" />
<path d="M74001 77308
L74201 77308
" />
<path d="M74287 77622
L74001 77622
L74001 77022
L74287 77022
" />
<path d="M74544 77565
L74572 77594
L74544 77622
L74515 77594
L74544 77565
L74544 77622
" />
<path d="M74829 77622
L74829 77022
L74972 77022
L75058 77051
L75115 77108
L75144 77165
L75172 77280
L75172 77365
L75144 77480
L75115 77537
L75058 77594
L74972 77622
L74829 77622
" />
<path d="M75429 77565
L75458 77594
L75429 77622
L75401 77594
L75429 77565
L75429 77622
" />
<path d="M75687 77451
L75972 77451
" />
<path d="M75629 77622
L75829 77022
L76029 77622
" />
<path d="M76229 77565
L76258 77594
L76229 77622
L76201 77594
L76229 77565
L76229 77622
" />
<path d="M104522 76422
L104358 76137
" />
<path d="M104180 76422
L104255 75822
L104483 75822
L104537 75851
L104562 75880
L104583 75937
L104572 76022
L104537 76080
L104505 76108
L104444 76137
L104215 76137
" />
<path d="M105012 76394
L104951 76422
L104837 76422
L104783 76394
L104762 76337
L104790 76108
L104826 76051
L104887 76022
L105001 76022
L105055 76051
L105076 76108
L105069 76165
L104776 76222
" />
<path d="M105287 76022
L105380 76422
L105572 76022
" />
<path d="M105758 76365
L105783 76394
L105751 76422
L105726 76394
L105758 76365
L105751 76422
" />
<path d="M105797 76051
L105822 76080
L105790 76108
L105765 76080
L105797 76051
L105790 76108
" />
<path d="M70944 76394
L71030 76422
L71172 76422
L71230 76394
L71258 76365
L71287 76308
L71287 76251
L71258 76194
L71230 76165
L71172 76137
L71058 76108
L71001 76080
L70972 76051
L70944 75994
L70944 75937
L70972 75880
L71001 75851
L71058 75822
L71201 75822
L71287 75851
" />
<path d="M71544 76422
L71544 76022
" />
<path d="M71544 75822
L71515 75851
L71544 75880
L71572 75851
L71544 75822
L71544 75880
" />
<path d="M71772 76022
L72087 76022
L71772 76422
L72087 76422
" />
<path d="M72544 76394
L72487 76422
L72372 76422
L72315 76394
L72287 76337
L72287 76108
L72315 76051
L72372 76022
L72487 76022
L72544 76051
L72572 76108
L72572 76165
L72287 76222
" />
<path d="M72830 76365
L72858 76394
L72830 76422
L72801 76394
L72830 76365
L72830 76422
" />
<path d="M72830 76051
L72858 76080
L72830 76108
L72801 76080
L72830 76051
L72830 76108
" />
<path d="M73544 76251
L73830 76251
" />
<path d="M73487 76422
L73687 75822
L73887 76422
" />
<path d="M74344 76022
L74344 76422
" />
<path d="M74201 75794
L74058 76222
L74430 76222
" />
<path d="M104172 77622
L104172 77022
" />
<path d="M104715 77622
L104715 77022
" />
<path d="M104715 77594
L104658 77622
L104544 77622
L104487 77594
L104458 77565
L104430 77508
L104430 77337
L104458 77280
L104487 77251
L104544 77222
L104658 77222
L104715 77251
" />
<path d="M105001 77565
L105030 77594
L105001 77622
L104972 77594
L105001 77565
L105001 77622
" />
<path d="M105001 77251
L105030 77280
L105001 77308
L104972 77280
L105001 77251
L105001 77308
" />
<path d="M106058 77622
L105715 77622
" />
<path d="M105887 77622
L105887 77022
L105829 77108
L105772 77165
L105715 77194
" />
<path d="M106744 76994
L106230 77765
" />
<path d="M107258 77622
L106915 77622
" />
<path d="M107087 77622
L107087 77022
L107029 77108
L106972 77165
L106915 77194
" />
<path d="M70969 74622
L71312 74622
" />
<path d="M71065 75222
L71140 74622
" />
<path d="M71437 75222
L71487 74822
" />
<path d="M71512 74622
L71480 74651
L71505 74680
L71537 74651
L71512 74622
L71505 74680
" />
<path d="M71687 74822
L71915 74822
" />
<path d="M71797 74622
L71733 75137
L71755 75194
L71808 75222
L71865 75222
" />
<path d="M72151 75222
L72097 75194
L72076 75137
L72140 74622
" />
<path d="M72612 75194
L72551 75222
L72437 75222
L72383 75194
L72362 75137
L72390 74908
L72426 74851
L72487 74822
L72601 74822
L72655 74851
L72676 74908
L72669 74965
L72376 75022
" />
<path d="M72901 75165
L72926 75194
L72894 75222
L72869 75194
L72901 75165
L72894 75222
" />
<path d="M72940 74851
L72965 74880
L72933 74908
L72908 74880
L72940 74851
L72933 74908
" />
<path d="M73626 74622
L73969 74622
" />
<path d="M73722 75222
L73797 74622
" />
<path d="M74094 75222
L74144 74822
" />
<path d="M74169 74622
L74137 74651
L74162 74680
L74194 74651
L74169 74622
L74162 74680
" />
<path d="M74380 75222
L74455 74622
L74722 75222
L74797 74622
" />
<path d="M75001 75051
L75287 75051
" />
<path d="M74922 75222
L75197 74622
L75322 75222
" />
<path d="M76008 74994
L76465 74994
" />
<path d="M77530 75165
L77497 75194
L77408 75222
L77351 75222
L77269 75194
L77219 75137
L77197 75080
L77183 74965
L77194 74880
L77237 74765
L77272 74708
L77337 74651
L77426 74622
L77483 74622
L77565 74651
L77590 74680
" />
<path d="M77865 75222
L77812 75194
L77787 75165
L77765 75108
L77787 74937
L77822 74880
L77855 74851
L77915 74822
L78001 74822
L78055 74851
L78080 74880
L78101 74937
L78080 75108
L78044 75165
L78012 75194
L77951 75222
L77865 75222
" />
<path d="M78372 74822
L78322 75222
" />
<path d="M78365 74880
L78397 74851
L78458 74822
L78544 74822
L78597 74851
L78619 74908
L78580 75222
" />
<path d="M78830 74822
L79058 74822
" />
<path d="M78940 74622
L78876 75137
L78897 75194
L78951 75222
L79008 75222
" />
<path d="M79208 75222
L79258 74822
" />
<path d="M79244 74937
L79280 74880
L79312 74851
L79372 74822
L79430 74822
" />
<path d="M79665 75222
L79612 75194
L79587 75165
L79565 75108
L79587 74937
L79622 74880
L79655 74851
L79715 74822
L79801 74822
L79855 74851
L79880 74880
L79901 74937
L79880 75108
L79844 75165
L79812 75194
L79751 75222
L79665 75222
" />
<path d="M80208 75222
L80155 75194
L80133 75137
L80197 74622
" />
<path d="M80522 75222
L80469 75194
L80447 75137
L80512 74622
" />
<path d="M80983 75194
L80922 75222
L80808 75222
L80755 75194
L80733 75137
L80762 74908
L80797 74851
L80858 74822
L80972 74822
L81026 74851
L81047 74908
L81040 74965
L80747 75022
" />
<path d="M81265 75222
L81315 74822
" />
<path d="M81301 74937
L81337 74880
L81369 74851
L81430 74822
L81487 74822
" />
<path d="M82058 74822
L82287 74822
" />
<path d="M82094 75222
L82158 74708
L82194 74651
L82255 74622
L82312 74622
" />
<path d="M82522 75222
L82469 75194
L82444 75165
L82422 75108
L82444 74937
L82480 74880
L82512 74851
L82572 74822
L82658 74822
L82712 74851
L82737 74880
L82758 74937
L82737 75108
L82701 75165
L82669 75194
L82608 75222
L82522 75222
" />
<path d="M82980 75222
L83030 74822
" />
<path d="M83015 74937
L83051 74880
L83083 74851
L83144 74822
L83201 74822
" />
<path d="M83797 74622
L84140 74622
" />
<path d="M83894 75222
L83969 74622
" />
<path d="M84265 75222
L84315 74822
" />
<path d="M84340 74622
L84308 74651
L84333 74680
L84365 74651
L84340 74622
L84333 74680
" />
<path d="M84551 75222
L84626 74622
L84772 75051
L85026 74622
L84951 75222
" />
<path d="M71172 72508
L70972 72508
" />
<path d="M70972 72822
L70972 72222
L71258 72222
" />
<path d="M71487 72822
L71487 72422
" />
<path d="M71487 72222
L71458 72251
L71487 72280
L71515 72251
L71487 72222
L71487 72280
" />
<path d="M71858 72822
L71801 72794
L71772 72737
L71772 72222
" />
<path d="M72315 72794
L72258 72822
L72144 72822
L72087 72794
L72058 72737
L72058 72508
L72087 72451
L72144 72422
L72258 72422
L72315 72451
L72344 72508
L72344 72565
L72058 72622
" />
<path d="M72601 72765
L72630 72794
L72601 72822
L72572 72794
L72601 72765
L72601 72822
" />
<path d="M72601 72451
L72630 72480
L72601 72508
L72572 72480
L72601 72451
L72601 72508
" />
<path d="M73258 72222
L73601 72222
" />
<path d="M73430 72822
L73430 72222
" />
<path d="M73801 72822
L73801 72422
" />
<path d="M73801 72222
L73772 72251
L73801 72280
L73830 72251
L73801 72222
L73801 72280
" />
<path d="M74087 72822
L74087 72222
L74430 72822
L74430 72222
" />
<path d="M74687 72651
L74972 72651
" />
<path d="M74630 72822
L74830 72222
L75030 72822
" />
<path d="M75230 72765
L75258 72794
L75230 72822
L75201 72794
L75230 72765
L75230 72822
" />
<path d="M75515 72822
L75515 72222
" />
<path d="M75572 72594
L75744 72822
" />
<path d="M75744 72422
L75515 72651
" />
<path d="M76001 72822
L76001 72422
" />
<path d="M76001 72222
L75972 72251
L76001 72280
L76030 72251
L76001 72222
L76001 72280
" />
<path d="M76544 72794
L76487 72822
L76372 72822
L76315 72794
L76287 72765
L76258 72708
L76258 72537
L76287 72480
L76315 72451
L76372 72422
L76487 72422
L76544 72451
" />
<path d="M77058 72822
L77058 72508
L77030 72451
L76972 72422
L76858 72422
L76801 72451
" />
<path d="M77058 72794
L77001 72822
L76858 72822
L76801 72794
L76772 72737
L76772 72680
L76801 72622
L76858 72594
L77001 72594
L77058 72565
" />
<path d="M77601 72822
L77601 72222
" />
<path d="M77601 72794
L77544 72822
L77429 72822
L77372 72794
L77344 72765
L77315 72708
L77315 72537
L77344 72480
L77372 72451
L77429 72422
L77544 72422
L77601 72451
" />
<path d="M77744 72880
L78201 72880
" />
<path d="M78344 72422
L78344 73022
" />
<path d="M78344 72451
L78401 72422
L78515 72422
L78572 72451
L78601 72480
L78629 72537
L78629 72708
L78601 72765
L78572 72794
L78515 72822
L78401 72822
L78344 72794
" />
<path d="M79144 72794
L79087 72822
L78972 72822
L78915 72794
L78887 72765
L78858 72708
L78858 72537
L78887 72480
L78915 72451
L78972 72422
L79087 72422
L79144 72451
" />
<path d="M79401 72822
L79401 72222
" />
<path d="M79401 72451
L79458 72422
L79572 72422
L79630 72451
L79658 72480
L79687 72537
L79687 72708
L79658 72765
L79630 72794
L79572 72822
L79458 72822
L79401 72794
" />
<path d="M70944 73994
L71030 74022
L71172 74022
L71230 73994
L71258 73965
L71287 73908
L71287 73851
L71258 73794
L71230 73765
L71172 73737
L71058 73708
L71001 73680
L70972 73651
L70944 73594
L70944 73537
L70972 73480
L71001 73451
L71058 73422
L71201 73422
L71287 73451
" />
<path d="M71544 74022
L71544 73422
" />
<path d="M71801 74022
L71801 73708
L71772 73651
L71715 73622
L71630 73622
L71572 73651
L71544 73680
" />
<path d="M72315 73994
L72258 74022
L72144 74022
L72087 73994
L72058 73937
L72058 73708
L72087 73651
L72144 73622
L72258 73622
L72315 73651
L72344 73708
L72344 73765
L72058 73822
" />
<path d="M72830 73994
L72772 74022
L72658 74022
L72601 73994
L72572 73937
L72572 73708
L72601 73651
L72658 73622
L72772 73622
L72830 73651
L72858 73708
L72858 73765
L72572 73822
" />
<path d="M73030 73622
L73258 73622
" />
<path d="M73115 73422
L73115 73937
L73144 73994
L73201 74022
L73258 74022
" />
<path d="M73458 73965
L73487 73994
L73458 74022
L73430 73994
L73458 73965
L73458 74022
" />
<path d="M73458 73651
L73487 73680
L73458 73708
L73430 73680
L73458 73651
L73458 73708
" />
<path d="M70997 71022
L71065 71622
L71233 71194
L71294 71622
L71512 71022
" />
<path d="M71658 71222
L71751 71622
" />
<path d="M71944 71222
L71751 71622
L71676 71765
L71644 71794
L71583 71822
" />
<path d="M72208 71622
L72155 71594
L72130 71565
L72108 71508
L72130 71337
L72165 71280
L72197 71251
L72258 71222
L72344 71222
L72397 71251
L72422 71280
L72444 71337
L72422 71508
L72387 71565
L72355 71594
L72294 71622
L72208 71622
" />
<path d="M72951 71622
L72665 71622
L72740 71022
" />
<path d="M73458 71222
L73408 71622
" />
<path d="M73201 71222
L73162 71537
L73183 71594
L73237 71622
L73322 71622
L73383 71594
L73415 71565
" />
<path d="M73694 71622
L73744 71222
" />
<path d="M73737 71280
L73769 71251
L73829 71222
L73915 71222
L73969 71251
L73990 71308
L73951 71622
" />
<path d="M73990 71308
L74026 71251
L74087 71222
L74172 71222
L74226 71251
L74247 71308
L74208 71622
" />
<path d="M70915 70022
L71030 70422
L71144 70137
L71258 70422
L71372 70022
" />
<path d="M71544 70022
L71658 70422
L71772 70137
L71887 70422
L72001 70022
" />
<path d="M72172 70022
L72287 70422
L72401 70137
L72515 70422
L72629 70022
" />
<path d="M72858 70365
L72887 70394
L72858 70422
L72829 70394
L72858 70365
L72858 70422
" />
<path d="M73087 70022
L73201 70422
L73315 70137
L73429 70422
L73544 70022
" />
<path d="M73715 70022
L73858 70422
" />
<path d="M74001 70022
L73858 70422
L73801 70565
L73772 70594
L73715 70622
" />
<path d="M74315 70422
L74258 70394
L74229 70365
L74201 70308
L74201 70137
L74229 70080
L74258 70051
L74315 70022
L74401 70022
L74458 70051
L74487 70080
L74515 70137
L74515 70308
L74487 70365
L74458 70394
L74401 70422
L74315 70422
" />
<path d="M74858 70422
L74801 70394
L74772 70337
L74772 69822
" />
<path d="M75344 70022
L75344 70422
" />
<path d="M75087 70022
L75087 70337
L75115 70394
L75172 70422
L75258 70422
L75315 70394
L75344 70365
" />
<path d="M75629 70422
L75629 70022
" />
<path d="M75629 70080
L75658 70051
L75715 70022
L75801 70022
L75858 70051
L75887 70108
L75887 70422
" />
<path d="M75887 70108
L75915 70051
L75972 70022
L76058 70022
L76115 70051
L76144 70108
L76144 70422
" />
<path d="M76429 70365
L76458 70394
L76429 70422
L76401 70394
L76429 70365
L76429 70422
" />
<path d="M76972 70394
L76915 70422
L76801 70422
L76744 70394
L76715 70365
L76687 70308
L76687 70137
L76715 70080
L76744 70051
L76801 70022
L76915 70022
L76972 70051
" />
<path d="M77315 70422
L77258 70394
L77229 70365
L77201 70308
L77201 70137
L77229 70080
L77258 70051
L77315 70022
L77401 70022
L77458 70051
L77487 70080
L77515 70137
L77515 70308
L77487 70365
L77458 70394
L77401 70422
L77315 70422
" />
<path d="M77772 70422
L77772 70022
" />
<path d="M77772 70080
L77801 70051
L77858 70022
L77944 70022
L78001 70051
L78029 70108
L78029 70422
" />
<path d="M78029 70108
L78058 70051
L78115 70022
L78201 70022
L78258 70051
L78287 70108
L78287 70422
" />
<path d="M70230 69580
L70230 77980
" />
<path d="M70230 71980
L112230 71980
" />
<path d="M70230 69580
L112230 69580
" />
<path d="M70230 74380
L112230 74380
" />
<path d="M103430 75580
L103430 77980
" />
<path d="M70230 76780
L112230 76780
" />
<path d="M70230 75580
L112230 75580
" />
<path d="M76830 75580
L76830 76780
" />
</g>
<g style="fill:#000000; fill-opacity:0.0; 
stroke:#000000; stroke-width:78.7402; stroke-opacity:1; 
stroke-linecap:round; stroke-linejoin:round;">
<path d="M19500 10000
L11500 10000
" />
<path d="M21000 22500
L21000 11500
" />
<path d="M11500 24000
L19500 24000
" />
<path d="M10000 11500
L10000 22500
" />
<path d="M11500 10000 A1500 1500 0.0 0 0 10000 11500 " />
<path d="M21000 11500 A1500 1500 0.0 0 0 19500 10000 " />
<path d="M19500 24000 A1500 1500 0.0 0 0 21000 22500 " />
<path d="M10000 22500 A1500 1500 0.0 0 0 11500 24000 " />
<path d="M58000 26800
L58000 45675
" />
<path d="M58000 47800
L58000 46925
" />
<path d="M11500 49300
L56500 49300
" />
<path d="M10000 47800
L10000 46925
" />
<path d="M10000 26800
L10000 45675
" />
<path d="M56500 25300
L11500 25300
" />
<path d="M58000 26800 A1500 1500 0.0 0 0 56500 25300 " />
<path d="M56500 49300 A1500 1500 0.0 0 0 58000 47800 " />
<path d="M10000 47800 A1500 1500 0.0 0 0 11500 49300 " />
<path d="M11500 25300 A1500 1500 0.0 0 0 10000 26800 " />
<path d="M46900 10000
L46900 24000
" />
<path d="M34600 10000
L34600 24000
" />
<path d="M58000 24000
L46900 24000
" />
<path d="M58000 10000
L58000 24000
" />
<path d="M46900 10000
L58000 10000
" />
<path d="M45700 24000
L34600 24000
" />
<path d="M45700 10000
L45700 24000
" />
<path d="M34600 10000
L45700 10000
" />
<path d="M33400 24000
L22300 24000
" />
<path d="M33400 10000
L33400 24000
" />
<path d="M22300 10000
L33400 10000
" />
<path d="M57375 46300 A625 625 0.0 0 0 58000 46925 " />
<path d="M58000 45675 A625 625 0.0 0 0 57375 46300 " />
<path d="M10000 46925 A625 625 0.0 0 0 10625 46300 " />
<path d="M10625 46300 A625 625 0.0 0 0 10000 45675 " />
<path d="M22300 24000
L22300 10000
" />
</g> 
</svg>
