<?xml version="1.0" standalone="no"?>
 <!DOCTYPE svg PUBLIC "-//W3C//DTD SVG 1.1//EN" 
 "http://www.w3.org/Graphics/SVG/1.1/DTD/svg11.dtd"> 
<svg xmlns="http://www.w3.org/2000/svg" version="1.1" 
    width="29.7002cm" height="21.0007cm" viewBox="0 0 116930 82680 ">
<title>SVG Picture created as TiNA-B_SilkS.svg date 2013/12/06 17:26:10 </title>
  <desc>Picture generated by PCBNEW </desc>
<g style="fill:#000000; fill-opacity:1;stroke:#000000; stroke-opacity:1;
stroke-linecap:round; stroke-linejoin:round; "
 transform="translate(0 0) scale(1 1)">
</g>
<g style="fill:#000000; fill-opacity:0.0; 
stroke:#000000; stroke-width:10; stroke-opacity:1; 
stroke-linecap:round; stroke-linejoin:round;">
<path d="M4000 4000
L112930 4000
L112930 78680
L4000 78680
L4000 4000
" />
<path d="M4700 4700
L112230 4700
L112230 77980
L4700 77980
L4700 4700
" />
<path d="M25780 4000
L25780 4700
" />
<path d="M15032 4552
L14747 4552
" />
<path d="M14890 4552
L14890 4052
L14842 4123
L14794 4171
L14747 4195
" />
<path d="M25780 78680
L25780 77980
" />
<path d="M15032 78532
L14747 78532
" />
<path d="M14890 78532
L14890 78032
L14842 78103
L14794 78151
L14747 78175
" />
<path d="M47560 4000
L47560 4700
" />
<path d="M36527 4100
L36550 4076
L36598 4052
L36717 4052
L36765 4076
L36789 4100
L36812 4147
L36812 4195
L36789 4266
L36503 4552
L36812 4552
" />
<path d="M47560 78680
L47560 77980
" />
<path d="M36527 78080
L36550 78056
L36598 78032
L36717 78032
L36765 78056
L36789 78080
L36812 78127
L36812 78175
L36789 78246
L36503 78532
L36812 78532
" />
<path d="M69340 4000
L69340 4700
" />
<path d="M58283 4052
L58592 4052
L58426 4242
L58497 4242
L58545 4266
L58569 4290
L58592 4338
L58592 4457
L58569 4504
L58545 4528
L58497 4552
L58354 4552
L58307 4528
L58283 4504
" />
<path d="M69340 78680
L69340 77980
" />
<path d="M58283 78032
L58592 78032
L58426 78222
L58497 78222
L58545 78246
L58569 78270
L58592 78318
L58592 78437
L58569 78484
L58545 78508
L58497 78532
L58354 78532
L58307 78508
L58283 78484
" />
<path d="M91120 4000
L91120 4700
" />
<path d="M80325 4219
L80325 4552
" />
<path d="M80206 4028
L80087 4385
L80396 4385
" />
<path d="M91120 78680
L91120 77980
" />
<path d="M80325 78199
L80325 78532
" />
<path d="M80206 78008
L80087 78365
L80396 78365
" />
<path d="M102129 4052
L101890 4052
L101867 4290
L101890 4266
L101938 4242
L102057 4242
L102105 4266
L102129 4290
L102152 4338
L102152 4457
L102129 4504
L102105 4528
L102057 4552
L101938 4552
L101890 4528
L101867 4504
" />
<path d="M102129 78032
L101890 78032
L101867 78270
L101890 78246
L101938 78222
L102057 78222
L102105 78246
L102129 78270
L102152 78318
L102152 78437
L102129 78484
L102105 78508
L102057 78532
L101938 78532
L101890 78508
L101867 78484
" />
<path d="M4000 28890
L4700 28890
" />
<path d="M4230 16509
L4469 16509
" />
<path d="M4183 16652
L4350 16152
L4516 16652
" />
<path d="M112930 28890
L112230 28890
" />
<path d="M112460 16509
L112699 16509
" />
<path d="M112413 16652
L112580 16152
L112746 16652
" />
<path d="M4000 53780
L4700 53780
" />
<path d="M4385 41280
L4457 41304
L4480 41328
L4504 41375
L4504 41447
L4480 41494
L4457 41518
L4409 41542
L4219 41542
L4219 41042
L4385 41042
L4433 41066
L4457 41090
L4480 41137
L4480 41185
L4457 41232
L4433 41256
L4385 41280
L4219 41280
" />
<path d="M112930 53780
L112230 53780
" />
<path d="M112615 41280
L112687 41304
L112710 41328
L112734 41375
L112734 41447
L112710 41494
L112687 41518
L112639 41542
L112449 41542
L112449 41042
L112615 41042
L112663 41066
L112687 41090
L112710 41137
L112710 41185
L112687 41232
L112663 41256
L112615 41280
L112449 41280
" />
<path d="M4504 66384
L4480 66408
L4409 66432
L4361 66432
L4290 66408
L4242 66360
L4219 66313
L4195 66218
L4195 66146
L4219 66051
L4242 66003
L4290 65956
L4361 65932
L4409 65932
L4480 65956
L4504 65980
" />
<path d="M112734 66384
L112710 66408
L112639 66432
L112591 66432
L112520 66408
L112472 66360
L112449 66313
L112425 66218
L112425 66146
L112449 66051
L112472 66003
L112520 65956
L112591 65932
L112639 65932
L112710 65956
L112734 65980
" />
<path d="M79380 76422
L79455 75822
L79597 75822
L79680 75851
L79730 75908
L79751 75965
L79765 76080
L79755 76165
L79712 76280
L79676 76337
L79612 76394
L79522 76422
L79380 76422
" />
<path d="M80237 76422
L80276 76108
L80255 76051
L80201 76022
L80087 76022
L80026 76051
" />
<path d="M80240 76394
L80180 76422
L80037 76422
L79983 76394
L79962 76337
L79969 76280
L80005 76222
L80065 76194
L80208 76194
L80269 76165
" />
<path d="M80487 76022
L80715 76022
" />
<path d="M80597 75822
L80533 76337
L80555 76394
L80608 76422
L80665 76422
" />
<path d="M81097 76394
L81037 76422
L80922 76422
L80869 76394
L80847 76337
L80876 76108
L80912 76051
L80972 76022
L81087 76022
L81140 76051
L81162 76108
L81155 76165
L80862 76222
" />
<path d="M81387 76365
L81412 76394
L81380 76422
L81355 76394
L81387 76365
L81380 76422
" />
<path d="M81426 76051
L81451 76080
L81419 76108
L81394 76080
L81426 76051
L81419 76108
" />
<path d="M82455 75822
L82340 75822
L82279 75851
L82247 75880
L82180 75965
L82137 76080
L82108 76308
L82130 76365
L82155 76394
L82208 76422
L82322 76422
L82383 76394
L82415 76365
L82451 76308
L82469 76165
L82447 76108
L82422 76080
L82369 76051
L82254 76051
L82194 76080
L82162 76108
L82126 76165
" />
<path d="M83408 76422
L83483 75822
" />
<path d="M83412 76394
L83351 76422
L83237 76422
L83183 76394
L83158 76365
L83137 76308
L83158 76137
L83194 76080
L83226 76051
L83287 76022
L83401 76022
L83455 76051
" />
<path d="M83926 76394
L83865 76422
L83751 76422
L83697 76394
L83676 76337
L83705 76108
L83740 76051
L83801 76022
L83915 76022
L83969 76051
L83990 76108
L83983 76165
L83690 76222
" />
<path d="M84469 76394
L84408 76422
L84294 76422
L84240 76394
L84215 76365
L84194 76308
L84215 76137
L84251 76080
L84283 76051
L84344 76022
L84458 76022
L84512 76051
" />
<path d="M85219 75880
L85251 75851
L85312 75822
L85455 75822
L85508 75851
L85533 75880
L85555 75937
L85547 75994
L85508 76080
L85122 76422
L85494 76422
" />
<path d="M85940 75822
L85997 75822
L86051 75851
L86076 75880
L86097 75937
L86112 76051
L86094 76194
L86051 76308
L86015 76365
L85983 76394
L85922 76422
L85865 76422
L85812 76394
L85787 76365
L85765 76308
L85751 76194
L85769 76051
L85812 75937
L85847 75880
L85880 75851
L85940 75822
" />
<path d="M86637 76422
L86294 76422
" />
<path d="M86465 76422
L86540 75822
L86472 75908
L86408 75965
L86347 75994
" />
<path d="M86912 75822
L87283 75822
L87055 76051
L87140 76051
L87194 76080
L87219 76108
L87240 76165
L87222 76308
L87187 76365
L87155 76394
L87094 76422
L86922 76422
L86869 76394
L86844 76365
" />
<path d="M70972 77622
L70972 77022
" />
<path d="M71315 77622
L71058 77280
" />
<path d="M71315 77022
L70972 77365
" />
<path d="M71572 77622
L71572 77222
" />
<path d="M71572 77022
L71544 77051
L71572 77080
L71601 77051
L71572 77022
L71572 77080
" />
<path d="M72201 77565
L72172 77594
L72087 77622
L72030 77622
L71944 77594
L71887 77537
L71858 77480
L71830 77365
L71830 77280
L71858 77165
L71887 77108
L71944 77051
L72030 77022
L72087 77022
L72172 77051
L72201 77080
" />
<path d="M72715 77622
L72715 77308
L72687 77251
L72630 77222
L72515 77222
L72458 77251
" />
<path d="M72715 77594
L72658 77622
L72515 77622
L72458 77594
L72430 77537
L72430 77480
L72458 77422
L72515 77394
L72658 77394
L72715 77365
" />
<path d="M73258 77622
L73258 77022
" />
<path d="M73258 77594
L73201 77622
L73087 77622
L73030 77594
L73001 77565
L72972 77508
L72972 77337
L73001 77280
L73030 77251
L73087 77222
L73201 77222
L73258 77251
" />
<path d="M74001 77308
L74201 77308
" />
<path d="M74287 77622
L74001 77622
L74001 77022
L74287 77022
" />
<path d="M74544 77565
L74572 77594
L74544 77622
L74515 77594
L74544 77565
L74544 77622
" />
<path d="M74829 77622
L74829 77022
L74972 77022
L75058 77051
L75115 77108
L75144 77165
L75172 77280
L75172 77365
L75144 77480
L75115 77537
L75058 77594
L74972 77622
L74829 77622
" />
<path d="M75429 77565
L75458 77594
L75429 77622
L75401 77594
L75429 77565
L75429 77622
" />
<path d="M75687 77451
L75972 77451
" />
<path d="M75629 77622
L75829 77022
L76029 77622
" />
<path d="M76229 77565
L76258 77594
L76229 77622
L76201 77594
L76229 77565
L76229 77622
" />
<path d="M104522 76422
L104358 76137
" />
<path d="M104180 76422
L104255 75822
L104483 75822
L104537 75851
L104562 75880
L104583 75937
L104572 76022
L104537 76080
L104505 76108
L104444 76137
L104215 76137
" />
<path d="M105012 76394
L104951 76422
L104837 76422
L104783 76394
L104762 76337
L104790 76108
L104826 76051
L104887 76022
L105001 76022
L105055 76051
L105076 76108
L105069 76165
L104776 76222
" />
<path d="M105287 76022
L105380 76422
L105572 76022
" />
<path d="M105758 76365
L105783 76394
L105751 76422
L105726 76394
L105758 76365
L105751 76422
" />
<path d="M105797 76051
L105822 76080
L105790 76108
L105765 76080
L105797 76051
L105790 76108
" />
<path d="M70944 76394
L71030 76422
L71172 76422
L71230 76394
L71258 76365
L71287 76308
L71287 76251
L71258 76194
L71230 76165
L71172 76137
L71058 76108
L71001 76080
L70972 76051
L70944 75994
L70944 75937
L70972 75880
L71001 75851
L71058 75822
L71201 75822
L71287 75851
" />
<path d="M71544 76422
L71544 76022
" />
<path d="M71544 75822
L71515 75851
L71544 75880
L71572 75851
L71544 75822
L71544 75880
" />
<path d="M71772 76022
L72087 76022
L71772 76422
L72087 76422
" />
<path d="M72544 76394
L72487 76422
L72372 76422
L72315 76394
L72287 76337
L72287 76108
L72315 76051
L72372 76022
L72487 76022
L72544 76051
L72572 76108
L72572 76165
L72287 76222
" />
<path d="M72830 76365
L72858 76394
L72830 76422
L72801 76394
L72830 76365
L72830 76422
" />
<path d="M72830 76051
L72858 76080
L72830 76108
L72801 76080
L72830 76051
L72830 76108
" />
<path d="M73544 76251
L73830 76251
" />
<path d="M73487 76422
L73687 75822
L73887 76422
" />
<path d="M74344 76022
L74344 76422
" />
<path d="M74201 75794
L74058 76222
L74430 76222
" />
<path d="M104172 77622
L104172 77022
" />
<path d="M104715 77622
L104715 77022
" />
<path d="M104715 77594
L104658 77622
L104544 77622
L104487 77594
L104458 77565
L104430 77508
L104430 77337
L104458 77280
L104487 77251
L104544 77222
L104658 77222
L104715 77251
" />
<path d="M105001 77565
L105030 77594
L105001 77622
L104972 77594
L105001 77565
L105001 77622
" />
<path d="M105001 77251
L105030 77280
L105001 77308
L104972 77280
L105001 77251
L105001 77308
" />
<path d="M106058 77622
L105715 77622
" />
<path d="M105887 77622
L105887 77022
L105829 77108
L105772 77165
L105715 77194
" />
<path d="M106744 76994
L106230 77765
" />
<path d="M107258 77622
L106915 77622
" />
<path d="M107087 77622
L107087 77022
L107029 77108
L106972 77165
L106915 77194
" />
<path d="M70969 74622
L71312 74622
" />
<path d="M71065 75222
L71140 74622
" />
<path d="M71437 75222
L71487 74822
" />
<path d="M71512 74622
L71480 74651
L71505 74680
L71537 74651
L71512 74622
L71505 74680
" />
<path d="M71687 74822
L71915 74822
" />
<path d="M71797 74622
L71733 75137
L71755 75194
L71808 75222
L71865 75222
" />
<path d="M72151 75222
L72097 75194
L72076 75137
L72140 74622
" />
<path d="M72612 75194
L72551 75222
L72437 75222
L72383 75194
L72362 75137
L72390 74908
L72426 74851
L72487 74822
L72601 74822
L72655 74851
L72676 74908
L72669 74965
L72376 75022
" />
<path d="M72901 75165
L72926 75194
L72894 75222
L72869 75194
L72901 75165
L72894 75222
" />
<path d="M72940 74851
L72965 74880
L72933 74908
L72908 74880
L72940 74851
L72933 74908
" />
<path d="M73626 74622
L73969 74622
" />
<path d="M73722 75222
L73797 74622
" />
<path d="M74094 75222
L74144 74822
" />
<path d="M74169 74622
L74137 74651
L74162 74680
L74194 74651
L74169 74622
L74162 74680
" />
<path d="M74380 75222
L74455 74622
L74722 75222
L74797 74622
" />
<path d="M75001 75051
L75287 75051
" />
<path d="M74922 75222
L75197 74622
L75322 75222
" />
<path d="M76008 74994
L76465 74994
" />
<path d="M77530 75165
L77497 75194
L77408 75222
L77351 75222
L77269 75194
L77219 75137
L77197 75080
L77183 74965
L77194 74880
L77237 74765
L77272 74708
L77337 74651
L77426 74622
L77483 74622
L77565 74651
L77590 74680
" />
<path d="M77865 75222
L77812 75194
L77787 75165
L77765 75108
L77787 74937
L77822 74880
L77855 74851
L77915 74822
L78001 74822
L78055 74851
L78080 74880
L78101 74937
L78080 75108
L78044 75165
L78012 75194
L77951 75222
L77865 75222
" />
<path d="M78372 74822
L78322 75222
" />
<path d="M78365 74880
L78397 74851
L78458 74822
L78544 74822
L78597 74851
L78619 74908
L78580 75222
" />
<path d="M78830 74822
L79058 74822
" />
<path d="M78940 74622
L78876 75137
L78897 75194
L78951 75222
L79008 75222
" />
<path d="M79208 75222
L79258 74822
" />
<path d="M79244 74937
L79280 74880
L79312 74851
L79372 74822
L79430 74822
" />
<path d="M79665 75222
L79612 75194
L79587 75165
L79565 75108
L79587 74937
L79622 74880
L79655 74851
L79715 74822
L79801 74822
L79855 74851
L79880 74880
L79901 74937
L79880 75108
L79844 75165
L79812 75194
L79751 75222
L79665 75222
" />
<path d="M80208 75222
L80155 75194
L80133 75137
L80197 74622
" />
<path d="M80522 75222
L80469 75194
L80447 75137
L80512 74622
" />
<path d="M80983 75194
L80922 75222
L80808 75222
L80755 75194
L80733 75137
L80762 74908
L80797 74851
L80858 74822
L80972 74822
L81026 74851
L81047 74908
L81040 74965
L80747 75022
" />
<path d="M81265 75222
L81315 74822
" />
<path d="M81301 74937
L81337 74880
L81369 74851
L81430 74822
L81487 74822
" />
<path d="M82058 74822
L82287 74822
" />
<path d="M82094 75222
L82158 74708
L82194 74651
L82255 74622
L82312 74622
" />
<path d="M82522 75222
L82469 75194
L82444 75165
L82422 75108
L82444 74937
L82480 74880
L82512 74851
L82572 74822
L82658 74822
L82712 74851
L82737 74880
L82758 74937
L82737 75108
L82701 75165
L82669 75194
L82608 75222
L82522 75222
" />
<path d="M82980 75222
L83030 74822
" />
<path d="M83015 74937
L83051 74880
L83083 74851
L83144 74822
L83201 74822
" />
<path d="M83797 74622
L84140 74622
" />
<path d="M83894 75222
L83969 74622
" />
<path d="M84265 75222
L84315 74822
" />
<path d="M84340 74622
L84308 74651
L84333 74680
L84365 74651
L84340 74622
L84333 74680
" />
<path d="M84551 75222
L84626 74622
L84772 75051
L85026 74622
L84951 75222
" />
<path d="M71172 72508
L70972 72508
" />
<path d="M70972 72822
L70972 72222
L71258 72222
" />
<path d="M71487 72822
L71487 72422
" />
<path d="M71487 72222
L71458 72251
L71487 72280
L71515 72251
L71487 72222
L71487 72280
" />
<path d="M71858 72822
L71801 72794
L71772 72737
L71772 72222
" />
<path d="M72315 72794
L72258 72822
L72144 72822
L72087 72794
L72058 72737
L72058 72508
L72087 72451
L72144 72422
L72258 72422
L72315 72451
L72344 72508
L72344 72565
L72058 72622
" />
<path d="M72601 72765
L72630 72794
L72601 72822
L72572 72794
L72601 72765
L72601 72822
" />
<path d="M72601 72451
L72630 72480
L72601 72508
L72572 72480
L72601 72451
L72601 72508
" />
<path d="M73258 72222
L73601 72222
" />
<path d="M73430 72822
L73430 72222
" />
<path d="M73801 72822
L73801 72422
" />
<path d="M73801 72222
L73772 72251
L73801 72280
L73830 72251
L73801 72222
L73801 72280
" />
<path d="M74087 72822
L74087 72222
L74430 72822
L74430 72222
" />
<path d="M74687 72651
L74972 72651
" />
<path d="M74630 72822
L74830 72222
L75030 72822
" />
<path d="M75230 72765
L75258 72794
L75230 72822
L75201 72794
L75230 72765
L75230 72822
" />
<path d="M75515 72822
L75515 72222
" />
<path d="M75572 72594
L75744 72822
" />
<path d="M75744 72422
L75515 72651
" />
<path d="M76001 72822
L76001 72422
" />
<path d="M76001 72222
L75972 72251
L76001 72280
L76030 72251
L76001 72222
L76001 72280
" />
<path d="M76544 72794
L76487 72822
L76372 72822
L76315 72794
L76287 72765
L76258 72708
L76258 72537
L76287 72480
L76315 72451
L76372 72422
L76487 72422
L76544 72451
" />
<path d="M77058 72822
L77058 72508
L77030 72451
L76972 72422
L76858 72422
L76801 72451
" />
<path d="M77058 72794
L77001 72822
L76858 72822
L76801 72794
L76772 72737
L76772 72680
L76801 72622
L76858 72594
L77001 72594
L77058 72565
" />
<path d="M77601 72822
L77601 72222
" />
<path d="M77601 72794
L77544 72822
L77429 72822
L77372 72794
L77344 72765
L77315 72708
L77315 72537
L77344 72480
L77372 72451
L77429 72422
L77544 72422
L77601 72451
" />
<path d="M77744 72880
L78201 72880
" />
<path d="M78344 72422
L78344 73022
" />
<path d="M78344 72451
L78401 72422
L78515 72422
L78572 72451
L78601 72480
L78629 72537
L78629 72708
L78601 72765
L78572 72794
L78515 72822
L78401 72822
L78344 72794
" />
<path d="M79144 72794
L79087 72822
L78972 72822
L78915 72794
L78887 72765
L78858 72708
L78858 72537
L78887 72480
L78915 72451
L78972 72422
L79087 72422
L79144 72451
" />
<path d="M79401 72822
L79401 72222
" />
<path d="M79401 72451
L79458 72422
L79572 72422
L79630 72451
L79658 72480
L79687 72537
L79687 72708
L79658 72765
L79630 72794
L79572 72822
L79458 72822
L79401 72794
" />
<path d="M70944 73994
L71030 74022
L71172 74022
L71230 73994
L71258 73965
L71287 73908
L71287 73851
L71258 73794
L71230 73765
L71172 73737
L71058 73708
L71001 73680
L70972 73651
L70944 73594
L70944 73537
L70972 73480
L71001 73451
L71058 73422
L71201 73422
L71287 73451
" />
<path d="M71544 74022
L71544 73422
" />
<path d="M71801 74022
L71801 73708
L71772 73651
L71715 73622
L71630 73622
L71572 73651
L71544 73680
" />
<path d="M72315 73994
L72258 74022
L72144 74022
L72087 73994
L72058 73937
L72058 73708
L72087 73651
L72144 73622
L72258 73622
L72315 73651
L72344 73708
L72344 73765
L72058 73822
" />
<path d="M72830 73994
L72772 74022
L72658 74022
L72601 73994
L72572 73937
L72572 73708
L72601 73651
L72658 73622
L72772 73622
L72830 73651
L72858 73708
L72858 73765
L72572 73822
" />
<path d="M73030 73622
L73258 73622
" />
<path d="M73115 73422
L73115 73937
L73144 73994
L73201 74022
L73258 74022
" />
<path d="M73458 73965
L73487 73994
L73458 74022
L73430 73994
L73458 73965
L73458 74022
" />
<path d="M73458 73651
L73487 73680
L73458 73708
L73430 73680
L73458 73651
L73458 73708
" />
<path d="M70997 71022
L71065 71622
L71233 71194
L71294 71622
L71512 71022
" />
<path d="M71658 71222
L71751 71622
" />
<path d="M71944 71222
L71751 71622
L71676 71765
L71644 71794
L71583 71822
" />
<path d="M72208 71622
L72155 71594
L72130 71565
L72108 71508
L72130 71337
L72165 71280
L72197 71251
L72258 71222
L72344 71222
L72397 71251
L72422 71280
L72444 71337
L72422 71508
L72387 71565
L72355 71594
L72294 71622
L72208 71622
" />
<path d="M72951 71622
L72665 71622
L72740 71022
" />
<path d="M73458 71222
L73408 71622
" />
<path d="M73201 71222
L73162 71537
L73183 71594
L73237 71622
L73322 71622
L73383 71594
L73415 71565
" />
<path d="M73694 71622
L73744 71222
" />
<path d="M73737 71280
L73769 71251
L73829 71222
L73915 71222
L73969 71251
L73990 71308
L73951 71622
" />
<path d="M73990 71308
L74026 71251
L74087 71222
L74172 71222
L74226 71251
L74247 71308
L74208 71622
" />
<path d="M70915 70022
L71030 70422
L71144 70137
L71258 70422
L71372 70022
" />
<path d="M71544 70022
L71658 70422
L71772 70137
L71887 70422
L72001 70022
" />
<path d="M72172 70022
L72287 70422
L72401 70137
L72515 70422
L72629 70022
" />
<path d="M72858 70365
L72887 70394
L72858 70422
L72829 70394
L72858 70365
L72858 70422
" />
<path d="M73087 70022
L73201 70422
L73315 70137
L73429 70422
L73544 70022
" />
<path d="M73715 70022
L73858 70422
" />
<path d="M74001 70022
L73858 70422
L73801 70565
L73772 70594
L73715 70622
" />
<path d="M74315 70422
L74258 70394
L74229 70365
L74201 70308
L74201 70137
L74229 70080
L74258 70051
L74315 70022
L74401 70022
L74458 70051
L74487 70080
L74515 70137
L74515 70308
L74487 70365
L74458 70394
L74401 70422
L74315 70422
" />
<path d="M74858 70422
L74801 70394
L74772 70337
L74772 69822
" />
<path d="M75344 70022
L75344 70422
" />
<path d="M75087 70022
L75087 70337
L75115 70394
L75172 70422
L75258 70422
L75315 70394
L75344 70365
" />
<path d="M75629 70422
L75629 70022
" />
<path d="M75629 70080
L75658 70051
L75715 70022
L75801 70022
L75858 70051
L75887 70108
L75887 70422
" />
<path d="M75887 70108
L75915 70051
L75972 70022
L76058 70022
L76115 70051
L76144 70108
L76144 70422
" />
<path d="M76429 70365
L76458 70394
L76429 70422
L76401 70394
L76429 70365
L76429 70422
" />
<path d="M76972 70394
L76915 70422
L76801 70422
L76744 70394
L76715 70365
L76687 70308
L76687 70137
L76715 70080
L76744 70051
L76801 70022
L76915 70022
L76972 70051
" />
<path d="M77315 70422
L77258 70394
L77229 70365
L77201 70308
L77201 70137
L77229 70080
L77258 70051
L77315 70022
L77401 70022
L77458 70051
L77487 70080
L77515 70137
L77515 70308
L77487 70365
L77458 70394
L77401 70422
L77315 70422
" />
<path d="M77772 70422
L77772 70022
" />
<path d="M77772 70080
L77801 70051
L77858 70022
L77944 70022
L78001 70051
L78029 70108
L78029 70422
" />
<path d="M78029 70108
L78058 70051
L78115 70022
L78201 70022
L78258 70051
L78287 70108
L78287 70422
" />
<path d="M70230 69580
L70230 77980
" />
<path d="M70230 71980
L112230 71980
" />
<path d="M70230 69580
L112230 69580
" />
<path d="M70230 74380
L112230 74380
" />
<path d="M103430 75580
L103430 77980
" />
<path d="M70230 76780
L112230 76780
" />
<path d="M70230 75580
L112230 75580
" />
<path d="M76830 75580
L76830 76780
" />
</g>
<g style="fill:#000000; fill-opacity:0.0; 
stroke:#000000; stroke-width:80; stroke-opacity:1; 
stroke-linecap:round; stroke-linejoin:round;">
<path d="M53428 49095
L53523 49095
L53523 48523
L53428 48523
" />
<path d="M53276 48809
L52971 48809
" />
<path d="M53123 48961
L53123 48657
" />
<path d="M52819 49095
L52723 49095
L52723 48523
L52819 48523
" />
<path d="M51180 49095
L51276 49095
L51276 48523
L51180 48523
" />
<path d="M51028 48809
L50723 48809
" />
<path d="M50571 49095
L50476 49095
L50476 48523
L50571 48523
" />
<path d="M17428 49070
L17523 49070
L17523 48498
L17428 48498
" />
<path d="M17276 48784
L16971 48784
" />
<path d="M17123 48936
L17123 48632
" />
<path d="M16819 49070
L16723 49070
L16723 48498
L16819 48498
" />
<path d="M15180 49070
L15276 49070
L15276 48498
L15180 48498
" />
<path d="M15028 48784
L14723 48784
" />
<path d="M14571 49070
L14476 49070
L14476 48498
L14571 48498
" />
<path d="M16928 26095
L17023 26095
L17023 25523
L16928 25523
" />
<path d="M16776 25809
L16471 25809
" />
<path d="M16623 25961
L16623 25657
" />
<path d="M16319 26095
L16223 26095
L16223 25523
L16319 25523
" />
<path d="M14680 26095
L14776 26095
L14776 25523
L14680 25523
" />
<path d="M14528 25809
L14223 25809
" />
<path d="M14071 26095
L13976 26095
L13976 25523
L14071 25523
" />
</g>
<g style="fill:#000000; fill-opacity:0.0; 
stroke:#000000; stroke-width:78.7402; stroke-opacity:1; 
stroke-linecap:round; stroke-linejoin:round;">
<path d="M19500 10000
L11500 10000
" />
<path d="M21000 22500
L21000 11500
" />
<path d="M11500 24000
L19500 24000
" />
<path d="M10000 11500
L10000 22500
" />
<path d="M11500 10000 A1500 1500 0.0 0 0 10000 11500 " />
<path d="M21000 11500 A1500 1500 0.0 0 0 19500 10000 " />
<path d="M19500 24000 A1500 1500 0.0 0 0 21000 22500 " />
<path d="M10000 22500 A1500 1500 0.0 0 0 11500 24000 " />
<path d="M58000 26800
L58000 45675
" />
<path d="M58000 47800
L58000 46925
" />
<path d="M11500 49300
L56500 49300
" />
<path d="M10000 47800
L10000 46925
" />
<path d="M10000 26800
L10000 45675
" />
<path d="M56500 25300
L11500 25300
" />
<path d="M58000 26800 A1500 1500 0.0 0 0 56500 25300 " />
<path d="M56500 49300 A1500 1500 0.0 0 0 58000 47800 " />
<path d="M10000 47800 A1500 1500 0.0 0 0 11500 49300 " />
<path d="M11500 25300 A1500 1500 0.0 0 0 10000 26800 " />
</g>
<g style="fill:#000000; fill-opacity:0.0; 
stroke:#000000; stroke-width:80; stroke-opacity:1; 
stroke-linecap:round; stroke-linejoin:round;">
<path d="M16928 23795
L17023 23795
L17023 23223
L16928 23223
" />
<path d="M16776 23509
L16471 23509
" />
<path d="M16623 23661
L16623 23357
" />
<path d="M16319 23795
L16223 23795
L16223 23223
L16319 23223
" />
<path d="M14680 23795
L14776 23795
L14776 23223
L14680 23223
" />
<path d="M14528 23509
L14223 23509
" />
<path d="M14071 23795
L13976 23795
L13976 23223
L14071 23223
" />
<path d="M17433 18661
L17433 18261
L17280 18261
L17242 18280
L17223 18300
L17204 18338
L17204 18395
L17223 18433
L17242 18452
L17280 18471
L17433 18471
" />
<path d="M16976 18661
L17014 18642
L17033 18623
L17052 18585
L17052 18471
L17033 18433
L17014 18414
L16976 18395
L16919 18395
L16880 18414
L16861 18433
L16842 18471
L16842 18585
L16861 18623
L16880 18642
L16919 18661
L16976 18661
" />
<path d="M16709 18395
L16633 18661
L16557 18471
L16480 18661
L16404 18395
" />
<path d="M16099 18642
L16138 18661
L16214 18661
L16252 18642
L16271 18604
L16271 18452
L16252 18414
L16214 18395
L16138 18395
L16099 18414
L16080 18452
L16080 18490
L16271 18528
" />
<path d="M15909 18661
L15909 18395
" />
<path d="M15909 18471
L15890 18433
L15871 18414
L15833 18395
L15795 18395
" />
<path d="M15376 18642
L15319 18661
L15223 18661
L15185 18642
L15166 18623
L15147 18585
L15147 18547
L15166 18509
L15185 18490
L15223 18471
L15299 18452
L15338 18433
L15357 18414
L15376 18376
L15376 18338
L15357 18300
L15338 18280
L15299 18261
L15204 18261
L15147 18280
" />
<path d="M14804 18395
L14804 18661
" />
<path d="M14976 18395
L14976 18604
L14957 18642
L14919 18661
L14861 18661
L14823 18642
L14804 18623
" />
<path d="M14614 18395
L14614 18795
" />
<path d="M14614 18414
L14576 18395
L14500 18395
L14461 18414
L14442 18433
L14423 18471
L14423 18585
L14442 18623
L14461 18642
L14500 18661
L14576 18661
L14614 18642
" />
<path d="M14252 18395
L14252 18795
" />
<path d="M14252 18414
L14214 18395
L14138 18395
L14100 18414
L14080 18433
L14061 18471
L14061 18585
L14080 18623
L14100 18642
L14138 18661
L14214 18661
L14252 18642
" />
<path d="M13833 18661
L13871 18642
L13890 18604
L13890 18261
" />
<path d="M13719 18395
L13623 18661
" />
<path d="M13528 18395
L13623 18661
L13661 18757
L13680 18776
L13719 18795
" />
<path d="M16185 18901
L16376 18901
L16395 19092
L16376 19073
L16338 19054
L16242 19054
L16204 19073
L16185 19092
L16166 19130
L16166 19225
L16185 19263
L16204 19282
L16242 19301
L16338 19301
L16376 19282
L16395 19263
" />
<path d="M16052 18901
L15919 19301
L15785 18901
" />
<path d="M15633 19282
L15633 19301
L15652 19340
L15671 19359
" />
<path d="M15195 18901
L14947 18901
L15080 19054
L15023 19054
L14985 19073
L14966 19092
L14947 19130
L14947 19225
L14966 19263
L14985 19282
L15023 19301
L15138 19301
L15176 19282
L15195 19263
" />
<path d="M14795 19187
L14604 19187
" />
<path d="M14833 19301
L14699 18901
L14566 19301
" />
<path d="M16157 19941
L16157 19541
" />
<path d="M15966 19675
L15966 19941
" />
<path d="M15966 19713
L15947 19694
L15909 19675
L15852 19675
L15814 19694
L15795 19732
L15795 19941
" />
<path d="M15604 19675
L15604 20075
" />
<path d="M15604 19694
L15566 19675
L15490 19675
L15452 19694
L15433 19713
L15414 19751
L15414 19865
L15433 19903
L15452 19922
L15490 19941
L15566 19941
L15604 19922
" />
<path d="M15071 19675
L15071 19941
" />
<path d="M15242 19675
L15242 19884
L15223 19922
L15185 19941
L15128 19941
L15090 19922
L15071 19903
" />
<path d="M14938 19675
L14785 19675
" />
<path d="M14880 19541
L14880 19884
L14861 19922
L14823 19941
L14785 19941
" />
<path d="M16728 20181
L16919 20181
L16938 20372
L16919 20353
L16880 20334
L16785 20334
L16747 20353
L16728 20372
L16709 20410
L16709 20505
L16728 20543
L16747 20562
L16785 20581
L16880 20581
L16919 20562
L16938 20543
" />
<path d="M16538 20429
L16233 20429
" />
<path d="M15833 20581
L16061 20581
" />
<path d="M15947 20581
L15947 20181
L15985 20239
L16023 20277
L16061 20296
" />
<path d="M15680 20220
L15661 20200
L15623 20181
L15528 20181
L15490 20200
L15471 20220
L15452 20258
L15452 20296
L15471 20353
L15699 20581
L15452 20581
" />
<path d="M15338 20181
L15204 20581
L15071 20181
" />
<path d="M14652 20467
L14461 20467
" />
<path d="M14690 20581
L14557 20181
L14423 20581
" />
<path d="M14061 20543
L14080 20562
L14138 20581
L14176 20581
L14233 20562
L14271 20524
L14290 20486
L14309 20410
L14309 20353
L14290 20277
L14271 20239
L14233 20200
L14176 20181
L14138 20181
L14080 20200
L14061 20220
" />
<path d="M16985 20821
L16719 20821
L16890 21221
" />
<path d="M16566 21069
L16261 21069
" />
<path d="M15861 21221
L16090 21221
" />
<path d="M15976 21221
L15976 20821
L16014 20879
L16052 20917
L16090 20936
" />
<path d="M15728 20821
L15461 20821
L15633 21221
" />
<path d="M15366 20821
L15233 21221
L15100 20821
" />
<path d="M14661 21221
L14661 20821
L14566 20821
L14509 20840
L14471 20879
L14452 20917
L14433 20993
L14433 21050
L14452 21126
L14471 21164
L14509 21202
L14566 21221
L14661 21221
" />
<path d="M14033 21183
L14052 21202
L14109 21221
L14147 21221
L14204 21202
L14242 21164
L14261 21126
L14280 21050
L14280 20993
L14261 20917
L14242 20879
L14204 20840
L14147 20821
L14109 20821
L14052 20840
L14033 20860
" />
</g>
<g style="fill:#000000; fill-opacity:0.0; 
stroke:#000000; stroke-width:120; stroke-opacity:1; 
stroke-linecap:round; stroke-linejoin:round;">
<path d="M19214 12542
L19099 12942
L18985 12657
L18871 12942
L18757 12542
" />
<path d="M18585 12542
L18471 12942
L18357 12657
L18242 12942
L18128 12542
" />
<path d="M17957 12542
L17842 12942
L17728 12657
L17614 12942
L17500 12542
" />
<path d="M17271 12885
L17242 12914
L17271 12942
L17300 12914
L17271 12885
L17271 12942
" />
<path d="M17042 12542
L16928 12942
L16814 12657
L16700 12942
L16585 12542
" />
<path d="M16414 12542
L16271 12942
" />
<path d="M16128 12542
L16271 12942
L16328 13085
L16357 13114
L16414 13142
" />
<path d="M15814 12942
L15871 12914
L15900 12885
L15928 12828
L15928 12657
L15900 12600
L15871 12571
L15814 12542
L15728 12542
L15671 12571
L15642 12600
L15614 12657
L15614 12828
L15642 12885
L15671 12914
L15728 12942
L15814 12942
" />
<path d="M15271 12942
L15328 12914
L15357 12857
L15357 12342
" />
<path d="M14785 12542
L14785 12942
" />
<path d="M15042 12542
L15042 12857
L15014 12914
L14957 12942
L14871 12942
L14814 12914
L14785 12885
" />
<path d="M14500 12942
L14500 12542
" />
<path d="M14500 12600
L14471 12571
L14414 12542
L14328 12542
L14271 12571
L14242 12628
L14242 12942
" />
<path d="M14242 12628
L14214 12571
L14157 12542
L14071 12542
L14014 12571
L13985 12628
L13985 12942
" />
<path d="M13700 12885
L13671 12914
L13700 12942
L13728 12914
L13700 12885
L13700 12942
" />
<path d="M13157 12914
L13214 12942
L13328 12942
L13385 12914
L13414 12885
L13442 12828
L13442 12657
L13414 12600
L13385 12571
L13328 12542
L13214 12542
L13157 12571
" />
<path d="M12814 12942
L12871 12914
L12900 12885
L12928 12828
L12928 12657
L12900 12600
L12871 12571
L12814 12542
L12728 12542
L12671 12571
L12642 12600
L12614 12657
L12614 12828
L12642 12885
L12671 12914
L12728 12942
L12814 12942
" />
<path d="M12357 12942
L12357 12542
" />
<path d="M12357 12600
L12328 12571
L12271 12542
L12185 12542
L12128 12571
L12100 12628
L12100 12942
" />
<path d="M12100 12628
L12071 12571
L12014 12542
L11928 12542
L11871 12571
L11842 12628
L11842 12942
" />
</g>
<g style="fill:#000000; fill-opacity:0.0; 
stroke:#000000; stroke-width:78.7402; stroke-opacity:1; 
stroke-linecap:round; stroke-linejoin:round;">
<path d="M46900 10000
L46900 24000
" />
<path d="M34600 10000
L34600 24000
" />
<path d="M58000 24000
L46900 24000
" />
<path d="M58000 10000
L58000 24000
" />
<path d="M46900 10000
L58000 10000
" />
<path d="M45700 24000
L34600 24000
" />
<path d="M45700 10000
L45700 24000
" />
<path d="M34600 10000
L45700 10000
" />
<path d="M33400 24000
L22300 24000
" />
<path d="M33400 10000
L33400 24000
" />
<path d="M22300 10000
L33400 10000
" />
<path d="M57375 46300 A625 625 0.0 0 0 58000 46925 " />
<path d="M58000 45675 A625 625 0.0 0 0 57375 46300 " />
<path d="M10000 46925 A625 625 0.0 0 0 10625 46300 " />
<path d="M10625 46300 A625 625 0.0 0 0 10000 45675 " />
<path d="M22300 24000
L22300 10000
" />
</g>
<g style="fill:#000000; fill-opacity:0.0; 
stroke:#000000; stroke-width:59.0551; stroke-opacity:1; 
stroke-linecap:round; stroke-linejoin:round;">
<path d="M46266 38838
L44533 38838
" />
<path d="M44533 38838
L44533 39861
" />
<path d="M44533 39861
L46266 39861
" />
<path d="M46266 39861
L46266 38838
" />
<path d="M44533 42661
L46266 42661
" />
<path d="M46266 42661
L46266 41638
" />
<path d="M46266 41638
L44533 41638
" />
<path d="M44533 41638
L44533 42661
" />
<path d="M44463 34508
L44463 36241
" />
<path d="M44463 36241
L45486 36241
" />
<path d="M45486 36241
L45486 34508
" />
<path d="M45486 34508
L44463 34508
" />
<path d="M39066 27388
L37333 27388
" />
<path d="M37333 27388
L37333 28411
" />
<path d="M37333 28411
L39066 28411
" />
<path d="M39066 28411
L39066 27388
" />
<path d="M41000 47650
L41000 47400
" />
<path d="M41000 47400
L42000 47400
" />
<path d="M42000 47400
L42000 48400
" />
<path d="M42000 48400
L41000 48400
" />
<path d="M41000 48400
L41000 48150
" />
</g>
<g style="fill:#000000; fill-opacity:0.0; 
stroke:#000000; stroke-width:60; stroke-opacity:1; 
stroke-linecap:round; stroke-linejoin:round;">
<path d="M41000 47650
L41000 48150
" />
<path d="M40750 48400
L40250 48400
" />
<path d="M40250 48400
L40000 48150
" />
<path d="M40000 48150
L39750 48400
" />
<path d="M39750 48400
L39250 48400
" />
<path d="M39250 48400
L39000 48150
" />
<path d="M39000 48150
L38750 48400
" />
<path d="M38750 48400
L38250 48400
" />
<path d="M38250 48400
L38000 48150
" />
<path d="M38000 48150
L38000 47650
" />
<path d="M38000 47650
L38250 47400
" />
<path d="M38250 47400
L38750 47400
" />
<path d="M38750 47400
L39000 47650
" />
<path d="M39000 47650
L39250 47400
" />
<path d="M39250 47400
L39750 47400
" />
<path d="M39750 47400
L40000 47650
" />
<path d="M40000 47650
L40250 47400
" />
<path d="M40250 47400
L40750 47400
" />
<path d="M40750 47400
L41000 47650
" />
<path d="M41000 48150
L40750 48400
" />
</g>
<g style="fill:#000000; fill-opacity:0.0; 
stroke:#000000; stroke-width:59.0551; stroke-opacity:1; 
stroke-linecap:round; stroke-linejoin:round;">
<path d="M29000 47650
L29000 47400
" />
<path d="M29000 47400
L30000 47400
" />
<path d="M30000 47400
L30000 48400
" />
<path d="M30000 48400
L29000 48400
" />
<path d="M29000 48400
L29000 48150
" />
</g>
<g style="fill:#000000; fill-opacity:0.0; 
stroke:#000000; stroke-width:60; stroke-opacity:1; 
stroke-linecap:round; stroke-linejoin:round;">
<path d="M29000 47650
L29000 48150
" />
<path d="M28750 48400
L28250 48400
" />
<path d="M28250 48400
L28000 48150
" />
<path d="M28000 48150
L27750 48400
" />
<path d="M27750 48400
L27250 48400
" />
<path d="M27250 48400
L27000 48150
" />
<path d="M27000 48150
L26750 48400
" />
<path d="M26750 48400
L26250 48400
" />
<path d="M26250 48400
L26000 48150
" />
<path d="M26000 48150
L26000 47650
" />
<path d="M26000 47650
L26250 47400
" />
<path d="M26250 47400
L26750 47400
" />
<path d="M26750 47400
L27000 47650
" />
<path d="M27000 47650
L27250 47400
" />
<path d="M27250 47400
L27750 47400
" />
<path d="M27750 47400
L28000 47650
" />
<path d="M28000 47650
L28250 47400
" />
<path d="M28250 47400
L28750 47400
" />
<path d="M28750 47400
L29000 47650
" />
<path d="M29000 48150
L28750 48400
" />
<path d="M45650 33325
L45975 33000
" />
<path d="M45650 33100
L45725 33025
" />
<path d="M45650 33175
L45800 33025
" />
<path d="M45900 33000
L45650 33250
" />
<path d="M45650 34150
L45900 34150
" />
<path d="M45650 34450
L45900 34450
" />
<path d="M45900 34450
L45900 34150
" />
<path d="M45850 34450
L45850 34150
" />
<path d="M45750 34450
L45750 34150
" />
<path d="M45700 34450
L45700 34150
" />
<path d="M45800 34450
L45800 34150
" />
<path d="M45650 35600
L49950 35600
" />
<path d="M49950 33000
L45650 33000
" />
<path d="M49950 33000
L49950 35600
" />
<path d="M45650 35600
L45650 33000
" />
</g>
<g style="fill:#000000; fill-opacity:0.0; 
stroke:#000000; stroke-width:50; stroke-opacity:1; 
stroke-linecap:round; stroke-linejoin:round;">
<circle cx="42070" cy="40330" r="100" /> 
<circle cx="42070" cy="40330" r="50" /> 
<path d="M42560 43580
L42560 43650
" />
<path d="M42560 43650
L40440 43650
" />
<path d="M40440 43650
L40440 43580
" />
<path d="M40440 40150
L42560 40150
" />
<path d="M42560 40150
L42560 40220
" />
<path d="M40440 40220
L40440 40150
" />
<path d="M41500 40200 A50 50 0.0 0 0 41550 40150 " />
<path d="M41450 40150 A50 50 0.0 0 0 41500 40200 " />
<path d="M41500 40250 A100 100 0.0 0 0 41600 40150 " />
<path d="M41400 40150 A100 100 0.0 0 0 41500 40250 " />
<path d="M41500 40300 A150 150 0.0 0 0 41650 40150 " />
<path d="M41350 40150 A150 150 0.0 0 0 41500 40300 " />
</g>
<g style="fill:#000000; fill-opacity:0.0; 
stroke:#000000; stroke-width:60; stroke-opacity:1; 
stroke-linecap:round; stroke-linejoin:round;">
<path d="M44550 33150
L44550 32525
" />
<path d="M44550 32525
L45400 32525
" />
<path d="M45400 32525
L45400 33150
" />
<path d="M45400 33450
L45400 34050
" />
<path d="M45400 34050
L45400 34075
" />
<path d="M45400 34075
L44550 34075
" />
<path d="M44550 34075
L44550 33450
" />
</g>
<g style="fill:#000000; fill-opacity:0.0; 
stroke:#000000; stroke-width:59.0551; stroke-opacity:1; 
stroke-linecap:round; stroke-linejoin:round;">
<path d="M31000 47900
L31000 48400
" />
<path d="M31000 48400
L30000 48400
" />
<path d="M30000 48400
L30000 47400
" />
<path d="M30000 47400
L31000 47400
" />
<path d="M31000 47400
L31000 47900
" />
<path d="M38000 48150
L38000 47650
" />
<path d="M38000 47650
L37750 47400
" />
<path d="M37750 47400
L37250 47400
" />
<path d="M37250 47400
L37000 47650
" />
<path d="M37000 48150
L37250 48400
" />
<path d="M37250 48400
L37750 48400
" />
<path d="M37750 48400
L38000 48150
" />
<path d="M37000 47650
L36750 47400
" />
<path d="M36750 47400
L36250 47400
" />
<path d="M36250 47400
L36000 47650
" />
<path d="M36000 48150
L36250 48400
" />
<path d="M36250 48400
L36750 48400
" />
<path d="M36750 48400
L37000 48150
" />
<path d="M36000 47650
L35750 47400
" />
<path d="M35750 47400
L35250 47400
" />
<path d="M35250 47400
L35000 47650
" />
<path d="M35000 48150
L35250 48400
" />
<path d="M35250 48400
L35750 48400
" />
<path d="M35750 48400
L36000 48150
" />
<path d="M35000 47650
L34750 47400
" />
<path d="M34750 47400
L34250 47400
" />
<path d="M34250 47400
L34000 47650
" />
<path d="M34000 48150
L34250 48400
" />
<path d="M34250 48400
L34750 48400
" />
<path d="M34750 48400
L35000 48150
" />
<path d="M34000 47650
L33750 47400
" />
<path d="M33750 47400
L33250 47400
" />
<path d="M33250 47400
L33000 47650
" />
<path d="M33000 48150
L33250 48400
" />
<path d="M33250 48400
L33750 48400
" />
<path d="M33750 48400
L34000 48150
" />
<path d="M33000 47650
L32750 47400
" />
<path d="M32750 47400
L32250 47400
" />
<path d="M32250 47400
L32000 47650
" />
<path d="M32000 48150
L32250 48400
" />
<path d="M32250 48400
L32750 48400
" />
<path d="M32750 48400
L33000 48150
" />
<path d="M32000 47650
L31750 47400
" />
<path d="M31750 47400
L31250 47400
" />
<path d="M31250 47400
L31000 47650
" />
<path d="M31000 48150
L31250 48400
" />
<path d="M31250 48400
L31750 48400
" />
<path d="M31750 48400
L32000 48150
" />
</g>
<g style="fill:#000000; fill-opacity:0.0; 
stroke:#000000; stroke-width:60; stroke-opacity:1; 
stroke-linecap:round; stroke-linejoin:round;">
<path d="M45050 40450
L45050 40075
" />
<path d="M45050 40075
L46150 40075
" />
<path d="M46150 40075
L46150 41400
" />
<path d="M46150 41400
L46150 41425
" />
<path d="M46150 41425
L45050 41425
" />
<path d="M45050 41425
L45050 41050
" />
<path d="M45050 41050
L44450 41050
" />
<path d="M44450 41050
L44450 40750
" />
<path d="M44450 40750
L44450 40450
" />
<path d="M44450 40450
L45050 40450
" />
<path d="M45250 47400
L45000 47400
" />
<path d="M45000 47400
L45000 47650
" />
<path d="M46000 47650
L46000 47400
" />
<path d="M46000 47400
L45750 47400
" />
<path d="M45750 48400
L46000 48400
" />
<path d="M46000 48400
L46000 48175
" />
<path d="M45000 48150
L45000 48400
" />
<path d="M45000 48400
L45250 48400
" />
<path d="M46000 48150
L46000 47650
" />
<path d="M45000 47900
L45000 47650
" />
<path d="M45250 47400
L45750 47400
" />
<path d="M46000 47650
L46250 47400
" />
<path d="M46250 47400
L46750 47400
" />
<path d="M46750 47400
L47000 47650
" />
<path d="M47000 47650
L47000 48150
" />
<path d="M47000 48150
L46750 48400
" />
<path d="M46750 48400
L46250 48400
" />
<path d="M46250 48400
L46000 48150
" />
<path d="M45750 48400
L45250 48400
" />
<path d="M45000 48150
L45000 47900
" />
<path d="M15250 47400
L15000 47400
" />
<path d="M15000 47400
L15000 47650
" />
<path d="M16000 47650
L16000 47400
" />
<path d="M16000 47400
L15750 47400
" />
<path d="M15750 48400
L16000 48400
" />
<path d="M16000 48400
L16000 48175
" />
<path d="M15000 48150
L15000 48400
" />
<path d="M15000 48400
L15250 48400
" />
<path d="M16000 48150
L16000 47650
" />
<path d="M15000 47900
L15000 47650
" />
<path d="M15250 47400
L15750 47400
" />
<path d="M16000 47650
L16250 47400
" />
<path d="M16250 47400
L16750 47400
" />
<path d="M16750 47400
L17000 47650
" />
<path d="M17000 47650
L17000 48150
" />
<path d="M17000 48150
L16750 48400
" />
<path d="M16750 48400
L16250 48400
" />
<path d="M16250 48400
L16000 48150
" />
<path d="M15750 48400
L15250 48400
" />
<path d="M15000 48150
L15000 47900
" />
<path d="M21250 47400
L21000 47400
" />
<path d="M21000 47400
L21000 47650
" />
<path d="M22000 47650
L22000 47400
" />
<path d="M22000 47400
L21750 47400
" />
<path d="M21750 48400
L22000 48400
" />
<path d="M22000 48400
L22000 48175
" />
<path d="M21000 48150
L21000 48400
" />
<path d="M21000 48400
L21250 48400
" />
<path d="M22000 48150
L22000 47650
" />
<path d="M21000 47900
L21000 47650
" />
<path d="M21250 47400
L21750 47400
" />
<path d="M22000 47650
L22250 47400
" />
<path d="M22250 47400
L22750 47400
" />
<path d="M22750 47400
L23000 47650
" />
<path d="M23000 47650
L23000 48150
" />
<path d="M23000 48150
L22750 48400
" />
<path d="M22750 48400
L22250 48400
" />
<path d="M22250 48400
L22000 48150
" />
<path d="M21750 48400
L21250 48400
" />
<path d="M21000 48150
L21000 47900
" />
<path d="M51250 47400
L51000 47400
" />
<path d="M51000 47400
L51000 47650
" />
<path d="M52000 47650
L52000 47400
" />
<path d="M52000 47400
L51750 47400
" />
<path d="M51750 48400
L52000 48400
" />
<path d="M52000 48400
L52000 48175
" />
<path d="M51000 48150
L51000 48400
" />
<path d="M51000 48400
L51250 48400
" />
<path d="M52000 48150
L52000 47650
" />
<path d="M51000 47900
L51000 47650
" />
<path d="M51250 47400
L51750 47400
" />
<path d="M52000 47650
L52250 47400
" />
<path d="M52250 47400
L52750 47400
" />
<path d="M52750 47400
L53000 47650
" />
<path d="M53000 47650
L53000 48150
" />
<path d="M53000 48150
L52750 48400
" />
<path d="M52750 48400
L52250 48400
" />
<path d="M52250 48400
L52000 48150
" />
<path d="M51750 48400
L51250 48400
" />
<path d="M51000 48150
L51000 47900
" />
</g>
<g style="fill:#000000; fill-opacity:0.0; 
stroke:#000000; stroke-width:59.0551; stroke-opacity:1; 
stroke-linecap:round; stroke-linejoin:round;">
<path d="M14584 29880
L14584 28719
" />
<path d="M14584 28719
L16415 28719
" />
<path d="M16415 28719
L16415 29880
" />
<path d="M16415 29880
L14584 29880
" />
<path d="M14730 48265
L13569 48265
" />
<path d="M13569 48265
L13569 46434
" />
<path d="M13569 46434
L14730 46434
" />
<path d="M14730 46434
L14730 48265
" />
<path d="M50555 48265
L49394 48265
" />
<path d="M49394 48265
L49394 46434
" />
<path d="M49394 46434
L50555 46434
" />
<path d="M50555 46434
L50555 48265
" />
</g>
<g style="fill:#000000; fill-opacity:0.0; 
stroke:#000000; stroke-width:60; stroke-opacity:1; 
stroke-linecap:round; stroke-linejoin:round;">
<path d="M47447 41183
L47447 40907
" />
<path d="M46502 41143
L46502 41655
" />
<path d="M46502 41655
L47447 41655
" />
<path d="M47447 41655
L47447 41498
" />
<path d="M47447 39844
L46502 39844
" />
<path d="M46502 39844
L46502 40356
" />
<path d="M47447 40001
L47447 39844
" />
<path d="M47447 40592
L47447 40316
" />
<path d="M45250 31650
L46000 31650
" />
<path d="M46000 30950
L45250 30950
" />
<path d="M45250 30950 A350 350 0.0 0 0 44900 31300 " />
<path d="M44900 31300 A350 350 0.0 0 0 45250 31650 " />
<path d="M46000 31650 A350 350 0.0 0 0 46350 31300 " />
<path d="M46350 31300 A350 350 0.0 0 0 46000 30950 " />
</g>
<g style="fill:#000000; fill-opacity:0.0; 
stroke:#000000; stroke-width:50; stroke-opacity:1; 
stroke-linecap:round; stroke-linejoin:round;">
<path d="M44125 39442
L44139 39457
L44182 39471
L44210 39471
L44253 39457
L44282 39428
L44296 39400
L44310 39342
L44310 39300
L44296 39242
L44282 39214
L44253 39185
L44210 39171
L44182 39171
L44139 39185
L44125 39200
" />
<path d="M44010 39200
L43996 39185
L43967 39171
L43896 39171
L43867 39185
L43853 39200
L43839 39228
L43839 39257
L43853 39300
L44025 39471
L43839 39471
" />
<path d="M44125 42242
L44139 42257
L44182 42271
L44210 42271
L44253 42257
L44282 42228
L44296 42200
L44310 42142
L44310 42100
L44296 42042
L44282 42014
L44253 41985
L44210 41971
L44182 41971
L44139 41985
L44125 42000
" />
<path d="M43853 41971
L43996 41971
L44010 42114
L43996 42100
L43967 42085
L43896 42085
L43867 42100
L43853 42114
L43839 42142
L43839 42214
L43853 42242
L43867 42257
L43896 42271
L43967 42271
L43996 42257
L44010 42242
" />
<path d="M44125 35467
L44139 35482
L44182 35496
L44210 35496
L44253 35482
L44282 35453
L44296 35425
L44310 35367
L44310 35325
L44296 35267
L44282 35239
L44253 35210
L44210 35196
L44182 35196
L44139 35210
L44125 35225
" />
<path d="M43982 35496
L43925 35496
L43896 35482
L43882 35467
L43853 35425
L43839 35367
L43839 35253
L43853 35225
L43867 35210
L43896 35196
L43953 35196
L43982 35210
L43996 35225
L44010 35253
L44010 35325
L43996 35353
L43982 35367
L43953 35382
L43896 35382
L43867 35367
L43853 35353
L43839 35325
" />
<path d="M36992 27992
L37007 28007
L37050 28021
L37078 28021
L37121 28007
L37150 27978
L37164 27950
L37178 27892
L37178 27850
L37164 27792
L37150 27764
L37121 27735
L37078 27721
L37050 27721
L37007 27735
L36992 27750
" />
<path d="M36878 27750
L36864 27735
L36835 27721
L36764 27721
L36735 27735
L36721 27750
L36707 27778
L36707 27807
L36721 27850
L36892 28021
L36707 28021
" />
<path d="M36592 27750
L36578 27735
L36550 27721
L36478 27721
L36450 27735
L36435 27750
L36421 27778
L36421 27807
L36435 27850
L36607 28021
L36421 28021
" />
<path d="M40242 46821
L40242 47035
L40257 47078
L40285 47107
L40328 47121
L40357 47121
" />
<path d="M39942 47121
L40114 47121
" />
<path d="M40028 47121
L40028 46821
L40057 46864
L40085 46892
L40114 46907
" />
<path d="M39828 46850
L39814 46835
L39785 46821
L39714 46821
L39685 46835
L39671 46850
L39657 46878
L39657 46907
L39671 46950
L39842 47121
L39657 47121
" />
<path d="M40614 49021
L40614 48721
L40500 48721
L40471 48735
L40457 48750
L40442 48778
L40442 48821
L40457 48850
L40471 48864
L40500 48878
L40614 48878
" />
<path d="M40328 48935
L40185 48935
" />
<path d="M40357 49021
L40257 48721
L40157 49021
" />
<path d="M39885 49021
L39985 48878
" />
<path d="M40057 49021
L40057 48721
L39942 48721
L39914 48735
L39900 48750
L39885 48778
L39885 48821
L39900 48850
L39914 48864
L39942 48878
L40057 48878
" />
<path d="M39828 49050
L39600 49050
" />
<path d="M39371 49021
L39542 49021
" />
<path d="M39457 49021
L39457 48721
L39485 48764
L39514 48792
L39542 48807
" />
<path d="M28242 46821
L28242 47035
L28257 47078
L28285 47107
L28328 47121
L28357 47121
" />
<path d="M27942 47121
L28114 47121
" />
<path d="M28028 47121
L28028 46821
L28057 46864
L28085 46892
L28114 46907
" />
<path d="M27685 46921
L27685 47121
" />
<path d="M27757 46807
L27828 47021
L27642 47021
" />
<path d="M28614 49021
L28614 48721
L28500 48721
L28471 48735
L28457 48750
L28442 48778
L28442 48821
L28457 48850
L28471 48864
L28500 48878
L28614 48878
" />
<path d="M28328 48935
L28185 48935
" />
<path d="M28357 49021
L28257 48721
L28157 49021
" />
<path d="M27885 49021
L27985 48878
" />
<path d="M28057 49021
L28057 48721
L27942 48721
L27914 48735
L27900 48750
L27885 48778
L27885 48821
L27900 48850
L27914 48864
L27942 48878
L28057 48878
" />
<path d="M27828 49050
L27600 49050
" />
<path d="M27557 48721
L27371 48721
L27471 48835
L27428 48835
L27400 48850
L27385 48864
L27371 48892
L27371 48964
L27385 48992
L27400 49007
L27428 49021
L27514 49021
L27542 49007
L27557 48992
" />
<path d="M45803 32021
L45803 32264
L45789 32292
L45775 32307
L45746 32321
L45689 32321
L45660 32307
L45646 32292
L45632 32264
L45632 32021
" />
<path d="M45360 32121
L45360 32321
" />
<path d="M45432 32007
L45503 32221
L45317 32221
" />
<path d="M50396 33350
L50096 33350
L50096 33421
L50110 33464
L50139 33492
L50167 33507
L50225 33521
L50267 33521
L50325 33507
L50353 33492
L50382 33464
L50396 33421
L50396 33350
" />
<path d="M50382 33635
L50396 33678
L50396 33750
L50382 33778
L50367 33792
L50339 33807
L50310 33807
L50282 33792
L50267 33778
L50253 33750
L50239 33692
L50225 33664
L50210 33650
L50182 33635
L50153 33635
L50125 33650
L50110 33664
L50096 33692
L50096 33764
L50110 33807
" />
<path d="M50096 33907
L50096 34092
L50210 33992
L50210 34035
L50225 34064
L50239 34078
L50267 34092
L50339 34092
L50367 34078
L50382 34064
L50396 34035
L50396 33950
L50382 33921
L50367 33907
" />
<path d="M50125 34207
L50110 34221
L50096 34250
L50096 34321
L50110 34350
L50125 34364
L50153 34378
L50182 34378
L50225 34364
L50396 34192
L50396 34378
" />
<path d="M50096 34478
L50096 34664
L50210 34564
L50210 34607
L50225 34635
L50239 34650
L50267 34664
L50339 34664
L50367 34650
L50382 34635
L50396 34607
L50396 34521
L50382 34492
L50367 34478
" />
<path d="M50396 34949
L50396 34778
" />
<path d="M50396 34864
L50096 34864
L50139 34835
L50167 34807
L50182 34778
" />
<path d="M50396 35078
L50096 35078
L50396 35249
L50096 35249
" />
<path d="M42828 39696
L42828 39939
L42814 39967
L42800 39982
L42771 39996
L42714 39996
L42685 39982
L42671 39967
L42657 39939
L42657 39696
" />
<path d="M42528 39725
L42514 39710
L42485 39696
L42414 39696
L42385 39710
L42371 39725
L42357 39753
L42357 39782
L42371 39825
L42542 39996
L42357 39996
" />
<path d="M42599 43846
L42428 43846
" />
<path d="M42514 44146
L42514 43846
" />
<path d="M42357 43846
L42157 44146
" />
<path d="M42157 43846
L42357 44146
" />
<path d="M41942 43989
L41899 44003
L41885 44017
L41871 44046
L41871 44089
L41885 44117
L41899 44132
L41928 44146
L42042 44146
L42042 43846
L41942 43846
L41914 43860
L41899 43875
L41885 43903
L41885 43932
L41899 43960
L41914 43975
L41942 43989
L42042 43989
" />
<path d="M41685 43846
L41657 43846
L41628 43860
L41614 43875
L41599 43903
L41585 43960
L41585 44032
L41599 44089
L41614 44117
L41628 44132
L41657 44146
L41685 44146
L41714 44132
L41728 44117
L41742 44089
L41757 44032
L41757 43960
L41742 43903
L41728 43875
L41714 43860
L41685 43846
" />
<path d="M41300 44146
L41471 44146
" />
<path d="M41385 44146
L41385 43846
L41414 43889
L41442 43917
L41471 43932
" />
<path d="M41114 43846
L41085 43846
L41057 43860
L41042 43875
L41028 43903
L41014 43960
L41014 44032
L41028 44089
L41042 44117
L41057 44132
L41085 44146
L41114 44146
L41142 44132
L41157 44117
L41171 44089
L41185 44032
L41185 43960
L41171 43903
L41157 43875
L41142 43860
L41114 43846
" />
<path d="M40757 43946
L40757 44146
" />
<path d="M40828 43832
L40900 44046
L40714 44046
" />
<path d="M40600 44146
L40600 43846
L40528 43846
L40485 43860
L40457 43889
L40442 43917
L40428 43975
L40428 44017
L40442 44075
L40457 44103
L40485 44132
L40528 44146
L40600 44146
" />
<path d="M44150 33421
L44250 33278
" />
<path d="M44321 33421
L44321 33121
L44207 33121
L44178 33135
L44164 33150
L44150 33178
L44150 33221
L44164 33250
L44178 33264
L44207 33278
L44321 33278
" />
<path d="M44007 33421
L43950 33421
L43921 33407
L43907 33392
L43878 33350
L43864 33292
L43864 33178
L43878 33150
L43892 33135
L43921 33121
L43978 33121
L44007 33135
L44021 33150
L44035 33178
L44035 33250
L44021 33278
L44007 33292
L43978 33307
L43921 33307
L43892 33292
L43878 33278
L43864 33250
" />
<path d="M32717 46821
L32717 47035
L32732 47078
L32760 47107
L32803 47121
L32832 47121
" />
<path d="M32417 47121
L32589 47121
" />
<path d="M32503 47121
L32503 46821
L32532 46864
L32560 46892
L32589 46907
" />
<path d="M32317 46821
L32132 46821
L32232 46935
L32189 46935
L32160 46950
L32146 46964
L32132 46992
L32132 47064
L32146 47092
L32160 47107
L32189 47121
L32275 47121
L32303 47107
L32317 47092
" />
<path d="M34614 49021
L34614 48721
L34500 48721
L34471 48735
L34457 48750
L34442 48778
L34442 48821
L34457 48850
L34471 48864
L34500 48878
L34614 48878
" />
<path d="M34328 48935
L34185 48935
" />
<path d="M34357 49021
L34257 48721
L34157 49021
" />
<path d="M33885 49021
L33985 48878
" />
<path d="M34057 49021
L34057 48721
L33942 48721
L33914 48735
L33900 48750
L33885 48778
L33885 48821
L33900 48850
L33914 48864
L33942 48878
L34057 48878
" />
<path d="M33828 49050
L33600 49050
" />
<path d="M33542 48750
L33528 48735
L33500 48721
L33428 48721
L33400 48735
L33385 48750
L33371 48778
L33371 48807
L33385 48850
L33557 49021
L33371 49021
" />
<path d="M44303 40571
L44303 40814
L44289 40842
L44275 40857
L44246 40871
L44189 40871
L44160 40857
L44146 40842
L44132 40814
L44132 40571
" />
<path d="M43832 40871
L44003 40871
" />
<path d="M43917 40871
L43917 40571
L43946 40614
L43975 40642
L44003 40657
" />
<path d="M46242 48621
L46242 48835
L46257 48878
L46285 48907
L46328 48921
L46357 48921
" />
<path d="M45942 48921
L46114 48921
" />
<path d="M46028 48921
L46028 48621
L46057 48664
L46085 48692
L46114 48707
" />
<path d="M45671 48621
L45814 48621
L45828 48764
L45814 48750
L45785 48735
L45714 48735
L45685 48750
L45671 48764
L45657 48792
L45657 48864
L45671 48892
L45685 48907
L45714 48921
L45785 48921
L45814 48907
L45828 48892
" />
<path d="M46628 47007
L46585 47021
L46514 47021
L46485 47007
L46471 46992
L46457 46964
L46457 46935
L46471 46907
L46485 46892
L46514 46878
L46571 46864
L46600 46850
L46614 46835
L46628 46807
L46628 46778
L46614 46750
L46600 46735
L46571 46721
L46500 46721
L46457 46735
" />
<path d="M46328 46864
L46228 46864
" />
<path d="M46185 47021
L46328 47021
L46328 46721
L46185 46721
" />
<path d="M45885 47021
L45985 46878
" />
<path d="M46057 47021
L46057 46721
L45942 46721
L45914 46735
L45900 46750
L45885 46778
L45885 46821
L45900 46850
L45914 46864
L45942 46878
L46057 46878
" />
<path d="M45828 47050
L45600 47050
" />
<path d="M45542 46750
L45528 46735
L45500 46721
L45428 46721
L45400 46735
L45385 46750
L45371 46778
L45371 46807
L45385 46850
L45557 47021
L45371 47021
" />
<path d="M16242 48621
L16242 48835
L16257 48878
L16285 48907
L16328 48921
L16357 48921
" />
<path d="M15942 48921
L16114 48921
" />
<path d="M16028 48921
L16028 48621
L16057 48664
L16085 48692
L16114 48707
" />
<path d="M15685 48621
L15742 48621
L15771 48635
L15785 48650
L15814 48692
L15828 48750
L15828 48864
L15814 48892
L15800 48907
L15771 48921
L15714 48921
L15685 48907
L15671 48892
L15657 48864
L15657 48792
L15671 48764
L15685 48750
L15714 48735
L15771 48735
L15800 48750
L15814 48764
L15828 48792
" />
<path d="M18507 48021
L18507 47721
L18392 47721
L18364 47735
L18350 47750
L18335 47778
L18335 47821
L18350 47850
L18364 47864
L18392 47878
L18507 47878
" />
<path d="M18235 47721
L18164 48021
L18107 47807
L18050 48021
L17978 47721
" />
<path d="M17692 48021
L17792 47878
" />
<path d="M17864 48021
L17864 47721
L17750 47721
L17721 47735
L17707 47750
L17692 47778
L17692 47821
L17707 47850
L17721 47864
L17750 47878
L17864 47878
" />
<path d="M17635 48050
L17407 48050
" />
<path d="M17350 47750
L17335 47735
L17307 47721
L17235 47721
L17207 47735
L17192 47750
L17178 47778
L17178 47807
L17192 47850
L17364 48021
L17178 48021
" />
<path d="M22242 48621
L22242 48835
L22257 48878
L22285 48907
L22328 48921
L22357 48921
" />
<path d="M21942 48921
L22114 48921
" />
<path d="M22028 48921
L22028 48621
L22057 48664
L22085 48692
L22114 48707
" />
<path d="M21657 48921
L21828 48921
" />
<path d="M21742 48921
L21742 48621
L21771 48664
L21800 48692
L21828 48707
" />
<path d="M22628 47007
L22585 47021
L22514 47021
L22485 47007
L22471 46992
L22457 46964
L22457 46935
L22471 46907
L22485 46892
L22514 46878
L22571 46864
L22600 46850
L22614 46835
L22628 46807
L22628 46778
L22614 46750
L22600 46735
L22571 46721
L22500 46721
L22457 46735
" />
<path d="M22328 46864
L22228 46864
" />
<path d="M22185 47021
L22328 47021
L22328 46721
L22185 46721
" />
<path d="M21885 47021
L21985 46878
" />
<path d="M22057 47021
L22057 46721
L21942 46721
L21914 46735
L21900 46750
L21885 46778
L21885 46821
L21900 46850
L21914 46864
L21942 46878
L22057 46878
" />
<path d="M21828 47050
L21600 47050
" />
<path d="M21371 47021
L21542 47021
" />
<path d="M21457 47021
L21457 46721
L21485 46764
L21514 46792
L21542 46807
" />
<path d="M52242 48621
L52242 48835
L52257 48878
L52285 48907
L52328 48921
L52357 48921
" />
<path d="M51942 48921
L52114 48921
" />
<path d="M52028 48921
L52028 48621
L52057 48664
L52085 48692
L52114 48707
" />
<path d="M51757 48621
L51728 48621
L51700 48635
L51685 48650
L51671 48678
L51657 48735
L51657 48807
L51671 48864
L51685 48892
L51700 48907
L51728 48921
L51757 48921
L51785 48907
L51800 48892
L51814 48864
L51828 48807
L51828 48735
L51814 48678
L51800 48650
L51785 48635
L51757 48621
" />
<path d="M54532 48021
L54532 47721
L54417 47721
L54389 47735
L54375 47750
L54360 47778
L54360 47821
L54375 47850
L54389 47864
L54417 47878
L54532 47878
" />
<path d="M54260 47721
L54189 48021
L54132 47807
L54075 48021
L54003 47721
" />
<path d="M53717 48021
L53817 47878
" />
<path d="M53889 48021
L53889 47721
L53775 47721
L53746 47735
L53732 47750
L53717 47778
L53717 47821
L53732 47850
L53746 47864
L53775 47878
L53889 47878
" />
<path d="M53660 48050
L53432 48050
" />
<path d="M53203 48021
L53375 48021
" />
<path d="M53289 48021
L53289 47721
L53317 47764
L53346 47792
L53375 47807
" />
<path d="M17267 29392
L17282 29407
L17325 29421
L17353 29421
L17396 29407
L17425 29378
L17439 29350
L17453 29292
L17453 29250
L17439 29192
L17425 29164
L17396 29135
L17353 29121
L17325 29121
L17282 29135
L17267 29150
" />
<path d="M17153 29150
L17139 29135
L17110 29121
L17039 29121
L17010 29135
L16996 29150
L16982 29178
L16982 29207
L16996 29250
L17167 29421
L16982 29421
" />
<path d="M16725 29221
L16725 29421
" />
<path d="M16796 29107
L16867 29321
L16682 29321
" />
<path d="M14342 46267
L14357 46282
L14400 46296
L14428 46296
L14471 46282
L14500 46253
L14514 46225
L14528 46167
L14528 46125
L14514 46067
L14500 46039
L14471 46010
L14428 45996
L14400 45996
L14357 46010
L14342 46025
" />
<path d="M14228 46025
L14214 46010
L14185 45996
L14114 45996
L14085 46010
L14071 46025
L14057 46053
L14057 46082
L14071 46125
L14242 46296
L14057 46296
" />
<path d="M13800 45996
L13857 45996
L13885 46010
L13900 46025
L13928 46067
L13942 46125
L13942 46239
L13928 46267
L13914 46282
L13885 46296
L13828 46296
L13800 46282
L13785 46267
L13771 46239
L13771 46167
L13785 46139
L13800 46125
L13828 46110
L13885 46110
L13914 46125
L13928 46139
L13942 46167
" />
<path d="M50167 46242
L50182 46257
L50225 46271
L50253 46271
L50296 46257
L50325 46228
L50339 46200
L50353 46142
L50353 46100
L50339 46042
L50325 46014
L50296 45985
L50253 45971
L50225 45971
L50182 45985
L50167 46000
" />
<path d="M50053 46000
L50039 45985
L50010 45971
L49939 45971
L49910 45985
L49896 46000
L49882 46028
L49882 46057
L49896 46100
L50067 46271
L49882 46271
" />
<path d="M49610 45971
L49753 45971
L49767 46114
L49753 46100
L49725 46085
L49653 46085
L49625 46100
L49610 46114
L49596 46142
L49596 46214
L49610 46242
L49625 46257
L49653 46271
L49725 46271
L49753 46257
L49767 46242
" />
<path d="M48103 39396
L48103 39639
L48089 39667
L48075 39682
L48046 39696
L47989 39696
L47960 39682
L47946 39667
L47932 39639
L47932 39396
" />
<path d="M47632 39696
L47803 39696
" />
<path d="M47717 39696
L47717 39396
L47746 39439
L47775 39467
L47803 39482
" />
<path d="M47575 39725
L47346 39725
" />
<path d="M47289 39610
L47146 39610
" />
<path d="M47317 39696
L47217 39396
L47117 39696
" />
<path d="M46975 39696
L47003 39682
L47017 39653
L47017 39396
" />
<path d="M46903 39496
L46789 39496
" />
<path d="M46860 39396
L46860 39653
L46846 39682
L46817 39696
L46789 39696
" />
<path d="M46532 39696
L46703 39696
" />
<path d="M46617 39696
L46617 39396
L46646 39439
L46675 39467
L46703 39482
" />
<path d="M47174 31407
L47132 31421
L47060 31421
L47032 31407
L47017 31392
L47003 31364
L47003 31335
L47017 31307
L47032 31292
L47060 31278
L47117 31264
L47146 31250
L47160 31235
L47174 31207
L47174 31178
L47160 31150
L47146 31135
L47117 31121
L47046 31121
L47003 31135
" />
<path d="M46732 31421
L46874 31421
L46874 31121
" />
<path d="M46475 31421
L46646 31421
" />
<path d="M46560 31421
L46560 31121
L46589 31164
L46617 31192
L46646 31207
" />
<path d="M46374 30614
L46274 30614
" />
<path d="M46232 30771
L46374 30771
L46374 30471
L46232 30471
" />
<path d="M46103 30771
L46103 30471
L45932 30771
L45932 30471
" />
<path d="M45860 30800
L45632 30800
" />
<path d="M45389 30771
L45489 30628
" />
<path d="M45560 30771
L45560 30471
L45446 30471
L45417 30485
L45403 30500
L45389 30528
L45389 30571
L45403 30600
L45417 30614
L45446 30628
L45560 30628
" />
<path d="M45303 30471
L45132 30471
" />
<path d="M45217 30771
L45217 30471
" />
<path d="M44860 30742
L44875 30757
L44917 30771
L44946 30771
L44989 30757
L45017 30728
L45032 30700
L45046 30642
L45046 30600
L45032 30542
L45017 30514
L44989 30485
L44946 30471
L44917 30471
L44875 30485
L44860 30500
" />
</g> 
</svg>
