M48
INCH,TZ
T1C0.012
T2C0.025
T3C0.035
T4C0.040
T5C0.046
T6C0.055
T7C0.060
T8C0.063
T9C0.080
T10C0.120
%
G90
G05
T1
X016428Y-017208
X016428Y-017542
X016625Y-017375
X016822Y-017208
X016822Y-017542
T2
X015850Y-038350
X016709Y-037678
X017150Y-041375
X017900Y-041900
X017929Y-037796
X018500Y-013600
X019250Y-018225
X020685Y-039489
X023450Y-039450
X024882Y-034606
X025606Y-039174
X026400Y-040900
X030000Y-034764
X030709Y-034764
X031425Y-029250
X032559Y-039016
X033362Y-040001
X033441Y-039568
X034724Y-039764
X034898Y-040946
X035250Y-038025
X035650Y-038500
X035650Y-038950
X036551Y-039292
X038047Y-040198
X038047Y-041654
X038913Y-042402
X039370Y-041890
X039700Y-037225
X039843Y-041378
X041000Y-040900
X042825Y-046050
X042850Y-037363
X043126Y-040906
X043126Y-041379
X043126Y-042402
X043323Y-039331
X043520Y-042796
X043825Y-046025
X043835Y-037009
X044825Y-046050
X045764Y-041536
X046197Y-033308
X048205Y-043898
X048756Y-037835
X049465Y-035080
X049858Y-034843
X051079Y-036812
T3
X051234Y-039653
X051234Y-042802
T4
X011450Y-039150
X011450Y-040150
X011450Y-041150
X011450Y-042150
X011450Y-043150
X011450Y-044150
X013500Y-045250
X014500Y-045250
X015500Y-045250
X015500Y-047900
X016114Y-031270
X016114Y-033830
X016500Y-047900
X017850Y-042900
X017850Y-045900
X017886Y-031270
X017886Y-033830
X018850Y-042900
X018850Y-045900
X019220Y-028164
X019220Y-029936
X019220Y-031664
X019220Y-033436
X019220Y-035164
X019220Y-036936
X019500Y-026800
X019850Y-042900
X019850Y-045900
X020500Y-026800
X020850Y-042900
X020850Y-045900
X021500Y-026800
X021500Y-047900
X021780Y-028164
X021780Y-029936
X021780Y-031664
X021780Y-033436
X021780Y-035164
X021780Y-036936
X022225Y-043475
X022225Y-044475
X022225Y-045475
X022500Y-047900
X023114Y-031270
X023114Y-033830
X023225Y-043475
X023225Y-044475
X023225Y-045475
X023500Y-026800
X024225Y-043475
X024225Y-044475
X024225Y-045475
X024500Y-026800
X024886Y-031270
X024886Y-033830
X025225Y-043475
X025225Y-044475
X025225Y-045475
X025500Y-026800
X026500Y-026800
X026500Y-047900
X026550Y-034300
X027225Y-043475
X027225Y-044475
X027225Y-045475
X027500Y-026800
X027500Y-047900
X027550Y-034300
X028225Y-043475
X028225Y-044475
X028225Y-045475
X028500Y-026800
X028500Y-047900
X028550Y-034300
X029225Y-043475
X029225Y-044475
X029225Y-045475
X029500Y-047900
X030000Y-026800
X030000Y-027800
X030225Y-043475
X030225Y-044475
X030225Y-045475
X030500Y-047900
X031000Y-026800
X031000Y-027800
X031500Y-047900
X032000Y-026800
X032000Y-027800
X032500Y-047900
X033114Y-033870
X033114Y-036430
X033500Y-047900
X034500Y-047900
X034886Y-033870
X034886Y-036430
X035500Y-047900
X036500Y-047900
X036700Y-026800
X036700Y-029800
X036700Y-031800
X036700Y-032800
X036700Y-033800
X037500Y-047900
X037700Y-026800
X037700Y-029800
X038500Y-047900
X038700Y-026800
X038700Y-029800
X039500Y-047900
X039700Y-026800
X039700Y-029800
X040500Y-047900
X041500Y-047900
X041720Y-031300
X043000Y-029331
X043000Y-030316
X043000Y-031300
X043000Y-032284
X043000Y-033269
X044280Y-031300
X045500Y-047900
X046500Y-047900
X051500Y-047900
X052500Y-047900
T6
X012500Y-011200
X014500Y-011200
X016500Y-011200
X018500Y-011200
T7
X011650Y-017700
X011650Y-019700
X014500Y-022350
X014500Y-026950
X016500Y-022350
X016500Y-026950
T8
X013181Y-041650
X015543Y-041650
T9
X046550Y-029300
X054850Y-029300
T10
X011500Y-022500
X011500Y-026800
X011500Y-047800
X013000Y-036900
X019500Y-022500
X031000Y-036900
X034000Y-028300
X034000Y-046300
X037000Y-036900
X055000Y-036900
X056500Y-026800
X056500Y-047800
T4
X013806Y-016479G85X014606Y-016479
G05
T5
X013025Y-014080G85X013025Y-015020
G05
X015387Y-013980G85X015387Y-015120
G05
T0
M30
