<?xml version="1.0" encoding="UTF-8" standalone="no"?>
<!-- Created with Inkscape (http://www.inkscape.org/) -->

<svg
   xmlns:dc="http://purl.org/dc/elements/1.1/"
   xmlns:cc="http://creativecommons.org/ns#"
   xmlns:rdf="http://www.w3.org/1999/02/22-rdf-syntax-ns#"
   xmlns:svg="http://www.w3.org/2000/svg"
   xmlns="http://www.w3.org/2000/svg"
   xmlns:sodipodi="http://sodipodi.sourceforge.net/DTD/sodipodi-0.dtd"
   xmlns:inkscape="http://www.inkscape.org/namespaces/inkscape"
   width="2250"
   height="1080"
   id="svg2"
   version="1.1"
   inkscape:version="0.48.3.1 r9886"
   sodipodi:docname="TiM_20x6.svg">
  <defs
     id="defs4" />
  <sodipodi:namedview
     id="base"
     pagecolor="#ffffff"
     bordercolor="#666666"
     borderopacity="1.0"
     inkscape:pageopacity="0.0"
     inkscape:pageshadow="2"
     inkscape:zoom="0.39375953"
     inkscape:cx="1171.9796"
     inkscape:cy="536.89293"
     inkscape:document-units="px"
     inkscape:current-layer="layer1"
     showgrid="false"
     inkscape:window-width="1600"
     inkscape:window-height="876"
     inkscape:window-x="0"
     inkscape:window-y="24"
     inkscape:window-maximized="1"
     units="in" />
  <metadata
     id="metadata7">
    <rdf:RDF>
      <cc:Work
         rdf:about="">
        <dc:format>image/svg+xml</dc:format>
        <dc:type
           rdf:resource="http://purl.org/dc/dcmitype/StillImage" />
        <dc:title />
      </cc:Work>
    </rdf:RDF>
  </metadata>
  <g
     inkscape:label="Layer 1"
     inkscape:groupmode="layer"
     id="layer1"
     transform="translate(0,27.639995)">
    <rect
       style="fill:none;stroke:#000000;stroke-width:0.75739378;stroke-miterlimit:4;stroke-opacity:1;stroke-dasharray:none"
       id="rect3807"
       width="1799.2426"
       height="611.24261"
       x="0.37869689"
       y="438.19907"
       ry="0.061685175" />
    <g
       id="g3053"
       transform="translate(0,-65.135046)">
      <g
         transform="translate(1.3944154e-5,80.061294)"
         id="g3027">
        <path
           sodipodi:type="arc"
           style="fill:none;stroke:#000000;stroke-width:4.65728426;stroke-miterlimit:4;stroke-opacity:1;stroke-dasharray:none"
           id="path2985"
           sodipodi:cx="380"
           sodipodi:cy="1491.8672"
           sodipodi:rx="24.285715"
           sodipodi:ry="24.285715"
           d="m 404.28572,1491.8672 c 0,13.4126 -10.87309,24.2857 -24.28572,24.2857 -13.41263,0 -24.28572,-10.8731 -24.28572,-24.2857 0,-13.4126 10.87309,-24.2857 24.28572,-24.2857 13.41263,0 24.28572,10.8731 24.28572,24.2857 z"
           transform="matrix(0.21471671,0,0,0.2147181,61.41952,597.56324)" />
        <path
           transform="matrix(0.21471671,0,0,0.2147181,710.26645,597.56324)"
           d="m 404.28572,1491.8672 c 0,13.4126 -10.87309,24.2857 -24.28572,24.2857 -13.41263,0 -24.28572,-10.8731 -24.28572,-24.2857 0,-13.4126 10.87309,-24.2857 24.28572,-24.2857 13.41263,0 24.28572,10.8731 24.28572,24.2857 z"
           sodipodi:ry="24.285715"
           sodipodi:rx="24.285715"
           sodipodi:cy="1491.8672"
           sodipodi:cx="380"
           id="path3755"
           style="fill:none;stroke:#000000;stroke-width:4.65728426;stroke-miterlimit:4;stroke-opacity:1;stroke-dasharray:none"
           sodipodi:type="arc" />
        <path
           sodipodi:type="arc"
           style="fill:none;stroke:#000000;stroke-width:4.65728426;stroke-miterlimit:4;stroke-opacity:1;stroke-dasharray:none"
           id="path3757"
           sodipodi:cx="380"
           sodipodi:cy="1491.8672"
           sodipodi:rx="24.285715"
           sodipodi:ry="24.285715"
           d="m 404.28572,1491.8672 c 0,13.4126 -10.87309,24.2857 -24.28572,24.2857 -13.41263,0 -24.28572,-10.8731 -24.28572,-24.2857 0,-13.4126 10.87309,-24.2857 24.28572,-24.2857 13.41263,0 24.28572,10.8731 24.28572,24.2857 z"
           transform="matrix(0.21471671,0,0,0.2147181,926.54876,597.56324)" />
        <path
           transform="matrix(0.21471671,0,0,0.2147181,1575.3957,597.56324)"
           d="m 404.28572,1491.8672 c 0,13.4126 -10.87309,24.2857 -24.28572,24.2857 -13.41263,0 -24.28572,-10.8731 -24.28572,-24.2857 0,-13.4126 10.87309,-24.2857 24.28572,-24.2857 13.41263,0 24.28572,10.8731 24.28572,24.2857 z"
           sodipodi:ry="24.285715"
           sodipodi:rx="24.285715"
           sodipodi:cy="1491.8672"
           sodipodi:cx="380"
           id="path3759"
           style="fill:none;stroke:#000000;stroke-width:4.65728426;stroke-miterlimit:4;stroke-opacity:1;stroke-dasharray:none"
           sodipodi:type="arc" />
      </g>
      <g
         id="g3043"
         transform="translate(1.3944154e-5,-297.93871)">
        <path
           transform="matrix(0.21471671,0,0,0.2147181,61.41952,597.56324)"
           d="m 404.28572,1491.8672 c 0,13.4126 -10.87309,24.2857 -24.28572,24.2857 -13.41263,0 -24.28572,-10.8731 -24.28572,-24.2857 0,-13.4126 10.87309,-24.2857 24.28572,-24.2857 13.41263,0 24.28572,10.8731 24.28572,24.2857 z"
           sodipodi:ry="24.285715"
           sodipodi:rx="24.285715"
           sodipodi:cy="1491.8672"
           sodipodi:cx="380"
           id="path3045"
           style="fill:none;stroke:#000000;stroke-width:4.65728426;stroke-miterlimit:4;stroke-opacity:1;stroke-dasharray:none"
           sodipodi:type="arc" />
        <path
           sodipodi:type="arc"
           style="fill:none;stroke:#000000;stroke-width:4.65728426;stroke-miterlimit:4;stroke-opacity:1;stroke-dasharray:none"
           id="path3047"
           sodipodi:cx="380"
           sodipodi:cy="1491.8672"
           sodipodi:rx="24.285715"
           sodipodi:ry="24.285715"
           d="m 404.28572,1491.8672 c 0,13.4126 -10.87309,24.2857 -24.28572,24.2857 -13.41263,0 -24.28572,-10.8731 -24.28572,-24.2857 0,-13.4126 10.87309,-24.2857 24.28572,-24.2857 13.41263,0 24.28572,10.8731 24.28572,24.2857 z"
           transform="matrix(0.21471671,0,0,0.2147181,710.26645,597.56324)" />
        <path
           transform="matrix(0.21471671,0,0,0.2147181,926.54876,597.56324)"
           d="m 404.28572,1491.8672 c 0,13.4126 -10.87309,24.2857 -24.28572,24.2857 -13.41263,0 -24.28572,-10.8731 -24.28572,-24.2857 0,-13.4126 10.87309,-24.2857 24.28572,-24.2857 13.41263,0 24.28572,10.8731 24.28572,24.2857 z"
           sodipodi:ry="24.285715"
           sodipodi:rx="24.285715"
           sodipodi:cy="1491.8672"
           sodipodi:cx="380"
           id="path3049"
           style="fill:none;stroke:#000000;stroke-width:4.65728426;stroke-miterlimit:4;stroke-opacity:1;stroke-dasharray:none"
           sodipodi:type="arc" />
        <path
           sodipodi:type="arc"
           style="fill:none;stroke:#000000;stroke-width:4.65728426;stroke-miterlimit:4;stroke-opacity:1;stroke-dasharray:none"
           id="path3051"
           sodipodi:cx="380"
           sodipodi:cy="1491.8672"
           sodipodi:rx="24.285715"
           sodipodi:ry="24.285715"
           d="m 404.28572,1491.8672 c 0,13.4126 -10.87309,24.2857 -24.28572,24.2857 -13.41263,0 -24.28572,-10.8731 -24.28572,-24.2857 0,-13.4126 10.87309,-24.2857 24.28572,-24.2857 13.41263,0 24.28572,10.8731 24.28572,24.2857 z"
           transform="matrix(0.21471671,0,0,0.2147181,1575.3957,597.56324)" />
      </g>
    </g>
  </g>
</svg>
